<?xml version="1.0" encoding="utf-8"?>
<!-- Generator: Adobe Illustrator 20.1.0, SVG Export Plug-In . SVG Version: 6.00 Build 0)  -->
<svg version="1.1" id="圖層_1" xmlns="http://www.w3.org/2000/svg" xmlns:xlink="http://www.w3.org/1999/xlink" x="0px" y="0px"
	 viewBox="0 0 21 14" style="enable-background:new 0 0 21 14;" xml:space="preserve">
<style type="text/css">
	.st0{fill:#FFFFFF;}
</style>
<g>
	<path class="st0" d="M10.6,7.5c0.3,0,0.6-0.1,0.8-0.4l8.8-6.9c-0.1,0-0.2-0.1-0.4-0.1H1.3c-0.1,0-0.3,0-0.4,0.1l8.9,7
		C10.1,7.5,10.3,7.5,10.6,7.5z"/>
	<path class="st0" d="M12,7.8c-0.3,0.3-0.8,0.5-1.3,0.6c0,0-0.1,0-0.1,0c-0.5,0-0.9-0.2-1.3-0.5l-9-7C0.2,1,0.2,1.1,0.2,1.3v11.6
		c0,0.6,0.5,1.1,1.1,1.1h18.6c0.6,0,1.1-0.5,1.1-1.1V1.3c0-0.2,0-0.3-0.1-0.5L12,7.8z"/>
</g>
<g>
	<path class="st0" d="M10.6,7.5c0.3,0,0.6-0.1,0.8-0.4l8.8-6.9c-0.1,0-0.2-0.1-0.4-0.1H1.3c-0.1,0-0.3,0-0.4,0.1l8.9,7
		C10.1,7.5,10.3,7.5,10.6,7.5z"/>
	<path class="st0" d="M12,7.8c-0.3,0.3-0.8,0.5-1.3,0.6c0,0-0.1,0-0.1,0c-0.5,0-0.9-0.2-1.3-0.5l-9-7C0.2,1,0.2,1.1,0.2,1.3v11.6
		c0,0.6,0.5,1.1,1.1,1.1h18.6c0.6,0,1.1-0.5,1.1-1.1V1.3c0-0.2,0-0.3-0.1-0.5L12,7.8z"/>
</g>
</svg>
