<?xml version="1.0" encoding="utf-8"?>
<!-- Generator: Adobe Illustrator 20.1.0, SVG Export Plug-In . SVG Version: 6.00 Build 0)  -->
<svg version="1.1" id="圖層_1" xmlns="http://www.w3.org/2000/svg" xmlns:xlink="http://www.w3.org/1999/xlink" x="0px" y="0px"
	 viewBox="0 0 1775.9 591.8" style="enable-background:new 0 0 1775.9 591.8;" xml:space="preserve">
<style type="text/css">
	.st0{fill:#F9F4B4;}
	.st1{fill:#C79F62;}
	.st2{filter:url(#Adobe_OpacityMaskFilter);}
	.st3{fill:url(#SVGID_2_);}
	.st4{mask:url(#SVGID_1_);}
	.st5{fill:#9CC838;}
	.st6{fill:#DADF00;}
	.st7{filter:url(#Adobe_OpacityMaskFilter_1_);}
	.st8{fill:url(#SVGID_4_);}
	.st9{mask:url(#SVGID_3_);}
	.st10{fill:#B4D24C;}
</style>
<g>
	<g>
		<circle class="st0" cx="374" cy="194.4" r="53.8"/>
		<path class="st0" d="M372.9,145.9c0-47.5,0-94.9,0-142.4c0-0.9,0-1.9,0-2.8c0-1.1,2.2-0.8,2.2,0.2c0,47.5,0,94.9,0,142.4
			c0,0.9,0,1.9,0,2.8C375.1,147.3,372.9,146.9,372.9,145.9L372.9,145.9z"/>
		<path class="st0" d="M385.4,147.4c12.3-45.9,24.6-91.7,36.9-137.6c0.2-0.9,0.5-1.8,0.7-2.7c0.3-1,2.4-0.4,2.2,0.6
			c-12.3,45.9-24.6,91.7-36.9,137.6c-0.2,0.9-0.5,1.8-0.7,2.7C387.3,148.9,385.2,148.3,385.4,147.4L385.4,147.4z"/>
		<path class="st0" d="M397.2,152.1c23.7-41.1,47.5-82.2,71.2-123.3c0.5-0.8,0.9-1.6,1.4-2.4c0.4-0.7,2.5,0,2,0.9
			c-23.7,41.1-47.5,82.2-71.2,123.3c-0.5,0.8-0.9,1.6-1.4,2.4C398.8,153.7,396.7,152.9,397.2,152.1L397.2,152.1z"/>
		<path class="st0" d="M407.2,159.7c33.6-33.6,67.1-67.1,100.7-100.7c0.7-0.7,1.3-1.3,2-2c0.7-0.7,2.8,0.2,2,1
			c-33.6,33.6-67.1,67.1-100.7,100.7c-0.7,0.7-1.3,1.3-2,2C408.5,161.4,406.4,160.5,407.2,159.7L407.2,159.7z"/>
		<path class="st0" d="M415,169.7c41.1-23.7,82.2-47.5,123.3-71.2c0.8-0.5,1.6-0.9,2.4-1.4c0.6-0.4,2.6,0.5,1.7,1.1
			c-41.1,23.7-82.2,47.5-123.3,71.2c-0.8,0.5-1.6,0.9-2.4,1.4C416.1,171.1,414.1,170.2,415,169.7L415,169.7z"/>
		<path class="st0" d="M420,181.3c45.9-12.3,91.7-24.6,137.6-36.9c0.9-0.2,1.8-0.5,2.7-0.7c0.6-0.2,2.5,0.8,1.4,1.1
			c-45.9,12.3-91.7,24.6-137.6,36.9c-0.9,0.2-1.8,0.5-2.7,0.7C420.8,182.6,418.8,181.6,420,181.3L420,181.3z"/>
		<path class="st0" d="M421.9,193.9c47.5,0,94.9,0,142.4,0c0.9,0,1.9,0,2.8,0c0.7,0,2.4,1.1,0.9,1.1c-47.5,0-94.9,0-142.4,0
			c-0.9,0-1.9,0-2.8,0C422.1,194.9,420.4,193.9,421.9,193.9L421.9,193.9z"/>
		<path class="st0" d="M420.8,206.4c45.9,12.3,91.7,24.6,137.6,36.9c0.9,0.2,1.8,0.5,2.7,0.7c1.3,0.3,1,1.4-0.3,1
			c-45.9-12.3-91.7-24.6-137.6-36.9c-0.9-0.2-1.8-0.5-2.7-0.7C419.3,207.1,419.5,206,420.8,206.4L420.8,206.4z"/>
		<path class="st0" d="M416.3,218c41.1,23.7,82.2,47.5,123.3,71.2c0.8,0.5,1.6,0.9,2.4,1.4c1.3,0.7,0.1,1.8-0.9,1.2
			c-41.1-23.7-82.2-47.5-123.3-71.2c-0.8-0.5-1.6-0.9-2.4-1.4C414.1,218.4,415.3,217.4,416.3,218L416.3,218z"/>
		<path class="st0" d="M409.1,228.4c33.6,33.6,67.1,67.1,100.7,100.7c0.7,0.7,1.3,1.3,2,2c0.9,0.9-1.2,1-1.8,0.4
			c-33.6-33.6-67.1-67.1-100.7-100.7c-0.7-0.7-1.3-1.3-2-2C406.4,227.9,408.5,227.8,409.1,228.4L409.1,228.4z"/>
		<path class="st0" d="M399.2,236.2c23.7,41.1,47.5,82.2,71.2,123.3c0.5,0.8,0.9,1.6,1.4,2.4c0.5,0.9-1.7,0.7-2,0.1
			c-23.7-41.1-47.5-82.2-71.2-123.3c-0.5-0.8-0.9-1.6-1.4-2.4C396.6,235.4,398.8,235.6,399.2,236.2L399.2,236.2z"/>
		<path class="st0" d="M387.6,241.2c12.3,45.9,24.6,91.7,36.9,137.6c0.2,0.9,0.5,1.8,0.7,2.7c0.3,1-2,0.7-2.2-0.2
			c-12.3-45.9-24.6-91.7-36.9-137.6c-0.2-0.9-0.5-1.8-0.7-2.7C385.2,240,387.4,240.3,387.6,241.2L387.6,241.2z"/>
		<path class="st0" d="M375.1,242.8c0,47.5,0,94.9,0,142.4c0,0.9,0,1.9,0,2.8c0,1-2.2,0.6-2.2-0.2c0-47.5,0-94.9,0-142.4
			c0-0.9,0-1.9,0-2.8C372.9,241.6,375.1,242,375.1,242.8L375.1,242.8z"/>
		<path class="st0" d="M362.6,241.4c-12.3,45.9-24.6,91.7-36.9,137.6c-0.2,0.9-0.5,1.8-0.7,2.7c-0.2,0.9-2.4,0.3-2.2-0.6
			c12.3-45.9,24.6-91.7,36.9-137.6c0.2-0.9,0.5-1.8,0.7-2.7C360.6,239.9,362.8,240.5,362.6,241.4L362.6,241.4z"/>
		<path class="st0" d="M350.8,236.7c-23.7,41.1-47.5,82.2-71.2,123.3c-0.5,0.8-0.9,1.6-1.4,2.4c-0.4,0.7-2.5,0-2-0.9
			c23.7-41.1,47.5-82.2,71.2-123.3c0.5-0.8,0.9-1.6,1.4-2.4C349.2,235.1,351.3,235.8,350.8,236.7L350.8,236.7z"/>
		<path class="st0" d="M340.8,229c-33.6,33.6-67.1,67.1-100.7,100.7c-0.7,0.7-1.3,1.3-2,2c-0.5,0.5-2.5-0.3-2-0.8
			c33.6-33.6,67.1-67.1,100.7-100.7c0.7-0.7,1.3-1.3,2-2C339.3,227.7,341.3,228.5,340.8,229L340.8,229z"/>
		<path class="st0" d="M333,219.1c-41.1,23.7-82.2,47.5-123.3,71.2c-0.8,0.5-1.6,0.9-2.4,1.4c-0.7,0.4-2.7-0.6-1.7-1.2
			c41.1-23.7,82.2-47.5,123.3-71.2c0.8-0.5,1.6-0.9,2.4-1.4C332,217.6,334,218.6,333,219.1L333,219.1z"/>
		<path class="st0" d="M328.2,207.3c-45.9,12.3-91.7,24.6-137.6,36.9c-0.9,0.2-1.8,0.5-2.7,0.7c-0.5,0.1-2.5-0.7-1.8-0.9
			c45.9-12.3,91.7-24.6,137.6-36.9c0.9-0.2,1.8-0.5,2.7-0.7C326.9,206.3,328.9,207.2,328.2,207.3L328.2,207.3z"/>
		<path class="st0" d="M326.1,194.9c-47.5,0-94.9,0-142.4,0c-0.9,0-1.9,0-2.8,0c-0.6,0-2.4-0.9-0.9-0.9c47.5,0,94.9,0,142.4,0
			c0.9,0,1.9,0,2.8,0C325.8,193.9,327.6,194.9,326.1,194.9L326.1,194.9z"/>
		<path class="st0" d="M327.1,182.4c-45.9-12.3-91.7-24.6-137.6-36.9c-0.9-0.2-1.8-0.5-2.7-0.7c-1.3-0.4-1-1.5,0.3-1.2
			c45.9,12.3,91.7,24.6,137.6,36.9c0.9,0.2,1.8,0.5,2.7,0.7C328.8,181.6,328.4,182.8,327.1,182.4L327.1,182.4z"/>
		<path class="st0" d="M331.5,170.4c-41.1-23.7-82.2-47.5-123.3-71.2c-0.8-0.5-1.6-0.9-2.4-1.4c-1.3-0.7,0.7-0.8,1.3-0.5
			c41.1,23.7,82.2,47.5,123.3,71.2c0.8,0.5,1.6,0.9,2.4,1.4C334,170.7,332.1,170.8,331.5,170.4L331.5,170.4z"/>
		<path class="st0" d="M338.9,160.4c-33.6-33.6-67.1-67.1-100.7-100.7c-0.7-0.7-1.3-1.3-2-2c-0.9-0.9,1.2-1,1.8-0.5
			c33.6,33.6,67.1,67.1,100.7,100.7c0.7,0.7,1.3,1.3,2,2C341.6,160.9,339.5,161,338.9,160.4L338.9,160.4z"/>
		<path class="st0" d="M348.8,152.3C325,111.2,301.3,70.1,277.5,29c-0.5-0.8-0.9-1.6-1.4-2.4c-0.1-0.2,1.8-0.1,2.1,0.4
			c23.7,41.1,47.5,82.2,71.2,123.3c0.5,0.8,0.9,1.6,1.4,2.4C351,152.9,349.1,152.8,348.8,152.3L348.8,152.3z"/>
		<path class="st0" d="M360.4,147.5c-12.3-45.9-24.6-91.7-36.9-137.6c-0.2-0.9-0.5-1.8-0.7-2.7c-0.1-0.4,2-0.1,2.1,0.4
			c12.3,45.9,24.6,91.7,36.9,137.6c0.2,0.9,0.5,1.8,0.7,2.7C362.6,148.2,360.5,148,360.4,147.5L360.4,147.5z"/>
	</g>
	<g>
		<g>
			<path class="st1" d="M397,217.5c-7.6,2.3-16.6,1.4-24.3,0.2c-9.2-1.4-20.2-4.4-26.8-11.6c-0.3-0.4-1.7,0.2-1.3,0.6
				c7.1,7.8,19,10.5,28.9,12c7.5,1.1,16.3,1.7,23.7-0.5C398,218,397.8,217.3,397,217.5L397,217.5z"/>
		</g>
	</g>
	<path class="st1" d="M402.1,191.8c-3.5-1.9-3.8,1.1-0.8,3.4c3,2.3,5.3,1.2,4.6-0.8C405.2,192.3,402.1,191.8,402.1,191.8z"/>
	<path class="st1" d="M350.4,181.3c4,0.1,2.8,2.8-1,3.3c-3.8,0.5-5.2-1.6-3.5-3C347.5,180.2,350.4,181.3,350.4,181.3z"/>
</g>
<defs>
	<filter id="Adobe_OpacityMaskFilter" filterUnits="userSpaceOnUse" x="0" y="195.5" width="800.1" height="393.4">
		<feColorMatrix  type="matrix" values="1 0 0 0 0  0 1 0 0 0  0 0 1 0 0  0 0 0 1 0"/>
	</filter>
</defs>
<mask maskUnits="userSpaceOnUse" x="0" y="195.5" width="800.1" height="393.4" id="SVGID_1_">
	<g class="st2">
		<linearGradient id="SVGID_2_" gradientUnits="userSpaceOnUse" x1="388.4278" y1="333.7847" x2="388.4278" y2="651.8564">
			<stop  offset="0" style="stop-color:#FFFFFF"/>
			<stop  offset="1" style="stop-color:#000000"/>
		</linearGradient>
		<rect x="-27.1" y="180.8" class="st3" width="831" height="472.5"/>
	</g>
</mask>
<g class="st4">
	<path class="st5" d="M0,588.9l800.1-1.1c0,0-268.2-122.9-351.1-264.9C366,180.9,324,189.2,286,202c-38,12.9-130,220.9-196,270.9
		S0,588.9,0,588.9z"/>
	<g>
		<path class="st6" d="M470.8,449.6c0.8-0.3,1.4,3.9,2.6,4.9c1.3,1.1-1,5.4-1.9,1.9C470.7,452.9,470.1,449.8,470.8,449.6z"/>
		<path class="st6" d="M477,447.3c0-1.1,2.2-0.6,2.1,1.3s1.1,7,0,7.8c-1.1,0.8-2.3,1.5-2.6-0.9C476.3,453,476.9,449.5,477,447.3z"/>
		<path class="st6" d="M485.3,449.6c1.1-0.4,0.4,1.3,0.3,4.4c-0.1,3-1.9,3.2-2.6,3.1c-0.7-0.1-0.8-0.2,0.6-3
			C485,451.2,485,449.7,485.3,449.6z"/>
		<path class="st6" d="M490.3,451.3c0.8-0.5-1.4,4.9-3,5.6c-1.6,0.7-0.6-0.7,0.4-2.3C488.6,453,490.3,451.3,490.3,451.3z"/>
	</g>
	<g>
		<path class="st6" d="M390.4,528.9c0.8-0.3,1.4,3.9,2.6,4.9c1.3,1.1-1,5.4-1.9,1.9C390.3,532.2,389.7,529.1,390.4,528.9z"/>
		<path class="st6" d="M396.5,526.5c0-1.1,2.2-0.6,2.1,1.3c-0.2,1.9,1.1,7,0,7.8c-1.1,0.8-2.3,1.5-2.6-0.9
			C395.8,532.2,396.5,528.7,396.5,526.5z"/>
		<path class="st6" d="M404.9,528.9c1.1-0.4,0.4,1.3,0.3,4.4c-0.1,3-1.9,3.2-2.6,3.1c-0.7-0.1-0.8-0.2,0.6-3
			C404.5,530.4,404.5,529,404.9,528.9z"/>
		<path class="st6" d="M409.8,530.5c0.8-0.5-1.4,4.9-3,5.6c-1.6,0.7-0.6-0.7,0.4-2.3C408.2,532.2,409.8,530.5,409.8,530.5z"/>
	</g>
	<g>
		<path class="st6" d="M335.9,482.5c0.8-0.3,1.4,3.9,2.6,4.9c1.3,1.1-1,5.4-1.9,1.9C335.7,485.8,335.2,482.7,335.9,482.5z"/>
		<path class="st6" d="M342,480.1c0-1.1,2.2-0.6,2.1,1.3c-0.2,1.9,1.1,7,0,7.8c-1.1,0.8-2.3,1.5-2.6-0.9
			C341.3,485.8,341.9,482.4,342,480.1z"/>
		<path class="st6" d="M350.3,482.5c1.1-0.4,0.4,1.3,0.3,4.4c-0.1,3-1.9,3.2-2.6,3.1c-0.7-0.1-0.8-0.2,0.6-3
			C350,484,350,482.6,350.3,482.5z"/>
		<path class="st6" d="M355.3,484.2c0.8-0.5-1.4,4.9-3,5.6c-1.6,0.7-0.6-0.7,0.4-2.3C353.7,485.9,355.3,484.2,355.3,484.2z"/>
	</g>
	<g>
		<path class="st6" d="M100.8,516.6c0.8-0.3,1.4,3.9,2.6,4.9c1.3,1.1-1,5.4-1.9,1.9C100.6,519.9,100.1,516.8,100.8,516.6z"/>
		<path class="st6" d="M106.9,514.2c0-1.1,2.2-0.6,2.1,1.3c-0.2,1.9,1.1,7,0,7.8c-1.1,0.8-2.3,1.5-2.6-0.9
			C106.2,520,106.8,516.5,106.9,514.2z"/>
		<path class="st6" d="M115.2,516.6c1.1-0.4,0.4,1.3,0.3,4.4c-0.1,3-1.9,3.2-2.6,3.1c-0.7-0.1-0.8-0.2,0.6-3
			C114.9,518.1,114.9,516.7,115.2,516.6z"/>
		<path class="st6" d="M120.2,518.3c0.8-0.5-1.4,4.9-3,5.6c-1.6,0.7-0.6-0.7,0.4-2.3C118.6,520,120.2,518.3,120.2,518.3z"/>
	</g>
	<g>
		<path class="st6" d="M182.9,405.9c0.8-0.3,1.4,3.9,2.6,4.9c1.3,1.1-1,5.4-1.9,1.9C182.8,409.2,182.2,406.2,182.9,405.9z"/>
		<path class="st6" d="M189,403.6c0-1.1,2.2-0.6,2.1,1.3c-0.2,1.9,1.1,7,0,7.8c-1.1,0.8-2.3,1.5-2.6-0.9
			C188.3,409.3,189,405.8,189,403.6z"/>
		<path class="st6" d="M197.4,406c1.1-0.4,0.4,1.3,0.3,4.4c-0.1,3-1.9,3.2-2.6,3.1c-0.7-0.1-0.8-0.2,0.6-3
			C197,407.5,197.1,406.1,197.4,406z"/>
		<path class="st6" d="M202.3,407.6c0.8-0.5-1.4,4.9-3,5.6c-1.6,0.7-0.6-0.7,0.4-2.3C200.7,409.3,202.3,407.6,202.3,407.6z"/>
	</g>
	<g>
		<path class="st6" d="M345.8,299.1c0.8-0.3,1.4,3.9,2.6,4.9c1.3,1.1-1,5.4-1.9,1.9C345.7,302.4,345.1,299.4,345.8,299.1z"/>
		<path class="st6" d="M352,296.8c0-1.1,2.2-0.6,2.1,1.3s1.1,7,0,7.8c-1.1,0.8-2.3,1.5-2.6-0.9C351.2,302.5,351.9,299,352,296.8z"/>
		<path class="st6" d="M360.3,299.2c1.1-0.4,0.4,1.3,0.3,4.4c-0.1,3-1.9,3.2-2.6,3.1c-0.7-0.1-0.8-0.2,0.6-3
			C359.9,300.7,360,299.3,360.3,299.2z"/>
		<path class="st6" d="M365.2,300.8c0.8-0.5-1.4,4.9-3,5.6c-1.6,0.7-0.6-0.7,0.4-2.3C363.6,302.5,365.2,300.8,365.2,300.8z"/>
	</g>
	<g>
		<path class="st6" d="M278.7,220.5c0.8-0.3,1.4,3.9,2.6,4.9c1.3,1.1-1,5.4-1.9,1.9C278.6,223.8,278,220.8,278.7,220.5z"/>
		<path class="st6" d="M284.9,218.2c0-1.1,2.2-0.6,2.1,1.3c-0.2,1.9,1.1,7,0,7.8c-1.1,0.8-2.3,1.5-2.6-0.9
			C284.2,223.9,284.8,220.4,284.9,218.2z"/>
		<path class="st6" d="M293.2,220.6c1.1-0.4,0.4,1.3,0.3,4.4c-0.1,3-1.9,3.2-2.6,3.1c-0.7-0.1-0.8-0.2,0.6-3
			C292.9,222.1,292.9,220.7,293.2,220.6z"/>
		<path class="st6" d="M298.2,222.2c0.8-0.5-1.4,4.9-3,5.6c-1.6,0.7-0.6-0.7,0.4-2.3C296.5,223.9,298.2,222.2,298.2,222.2z"/>
	</g>
</g>
<defs>
	<filter id="Adobe_OpacityMaskFilter_1_" filterUnits="userSpaceOnUse" x="758.9" y="91.5" width="1016.9" height="500.3">
		<feColorMatrix  type="matrix" values="1 0 0 0 0  0 1 0 0 0  0 0 1 0 0  0 0 0 1 0"/>
	</filter>
</defs>
<mask maskUnits="userSpaceOnUse" x="758.9" y="91.5" width="1016.9" height="500.3" id="SVGID_3_">
	<g class="st7">
		<linearGradient id="SVGID_4_" gradientUnits="userSpaceOnUse" x1="1286.1343" y1="259.9066" x2="1286.1343" y2="866.7887">
			<stop  offset="0" style="stop-color:#FFFFFF"/>
			<stop  offset="1" style="stop-color:#000000"/>
		</linearGradient>
		<rect x="775.4" y="68.3" class="st8" width="1021.4" height="648"/>
	</g>
</mask>
<g class="st9">
	<path class="st10" d="M1137.5,589.1h638.4c0,0-72.1-52.4-120.7-116c-48.6-63.6-116.4-230.2-198.5-245.1
		c-82.1-14.9-95.2,45.2-123.3,15.1c-28.1-30-54.3-151.6-136.6-151.6s-163.2,246.9-247.1,306.8c-84,59.9-138.2,172.8-186.9,186
		C714.2,597.5,1137.5,589.1,1137.5,589.1z"/>
	<g>
		<path class="st6" d="M1624.6,537.1c0.7-0.2,1.3,3.6,2.5,4.6c1.2,1-0.9,5-1.8,1.8C1624.5,540.1,1624,537.3,1624.6,537.1z"/>
		<path class="st6" d="M1630.4,534.9c0-1,2.1-0.6,1.9,1.2c-0.1,1.8,1.1,6.6,0,7.3c-1.1,0.8-2.2,1.4-2.4-0.9
			C1629.7,540.2,1630.3,536.9,1630.4,534.9z"/>
		<path class="st6" d="M1638.2,537.1c1.1-0.3,0.3,1.3,0.3,4.1c-0.1,2.8-1.8,3-2.4,2.9c-0.7-0.1-0.8-0.1,0.5-2.8
			C1637.8,538.5,1637.9,537.2,1638.2,537.1z"/>
		<path class="st6" d="M1642.8,538.6c0.8-0.4-1.3,4.6-2.8,5.3c-1.5,0.7-0.6-0.6,0.3-2.2C1641.3,540.2,1642.8,538.6,1642.8,538.6z"/>
	</g>
	<g>
		<path class="st6" d="M1550.4,442.7c0.7-0.2,1.3,3.6,2.5,4.6c1.2,1-0.9,5-1.8,1.8C1550.2,445.8,1549.7,443,1550.4,442.7z"/>
		<path class="st6" d="M1556.1,440.5c0-1,2.1-0.6,1.9,1.2c-0.1,1.8,1.1,6.6,0,7.3c-1.1,0.8-2.2,1.4-2.4-0.9
			C1555.4,445.9,1556,442.6,1556.1,440.5z"/>
		<path class="st6" d="M1563.9,442.8c1.1-0.3,0.3,1.3,0.3,4.1c-0.1,2.8-1.8,3-2.4,2.9c-0.7-0.1-0.8-0.1,0.5-2.8
			C1563.6,444.2,1563.6,442.9,1563.9,442.8z"/>
		<path class="st6" d="M1568.5,444.3c0.8-0.4-1.3,4.6-2.8,5.3c-1.5,0.7-0.6-0.6,0.3-2.2C1567,445.9,1568.5,444.3,1568.5,444.3z"/>
	</g>
	<g>
		<path class="st6" d="M1373.2,310.5c0.7-0.2,1.3,3.6,2.5,4.6c1.2,1-0.9,5-1.8,1.8C1373.1,313.6,1372.6,310.7,1373.2,310.5z"/>
		<path class="st6" d="M1379,308.3c0-1,2.1-0.6,1.9,1.2c-0.1,1.8,1.1,6.6,0,7.3c-1.1,0.8-2.2,1.4-2.4-0.9
			C1378.3,313.6,1378.9,310.4,1379,308.3z"/>
		<path class="st6" d="M1386.8,310.5c1.1-0.3,0.3,1.3,0.3,4.1c-0.1,2.8-1.8,3-2.4,2.9c-0.7-0.1-0.8-0.1,0.5-2.8
			C1386.4,311.9,1386.5,310.6,1386.8,310.5z"/>
		<path class="st6" d="M1391.4,312c0.8-0.4-1.3,4.6-2.8,5.3c-1.5,0.7-0.6-0.6,0.3-2.2C1389.9,313.6,1391.4,312,1391.4,312z"/>
	</g>
	<g>
		<path class="st6" d="M1304,387.3c0.7-0.2,1.3,3.6,2.5,4.6c1.2,1-0.9,5-1.8,1.8C1303.9,390.4,1303.4,387.5,1304,387.3z"/>
		<path class="st6" d="M1309.8,385.1c0-1,2.1-0.6,1.9,1.2c-0.1,1.8,1.1,6.6,0,7.3c-1.1,0.8-2.2,1.4-2.4-0.9
			C1309.1,390.5,1309.7,387.2,1309.8,385.1z"/>
		<path class="st6" d="M1317.6,387.4c1.1-0.3,0.3,1.3,0.3,4.1c-0.1,2.8-1.8,3-2.4,2.9c-0.7-0.1-0.8-0.1,0.5-2.8
			C1317.3,388.8,1317.3,387.5,1317.6,387.4z"/>
		<path class="st6" d="M1322.2,388.9c0.8-0.4-1.3,4.6-2.8,5.3c-1.5,0.7-0.6-0.6,0.3-2.2C1320.7,390.5,1322.2,388.9,1322.2,388.9z"/>
	</g>
	<g>
		<path class="st6" d="M1358.4,447.3c0.7-0.2,1.3,3.6,2.5,4.6c1.2,1-0.9,5-1.8,1.8C1358.2,450.4,1357.7,447.5,1358.4,447.3z"/>
		<path class="st6" d="M1364.1,445.1c0-1,2.1-0.6,1.9,1.2c-0.1,1.8,1.1,6.6,0,7.3c-1.1,0.8-2.2,1.4-2.4-0.9
			C1363.4,450.5,1364,447.2,1364.1,445.1z"/>
		<path class="st6" d="M1371.9,447.4c1.1-0.3,0.3,1.3,0.3,4.1c-0.1,2.8-1.8,3-2.4,2.9c-0.7-0.1-0.8-0.1,0.5-2.8
			C1371.6,448.8,1371.6,447.5,1371.9,447.4z"/>
		<path class="st6" d="M1376.5,448.9c0.8-0.4-1.3,4.6-2.8,5.3c-1.5,0.7-0.6-0.6,0.3-2.2C1375,450.5,1376.5,448.9,1376.5,448.9z"/>
	</g>
	<g>
		<path class="st6" d="M1017.1,526.7c0.7-0.2,1.3,3.6,2.5,4.6c1.2,1-0.9,5-1.8,1.8C1017,529.7,1016.5,526.9,1017.1,526.7z"/>
		<path class="st6" d="M1022.9,524.5c0-1,2.1-0.6,1.9,1.2c-0.1,1.8,1.1,6.6,0,7.3c-1.1,0.8-2.2,1.4-2.4-0.9
			C1022.2,529.8,1022.8,526.5,1022.9,524.5z"/>
		<path class="st6" d="M1030.7,526.7c1.1-0.3,0.3,1.3,0.3,4.1c-0.1,2.8-1.8,3-2.4,2.9c-0.7-0.1-0.8-0.1,0.5-2.8
			C1030.4,528.1,1030.4,526.8,1030.7,526.7z"/>
		<path class="st6" d="M1035.3,528.2c0.8-0.4-1.3,4.6-2.8,5.3c-1.5,0.7-0.6-0.6,0.3-2.1C1033.8,529.8,1035.3,528.2,1035.3,528.2z"/>
	</g>
	<g>
		<path class="st6" d="M1095.3,423.2c0.7-0.2,1.3,3.6,2.5,4.6c1.2,1-0.9,5-1.8,1.8C1095.1,426.2,1094.6,423.4,1095.3,423.2z"/>
		<path class="st6" d="M1101,421c0-1,2.1-0.6,1.9,1.2c-0.1,1.8,1.1,6.6,0,7.3c-1.1,0.8-2.2,1.4-2.4-0.9
			C1100.4,426.3,1101,423,1101,421z"/>
		<path class="st6" d="M1108.8,423.2c1.1-0.3,0.3,1.3,0.3,4.1c-0.1,2.8-1.8,3-2.4,2.9c-0.7-0.1-0.8-0.1,0.5-2.8
			C1108.5,424.6,1108.5,423.3,1108.8,423.2z"/>
		<path class="st6" d="M1113.4,424.7c0.8-0.4-1.3,4.6-2.8,5.3c-1.5,0.7-0.6-0.6,0.3-2.2C1111.9,426.3,1113.4,424.7,1113.4,424.7z"/>
	</g>
	<g>
		<path class="st6" d="M852.1,531.9c0.7-0.2,1.3,3.6,2.5,4.6c1.2,1-0.9,5-1.8,1.8C851.9,534.9,851.4,532.1,852.1,531.9z"/>
		<path class="st6" d="M857.8,529.7c0-1,2.1-0.6,1.9,1.2c-0.1,1.8,1.1,6.6,0,7.3c-1.1,0.8-2.2,1.4-2.4-0.9
			C857.1,535,857.7,531.7,857.8,529.7z"/>
		<path class="st6" d="M865.6,531.9c1.1-0.3,0.3,1.3,0.3,4.1c-0.1,2.8-1.8,3-2.4,2.9c-0.7-0.1-0.8-0.1,0.5-2.8
			C865.3,533.3,865.3,532,865.6,531.9z"/>
		<path class="st6" d="M870.2,533.4c0.8-0.4-1.3,4.6-2.8,5.3c-1.5,0.7-0.6-0.6,0.3-2.2C868.7,535,870.2,533.4,870.2,533.4z"/>
	</g>
	<g>
		<path class="st6" d="M1035.8,346.6c0.7-0.2,1.3,3.6,2.5,4.6c1.2,1-0.9,5-1.8,1.8C1035.6,349.7,1035.1,346.8,1035.8,346.6z"/>
		<path class="st6" d="M1041.5,344.4c0-1,2.1-0.6,1.9,1.2c-0.1,1.8,1.1,6.6,0,7.3c-1.1,0.8-2.2,1.4-2.4-0.9
			C1040.9,349.7,1041.5,346.4,1041.5,344.4z"/>
		<path class="st6" d="M1049.3,346.6c1.1-0.3,0.3,1.3,0.3,4.1c-0.1,2.8-1.8,3-2.4,2.9c-0.7-0.1-0.8-0.1,0.5-2.8
			C1049,348,1049,346.7,1049.3,346.6z"/>
		<path class="st6" d="M1053.9,348.1c0.8-0.4-1.3,4.6-2.8,5.3c-1.5,0.7-0.6-0.6,0.3-2.1C1052.4,349.7,1053.9,348.1,1053.9,348.1z"/>
	</g>
	<g>
		<path class="st6" d="M1207.2,258.6c0.7-0.2,1.3,3.6,2.5,4.6c1.2,1-0.9,5-1.8,1.8C1207.1,261.7,1206.5,258.8,1207.2,258.6z"/>
		<path class="st6" d="M1212.9,256.4c0-1,2.1-0.6,1.9,1.2c-0.1,1.8,1.1,6.6,0,7.3c-1.1,0.8-2.2,1.4-2.4-0.9
			C1212.3,261.8,1212.9,258.5,1212.9,256.4z"/>
		<path class="st6" d="M1220.7,258.6c1.1-0.3,0.3,1.3,0.3,4.1c-0.1,2.8-1.8,3-2.4,2.9c-0.7-0.1-0.8-0.1,0.5-2.8
			C1220.4,260.1,1220.4,258.7,1220.7,258.6z"/>
		<path class="st6" d="M1225.4,260.2c0.8-0.4-1.3,4.6-2.8,5.3c-1.5,0.7-0.6-0.6,0.3-2.2C1223.8,261.8,1225.4,260.2,1225.4,260.2z"/>
	</g>
	<g>
		<path class="st6" d="M1158.7,150.4c0.7-0.2,1.3,3.6,2.5,4.6c1.2,1-0.9,5-1.8,1.8C1158.5,153.5,1158,150.6,1158.7,150.4z"/>
		<path class="st6" d="M1164.4,148.2c0-1,2.1-0.6,1.9,1.2c-0.1,1.8,1.1,6.6,0,7.3c-1.1,0.8-2.2,1.4-2.4-0.9
			C1163.8,153.6,1164.3,150.3,1164.4,148.2z"/>
		<path class="st6" d="M1172.2,150.4c1.1-0.3,0.3,1.3,0.3,4.1c-0.1,2.8-1.8,3-2.4,2.9c-0.7-0.1-0.8-0.1,0.5-2.8
			C1171.9,151.9,1171.9,150.5,1172.2,150.4z"/>
		<path class="st6" d="M1176.8,152c0.8-0.4-1.3,4.6-2.8,5.3c-1.5,0.7-0.6-0.6,0.3-2.2C1175.3,153.6,1176.8,152,1176.8,152z"/>
	</g>
	<g>
		<path class="st6" d="M1425.7,263.2c0.7-0.2,1.3,3.6,2.5,4.6c1.2,1-0.9,5-1.8,1.8C1425.5,266.3,1425,263.4,1425.7,263.2z"/>
		<path class="st6" d="M1431.4,261c0-1,2.1-0.6,1.9,1.2c-0.1,1.8,1.1,6.6,0,7.3c-1.1,0.8-2.2,1.4-2.4-0.9
			C1430.7,266.3,1431.3,263.1,1431.4,261z"/>
		<path class="st6" d="M1439.2,263.2c1.1-0.3,0.3,1.3,0.3,4.1c-0.1,2.8-1.8,3-2.4,2.9c-0.7-0.1-0.8-0.1,0.5-2.8
			C1438.9,264.6,1438.9,263.3,1439.2,263.2z"/>
		<path class="st6" d="M1443.8,264.8c0.8-0.4-1.3,4.6-2.8,5.3c-1.5,0.7-0.6-0.6,0.3-2.1C1442.3,266.4,1443.8,264.8,1443.8,264.8z"/>
	</g>
</g>
</svg>
