<?xml version="1.0" encoding="utf-8"?>
<!-- Generator: Adobe Illustrator 20.1.0, SVG Export Plug-In . SVG Version: 6.00 Build 0)  -->
<svg version="1.1" id="圖層_1" xmlns="http://www.w3.org/2000/svg" xmlns:xlink="http://www.w3.org/1999/xlink" x="0px" y="0px"
	 viewBox="0 0 434 287.7" style="enable-background:new 0 0 434 287.7;" xml:space="preserve">
<style type="text/css">
	.st0{fill:#94C4CB;}
	.st1{opacity:0.8;clip-path:url(#SVGID_2_);fill:url(#SVGID_3_);}
	.st2{clip-path:url(#SVGID_2_);fill:#B2DDE2;}
	.st3{opacity:0.6;clip-path:url(#SVGID_2_);fill:url(#SVGID_4_);}
	.st4{clip-path:url(#SVGID_2_);fill:url(#SVGID_5_);}
	.st5{fill:#FFFFFF;}
</style>
<g>
	<path class="st0" d="M6.2,7.5C6.2,7.5,22.4,4,34,15c13.2-9.8,24.8-7.8,24.8-7.8s-7.4,74.7,19,89c26.4,14.3,45.2-14.6,74.8-36.1
		c40.2-29,139.6-28.4,186.6-13.2c57.2,18.5,117.8,80.9,73.9,162c-39.6,73.1-160.5,64.8-228.8,60.4c-72.6-4.7-136.6-65.3-159.4-146.9
		C2.1,40.7,6.2,7.5,6.2,7.5z"/>
	<g>
		<defs>
			<path id="SVGID_1_" d="M6.5,9h53c0,0-8.1,72.9,18.3,87.1c26.4,14.3,45.2-14.6,74.8-36.1c40.2-29,139.6-28.4,186.6-13.2
				c32.8,10.6,66.6,35.6,81.3,70.2c7.2,14.2,8.3,34.8,7.6,46.1c-0.7,11.3,1.1,40.8-26.4,68.5c-58.5,58.9-162.4,41-217.4,37.5
				c-72.6-4.7-136.6-65.3-159.4-146.9C2.1,40.7,6.5,9,6.5,9z"/>
		</defs>
		<clipPath id="SVGID_2_">
			<use xlink:href="#SVGID_1_"  style="overflow:visible;"/>
		</clipPath>
		<linearGradient id="SVGID_3_" gradientUnits="userSpaceOnUse" x1="182.7258" y1="140.9256" x2="70.7264" y2="97.5927">
			<stop  offset="6.842100e-02" style="stop-color:#94C4CB"/>
			<stop  offset="1" style="stop-color:#FFFFFF;stop-opacity:0"/>
		</linearGradient>
		<path class="st1" d="M67.6,236.9c0,0,38-0.7,34-14c-4-13.3-2.7-20,3.3-19.7c6,0.3,31.3,0,31.3,0s8-1.2,10.3-8.1
			c2.3-6.9,24.7,0.5,24.7,0.5l9.7-2.3c0,0-6.7-20-24-30.6c-17.3-10.6-21.3-15.1-22-27.5c-0.7-12.4,11.4-23.8,11.7-33.1
			c0.3-9.3-2.4-14.7,13.9-32.2c14.1-15.1,29.4-16,40-12.7c10.6,3.3,60.5-15.3,64.5-22.9c4-7.6-76-18.3-108-5.6
			c-32,12.7-56,34-70.7,44.7c-14.7,10.7-39.3,64-33.3,90.3c6,26.3-34.7,35.7-20,47.7C47.6,223.5,67.6,236.9,67.6,236.9z"/>
		<path class="st2" d="M180.9,193.4c0,0,36.9-9.1,71.6-4.9c34.7,4.2,62,4.9,84.7,4.9c22.7,0,44-2,34,12.3
			c-10,14.3,14.7,48.3-37.3,62.3s-192,7.3-218.7-10c-26.7-17.3-20.4-25.7-20.4-25.7s6.3-2.2,7-6.9c0.7-4.8-7.6-18.3,1.2-22
			c8.8-3.7,28.6,2.5,35.3-0.5s6.1-3.7,9.1-9.1C150.3,188.4,174.2,198.8,180.9,193.4z"/>
		<radialGradient id="SVGID_4_" cx="397.1323" cy="151.6694" r="97.6562" gradientUnits="userSpaceOnUse">
			<stop  offset="0" style="stop-color:#A1D3B4;stop-opacity:0.6"/>
			<stop  offset="0.9105" style="stop-color:#FFFFFF;stop-opacity:0"/>
		</radialGradient>
		<ellipse class="st3" cx="397.1" cy="151.7" rx="100.7" ry="94.6"/>
		<radialGradient id="SVGID_5_" cx="331.3038" cy="158.152" r="100.5167" gradientUnits="userSpaceOnUse">
			<stop  offset="0" style="stop-color:#FFFFFF"/>
			<stop  offset="1" style="stop-color:#65ACAE"/>
		</radialGradient>
		<path class="st4" d="M277.8,30c0,0,8.7,25.3,31.3,30c22.7,4.7,32-4.7,46,16.7c14,21.3,20.7,28.9,28,32.1
			c7.3,3.2,24,12.4,22.7,25.2c-1.3,12.7,12,31.3-5.3,45.7c-17.3,14.4-36.7,22.4-42.7,33s-15,21.8-14.2,34.7
			c0.9,12.9-17.2,17.3-27.2,24.6c-10,7.4,12.7,40.7,57.3,10c44.7-30.7,80-83.1,72.7-126.2c-7.3-43.1,20-76.5-46.7-103.8
			C333.2,24.7,277.8,30,277.8,30z"/>
	</g>
</g>
<g>
	<path class="st5" d="M203.1,75.1c1.2-0.1,1.8,0.4,1.9,1.5c0.2,5.3,0.5,10.6,0.7,15.8c0.1,1.1-0.5,1.7-1.6,1.8
		c-5.1,0.4-10.3,0.9-15.5,1.5c-1.1,0.1-1.7-0.4-1.8-1.4c-0.5-5.3-1-10.5-1.5-15.8c-0.1-1.1,0.4-1.7,1.6-1.8
		C192.2,76,197.6,75.5,203.1,75.1z M204,91.9c-0.2-2.9-0.3-5.8-0.5-8.7c-5.3,0.4-10.7,0.9-16,1.5c0.3,2.9,0.5,5.8,0.8,8.7
		c0.1,0.5,0.3,0.7,0.8,0.7c4.7-0.5,9.4-1,14.1-1.3C203.7,92.7,204,92.4,204,91.9z M200.9,84.3c1-0.1,1.5,0.3,1.6,1.2
		c0.1,1.7,0.2,3.4,0.3,5.1c0.1,0.9-0.4,1.4-1.4,1.5c-3.5,0.3-7,0.6-10.5,1c-1,0.1-1.5-0.3-1.6-1.2c-0.2-1.7-0.3-3.4-0.5-5.1
		c-0.1-0.9,0.4-1.4,1.4-1.5C193.8,84.9,197.3,84.6,200.9,84.3z M194.4,82.6c0-0.3,0-0.6-0.1-0.9c-1.4,0.1-2.8,0.3-4.1,0.4
		c-0.8,0.1-1.2-0.2-1.3-0.9c0-0.5-0.1-1-0.1-1.6c-0.1-0.7,0.3-1.1,1.1-1.2c3.4-0.4,6.9-0.7,10.3-1c0.8-0.1,1.3,0.3,1.3,0.9
		c0,0.5,0.1,1,0.1,1.6c0,0.7-0.4,1.1-1.2,1.1c-1.4,0.1-2.9,0.2-4.3,0.4c0,0.3,0,0.6,0.1,0.9c2.4-0.2,4.8-0.4,7.3-0.6
		c-0.1-1.5-0.1-2.9-0.2-4.4c0-0.5-0.3-0.8-0.8-0.7c-4.9,0.4-9.8,0.8-14.7,1.4c-0.5,0.1-0.7,0.3-0.7,0.9c0.1,1.5,0.3,2.9,0.4,4.4
		C189.7,83.1,192.1,82.8,194.4,82.6z M201.1,90c-0.1-1.3-0.2-2.5-0.2-3.8c0-0.4-0.2-0.7-0.7-0.6c-3.1,0.3-6.2,0.5-9.3,0.9
		c-0.4,0-0.6,0.3-0.6,0.7c0.1,1.3,0.2,2.5,0.3,3.8c0,0.5,0.3,0.7,0.7,0.7c3-0.3,6.1-0.6,9.1-0.9C201,90.8,201.2,90.6,201.1,90z
		 M198.5,86.5c0.7-0.1,1.2,0.2,1.2,0.9c0,0.6,0.1,1.1,0.1,1.7c0,0.7-0.3,1.1-1.1,1.1c-1.9,0.2-3.8,0.3-5.7,0.5
		c-0.8,0.1-1.2-0.2-1.2-0.9c0-0.6-0.1-1.1-0.1-1.7c-0.1-0.6,0.3-1,1.1-1.1C194.7,86.9,196.6,86.7,198.5,86.5z M200.1,79.6
		c0-0.1,0-0.2,0-0.3c0-0.3-0.1-0.4-0.4-0.4c-3,0.2-6,0.5-9.1,0.8c-0.2,0-0.3,0.2-0.2,0.5c0,0.1,0,0.2,0,0.3c0,0.3,0.1,0.4,0.3,0.4
		c3-0.3,6-0.6,9-0.8C200,80,200.1,79.9,200.1,79.6z M198.4,88.6c0-0.2,0-0.4,0-0.5c0-0.3-0.2-0.4-0.4-0.4c-1.5,0.1-3,0.3-4.5,0.4
		c-0.2,0-0.4,0.2-0.3,0.5c0,0.2,0,0.4,0,0.5c0,0.4,0.2,0.5,0.4,0.5c1.5-0.1,3-0.3,4.5-0.4C198.3,89.1,198.4,89,198.4,88.6z"/>
	<path class="st5" d="M240.5,75c0,0.3-0.3,0.6-0.7,1c-0.5,0.4-1.2,0.9-2.1,1.4c1.6,0,3.1,0.1,4.7,0.1c1,0,1.5,0.5,1.4,1.4
		c-0.1,0.9-0.1,1.8-0.1,2.7c-0.1,1-0.6,1.4-1.6,1.4c-2-0.1-3.9-0.1-5.9-0.1c-0.3,0.2-0.6,0.4-0.8,0.6c0.7,0.7,1.1,1.3,1.4,1.9
		c0.5,0.5,0.9,1,1.4,1.4c0-0.1,0-0.2,0-0.3c0-0.2,0.2-0.4,0.5-0.7c1.5-0.6,2.8-1.3,3.9-2.2c0.2-0.1,0.4-0.2,0.5-0.2
		c0.6,0,0.9,0.3,0.8,0.9c0,0.2-0.2,0.5-0.4,0.7c-1,0.9-2.3,1.7-4,2.3c-0.2,0.1-0.3,0.1-0.4,0.1c-0.1,0-0.2,0-0.2,0
		c0.5,0.5,1,0.9,1.6,1.3c1,0.8,2.4,1.6,4.3,2.5c0.3,0.2,0.4,0.5,0.4,0.8c0,0.7-0.4,1-1,1c-0.2,0-0.5-0.1-0.8-0.3
		c-1.9-1-3.4-2-4.6-3.1c-0.5-0.4-1-0.9-1.4-1.4c0,0.3,0,0.5,0,0.7c0,0.8-0.2,1.5-0.4,2.1c-0.3,0.8-0.7,1.5-1.2,1.9
		c-0.6,0.5-1.4,0.7-2.3,0.7c-0.9,0-1.8-0.1-2.7-0.4c-0.3-0.2-0.5-0.5-0.5-0.8c0-0.6,0.3-0.9,0.9-0.9c1.3,0.3,2.1,0.5,2.3,0.5
		c0.4,0,0.7-0.1,1-0.4c0.3-0.2,0.5-0.5,0.8-1c0.2-0.5,0.4-1.1,0.4-1.8c0-0.1,0-0.1,0-0.2c-1.3,0.9-2.4,1.6-3.5,2
		c-1.2,0.6-2.6,1.1-4.2,1.6c-1.1,0.4-1.9,0.6-2.5,0.6c-0.6,0-0.9-0.3-0.9-0.8c0-0.4,0.2-0.6,0.7-0.7c2.6-0.6,4.6-1.3,6.3-2
		c1.1-0.5,2.4-1.2,3.9-2.2c-0.1-0.4-0.2-0.7-0.3-1c-1.3,0.8-2.5,1.5-3.5,1.9c-1.1,0.5-2.4,1-3.9,1.4c-1.1,0.3-1.8,0.5-2.3,0.5
		c-0.6,0-0.9-0.3-0.9-0.8c0-0.4,0.2-0.6,0.7-0.7c2.4-0.5,4.3-1,5.8-1.7c1-0.4,2.1-0.9,3.3-1.7c-0.2-0.2-0.4-0.4-0.5-0.6
		c-0.3,0.1-0.5,0.3-0.8,0.4c-1.3,0.6-2.8,1.1-4.5,1.5c-1.5,0.4-2.5,0.6-3,0.6c-0.5,0-0.8-0.3-0.8-0.8c0-0.5,0.3-0.9,1-1
		c2.1-0.4,3.9-0.8,5.4-1.3c0.7-0.2,1.5-0.5,2.3-0.9c-1.9,0-3.9,0-5.8,0c-1,0-1.5-0.5-1.5-1.4c0-0.9,0-1.8,0-2.7
		c0-0.4,0.1-0.7,0.3-0.9c0,0-0.1,0-0.1,0c-0.7,0.3-1.2,0.4-1.4,0.4c-0.6,0-0.8-0.3-0.8-0.8c0-0.3,0.1-0.6,0.4-0.7
		c2.2-0.7,3.8-1.5,4.9-2.4c0.4-0.4,1-0.5,1.7-0.5c2.7,0,5.3,0,8,0.1C240.2,74,240.5,74.4,240.5,75z M234.1,79c-1.8,0-3.6,0-5.4,0
		c-0.4,0-0.5,0.2-0.5,0.5c0,0.4,0,0.8,0,1.1c0,0.4,0.2,0.6,0.5,0.6c1.8,0,3.6,0,5.3,0C234,80.5,234.1,79.7,234.1,79z M235.2,77.4
		c0.8-0.4,1.4-0.7,1.9-1c0.6-0.4,1-0.6,1-0.7c0-0.2-0.1-0.2-0.2-0.2c-2.1,0-4.1-0.1-6.2-0.1c-0.3,0-0.6,0.1-0.8,0.2
		c-1.1,0.7-2,1.3-3,1.7C230.3,77.3,232.8,77.3,235.2,77.4z M241.9,80.8c0-0.4,0-0.7,0.1-1.1c0-0.3-0.2-0.5-0.5-0.5
		c-1.8-0.1-3.7-0.1-5.5-0.1c0,0.7-0.1,1.5-0.1,2.2c1.8,0,3.7,0.1,5.5,0.1C241.7,81.4,241.9,81.2,241.9,80.8z"/>
	<path class="st5" d="M279.5,81.9c1.2,0.2,1.8,0.6,1.7,1.4c-0.1,0.3-0.4,0.6-1.1,0.8c-1.8,0.6-3.7,1.1-5.5,1.7
		c-0.2,0.1-0.3,0.1-0.3,0.2c0,0.1,0.1,0.2,0.2,0.4c0.5,0.6,0.9,1.1,1.1,1.7c2.3,0.3,4.7,0.6,7,0.9c0.6,0.1,0.8,0.4,0.7,1
		c-0.1,0.6-0.4,0.8-1,0.7c-2-0.3-4.1-0.6-6.1-0.8c0.1,0.6,0.1,1.2,0,1.7c-0.2,1.8-0.9,2.9-1.9,3.6c-0.9,0.6-2,0.8-3.5,0.6
		c-1.3-0.1-2.6-0.6-3.8-1.5c-0.5-0.2-0.7-0.5-0.7-0.9c0.1-0.7,0.5-0.9,1.2-0.9c1.7,0.9,2.9,1.3,3.5,1.4c1,0.1,1.7,0,2.2-0.4
		c0.6-0.4,1-1.1,1.1-2.1c0.1-0.6,0-1.2-0.1-1.7c-3.5-0.4-7-0.8-10.6-1.1c-0.6-0.1-0.8-0.4-0.8-0.9c0.1-0.6,0.4-0.8,1-0.8
		c3.1,0.3,6.3,0.6,9.4,1c-0.4-0.5-0.8-1-1.4-1.5c-0.3-0.3-0.5-0.6-0.5-0.8c0-0.3,0.3-0.5,0.8-0.7c1.8-0.5,3.5-1,5.3-1.4
		c0,0-0.1-0.1-0.4-0.1c-3.1-0.4-6.3-0.8-9.4-1.1c-0.5-0.1-0.8-0.3-0.7-0.8c0.1-0.5,0.3-0.7,0.9-0.7C271.9,81,275.7,81.4,279.5,81.9z
		 M275.8,77.2c0,0.3-0.1,0.6-0.1,0.9c2.5,0.3,4.9,0.6,7.4,1c0.7,0.1,1.2,0.4,1.5,0.9c0.2,0.4,0.3,1,0.1,1.7c-0.1,0.5-0.3,1-0.5,1.6
		c-0.2,0.5-0.6,0.7-1.2,0.6c-0.6-0.1-0.9-0.4-0.8-1.1c0.3-0.7,0.5-1.1,0.6-1.3c0.1-0.6-0.1-0.9-0.6-0.9c-4.9-0.7-9.9-1.3-14.8-1.8
		c-0.7-0.1-1.1,0.2-1.2,0.9c-0.1,0.5-0.1,1.1-0.2,1.6c-0.1,0.6-0.4,0.8-1.1,0.8c-0.6-0.1-0.8-0.4-0.8-0.9c0.1-0.7,0.2-1.4,0.2-2.1
		c0.2-1.5,1-2.1,2.6-2c2.3,0.2,4.5,0.5,6.8,0.7c0-0.3,0.1-0.6,0.1-0.9c0.1-0.6,0.4-0.9,1.1-0.8C275.6,76.2,275.9,76.6,275.8,77.2z"
		/>
	<path class="st5" d="M308.7,86.4c0.2-0.7,0.3-1.4,0.5-2.2c0.2-1.1,0.9-1.5,2-1.2c3.4,0.7,6.8,1.5,10.2,2.4c0.7,0.2,1.1,0.5,1.3,1
		c0.2,0.4,0.2,1,0,1.7c-0.1,0.5-0.3,1-0.5,1.6c-0.3,0.4-0.7,0.6-1.2,0.4c-0.6-0.1-0.8-0.5-0.6-1c0.3-0.7,0.5-1.1,0.5-1.3
		c0.1-0.5,0-0.8-0.5-0.9c-0.6-0.2-1.2-0.3-1.9-0.5c-0.3,1-0.5,2-0.8,3.1c-0.2,0.6,0,1,0.6,1.1c0.8,0.2,1.6,0.4,2.4,0.6
		c0.6,0.1,0.8,0.5,0.6,1c-0.1,0.5-0.5,0.7-1,0.5c-0.9-0.2-1.7-0.4-2.6-0.6c-1.5-0.4-2.1-1.3-1.7-2.8c0.3-1.1,0.5-2.2,0.8-3.2
		c-0.7-0.2-1.5-0.3-2.2-0.5c-0.1,0.6-0.3,1.1-0.4,1.7c-0.2,0.6-0.4,1.2-0.8,1.7c-0.4,0.5-1,0.9-1.7,1.3c-0.7,0.3-1.7,0.6-2.8,0.7
		c-0.3,0-0.4,0-0.5,0c-0.6-0.1-0.8-0.5-0.6-1.1c0.1-0.4,0.3-0.6,0.7-0.6c1-0.1,1.8-0.2,2.4-0.5c0.5-0.2,0.9-0.5,1.2-0.8
		c0.3-0.3,0.5-0.6,0.5-1c0.1-0.6,0.3-1.1,0.4-1.7c-0.4-0.1-0.9-0.2-1.3-0.3c-0.6-0.1-0.9,0.1-1.1,0.6c-0.1,0.5-0.2,0.9-0.3,1.4
		c-0.1,0.6-0.5,0.8-1,0.7c-0.4-0.1-0.6-0.3-0.7-0.6c-0.2,0.6-0.5,0.7-1,0.6c-0.4-0.1-0.8-0.2-1.2-0.3c-0.3,1.2-0.5,2.4-0.8,3.6
		c0.2-0.1,0.5-0.2,0.9-0.3c0.2,0,0.3,0,0.4,0c0.6,0.1,0.8,0.5,0.6,1.1c0,0.2-0.2,0.3-0.4,0.5c-0.5,0.3-1.1,0.5-1.9,0.8
		c-0.5,2.1-0.9,4.2-1.4,6.2c-0.3,1.3-1.2,1.8-2.7,1.5c-0.3-0.1-0.8-0.3-1.3-0.6c-0.4-0.2-0.6-0.6-0.5-1c0.1-0.5,0.4-0.7,0.9-0.7
		c0,0,0.1,0,0.2,0.1c0.5,0.3,0.8,0.5,1,0.5c0.4,0.1,0.7-0.1,0.8-0.6c0.3-1.7,0.7-3.3,1.1-5c-0.5,0.1-1.1,0.2-1.5,0.3
		c-0.1,0-0.3,0-0.4,0c-0.6-0.1-0.8-0.4-0.7-1c0.1-0.5,0.4-0.7,0.8-0.8c0.9-0.1,1.6-0.2,2.2-0.4c0.3-1.5,0.7-3,1-4.6
		c-0.5-0.1-1.1-0.2-1.6-0.3c-0.6-0.1-0.8-0.4-0.7-1c0.1-0.6,0.5-0.8,1-0.7c0.5,0.1,1.1,0.2,1.6,0.3c0.2-1.1,0.5-2.1,0.7-3.2
		c0.1-0.6,0.5-0.8,1.1-0.7c0.6,0.1,0.8,0.5,0.7,1c-0.2,1.1-0.5,2.1-0.7,3.2c0.4,0.1,0.8,0.2,1.2,0.3
		C308.4,85.9,308.6,86.1,308.7,86.4z M320.6,95.8c-0.1,0.6-0.5,0.8-1,0.6c-1.8-0.4-3.5-0.9-5.3-1.3c0.6,1.2,1.2,2.2,2,3.1
		c1.1,1.5,2.1,2.6,3.1,3.4c0.3,0.2,0.4,0.6,0.2,1c-0.2,0.6-0.5,0.8-1.1,0.7c-0.1,0-0.3-0.1-0.6-0.3c-0.9-1-1.6-1.9-2.4-2.9
		c-0.7-1-1.4-2-2-3.2c-0.4,1.8-0.9,3.6-1.3,5.4c-0.1,0.6-0.5,0.8-1,0.7c-0.5-0.1-0.7-0.5-0.6-1c0.4-1.7,0.8-3.4,1.2-5
		c-0.7,0.5-1.3,0.9-2,1.3c-1.1,0.6-2.5,1.2-4.3,1.8c-0.2,0-0.4,0.1-0.4,0c-0.5-0.1-0.8-0.5-0.6-1.1c0.1-0.4,0.3-0.6,0.8-0.7
		c1.9-0.6,3.4-1.2,4.5-1.8c0.9-0.5,1.7-1.1,2.5-1.7c-1.5-0.3-3-0.7-4.5-1c-0.5-0.1-0.7-0.4-0.6-1c0.1-0.5,0.4-0.7,0.9-0.6
		c1.5,0.3,3,0.7,4.5,1c0.1-0.4,0.2-0.9,0.3-1.3c0.1-0.6,0.5-0.8,1-0.6c0.6,0.1,0.8,0.5,0.6,1c-0.1,0.4-0.2,0.9-0.3,1.3
		c1.9,0.4,3.7,0.9,5.6,1.4C320.5,94.9,320.7,95.2,320.6,95.8z"/>
	<path class="st5" d="M342.9,107.4c-0.1,0.2-0.2,0.4-0.5,0.5c-1.4,0.8-3.2,1.4-5.4,1.8c-0.2,0-0.4,0-0.5,0c-0.6-0.2-0.8-0.6-0.6-1.2
		c0.1-0.2,0.3-0.4,0.6-0.5c2-0.3,3.7-0.8,5.3-1.7c0.2,0,0.4-0.1,0.5,0C342.9,106.5,343.1,106.9,342.9,107.4z M352,101.9
		c0.1,0.2,0.1,0.5,0,0.7c-0.1,0.2-0.2,0.4-0.4,0.5c-0.9,0.5-1.9,1-2.8,1.4c-0.4,0.2-0.8,0.3-1.2,0.5c1.9,0.5,3.7,1,5.4,1.5
		c-0.2-0.4-0.4-0.9-0.7-1.3c-0.1-0.2-0.1-0.5,0-0.7c0.2-0.5,0.6-0.7,1.1-0.5c0.1,0,0.3,0.2,0.5,0.4c0.4,0.7,0.7,1.4,1,2
		c0.3,0.7,0.7,1.7,1.1,3c0,0.2,0,0.3-0.1,0.5c-0.2,0.5-0.5,0.6-1.1,0.4c-0.3-0.1-0.5-0.2-0.6-0.4c-0.2-0.6-0.4-1.1-0.5-1.6
		c-0.1,0-0.2,0-0.3,0c-2-0.5-3.9-1.1-5.8-1.6c-0.7,1.9-1.3,3.8-2,5.7c-0.2,0.5-0.6,0.7-1.1,0.5c-0.5-0.2-0.7-0.5-0.5-1.1
		c0.6-1.9,1.3-3.7,1.9-5.6c-2.7-0.7-5.3-1.4-7.8-2.1c-0.5-0.2-0.6-0.5-0.4-1.2c0.1-0.5,0.5-0.6,1-0.5c2.4,0.7,4.6,1.4,6.7,2
		c0.7-0.2,1.3-0.5,2-0.8c1.2-0.6,2.3-1.2,3.4-1.9c0.2-0.2,0.5-0.2,0.8-0.1C351.7,101.6,351.9,101.7,352,101.9z M359.8,99.1
		c-0.2,0.5-0.6,0.7-1.1,0.5c-2.5-0.9-5.1-1.8-7.6-2.7c-0.2,0.5-0.4,1.1-0.6,1.6c2.3,0.8,4.6,1.6,6.9,2.4c0.6,0.2,1,0.6,1.1,1.1
		c0.1,0.4,0.1,1-0.2,1.7c-0.2,0.6-0.6,1.2-1.1,1.8c-0.3,0.4-0.7,0.5-1.2,0.3c-0.5-0.2-0.7-0.6-0.5-1.1c0.7-0.8,1-1.3,1.1-1.5
		c0.2-0.5,0-0.8-0.4-1c-2.4-0.9-4.9-1.7-7.3-2.6c-0.1,0.2-0.3,0.3-0.5,0.4c-0.7,0.4-1.6,0.8-2.6,1c0.3,0.3,0.6,0.6,0.9,1
		c0.2,0.3,0.2,0.6,0.2,0.9c-0.2,0.5-0.5,0.6-1,0.5c-0.2-0.1-0.5-0.2-0.6-0.3c-0.8-0.9-1.7-1.8-2.8-2.7c-0.2-0.2-0.3-0.5-0.2-0.8
		c0.2-0.5,0.5-0.6,1.1-0.5c0.2,0.1,0.3,0.1,0.5,0.2c0.2,0.2,0.4,0.4,0.6,0.6c0.1,0,0.1-0.1,0.2-0.1c0.8-0.2,1.5-0.4,2.1-0.8
		c-1.7-0.6-3.4-1.1-5.1-1.6c-0.4-0.1-0.7,0-0.9,0.4c-0.2,0.6-0.4,1.2-0.6,1.8c-0.2,0.5-0.5,0.7-1.1,0.6c-0.6-0.2-0.7-0.5-0.6-1.1
		c0.3-0.8,0.5-1.7,0.8-2.5c0.3-1,1-1.3,2-1c2.4,0.8,4.9,1.6,7.3,2.4c0.2-0.5,0.4-1.1,0.6-1.6c-2.6-0.9-5.2-1.7-7.8-2.5
		c-0.6-0.2-0.7-0.5-0.6-1.1c0.2-0.5,0.5-0.7,1.1-0.6c2.6,0.8,5.2,1.7,7.8,2.5c0.1-0.3,0.2-0.5,0.3-0.8c0.2-0.5,0.6-0.7,1.1-0.5
		c0.6,0.2,0.8,0.6,0.6,1.1c-0.1,0.3-0.2,0.5-0.3,0.8c2.6,0.9,5.1,1.8,7.7,2.7C359.8,98.2,360,98.5,359.8,99.1z M351.4,109.2
		c0.5,0.7,0.9,1.4,1.3,2c0.4,0.7,0.9,1.7,1.5,3.1c0,0.2,0,0.3-0.1,0.5c-0.2,0.5-0.6,0.6-1.1,0.5c-0.2-0.1-0.4-0.2-0.6-0.4
		c-0.5-1.2-1-2.2-1.4-2.9c-0.3-0.6-0.7-1.3-1.2-1.9c-0.1-0.2-0.1-0.5,0-0.6c0.2-0.5,0.6-0.7,1.1-0.6
		C351.1,108.9,351.2,109,351.4,109.2z"/>
</g>
</svg>
