<?xml version="1.0" encoding="utf-8"?>
<!-- Generator: Adobe Illustrator 20.1.0, SVG Export Plug-In . SVG Version: 6.00 Build 0)  -->
<svg version="1.1" id="圖層_1" xmlns="http://www.w3.org/2000/svg" xmlns:xlink="http://www.w3.org/1999/xlink" x="0px" y="0px"
	 viewBox="0 0 462.1 217.2" style="enable-background:new 0 0 462.1 217.2;" xml:space="preserve">
<style type="text/css">
	.st0{fill:#94C4CB;}
	.st1{fill:#B2DDE2;}
	.st2{fill:#FFFFFF;}
	.st3{fill-rule:evenodd;clip-rule:evenodd;fill:#FFFFFF;}
	.st4{fill-rule:evenodd;clip-rule:evenodd;fill:#F7F4DA;}
	.st5{fill:#597F93;}
	.st6{fill-rule:evenodd;clip-rule:evenodd;fill:#DDF0F4;}
	.st7{fill:#469EAA;}
	.st8{fill:#2D88B5;}
</style>
<path class="st0" d="M414.3,8.5c0,0,6.8,53.7-48,41.6c-53.6-11.8-39.5,50.9-77.6,65.5c-32.5,12.5-48.6,12-76.7-6.9
	c-28.1-19-35.3-45.9-97.1-47.9C53.2,58.8,4.5,92,0.3,133.6c-2.9,29,14.3,83.5,96.9,83.6c127.5,0.2,126-66.8,184-72.6
	c70.5-7,40.4-75,98-69.6c61.2,5.7,94.5-51,79.3-66.9C433.6-10.4,414.3,8.5,414.3,8.5z"/>
<path class="st1" d="M438.7,55.2c1.1-3.3-13.1,16-59.8,13.3c-28.5-1.7-39.2,9.5-57,46.5c-13.2,27.4-46.2,18.2-66.9,25.2
	c-20.3,6.9-22.9,13-33.6,17.5c-4.7,2-11.1,3.7-23.2,4.2c-32.4,1.4-36.2-17.6-70.3-16.7c-30.4,0.8-64.2,1.2-71.8,14.3
	c-7.5,13.2-31.1,1.1-33.7,5.7c-2.6,4.6-13.1,6.2-9.5,11c3.6,4.8,24.8,34.4,75.7,35.9c58.3,1.8,87.7-10.8,112.4-25.8
	c10.7-6.5,15.5-10.9,22.8-16.7c13.4-10.5,22.5-21.7,42.7-26.1c21.9-4.7,50.5-0.4,66.8-40.9c13.3-33.2,31.2-31.5,59.3-30.5
	C412.4,72.9,437.3,59.6,438.7,55.2z"/>
<g>
	<path class="st2" d="M352.6,71c-0.4,1-0.9,1.9-1.7,2.6c-0.3,0.3-0.6,0.5-1,0.4c-1-0.2-1.7-1.7-1.2-2.6c0.6-1.1,1.1-2.1,1.3-3.3
		c0.2-1.2-0.3-2.2-1.3-2.9c-0.8-0.5-1.6-0.9-2.5-0.9c-0.7,0-1.4-0.2-2.1-0.4c-2.1-0.4-3.8-2.7-3.5-5.1c0.1-0.6,0.2-1.2,0-1.8
		c-1.6,3-2.4,6.2-1.5,9.6c0.4,1.3,0.3,2.6-0.2,3.8c-0.6,1.5-0.4,2.9,0.2,4.3c0.5,1.2,1.5,1.7,2.8,1.6c0.5,0,0.9-0.3,1.5-0.1
		c-0.1,1.9,0.3,3.7,0.7,5.6c-0.5,0-0.9,0.1-1.3,0.1c-0.8,0.1-1.2,0.6-1.1,1.1c0.2,0.7,0.7,0.7,1.3,0.7c0.4,0,0.8-0.1,1.1,0
		c1.5,0.1,1.8-0.3,1.5-1.7c-0.4-1.8-0.4-3.7-0.4-5.6c0-1.3,1-1.7,1.8-2.2c0.7-0.4,0.9,0.6,1.4,0.8c0.2,0.1,0.3,0.2,0.5,0.4
		c1.3,0.9,1.9,0.8,3-0.3c0.7-0.6,1-1.5,1.6-2.2c0.4,0.2,0.8,0.4,1.2,0.6c0.4,0.1,0.8,0.1,1-0.3c0.3-0.5,0-0.9-0.3-1.1
		C354.3,71.6,353.5,71.2,352.6,71z"/>
	<path class="st2" d="M343.1,58.1c-0.3,1.2-0.1,2.4,0.4,3.5c0.3,0.6,0.7,1,1.3,1.2c0.8,0.3,1.3,0,1.6-0.8c0.3-0.9,0.3-1.8-0.5-2.5
		c-1.2-1.1-1.6-2.5-1.5-4.1c0-0.5,0.1-1,0.1-1.8C343.5,55.1,343.5,56.6,343.1,58.1z"/>
	<path class="st2" d="M335.7,63.4c-0.4-0.1-0.3,0.3-0.3,0.6c-0.2,0.6-0.3,1.3-0.4,2c-0.1,1.5,0.1,2.9,0.8,4.3
		c0.3,0.5,0.6,0.9,1.2,0.8c0.6-0.1,1-0.6,1.1-1.2c0.3-0.8-0.2-1.4-0.6-2c-0.9-1.2-1.5-2.4-1.7-3.9C335.9,63.8,336,63.4,335.7,63.4z"
		/>
</g>
<path class="st3" d="M26.6,155.2c-0.2,0.2-0.3,1,0.4,1.1c1,1.1,1.3,5.5,0,6.5c-0.9,0.7-2.9,1.9-2.9,4.3c0,3.4,2.8,5,6.9,5.1
	c4.3,0,6.9-1.6,6.8-5c0-2.1-1.6-3.6-2.5-4.4c-1.5-1.2-1.4-5.6-0.5-6.5c0.5,0,0.6-1,0.4-1.1c-0.2-0.1-2.3-0.4-4.5-0.4
	C28.6,154.8,26.8,155,26.6,155.2z"/>
<path class="st3" d="M43.6,149.7c-0.3,0.2-0.4,1.3,0.5,1.4c1.4,1.5,1.7,7.3,0.1,8.6c-1.2,1-3.9,2.4-3.9,5.7c0,4.5,3.7,6.7,9.1,6.7
	c5.7,0,9.1-2.1,9-6.6c0-2.8-2.1-4.8-3.4-5.8c-2-1.6-1.9-7.4-0.6-8.6c0.6,0,0.8-1.3,0.5-1.5c-0.3-0.2-3-0.5-6-0.5
	C46.2,149.2,43.9,149.5,43.6,149.7z"/>
<path class="st4" d="M37.9,174.4c-0.5-0.2-0.6-1-0.4-1.6c0.2-0.6,0.4-1,0.9-1.5c0.5-0.4,0.8-0.5,1.5-0.5c0.4,0,0.9,0.2,1.1,0.4
	c0.1,0.1,0.1,0.2,0.2,0.3c0.1,0.1,0.2,0,0.2,0.1c0.2,0.2,0.4,0.7,0.5,1.1c0.1,0.5-0.2,1-0.6,1.4c-0.3,0.3-0.9,0.8-1.5,0.9
	c-0.3,0.1-1.3,0.1-1.4-0.2C38.5,174.5,38.2,174.3,37.9,174.4L37.9,174.4z M40.9,171.5c-0.5-0.4-0.8-0.5-1.6-0.2
	c-0.5,0.2-0.9,0.6-1.1,0.9c-0.2,0.4-0.6,1.4-0.2,1.8c0.4,0.2,0.6-0.1,0.9-0.3c0.2-0.1,0.3-0.4,0.4-0.5c0-0.1-0.1-0.2-0.1-0.2
	c0-0.1-0.1-0.1-0.2-0.2c0.1-0.1,0.2,0,0.4,0.2c0,0,0.1,0.2,0.2,0.2c0.1,0,0.1-0.1,0.2-0.1c0,0,0.1-0.1,0.1-0.1
	c-0.1-0.2-0.1-0.2-0.2-0.3c-0.1-0.1-0.2-0.1-0.2-0.2c0.1-0.1,0.2,0,0.3,0.1c0.1,0.1,0.2,0.2,0.2,0.2c0,0,0.1-0.1,0.2-0.1
	c0.1-0.1,0.1-0.1,0.2-0.2c-0.2-0.2-0.4-0.4-0.3-0.4c0.1-0.1,0.2,0.1,0.5,0.3C40.6,171.9,40.9,171.6,40.9,171.5L40.9,171.5z
	 M41.2,171.8c-0.1,0-0.4,0.2-0.5,0.4c0.1,0.2,0.3,0.4,0.3,0.5c-0.1,0.1-0.2-0.1-0.4-0.3l-0.3,0.3c0,0.1,0.1,0.1,0.2,0.2
	c0.1,0.1,0.1,0.2,0,0.3c-0.1-0.1-0.1-0.1-0.2-0.2c0,0-0.1-0.2-0.2-0.1l-0.2,0.3c0,0.1,0.1,0.1,0.2,0.2c0.1,0.1,0.1,0.2,0.1,0.3
	c0,0-0.2-0.2-0.2-0.2c-0.1,0-0.1-0.1-0.2-0.1c-0.2,0.1-1,0.9-0.7,1.2c0.6,0.1,0.9,0.1,1.4-0.2c0.7-0.4,1.2-0.9,1.3-1.7
	C41.6,172.4,41.5,172.2,41.2,171.8z"/>
<path class="st4" d="M46.4,176c-0.2,0.5-1,0.6-1.6,0.5c-0.6-0.2-1.1-0.4-1.5-0.8c-0.5-0.5-0.5-0.8-0.6-1.5c0-0.4,0.1-0.9,0.3-1.1
	c0.1-0.1,0.2-0.1,0.3-0.2c0.1-0.1,0-0.2,0.1-0.2c0.2-0.2,0.7-0.4,1.1-0.5c0.5-0.1,1,0.2,1.4,0.5c0.3,0.3,0.8,0.8,1,1.4
	c0.1,0.3,0.1,1.3-0.2,1.4C46.5,175.3,46.4,175.6,46.4,176L46.4,176z M43.4,173.1c-0.3,0.5-0.4,0.8-0.2,1.6c0.2,0.5,0.6,0.9,0.9,1.1
	c0.4,0.2,1.4,0.5,1.8,0.2c0.2-0.4-0.1-0.6-0.3-0.9c-0.1-0.2-0.4-0.3-0.5-0.3c-0.1,0-0.2,0.1-0.2,0.1c-0.1,0-0.1,0.1-0.2,0.2
	c-0.1-0.1,0-0.2,0.1-0.4c0-0.1,0.2-0.1,0.2-0.2c0-0.1-0.1-0.1-0.1-0.2c0,0-0.1-0.1-0.2-0.1c-0.2,0.1-0.2,0.2-0.3,0.2
	c-0.1,0.1-0.1,0.2-0.2,0.2c-0.1,0,0-0.2,0.1-0.3c0.1-0.1,0.2-0.2,0.2-0.2c0,0-0.1-0.1-0.1-0.1c-0.1-0.1-0.1-0.1-0.2-0.2
	c-0.2,0.3-0.3,0.4-0.4,0.3c-0.1-0.1,0.1-0.2,0.2-0.5C43.9,173.4,43.6,173.1,43.4,173.1L43.4,173.1z M43.8,172.8
	c0,0.1,0.2,0.3,0.5,0.5c0.2-0.1,0.3-0.4,0.5-0.3c0.1,0.1,0,0.2-0.2,0.5l0.4,0.3c0.1,0,0.1-0.1,0.2-0.2c0.1-0.1,0.2-0.1,0.3-0.1
	c-0.1,0.1-0.1,0.2-0.2,0.2c0,0-0.1,0.2-0.1,0.2l0.3,0.2c0.1,0,0.1-0.1,0.2-0.2c0.1-0.1,0.1-0.1,0.3-0.1c0,0-0.2,0.2-0.2,0.2
	c0,0.1-0.1,0.1-0.1,0.2c0.1,0.2,1,1,1.2,0.7c0.1-0.6,0-0.9-0.2-1.4c-0.4-0.7-0.9-1.2-1.7-1.2C44.4,172.4,44.1,172.5,43.8,172.8z"/>
<path class="st4" d="M33.6,177.4c-0.6,0.1-1.1-0.6-1.2-1.1c-0.2-0.6-0.2-1.1,0-1.7c0.2-0.6,0.5-0.9,1-1.2c0.4-0.2,0.8-0.3,1.1-0.3
	c0.1,0,0.2,0.1,0.3,0.2c0.1,0,0.2-0.1,0.3,0c0.3,0.1,0.7,0.4,1,0.7c0.3,0.4,0.4,0.9,0.3,1.5c-0.1,0.4-0.3,1.1-0.7,1.6
	c-0.2,0.3-1,0.8-1.3,0.6C34.2,177.1,33.9,177.1,33.6,177.4L33.6,177.4z M34.6,173.3c-0.6,0-1,0-1.5,0.7c-0.3,0.5-0.5,1-0.5,1.4
	c0,0.4,0.3,1.5,0.8,1.7c0.5,0,0.5-0.4,0.6-0.8c0.1-0.2,0.1-0.5,0-0.6c0-0.1-0.2-0.1-0.2-0.1c-0.1,0-0.2,0-0.3-0.1
	c0-0.1,0.1-0.1,0.4-0.1c0.1,0,0.2,0.1,0.2,0c0.1,0,0.1-0.1,0.1-0.2c0-0.1,0.1-0.2,0-0.2c-0.1-0.1-0.2-0.1-0.3-0.1
	c-0.1,0-0.2,0-0.2-0.1c0-0.1,0.2-0.1,0.3-0.1c0.1,0,0.2,0.1,0.3,0c0,0,0-0.1,0.1-0.2c0-0.1,0-0.1,0.1-0.3c-0.3-0.1-0.5-0.1-0.5-0.2
	c0-0.1,0.2,0,0.5,0C34.6,173.8,34.7,173.5,34.6,173.3L34.6,173.3z M35,173.4c-0.1,0.1-0.2,0.3-0.2,0.7c0.2,0.1,0.5,0.1,0.5,0.2
	c0,0.1-0.2,0.1-0.5,0l-0.1,0.5c0.1,0,0.2,0,0.3,0.1c0.2,0.1,0.2,0.1,0.2,0.2c-0.2,0-0.2,0-0.3,0c-0.1,0-0.2,0-0.2,0l0,0.4
	c0,0.1,0.2,0.1,0.3,0.1c0.2,0,0.2,0.1,0.2,0.2c-0.1,0-0.2,0-0.3-0.1c-0.1,0-0.1,0-0.2,0c-0.1,0.2-0.3,1.3,0.1,1.4
	c0.5-0.2,0.8-0.4,1.1-0.9c0.4-0.7,0.6-1.4,0.2-2.1C35.7,173.7,35.4,173.6,35,173.4z"/>
<path class="st4" d="M40.1,178.7c-0.5-0.2-0.6-1-0.4-1.6c0.2-0.6,0.4-1,0.9-1.5c0.5-0.4,0.8-0.5,1.5-0.5c0.4,0,0.9,0.2,1.1,0.4
	c0.1,0.1,0.1,0.2,0.2,0.3c0.1,0.1,0.2,0,0.2,0.1c0.2,0.2,0.4,0.7,0.5,1.1c0.1,0.5-0.2,1-0.6,1.4c-0.3,0.3-0.8,0.8-1.5,0.9
	c-0.3,0.1-1.3,0.1-1.4-0.2C40.8,178.8,40.5,178.6,40.1,178.7L40.1,178.7z M43.1,175.8c-0.5-0.4-0.8-0.5-1.6-0.2
	c-0.5,0.2-0.9,0.6-1.1,0.9c-0.2,0.4-0.6,1.4-0.2,1.8c0.4,0.2,0.6-0.1,0.9-0.3c0.2-0.1,0.3-0.4,0.4-0.5c0-0.1-0.1-0.2-0.1-0.2
	c0-0.1-0.1-0.1-0.2-0.2c0.1-0.1,0.2,0,0.4,0.2c0,0,0.1,0.2,0.2,0.2c0.1,0,0.1-0.1,0.2-0.1c0,0,0.1-0.1,0.1-0.1
	c-0.1-0.2-0.1-0.2-0.2-0.3c-0.1-0.1-0.2-0.1-0.2-0.2c0.1-0.1,0.2,0,0.3,0.1c0.1,0.1,0.2,0.2,0.2,0.2c0,0,0.1-0.1,0.1-0.1
	c0.1-0.1,0.1-0.1,0.2-0.2c-0.2-0.2-0.4-0.4-0.3-0.4c0.1-0.1,0.2,0.1,0.5,0.3C42.8,176.2,43.1,175.9,43.1,175.8L43.1,175.8z
	 M43.4,176.1c-0.1,0-0.4,0.2-0.5,0.4c0.1,0.2,0.3,0.4,0.3,0.5c-0.1,0.1-0.2-0.1-0.4-0.3l-0.3,0.3c0,0.1,0.1,0.1,0.2,0.2
	c0.1,0.1,0.1,0.2,0,0.3c-0.1-0.1-0.1-0.1-0.2-0.2c0,0-0.1-0.2-0.2-0.1l-0.2,0.3c0,0.1,0.1,0.1,0.2,0.2c0.1,0.1,0.1,0.2,0.1,0.3
	c0,0-0.2-0.2-0.2-0.2c-0.1,0-0.1-0.1-0.2-0.1c-0.2,0.1-1,0.9-0.7,1.2c0.6,0.1,0.9,0.1,1.4-0.2c0.7-0.4,1.2-0.9,1.3-1.7
	C43.8,176.7,43.7,176.5,43.4,176.1z"/>
<path class="st4" d="M106.3,174.2c-0.5-0.1-0.6-0.7-0.4-1c0.2-0.4,0.4-0.7,0.9-0.9c0.5-0.3,0.8-0.3,1.5-0.3c0.4,0,0.9,0.1,1.1,0.2
	c0.1,0.1,0.1,0.1,0.2,0.2c0.1,0.1,0.2,0,0.2,0.1c0.2,0.1,0.4,0.5,0.5,0.7c0.1,0.3-0.2,0.6-0.6,0.9c-0.3,0.2-0.8,0.5-1.5,0.6
	c-0.3,0.1-1.3,0.1-1.4-0.2C106.9,174.2,106.6,174.1,106.3,174.2L106.3,174.2z M109.3,172.3c-0.5-0.2-0.8-0.3-1.6-0.1
	c-0.5,0.1-0.9,0.4-1.1,0.6c-0.2,0.2-0.6,0.9-0.2,1.2c0.4,0.1,0.6,0,0.9-0.2c0.2-0.1,0.3-0.3,0.4-0.3c0-0.1-0.1-0.1-0.1-0.1
	c0,0-0.1-0.1-0.2-0.1c0.1-0.1,0.2,0,0.4,0.1c0,0,0.1,0.1,0.2,0.1c0.1,0,0.1,0,0.2-0.1c0,0,0.1-0.1,0.1-0.1c-0.1-0.1-0.1-0.1-0.2-0.2
	c-0.1-0.1-0.2-0.1-0.2-0.1c0.1,0,0.2,0,0.3,0.1c0.1,0,0.2,0.1,0.2,0.1c0,0,0.1-0.1,0.1-0.1c0.1,0,0.1-0.1,0.2-0.1
	c-0.2-0.2-0.4-0.2-0.3-0.3c0.1-0.1,0.2,0.1,0.5,0.2C109,172.6,109.2,172.4,109.3,172.3L109.3,172.3z M109.6,172.5
	c-0.1,0-0.4,0.1-0.5,0.3c0.1,0.1,0.3,0.2,0.3,0.3c-0.1,0.1-0.2,0-0.4-0.2l-0.3,0.2c0,0,0.1,0.1,0.2,0.1c0.1,0.1,0.1,0.1,0,0.2
	c-0.1-0.1-0.1-0.1-0.2-0.1c0,0-0.1-0.1-0.2,0l-0.2,0.2c0,0,0.1,0.1,0.2,0.2c0.1,0.1,0.1,0.1,0.1,0.2c0,0-0.2-0.1-0.2-0.1
	c-0.1,0-0.1-0.1-0.2-0.1c-0.2,0.1-1,0.6-0.7,0.8c0.6,0.1,0.9,0,1.4-0.1c0.7-0.2,1.2-0.6,1.3-1.1
	C109.9,172.9,109.8,172.8,109.6,172.5z"/>
<path class="st4" d="M114.5,170.4c0.4,0.3,0.2,0.8-0.2,1c-0.4,0.3-0.8,0.5-1.4,0.7c-0.6,0.1-1,0.1-1.6,0c-0.4-0.1-0.7-0.3-0.9-0.5
	c-0.1-0.1,0-0.1-0.1-0.2c-0.1-0.1-0.1-0.1-0.2-0.1c-0.1-0.2-0.1-0.5,0-0.8c0.1-0.3,0.5-0.5,1.1-0.7c0.4-0.1,1.1-0.2,1.7-0.2
	c0.4,0,1.2,0.3,1.2,0.5C114,170.2,114.2,170.4,114.5,170.4L114.5,170.4z M110.7,171.4c0.3,0.3,0.6,0.5,1.4,0.5
	c0.6,0,1.1-0.1,1.4-0.3c0.3-0.2,1.1-0.7,0.9-1c-0.3-0.2-0.6-0.1-1,0c-0.2,0-0.5,0.2-0.5,0.2c-0.1,0,0,0.1,0,0.2c0,0,0.1,0.1,0.1,0.2
	c-0.1,0-0.2,0-0.3-0.2c0,0-0.1-0.1-0.1-0.1c-0.1,0-0.2,0-0.3,0c-0.1,0-0.2,0-0.2,0.1c0,0.1,0.1,0.1,0.1,0.2c0,0.1,0.1,0.1,0.1,0.2
	c-0.1,0-0.2,0-0.2-0.1c0-0.1-0.1-0.2-0.1-0.2c0,0-0.1,0-0.2,0c-0.1,0-0.1,0-0.2,0.1c0.1,0.2,0.2,0.3,0.1,0.3c-0.1,0-0.2-0.1-0.3-0.3
	C111.1,171.2,110.8,171.3,110.7,171.4L110.7,171.4z M110.6,171.1c0.1,0,0.4,0,0.7-0.1c-0.1-0.2-0.2-0.3-0.1-0.3
	c0.1,0,0.2,0.1,0.3,0.3l0.4-0.1c0,0-0.1-0.1-0.1-0.2c-0.1-0.1,0-0.1,0.1-0.2c0.1,0.1,0.1,0.1,0.2,0.2c0,0,0.1,0.1,0.2,0.1l0.3-0.1
	c0,0-0.1-0.1-0.1-0.2c-0.1-0.1,0-0.1,0-0.2c0,0,0.1,0.1,0.1,0.2c0,0,0.1,0.1,0.2,0.1c0.2,0,1.3-0.3,1.1-0.5
	c-0.5-0.2-0.8-0.3-1.3-0.2c-0.8,0-1.5,0.2-1.8,0.7C110.4,170.7,110.4,170.9,110.6,171.1z"/>
<path class="st4" d="M101.1,174.4c-0.5-0.2-0.6-0.7-0.4-1c0.2-0.4,0.4-0.7,0.9-0.9c0.5-0.3,0.8-0.3,1.5-0.3c0.4,0,0.9,0.1,1.1,0.2
	c0.1,0.1,0.1,0.1,0.2,0.2c0.1,0.1,0.2,0,0.2,0.1c0.2,0.1,0.4,0.5,0.5,0.7c0.1,0.3-0.2,0.6-0.6,0.9c-0.3,0.2-0.8,0.5-1.5,0.6
	c-0.3,0.1-1.3,0.1-1.4-0.2C101.7,174.5,101.4,174.4,101.1,174.4L101.1,174.4z M104.1,172.5c-0.5-0.2-0.8-0.3-1.6-0.1
	c-0.5,0.1-0.9,0.4-1.1,0.6c-0.2,0.2-0.6,0.9-0.2,1.2c0.4,0.1,0.6,0,0.9-0.2c0.2-0.1,0.3-0.3,0.4-0.3c0-0.1-0.1-0.1-0.1-0.1
	c0,0-0.1-0.1-0.2-0.1c0.1-0.1,0.2,0,0.4,0.1c0,0,0.1,0.1,0.2,0.1c0.1,0,0.1,0,0.2-0.1c0,0,0.1-0.1,0.1-0.1c-0.1-0.1-0.1-0.1-0.2-0.2
	c-0.1-0.1-0.2-0.1-0.2-0.1c0.1,0,0.2,0,0.3,0.1c0.1,0,0.2,0.1,0.2,0.1c0,0,0.1-0.1,0.1-0.1c0.1,0,0.1-0.1,0.2-0.1
	c-0.2-0.2-0.4-0.2-0.3-0.3c0.1-0.1,0.2,0.1,0.5,0.2C103.8,172.8,104.1,172.6,104.1,172.5L104.1,172.5z M104.4,172.8
	c-0.1,0-0.4,0.1-0.5,0.3c0.1,0.1,0.3,0.2,0.3,0.3c-0.1,0.1-0.2,0-0.4-0.2l-0.3,0.2c0,0,0.1,0.1,0.2,0.1c0.1,0.1,0.1,0.1,0,0.2
	c-0.1-0.1-0.1-0.1-0.2-0.1c0,0-0.1-0.1-0.2,0l-0.2,0.2c0,0,0.1,0.1,0.2,0.2c0.1,0.1,0.1,0.1,0.1,0.2c0,0-0.2-0.1-0.2-0.1
	c-0.1,0-0.1,0-0.2-0.1c-0.2,0.1-1,0.6-0.7,0.8c0.6,0.1,0.9,0,1.4-0.1c0.7-0.2,1.2-0.6,1.3-1.1C104.8,173.1,104.6,173,104.4,172.8z"
	/>
<path class="st4" d="M112.9,174.1c-0.2-0.3,0.2-0.8,0.7-1c0.5-0.2,1-0.3,1.6-0.4c0.6,0,1,0.1,1.5,0.3c0.3,0.2,0.6,0.4,0.6,0.6
	c0,0.1-0.1,0.1,0,0.2c0,0.1,0.1,0.1,0.1,0.2c0,0.2-0.2,0.5-0.4,0.7c-0.3,0.3-0.8,0.4-1.4,0.5c-0.4,0-1.1,0-1.7-0.1
	c-0.3-0.1-1-0.5-0.9-0.7C113.3,174.4,113.2,174.2,112.9,174.1L112.9,174.1z M117,173.9c-0.2-0.4-0.3-0.6-1.1-0.8
	c-0.5-0.1-1.1-0.1-1.4,0c-0.4,0.1-1.4,0.5-1.3,0.8c0.2,0.3,0.5,0.2,0.9,0.2c0.2,0,0.5-0.1,0.6-0.1c0.1,0,0-0.1,0.1-0.2
	c0,0,0-0.1,0-0.2c0.1,0,0.2,0.1,0.2,0.2c0,0,0,0.1,0,0.2c0.1,0,0.2,0,0.3,0c0.1,0,0.2,0,0.2,0c0.1-0.1,0-0.1,0-0.2
	c0-0.1,0-0.1,0-0.2c0.1,0,0.1,0.1,0.2,0.2c0,0.1,0,0.2,0.1,0.2c0,0,0.1,0,0.2,0c0.1,0,0.1,0,0.3,0c0-0.2,0-0.3,0.1-0.3
	c0.1,0,0.1,0.1,0.2,0.3C116.6,174,116.9,174,117,173.9L117,173.9z M117.1,174.2c-0.1,0-0.4-0.1-0.7,0c0,0.2,0,0.3-0.1,0.3
	c-0.1,0-0.1-0.1-0.2-0.3l-0.5,0c0,0,0,0.1,0,0.2c0,0.1-0.1,0.1-0.1,0.2c0-0.1,0-0.1-0.1-0.2c0,0,0-0.1-0.1-0.1l-0.4,0
	c-0.1,0,0,0.1,0,0.2c0,0.1,0,0.1-0.1,0.2c0,0,0-0.1,0-0.2c0,0,0-0.1-0.1-0.1c-0.2,0-1.4,0-1.3,0.3c0.4,0.3,0.6,0.4,1.2,0.5
	c0.8,0.1,1.5,0.1,2.1-0.3C117,174.6,117,174.5,117.1,174.2z"/>
<path class="st4" d="M104,175.4c0.1-0.4,0.9-0.5,1.4-0.5c0.6,0,1.1,0.1,1.6,0.3c0.5,0.2,0.7,0.5,0.9,0.8c0.1,0.3,0,0.6-0.1,0.7
	c-0.1,0.1-0.2,0.1-0.2,0.2c-0.1,0.1,0,0.1-0.1,0.2c-0.2,0.2-0.6,0.4-1,0.5c-0.5,0.1-1,0-1.5-0.1c-0.3-0.1-0.9-0.4-1.2-0.8
	c-0.2-0.2-0.4-0.8-0.1-0.9C104.1,175.8,104.2,175.6,104,175.4L104,175.4z M107.6,176.8c0.2-0.4,0.3-0.6-0.2-1
	c-0.3-0.3-0.8-0.5-1.1-0.6c-0.4-0.1-1.5-0.1-1.8,0.1c-0.1,0.3,0.2,0.4,0.5,0.5c0.2,0.1,0.5,0.1,0.6,0.1c0.1,0,0.1-0.1,0.2-0.1
	c0,0,0.1-0.1,0.2-0.1c0.1,0.1,0.1,0.1-0.1,0.2c0,0-0.1,0.1-0.1,0.1c0,0,0.1,0.1,0.2,0.1c0,0,0.1,0.1,0.2,0.1
	c0.1-0.1,0.1-0.1,0.2-0.2c0.1-0.1,0.1-0.1,0.2-0.1c0.1,0,0,0.1,0,0.2c0,0.1-0.2,0.1-0.1,0.2c0,0,0.1,0.1,0.2,0.1
	c0.1,0,0.1,0.1,0.2,0.1c0.2-0.2,0.3-0.3,0.4-0.3c0.1,0,0,0.1-0.1,0.3C107.1,176.7,107.4,176.8,107.6,176.8L107.6,176.8z M107.3,177
	c-0.1-0.1-0.3-0.2-0.6-0.3c-0.2,0.1-0.3,0.3-0.4,0.2c-0.1,0,0-0.1,0.1-0.3l-0.4-0.2c0,0-0.1,0.1-0.2,0.2c-0.1,0.1-0.2,0.1-0.2,0.1
	c0.1-0.1,0.1-0.1,0.1-0.2c0,0,0.1-0.1,0-0.1l-0.3-0.1c-0.1,0-0.1,0.1-0.2,0.2c-0.1,0.1-0.1,0.1-0.2,0.1c0,0,0.1-0.1,0.2-0.2
	c0,0,0-0.1,0.1-0.1c-0.2-0.1-1.1-0.5-1.3-0.3c0,0.4,0.1,0.6,0.5,0.8c0.5,0.4,1.1,0.6,1.9,0.6C106.8,177.3,107,177.2,107.3,177z"/>
<path class="st4" d="M112.7,176.1c0.5,0.2,0.4,0.7,0.1,1c-0.3,0.4-0.6,0.6-1.2,0.8c-0.5,0.2-0.9,0.2-1.5,0.1c-0.4-0.1-0.8-0.2-1-0.4
	c-0.1-0.1,0-0.1-0.1-0.2c-0.1-0.1-0.1,0-0.2-0.1c-0.2-0.2-0.3-0.5-0.2-0.8c0-0.3,0.4-0.6,0.9-0.8c0.3-0.1,1-0.4,1.6-0.4
	c0.4,0,1.3,0.1,1.3,0.3C112.1,175.9,112.3,176.1,112.7,176.1L112.7,176.1z M109.2,177.5c0.4,0.3,0.7,0.4,1.5,0.3
	c0.5-0.1,1-0.3,1.3-0.4c0.3-0.2,0.8-0.8,0.6-1.1c-0.3-0.2-0.6,0-0.9,0.1c-0.2,0.1-0.4,0.2-0.4,0.3c0,0,0,0.1,0.1,0.2
	c0,0,0.1,0.1,0.1,0.2c-0.1,0-0.2,0-0.3-0.1c0,0-0.1-0.1-0.1-0.1c-0.1,0-0.2,0-0.2,0.1c-0.1,0-0.2,0-0.2,0.1c0,0.1,0.1,0.1,0.2,0.2
	c0.1,0.1,0.1,0.1,0.1,0.2c-0.1,0-0.2,0-0.3-0.1c-0.1-0.1-0.1-0.1-0.2-0.2c0,0-0.1,0-0.2,0.1c-0.1,0-0.1,0-0.2,0.1
	c0.2,0.2,0.3,0.3,0.2,0.3c-0.1,0.1-0.2-0.1-0.4-0.2C109.5,177.3,109.2,177.4,109.2,177.5L109.2,177.5z M109,177.3
	c0.1,0,0.4-0.1,0.6-0.2c-0.1-0.1-0.3-0.3-0.2-0.3c0.1,0,0.2,0.1,0.4,0.2l0.4-0.2c0,0-0.1-0.1-0.2-0.2c-0.1-0.1-0.1-0.1,0-0.2
	c0.1,0.1,0.1,0.1,0.2,0.2c0,0,0.1,0.1,0.2,0.1l0.3-0.2c0,0-0.1-0.1-0.2-0.2c-0.1-0.1-0.1-0.1,0-0.2c0,0,0.1,0.1,0.2,0.2
	c0,0,0.1,0.1,0.2,0.1c0.2,0,1.2-0.5,0.9-0.7c-0.5-0.1-0.8-0.2-1.4-0.1c-0.7,0.1-1.4,0.4-1.6,0.9C108.7,176.9,108.8,177,109,177.3z"
	/>
<path class="st4" d="M47.3,173.9c-0.2-0.3,0.3-0.8,0.8-1.1c0.5-0.3,1-0.4,1.6-0.4c0.6,0,0.9,0.1,1.4,0.3c0.3,0.2,0.5,0.5,0.6,0.7
	c0,0.1-0.1,0.1-0.1,0.2c0,0.1,0.1,0.1,0.1,0.2c0,0.2-0.2,0.6-0.4,0.8c-0.3,0.3-0.8,0.5-1.4,0.5c-0.4,0-1.1,0.1-1.7-0.1
	c-0.3-0.1-1-0.5-0.9-0.7C47.7,174.3,47.6,174,47.3,173.9L47.3,173.9z M51.4,173.6c-0.1-0.4-0.3-0.6-1-0.8c-0.5-0.1-1.1-0.1-1.4,0
	c-0.4,0.1-1.4,0.5-1.4,0.9c0.1,0.3,0.5,0.2,0.9,0.2c0.2,0,0.5-0.1,0.6-0.1c0.1,0,0.1-0.1,0.1-0.2c0-0.1,0-0.1,0-0.2
	c0.1,0,0.2,0.1,0.2,0.2c0,0,0,0.1,0,0.2c0.1,0,0.2,0,0.3,0c0.1,0,0.2,0,0.2,0c0.1-0.1,0-0.2,0-0.2c0-0.1,0-0.1,0-0.2
	c0.1,0,0.1,0.1,0.1,0.2c0,0.1,0,0.2,0,0.2c0,0,0.1,0,0.2,0c0.1,0,0.1,0,0.3,0c0-0.2,0-0.3,0.1-0.4c0.1,0,0.1,0.1,0.2,0.3
	C50.9,173.7,51.3,173.7,51.4,173.6L51.4,173.6z M51.4,173.9c-0.1,0-0.4-0.1-0.7,0c0,0.2,0,0.3-0.1,0.4c-0.1,0-0.1-0.1-0.2-0.3
	l-0.5,0c0,0,0,0.1,0,0.2c0,0.1-0.1,0.2-0.1,0.2c0-0.1,0-0.1,0-0.2c0,0,0-0.1-0.1-0.1l-0.4,0.1c-0.1,0,0,0.1,0,0.2
	c0,0.1,0,0.1-0.1,0.2c0,0,0-0.2,0-0.2c0-0.1,0-0.1-0.1-0.2c-0.2,0-1.4,0.1-1.3,0.4c0.4,0.3,0.6,0.4,1.1,0.5c0.7,0.1,1.5,0,2.1-0.4
	C51.3,174.4,51.4,174.2,51.4,173.9z"/>
<path class="st5" d="M97.4,163.2c-0.8-3.4-2.2-6.5-3.5-9.7c-0.7-1.6-1.4-3.1-2-4.8c-0.4-1-0.5-2,0.9-2.3c1.4-0.3,1.9-1.3,2.1-2.5
	c0.2-1,0.5-1.9,1.3-2.5c0.7-0.6,0.7-1.4,0.2-2.2c-1.8-3.5-6.2-3.8-8.4-0.7c-0.4,0.5-0.5,1.1-0.8,1.7c-0.9,2.5-2.3,4.7-4.2,6.6
	c-1.4,1.4-2.8,2.8-4.2,4.3c-2.2,2.4-2.2,5.8,0,8.6c0.4-5.1,2.4-8,6.6-9.4c-1.3,1.9-1.5,4-1.6,6.1c-0.1,1.5-0.6,2.8-1.6,3.9
	c-1,1.1-1.6,2.4-2.1,3.8c-0.7,2.1-0.2,3.9,1.5,5.4c1.2,1,2.5,1.7,4.1,2c2.2,0.3,4.4,1,6.5,2c-0.9,0.9-1.9,0.8-2.8,0.5
	c-1.8-0.5-3.7-0.6-5.5-1.4c-0.8-0.4-1.9-0.6-2.5,0.3c-1.3,2-2.3,4.1-3.4,6.1c-0.2,0.4-0.2,0.9,0.2,1.2c0.4,0.3,0.9,0.2,1.3,0
	c1.2-0.7,2.2-1.7,2.9-2.8c0.6-1,1.3-1.2,2.5-0.9c3.4,0.7,6.8,1.1,10.2,1c1.8,0,3.4-0.6,4.5-2c0.9-1.1,0.8-7-0.3-8
	C98.2,166.3,97.8,164.7,97.4,163.2z M90.3,164.2c-1.7-1.2-2-3.3-0.5-5.2c0.6-0.8,1.4-1.3,2.3-2.2c1.8,3.4,3.1,6.9,4.1,10.8
	C93.8,166.6,92.1,165.4,90.3,164.2z"/>
<path class="st5" d="M138.7,176.8c-1.2-0.4-2-1.1-2.7-2.1c-0.8-1.3-1.9-1.7-3.5-1.3c-2.8,0.7-5.7,1.1-8.7,0c1.5-0.3,3.1-0.6,4.6-0.9
	c1.9-0.5,3.8-0.8,5.9-0.6c3.4,0.3,5.6-1.8,5.8-5.3c0.2-6.5-2.4-12.2-5.5-17.6c-0.3-0.5-0.6-1-1-1.3c-1.8-1.2-1.5-4.9-0.9-6.3
	c0.6-1.2-0.4-0.4,1.1-1.2c0.7-0.4,0.8-1.4,0.5-2.2c-0.2-0.8-0.9-1.4-1.6-1.1c-0.9,0.4-1.1,0.9-1.1,0.9s-0.8-0.9-1.6-1.3
	c-0.7-0.4-2.9-0.3-3.7,0.1c-1.9,0.9-2.5,2-1.6,3.9c0.4,0.9-0.2,1.4-0.5,2.6c-0.1,0.4,0.4,0.6,0.5,0.9c0.1,0.6,0.6,1.3,0.9,1.8
	c0.4,0.7,1.2,1.5,2.1,0.7c0.8-0.7,1.1,1.2,1.3,1.7c0.5,1.5,0,2.9-0.6,4.3c-2.6,6.5-4.3,13.4-9.6,18.5c-1.2,1.1-1.1,2,0.1,3.3
	c1.9,2.3,4.6,2.7,7.4,2.6c1.6-0.1,3.3-0.2,4.8-0.5c1.3-0.3,2.3,0,3.2,0.9c0.9,0.9,2,1.6,3.2,2.1c0.8,0.3,1.7,0.6,2.1-0.4
	C140.1,177.8,139.6,177.1,138.7,176.8z M131.4,156.6c1.1,2.3,1.4,4.4,1.8,6.5c0.2,1,0,1.8-1.1,2.1c-1.8,0.5-4.9,1.6-7,1.8
	C127,163.7,129.9,160.1,131.4,156.6z"/>
<path class="st5" d="M118.4,121.4c-0.4-0.1-0.8,0.3-1,0.7c-0.7,1.2-1.1,2.5-1.4,3.7c-0.2,0.7,0,1.3,0.7,1.5c0.7,0.2,1.1-0.4,1.3-1.1
	c0.3-1.2,0.7-2.4,1-3.6C119.1,122.1,119,121.5,118.4,121.4z"/>
<path class="st5" d="M126.8,128.3c1-1.1,1.9-2.2,2.8-3.3c0.2-0.2,0.2-0.5,0.3-0.7c-0.2-0.6-0.7-0.7-1.1-0.4
	c-1.3,0.9-2.4,1.9-3.3,3.1c-0.3,0.4-0.6,1,0,1.4C125.9,128.9,126.5,128.7,126.8,128.3z"/>
<path class="st5" d="M105.7,127.2c1.2,0,0.8-1.5,1-2.6c-0.4-0.8,0.6-2.6-1.1-2.6c-1.1,0-1,1.7-1.1,2.7
	C104.6,125.6,104.3,127.2,105.7,127.2z"/>
<path class="st5" d="M94.3,128c0.5-0.3,0.3-0.8,0.1-1.2c-0.9-1.3-1.8-2.6-2.7-3.9c-0.2,0.1-0.4,0.2-0.6,0.3c0.2,1.7,1.1,3.1,2.1,4.4
	C93.4,128,93.9,128.3,94.3,128z"/>
<g>
	<path class="st2" d="M107.1,158.8c0,0,0.6-0.6,1.9-1.1c1.3-0.5,2.1-0.1,3,0.9c1.4,1.6,1.7,2.1,1.5,2.6c-0.2,0.5-6.9,1-6.9,1l-1.3-1
		l1.1-2L107.1,158.8z"/>
	<path class="st5" d="M113.4,160.3c-0.2-0.8-0.7-1.4-1.4-1.8c-0.4-0.5-0.9-0.8-1.4-1c-0.6-0.4-1.3-0.4-2,0c-1.1,0.5-2.1,1.1-2.7,2.3
		c-0.3,0.4-0.6,0.9-0.8,1.3c-0.1,0.2-0.4,0-0.5,0.2c-0.2,0.8,0.1,1.9,0.7,2.8c0.3,0.5,0.6,1,1.1,1.4c0.4,0.3,0.8,0.3,0.8,1
		c0,0.6,0.5,0.8,1,0.7c0.7,0,1.4,0.1,2.1,0c0.3,0,0.7-0.1,0.7-0.4c0.1-0.7,0.7-0.9,1.2-1.2c1-0.8,1.5-1.9,2-3.1c0.5-1.4,0-1-0.2-1.4
		C113.8,160.8,113.5,160.5,113.4,160.3z M108.1,161.2c-1.1,0-1.7-0.1-2.5-0.1c0.1-0.1,0-1.3,2.4-3c1.4-1,2.6-0.3,2.6-0.3
		c0.7,0.3,0.9,0.6,1.8,1.5c0.7,0.5,0.8,1.4,1.1,1.9c0.1,0.1-0.6,0.1-1.3,0C110.5,161.1,109.7,161.2,108.1,161.2z"/>
</g>
<g>
	<path class="st6" d="M164,155.4c0.3-0.2,0.1-1.2,1.2-1.1c1.4,0.1,2.2,0.1,3.9,0.9c1.7,0.7,2.5,1.2,3.9,1.1c1.1-0.1,1.5-1.2,2.1-1.2
		c-0.4,3.9-2,4.8-5.5,5C166.9,160.1,164.4,158.9,164,155.4z"/>
	<path class="st3" d="M166.2,151.9c-1.3,0.5-2.7,1.5-2.6,4c0.1,3.6,3,4.8,6.2,4.8c3.7,0,5.9-1.7,6.1-5.3c0.1-2.4-1.7-3.3-2.9-3.6
		c-0.2,0-0.4-0.1-0.4-0.3c-0.2-0.7-0.2-2.1,0.3-3.3c-1.8,0.1-5,0.1-6.7,0.1c0.5,0.9,0.7,2.7,0.4,3.3
		C166.5,151.8,166.3,151.8,166.2,151.9L166.2,151.9z M164.6,155.6c0-1.6,0.9-3,2.9-3c1.2-0.2,2.8-0.2,4.2,0c1.7,0.2,3.2,0.5,3.1,2.9
		c-0.2,3.1-2.1,4.2-5.2,4.2C166.9,159.8,164.5,158.7,164.6,155.6z"/>
	<path class="st3" d="M173.4,148c0.1-0.2,0.1-0.6-0.3-0.7c-0.8-0.3-2.2-0.8-3.3-0.9c0-0.2,0.7-0.9-0.4-0.8c-1.1,0-0.5,0.7-0.5,0.9
		c-1,0.2-2.3,0.7-3,0.9c-0.3,0.2-0.4,0.5-0.2,0.7C168.4,148.1,170.3,148.2,173.4,148z"/>
</g>
<path class="st4" d="M47.3,147.1c-0.6-0.1-1.2,0.3-1.3,0.9c0,0,0,0.1,0,0.1c-0.1-0.1-0.2-0.1-0.4-0.2c-0.6-0.1-1.2,0.3-1.3,0.9
	c-0.1,0.3,0,0.5,0.1,0.7c-0.6,0-1.1,0.3-1.2,0.9c0,0.2,0,0.3,0,0.5c-0.5,0-1,0.4-1.1,0.9c-0.1,0.5,0.2,1,0.6,1.2
	c-0.3,0.2-0.5,0.4-0.6,0.8c-0.1,0.5,0.1,1,0.6,1.2c-0.1,0.1-0.1,0.2-0.1,0.3c-0.1,0.6,0.2,1.1,0.7,1.3c-0.2,0.2-0.3,0.4-0.3,0.6
	c-0.1,0.4,0.1,0.9,0.4,1.1c-0.4,0.1-0.7,0.4-0.8,0.9c-0.1,0.3,0,0.5,0.1,0.8c-0.4,0.1-0.8,0.4-0.8,0.9c-0.1,0.4,0.1,0.9,0.4,1.1
	c-0.2,0.2-0.3,0.4-0.4,0.7c-0.1,0.5,0.1,1,0.5,1.2c0,0.1-0.1,0.2-0.1,0.3c-0.1,0.6,0.3,1.2,0.9,1.3c0.2,0,0.4,0,0.5,0
	c0.1,0.4,0.4,0.7,0.8,0.8c0.5,0.1,1-0.2,1.2-0.6c0.1,0.1,0.2,0.1,0.4,0.1c0.6,0.1,1.2-0.3,1.3-0.9c0.1-0.3,0-0.5-0.1-0.7
	c0.3-0.1,0.6-0.4,0.7-0.8c0.1-0.3,0-0.6-0.2-0.8c0.4-0.1,0.6-0.4,0.7-0.8c0.1-0.4-0.1-0.9-0.4-1.1c0.4-0.1,0.7-0.4,0.8-0.9
	c0.1-0.5-0.2-1.1-0.7-1.3c0.3-0.1,0.6-0.4,0.6-0.8c0.1-0.6-0.3-1.2-0.8-1.3c0.2-0.2,0.3-0.3,0.3-0.6c0.1-0.6-0.3-1.2-0.9-1.3
	c0,0,0,0,0,0c0-0.1,0.1-0.1,0.1-0.2c0.1-0.4,0-0.7-0.3-1c0.2-0.2,0.3-0.4,0.3-0.6c0.1-0.4,0-0.7-0.3-1c0.3-0.1,0.6-0.4,0.6-0.8
	c0-0.2,0-0.3,0-0.5c0,0,0.1,0,0.1,0c0.6,0.1,1.2-0.3,1.3-0.9c0.1-0.6-0.3-1.2-0.9-1.3c-0.1,0-0.3,0-0.4,0
	C48.1,147.6,47.8,147.2,47.3,147.1z M46.5,149.2c0.1,0.1,0.2,0.1,0.4,0.2c0.1,0,0.3,0,0.4,0c0,0,0,0.1,0,0.1c0,0-0.1,0-0.1,0
	c-0.3-0.1-0.6,0-0.8,0.2C46.4,149.5,46.4,149.4,46.5,149.2C46.5,149.2,46.5,149.2,46.5,149.2z M46.1,151.2c-0.3,0.1-0.5,0.4-0.6,0.8
	c-0.1,0.4,0,0.7,0.3,1c-0.2,0.2-0.3,0.4-0.3,0.6c-0.1,0.6,0.3,1.2,0.9,1.3c0,0,0,0,0,0c0,0.1-0.1,0.1-0.1,0.2
	c-0.1,0.6,0.3,1.2,0.8,1.3c-0.2,0.2-0.3,0.3-0.3,0.6c-0.1,0.5,0.2,1.1,0.7,1.3c-0.3,0.1-0.6,0.4-0.6,0.8c-0.1,0.4,0.1,0.9,0.4,1.1
	c-0.4,0.1-0.7,0.4-0.8,0.9c-0.1,0.3,0,0.6,0.2,0.8c-0.4,0.1-0.6,0.4-0.7,0.8c-0.1,0.3,0,0.5,0.1,0.7c-0.3,0.1-0.5,0.3-0.6,0.6
	c-0.1-0.1-0.2-0.1-0.4-0.1c-0.2,0-0.4,0-0.5,0c-0.1-0.3-0.3-0.5-0.5-0.6c0-0.1,0.1-0.2,0.1-0.3c0.1-0.4-0.1-0.9-0.4-1.1
	c0.2-0.2,0.3-0.4,0.4-0.7c0.1-0.3,0-0.5-0.1-0.8c0.4-0.1,0.8-0.4,0.8-0.9c0.1-0.4-0.1-0.9-0.4-1.1c0.4-0.1,0.7-0.4,0.8-0.9
	c0.1-0.6-0.2-1.1-0.7-1.3c0.2-0.2,0.3-0.3,0.3-0.6c0.1-0.5-0.1-1-0.6-1.2c0.1-0.1,0.1-0.2,0.1-0.3c0.1-0.5-0.2-1-0.6-1.2
	c0.3-0.1,0.5-0.4,0.6-0.8c0-0.2,0-0.3,0-0.5c0.5,0,1-0.4,1.1-0.9c0.1-0.3,0-0.5-0.1-0.7c0.2,0,0.5,0,0.7-0.2c0,0.1-0.1,0.2-0.1,0.3
	C45.8,150.6,45.9,151,46.1,151.2z"/>
<path class="st4" d="M25.7,175.9c-0.2,0.5-0.9,0.6-1.5,0.4c-0.6-0.2-1.1-0.4-1.5-0.8c-0.5-0.4-0.6-0.8-0.7-1.4
	c0-0.4,0.1-0.8,0.2-1.1c0.1-0.1,0.2-0.1,0.3-0.2c0.1-0.1,0-0.2,0.1-0.2c0.2-0.2,0.6-0.4,1-0.5c0.5-0.1,1,0.1,1.4,0.5
	c0.3,0.2,0.8,0.8,1.1,1.3c0.1,0.3,0.2,1.2,0,1.3C25.7,175.3,25.6,175.6,25.7,175.9L25.7,175.9z M22.6,173.2c-0.3,0.5-0.3,0.8,0,1.5
	c0.3,0.5,0.7,0.9,1,1c0.4,0.2,1.4,0.5,1.8,0.1c0.2-0.4-0.2-0.6-0.4-0.8c-0.1-0.1-0.4-0.3-0.5-0.3c-0.1,0-0.1,0.1-0.2,0.1
	c-0.1,0-0.1,0.1-0.2,0.2c-0.1-0.1-0.1-0.2,0.1-0.3c0,0,0.1-0.1,0.1-0.2c0-0.1-0.1-0.1-0.2-0.2c0,0-0.1-0.1-0.2-0.1
	c-0.1,0.1-0.2,0.1-0.2,0.2c-0.1,0.1-0.1,0.2-0.2,0.2c-0.1,0,0-0.2,0.1-0.3c0.1-0.1,0.2-0.2,0.2-0.2c0,0-0.1-0.1-0.1-0.1
	c-0.1-0.1-0.1-0.1-0.2-0.2c-0.2,0.2-0.3,0.3-0.4,0.3c-0.1,0,0.1-0.2,0.2-0.5C23,173.4,22.7,173.2,22.6,173.2L22.6,173.2z
	 M22.9,172.9c0,0.1,0.2,0.3,0.5,0.5c0.2-0.1,0.3-0.3,0.4-0.3c0.1,0.1,0,0.2-0.2,0.4l0.4,0.3c0,0,0.1-0.1,0.2-0.2
	c0.1-0.1,0.2-0.1,0.2-0.1c-0.1,0.1-0.1,0.1-0.2,0.2c0,0-0.1,0.1,0,0.2l0.3,0.2c0.1,0,0.1-0.1,0.2-0.2c0.1-0.1,0.1-0.1,0.2-0.1
	c0,0-0.1,0.2-0.2,0.2c0,0.1-0.1,0.1-0.1,0.2c0.1,0.2,1,0.9,1.2,0.6c0-0.5,0-0.8-0.4-1.3c-0.4-0.6-1-1.1-1.8-1.2
	C23.4,172.5,23.2,172.6,22.9,172.9z"/>
<path class="st4" d="M161.2,158.2c-0.2,0.5-0.9,0.6-1.5,0.4c-0.6-0.2-1.1-0.4-1.5-0.8c-0.5-0.4-0.6-0.8-0.7-1.4
	c0-0.4,0.1-0.8,0.2-1.1c0.1-0.1,0.2-0.1,0.3-0.2c0.1-0.1,0-0.2,0.1-0.2c0.2-0.2,0.6-0.4,1-0.5c0.5-0.1,1,0.1,1.4,0.5
	c0.3,0.2,0.8,0.8,1.1,1.3c0.1,0.3,0.2,1.2,0,1.3C161.2,157.6,161.1,157.9,161.2,158.2L161.2,158.2z M158.1,155.5
	c-0.3,0.5-0.3,0.8,0,1.5c0.3,0.5,0.7,0.9,1,1c0.4,0.2,1.4,0.5,1.8,0.1c0.2-0.4-0.2-0.6-0.4-0.8c-0.1-0.1-0.4-0.3-0.5-0.3
	c-0.1,0-0.1,0.1-0.2,0.1c-0.1,0-0.1,0.1-0.2,0.2c-0.1-0.1-0.1-0.2,0.1-0.3c0,0,0.1-0.1,0.1-0.2c0-0.1-0.1-0.1-0.2-0.2
	c0,0-0.1-0.1-0.2-0.1c-0.1,0.1-0.2,0.1-0.2,0.2c-0.1,0.1-0.1,0.2-0.2,0.2c-0.1,0,0-0.2,0.1-0.3c0.1-0.1,0.2-0.2,0.2-0.2
	c0,0-0.1-0.1-0.1-0.1c-0.1-0.1-0.1-0.1-0.2-0.2c-0.2,0.2-0.3,0.3-0.4,0.3c-0.1,0,0.1-0.2,0.2-0.5
	C158.5,155.7,158.2,155.5,158.1,155.5L158.1,155.5z M158.4,155.2c0,0.1,0.2,0.3,0.5,0.5c0.2-0.1,0.3-0.3,0.4-0.3
	c0.1,0.1,0,0.2-0.2,0.4l0.4,0.3c0,0,0.1-0.1,0.2-0.2c0.1-0.1,0.2-0.1,0.2-0.1c-0.1,0.1-0.1,0.1-0.2,0.2c0,0-0.1,0.1,0,0.2l0.3,0.2
	c0.1,0,0.1-0.1,0.2-0.2c0.1-0.1,0.1-0.1,0.2-0.1c0,0-0.1,0.2-0.2,0.2c0,0.1-0.1,0.1-0.1,0.2c0.1,0.2,1,0.9,1.2,0.6
	c0-0.5,0-0.8-0.4-1.3c-0.4-0.6-1-1.1-1.8-1.2C158.9,154.8,158.7,154.9,158.4,155.2z"/>
<path class="st4" d="M163.4,160c0.5,0.2,0.6,0.9,0.4,1.5c-0.2,0.6-0.4,1-0.8,1.5c-0.4,0.5-0.8,0.6-1.4,0.7c-0.4,0-0.8-0.1-1.1-0.2
	c-0.1-0.1-0.1-0.2-0.2-0.3c-0.1-0.1-0.2,0-0.2-0.1c-0.2-0.2-0.4-0.6-0.5-1c-0.1-0.5,0.1-1,0.5-1.4c0.2-0.3,0.8-0.8,1.3-1.1
	c0.3-0.1,1.2-0.2,1.3,0.1C162.9,159.9,163.1,160.1,163.4,160L163.4,160z M160.8,163.1c0.5,0.3,0.8,0.3,1.5,0c0.5-0.3,0.9-0.7,1-1
	c0.2-0.4,0.5-1.4,0.1-1.8c-0.4-0.2-0.6,0.2-0.8,0.4c-0.1,0.1-0.3,0.4-0.3,0.5c0,0.1,0.1,0.1,0.1,0.2c0,0.1,0.1,0.1,0.2,0.2
	c-0.1,0.1-0.2,0.1-0.3-0.1c0,0-0.1-0.1-0.2-0.1c-0.1,0-0.1,0.1-0.2,0.2c0,0-0.1,0.1-0.1,0.2c0.1,0.1,0.1,0.2,0.2,0.2
	c0.1,0.1,0.2,0.1,0.2,0.2c0,0.1-0.2,0-0.3-0.1c-0.1-0.1-0.2-0.2-0.2-0.2c0,0-0.1,0.1-0.1,0.1c-0.1,0.1-0.1,0.1-0.2,0.2
	c0.2,0.2,0.3,0.3,0.3,0.4c0,0.1-0.2-0.1-0.5-0.2C161,162.6,160.8,162.9,160.8,163.1L160.8,163.1z M160.5,162.8
	c0.1,0,0.3-0.2,0.5-0.5c-0.1-0.2-0.3-0.3-0.3-0.4c0.1-0.1,0.2,0,0.4,0.2l0.3-0.4c0,0-0.1-0.1-0.2-0.2c-0.1-0.1-0.1-0.2-0.1-0.2
	c0.1,0.1,0.1,0.1,0.2,0.2c0,0,0.1,0.1,0.2,0l0.2-0.3c0-0.1-0.1-0.1-0.2-0.2c-0.1-0.1-0.1-0.1-0.1-0.2c0,0,0.2,0.1,0.2,0.2
	c0.1,0,0.1,0.1,0.2,0.1c0.2-0.1,0.9-1,0.6-1.2c-0.5,0-0.8,0-1.3,0.4c-0.6,0.4-1.1,1-1.2,1.8C160.1,162.3,160.2,162.5,160.5,162.8z"
	/>
<g>
	<path class="st7" d="M271.8,81.7H152.3c-9.2,0-16.6,7.5-16.6,16.6s7.5,16.6,16.6,16.6h9.2c0.3,1.2,0.7,3.9-1.4,5.4
		c3.9-0.9,6.2-4,7-5.4h104.7c9.2,0,16.6-7.5,16.6-16.6S281,81.7,271.8,81.7z"/>
	<path class="st2" d="M270.7,80.3H151.2c-9.2,0-16.6,7.5-16.6,16.6c0,9.2,7.5,16.6,16.6,16.6h9.2c0.3,1.2,0.7,3.9-1.4,5.4
		c3.9-0.9,6.2-4,7-5.4h104.7c9.2,0,16.6-7.5,16.6-16.6C287.4,87.7,279.9,80.3,270.7,80.3z"/>
</g>
<g>
	<path class="st8" d="M158.3,89.8c0.7,0.6,1.5,1.2,2.5,1.7c0.9,0.5,2,0.9,3.5,1.3c0.2,0.1,0.3,0.3,0.3,0.4c0,0.5-0.3,0.7-0.7,0.8
		c-0.2,0-0.3,0-0.5-0.1c-1.5-0.6-2.6-1-3.2-1.4c-1-0.5-1.9-1.2-2.8-2c-0.2-0.2-0.3-0.2-0.4-0.2s-0.2,0-0.3,0.1
		c-1,0.9-2.1,1.7-3.2,2.2c-0.9,0.5-1.9,0.9-3.1,1.3c-0.1,0.1-0.3,0.1-0.4,0.1c-0.4,0-0.6-0.2-0.6-0.7c0-0.2,0.1-0.4,0.4-0.5
		c1.4-0.4,2.6-0.9,3.5-1.4c1-0.5,1.9-1.2,2.8-2c0.3-0.3,0.6-0.4,1-0.4C157.2,89.1,157.7,89.3,158.3,89.8z M161.4,96.6
		c0.8,0,1.2,0.4,1.2,1.1v4.4c0,0.7-0.4,1.1-1.2,1.1h-9c-0.8,0-1.1-0.4-1.1-1.1v-4.4c0-0.7,0.4-1.1,1.1-1.1H161.4z M161.8,94.6
		c0,0.4-0.2,0.6-0.6,0.6h-8.9c-0.4,0-0.6-0.2-0.6-0.6c0-0.4,0.2-0.6,0.6-0.6h8.9C161.6,94,161.8,94.2,161.8,94.6z M161.4,101.6v-3.2
		c0-0.4-0.2-0.6-0.6-0.6h-7.9c-0.3,0-0.5,0.2-0.5,0.6v3.2c0,0.4,0.2,0.6,0.5,0.6h7.9C161.2,102.2,161.4,102,161.4,101.6z"/>
	<path class="st8" d="M173.5,89.3c0.1,0.1,0.2,0.3,0.2,0.4c0,0.1,0,0.2-0.1,0.3c-0.2,0.9-0.5,1.8-0.8,2.6v10.5
		c0,0.4-0.2,0.6-0.6,0.6c-0.4,0-0.6-0.2-0.6-0.6V95c-0.4,0.6-0.7,1.2-1.1,1.7c-0.2,0.2-0.3,0.3-0.4,0.3c-0.4,0-0.6-0.2-0.6-0.6
		c0-0.1,0-0.2,0.1-0.3c0.6-0.8,1.2-1.7,1.7-2.8c0.5-1.1,1-2.3,1.3-3.7c0-0.3,0.2-0.4,0.4-0.4C173.3,89.2,173.4,89.3,173.5,89.3z
		 M176,93.6c-0.4,1-0.9,1.8-1.5,2.6c-0.2,0.2-0.3,0.2-0.4,0.2c-0.4,0-0.6-0.2-0.6-0.6c0-0.1,0-0.2,0.1-0.3c0.5-0.8,1-1.6,1.4-2.6
		c0.4-1,0.8-2.1,1.1-3.4c0-0.3,0.2-0.4,0.4-0.4c0.2,0,0.3,0,0.5,0.1c0.1,0.1,0.2,0.3,0.2,0.4c0,0.1,0,0.2-0.1,0.4
		c-0.1,0.4-0.2,0.8-0.3,1.1h6.7c0.4,0,0.6,0.2,0.6,0.6c0,0.4-0.2,0.6-0.6,0.6h-4.6v2.5h4c0.4,0,0.6,0.2,0.6,0.6
		c0,0.4-0.2,0.6-0.6,0.6h-4V99h4c0.4,0,0.6,0.2,0.6,0.6c0,0.4-0.2,0.6-0.6,0.6h-4v3c0,0.4-0.2,0.6-0.6,0.6c-0.4,0-0.6-0.2-0.6-0.6
		V92.4h-1.3C176.3,92.8,176.1,93.2,176,93.6z"/>
	<path class="st8" d="M195.2,89.3c0.7,0,1.1,0.4,1.1,1.1V95c0,0.7-0.4,1.1-1.1,1.1h-1.5v1.1h2.5c0.3,0,0.5,0.2,0.5,0.5
		c0,0.4-0.2,0.6-0.5,0.6H194l2.4,2.9c0.1,0.2,0.2,0.3,0.2,0.4c0,0.4-0.2,0.5-0.6,0.6c-0.1,0-0.2,0-0.3-0.1l-1.9-2.5v3.7
		c0,0.3-0.2,0.5-0.6,0.5c-0.3,0-0.5-0.2-0.5-0.5v-3.6c-0.7,1.1-1.4,2.1-2.2,3.1c-0.2,0.2-0.4,0.3-0.5,0.3c-0.4,0-0.6-0.2-0.6-0.6
		c0-0.2,0.1-0.4,0.2-0.5c1.2-1.2,2.1-2.4,2.7-3.6c0,0,0,0,0,0h-2.2c-0.3,0-0.5-0.2-0.5-0.6c0-0.3,0.2-0.5,0.5-0.5h2.4V96h-1.6
		c-0.7,0-1.1-0.4-1.1-1.1v-4.6c0-0.7,0.4-1.1,1.1-1.1H195.2z M192.7,92.1v-1.8h-1.2c-0.3,0-0.4,0.1-0.4,0.4v1.4H192.7z M192.7,93.1
		h-1.6v1.4c0,0.3,0.1,0.4,0.4,0.4h1.2V93.1z M193.7,92.1h1.6v-1.4c0-0.3-0.1-0.4-0.4-0.4h-1.1V92.1z M195.3,94.6v-1.4h-1.6V95h1.1
		C195.2,95,195.3,94.9,195.3,94.6z M197.6,99.6c-0.1,0.1-0.2,0.1-0.2,0.1c-0.4,0-0.6-0.2-0.6-0.6c0-0.2,0.1-0.3,0.3-0.5
		c0.9-0.4,1.6-0.9,2-1.4c0.4-0.4,0.7-0.9,1.1-1.5c0.1-0.2,0.3-0.3,0.4-0.3c0.4,0,0.6,0.2,0.6,0.5c0,0.2,0,0.3-0.1,0.4
		c0,0.1-0.1,0.1-0.1,0.2h2c0.8,0,1.1,0.3,1.1,0.9c0,0.5-0.1,1.1-0.3,1.7c-0.3,0.8-0.7,1.5-1.2,2.1c-0.6,0.6-1.3,1.1-2,1.5
		c-0.9,0.4-2.1,0.7-3.3,0.8c-0.5,0-0.8-0.2-0.8-0.6c0-0.4,0.2-0.6,0.6-0.6c1-0.1,1.7-0.2,2.3-0.3c0.4-0.1,0.8-0.3,1.1-0.5
		c-0.7-0.8-1.4-1.5-2.2-2.3C198,99.4,197.8,99.5,197.6,99.6z M197.4,92.8c-0.1,0-0.1,0.1-0.2,0.1c-0.4,0-0.6-0.2-0.6-0.6
		c0-0.2,0.1-0.4,0.3-0.5c0.5-0.4,0.9-0.7,1.2-1.1c0.2-0.3,0.4-0.7,0.6-1.2c0.1-0.2,0.3-0.3,0.4-0.3c0.4,0,0.6,0.2,0.6,0.5
		c0,0.1,0,0.2-0.1,0.4h3c0.6,0,0.9,0.3,0.9,0.8c0,0.2-0.1,0.5-0.3,0.9c-0.4,0.8-0.9,1.5-1.4,2.1c-0.4,0.5-1,1-1.6,1.5
		c-0.8,0.6-1.6,1-2.3,1.2c-0.3,0.1-0.5,0.2-0.6,0.2c-0.5,0-0.7-0.2-0.7-0.6c0-0.3,0.2-0.4,0.5-0.5c0.7-0.3,1.3-0.5,1.7-0.8
		c0.4-0.2,0.8-0.5,1.1-0.7c-0.6-0.6-1.2-1.1-1.9-1.7C197.8,92.5,197.6,92.6,197.4,92.8z M202.1,91.5c0.1-0.2,0.2-0.4,0.2-0.4
		c0,0-0.1,0-0.2,0h-2.9c-0.1,0.2-0.3,0.4-0.4,0.6c0.7,0.5,1.3,1.1,2,1.7C201.2,92.9,201.6,92.2,202.1,91.5z M199.7,98.2
		c-0.2,0.2-0.4,0.3-0.6,0.5c0.8,0.7,1.5,1.4,2.2,2.2c0,0,0,0,0,0c0.5-0.4,0.9-1,1.2-1.6c0.3-0.5,0.4-1,0.4-1.4
		c0-0.1-0.1-0.2-0.3-0.2h-2.1c-0.1,0-0.2,0-0.2,0C200.1,97.8,199.9,98,199.7,98.2z"/>
	<path class="st8" d="M213.6,89.3c0.1,0.1,0.2,0.3,0.2,0.4c0,0.1,0,0.2-0.1,0.3c-0.3,1.1-0.6,2-0.9,2.8v10.2c0,0.4-0.2,0.6-0.6,0.6
		s-0.6-0.2-0.6-0.6v-8c-0.3,0.6-0.7,1.1-1.1,1.6c-0.2,0.2-0.3,0.3-0.4,0.3c-0.4,0-0.6-0.2-0.6-0.6c0-0.1,0-0.2,0.1-0.3
		c0.6-0.8,1.2-1.7,1.7-2.8c0.5-1.1,1-2.3,1.3-3.7c0-0.3,0.2-0.4,0.4-0.4C213.3,89.2,213.5,89.3,213.6,89.3z M223.6,95
		c0,0.4-0.2,0.6-0.6,0.6h-3.7v2.7h4.3c0.4,0,0.6,0.2,0.6,0.6c0,0.4-0.2,0.6-0.6,0.6h-4.3v3.7c0,0.4-0.2,0.6-0.6,0.6
		c-0.4,0-0.6-0.2-0.6-0.6v-3.7h-4.2c-0.4,0-0.6-0.2-0.6-0.6c0-0.4,0.2-0.6,0.6-0.6h4.2v-2.7h-3.6c-0.4,0-0.6-0.2-0.6-0.6
		c0-0.4,0.2-0.6,0.6-0.6h3.6v-4.8c0-0.4,0.2-0.6,0.6-0.6c0.4,0,0.6,0.2,0.6,0.6v4.8h3.7C223.4,94.5,223.6,94.6,223.6,95z
		 M215.3,90.1c0.5,0.8,1.1,1.8,1.6,2.8c0.1,0.1,0.1,0.3,0.1,0.4c0,0.4-0.2,0.6-0.6,0.6c-0.1,0-0.2,0-0.3-0.1c-0.5-1-1.1-2-1.6-2.9
		c-0.1-0.1-0.1-0.3-0.1-0.3c0-0.4,0.2-0.6,0.6-0.6C215,89.9,215.2,90,215.3,90.1z M223,90.6c0,0.2-0.1,0.4-0.2,0.7
		c-0.6,1-1.1,1.9-1.6,2.4c-0.1,0.1-0.3,0.1-0.4,0.1c-0.4,0-0.6-0.2-0.6-0.5c0-0.1,0-0.2,0.1-0.4c0.6-0.8,1.2-1.7,1.6-2.7
		c0.1-0.2,0.2-0.3,0.4-0.3C222.8,90,223,90.2,223,90.6z"/>
	<path class="st8" d="M234.8,92.5c0,0.4-0.2,0.6-0.6,0.6H233V96c0.3-0.2,0.6-0.4,1-0.6c0.1,0,0.2-0.1,0.2-0.1c0.4,0,0.6,0.2,0.6,0.6
		c0,0.1-0.1,0.3-0.3,0.4c-0.4,0.3-0.9,0.6-1.5,0.9v4.9c0,0.9-0.5,1.4-1.6,1.4c-0.3,0-0.7-0.1-1.2-0.3c-0.3-0.1-0.4-0.3-0.4-0.6
		c0-0.4,0.2-0.6,0.4-0.6c0,0,0.1,0,0.2,0c0.5,0.1,0.8,0.2,1,0.2c0.3,0,0.5-0.2,0.5-0.5v-4.1c-0.5,0.2-0.9,0.4-1.4,0.5
		c-0.1,0-0.2,0.1-0.3,0.1c-0.4,0-0.6-0.2-0.6-0.6c0-0.3,0.1-0.5,0.4-0.6c0.7-0.2,1.3-0.4,1.8-0.7v-3.5h-1.4c-0.4,0-0.6-0.2-0.6-0.6
		c0-0.4,0.2-0.6,0.6-0.6h1.4v-2.2c0-0.4,0.2-0.6,0.6-0.6c0.4,0,0.6,0.2,0.6,0.6V92h1.2C234.6,92,234.8,92.1,234.8,92.5z M242.6,89.8
		c0.7,0,1.1,0.4,1.1,1.2c0,1.2-0.1,2.2-0.2,3.2c-0.1,0.9-0.4,1.4-0.7,1.7c-0.4,0.3-0.9,0.4-1.6,0.4c-0.7,0-1.6-0.1-2.4-0.3
		c-0.3-0.1-0.4-0.3-0.4-0.5c0-0.4,0.2-0.7,0.6-0.7c0.9,0.3,1.7,0.4,2.2,0.4c0.4,0,0.8-0.1,0.9-0.3c0.2-0.2,0.3-0.6,0.4-1.2
		c0.1-0.6,0.1-1.4,0.1-2.3c0-0.4-0.2-0.6-0.5-0.6h-3.2c-0.2,1.6-0.4,2.8-0.9,3.5c-0.5,0.9-1.1,1.6-1.8,2.1c-0.1,0.1-0.3,0.2-0.4,0.2
		c-0.4,0-0.6-0.2-0.6-0.6c0-0.1,0.1-0.2,0.2-0.4c0.7-0.6,1.2-1.3,1.6-1.9c0.4-0.6,0.6-1.6,0.7-3h-2.2c-0.4,0-0.6-0.2-0.6-0.6
		c0-0.3,0.2-0.5,0.6-0.5H242.6z M242.6,97.3c0.7,0,1.1,0.3,1.1,1v3.9c0,0.7-0.4,1-1.1,1h-6.3c-0.7,0-1.1-0.3-1.1-1v-3.9
		c0-0.7,0.4-1,1.1-1H242.6z M242.5,101.7v-2.9c0-0.3-0.1-0.5-0.4-0.5h-5.3c-0.3,0-0.4,0.2-0.4,0.5v2.9c0,0.3,0.1,0.5,0.4,0.5h5.3
		C242.4,102.2,242.5,102.1,242.5,101.7z"/>
	<path class="st8" d="M261.6,91.7c0.6,0,0.9,0.3,0.9,0.9v2.2c0,0.6-0.3,0.9-0.9,0.9h-6c-0.1,0.3-0.2,0.6-0.4,0.9h8.1
		c0.3,0,0.4,0.2,0.4,0.4c0,0.3-0.1,0.5-0.4,0.5h-3c0.3,0.3,0.7,0.5,1,0.7c0.4,0.2,1.2,0.4,2.2,0.6c0.1,0,0.3,0,0.4,0.1
		c0.2,0.1,0.2,0.2,0.2,0.4c0,0.2-0.1,0.4-0.2,0.4c-0.1,0.1-0.3,0.1-0.4,0.1c-0.5,0-1.1-0.1-1.7-0.3c-0.6-0.2-1.1-0.5-1.5-0.8
		c-0.4-0.3-0.9-0.7-1.4-1.3h-1.7c0.1,0.1,0.2,0.2,0.2,0.3c0,0.5-0.1,0.9-0.2,1.3h2.8c0.8,0,1.2,0.4,1.2,1.1c0,0.4,0,0.8-0.1,1.4
		c-0.2,0.9-0.5,1.4-0.9,1.7c-0.4,0.2-0.9,0.4-1.5,0.4c-0.6,0-1.2-0.1-1.7-0.3c-0.3-0.1-0.4-0.3-0.4-0.5c0-0.4,0.2-0.6,0.5-0.6
		c0.8,0.2,1.2,0.3,1.4,0.3c0.3,0,0.6,0,0.7-0.1c0.2-0.1,0.3-0.2,0.4-0.5c0.3-0.4,0.4-0.9,0.4-1.4c0-0.3-0.1-0.4-0.4-0.4h-2.8
		c-0.1,0.2-0.2,0.4-0.3,0.5c-0.4,0.8-1.1,1.5-2,2c-1.1,0.5-2.4,0.9-3.9,1h-0.2c-0.3,0-0.5-0.2-0.5-0.6c0-0.3,0.1-0.5,0.4-0.5
		c1.3-0.1,2.5-0.4,3.4-0.8c0.8-0.4,1.4-0.9,1.8-1.6h-2.3c-0.4,0-0.5-0.2-0.5-0.5c0-0.3,0.2-0.5,0.5-0.5h2.7c0.1-0.4,0.2-0.8,0.2-1.3
		c0-0.1,0.1-0.3,0.1-0.3h-1.9c-0.4,0.5-0.8,1-1.3,1.4c-1,0.7-1.9,1.2-2.8,1.6c-0.2,0-0.3,0.1-0.4,0.1c-0.1,0-0.3,0-0.4-0.2
		c-0.1-0.1-0.1-0.2-0.1-0.4c0-0.3,0.1-0.4,0.4-0.5c0.9-0.4,1.8-0.8,2.6-1.4c0.2-0.2,0.4-0.3,0.6-0.5h-2.9c-0.3,0-0.4-0.2-0.4-0.5
		c0-0.3,0.1-0.4,0.4-0.4h3.6c0.2-0.3,0.3-0.6,0.5-0.9h-2.3c-0.6,0-0.9-0.3-0.9-0.9v-2.2c0-0.6,0.3-0.9,0.9-0.9H261.6z M263.6,90.3
		c0,0.3-0.2,0.5-0.5,0.5h-3c0,0.4-0.2,0.6-0.6,0.6c-0.4,0-0.6-0.2-0.6-0.6h-4.1c0,0.4-0.2,0.6-0.6,0.6c-0.4,0-0.6-0.2-0.6-0.6h-2.9
		c-0.4,0-0.5-0.2-0.5-0.5c0-0.3,0.2-0.5,0.5-0.5h2.9v-0.2c0-0.4,0.2-0.6,0.6-0.6c0.4,0,0.6,0.2,0.6,0.6v0.2h4.1v-0.2
		c0-0.4,0.2-0.6,0.6-0.6c0.4,0,0.6,0.2,0.6,0.6v0.2h3C263.4,89.8,263.6,90,263.6,90.3z M261.6,93.3v-0.4c0-0.2-0.1-0.3-0.3-0.3h-8.8
		c-0.2,0-0.2,0.1-0.2,0.3v0.4H261.6z M261.6,94.4V94h-9.4v0.4c0,0.2,0.1,0.3,0.2,0.3h8.8C261.4,94.7,261.6,94.6,261.6,94.4z"/>
	<path class="st8" d="M272.2,101.9c-0.2,0.2-0.4,0.3-0.7,0.3c-0.3,0-0.5-0.1-0.7-0.3c-0.2-0.2-0.3-0.4-0.3-0.7
		c0-0.3,0.1-0.5,0.3-0.7c0.2-0.2,0.4-0.3,0.7-0.3c0.3,0,0.5,0.1,0.7,0.3c0.2,0.2,0.3,0.4,0.3,0.7
		C272.5,101.5,272.4,101.7,272.2,101.9z M272.3,93.9c-0.1,1-0.2,2.6-0.3,4.8c0,0.4-0.2,0.6-0.4,0.6c-0.3,0-0.4-0.2-0.4-0.6
		c-0.1-0.9-0.2-2.4-0.3-4.8c0-0.6,0-1.1,0-1.3c0-0.3,0.1-0.5,0.2-0.6c0.1-0.2,0.3-0.2,0.6-0.2c0.5,0,0.8,0.3,0.8,0.9
		C272.3,92.8,272.3,93.2,272.3,93.9z"/>
</g>
</svg>
