<?xml version="1.0" encoding="utf-8"?>
<!-- Generator: Adobe Illustrator 20.1.0, SVG Export Plug-In . SVG Version: 6.00 Build 0)  -->
<svg version="1.1" id="圖層_1" xmlns="http://www.w3.org/2000/svg" xmlns:xlink="http://www.w3.org/1999/xlink" x="0px" y="0px"
	 viewBox="0 0 184.2 101.4" style="enable-background:new 0 0 184.2 101.4;" xml:space="preserve">
<style type="text/css">
	.st0{fill:#FFFFFF;}
	.st1{fill:none;stroke:#FFFFFF;stroke-miterlimit:10;stroke-dasharray:6;}
</style>
<path class="st0" d="M36.9,44.5h11.6C52.7,37.8,62,32,71.7,32c4.6,0,8.9,1.2,12.3,3.3c4.3-6.5,13-11,23-11
	c14.3,0,27.2,11.2,30.5,20.2h16.3c7.2,0,13.1,5.9,13.1,13.1c0,7.2-5.9,13.1-13.1,13.1h-40.2h-1.9h-43H64H36.9
	c-7.2,0-13.1-5.9-13.1-13.1C23.8,50.4,29.7,44.5,36.9,44.5z"/>
<path class="st1" d="M36.9,76.4c-10.3,0-18.8-8.4-18.8-18.8s8.4-18.8,18.8-18.8h8.7c6-7.5,16.3-12.5,26.1-12.5
	c3.8,0,7.4,0.7,10.7,1.9c5.9-6,14.9-9.7,24.6-9.7c14.4,0,28.3,9.9,34.1,20.2h12.8c10.3,0,18.8,8.4,18.8,18.8s-8.4,18.8-18.8,18.8
	H36.9z"/>
<path class="st0" d="M36.9,44.5h11.6C52.7,37.8,62,32,71.7,32c4.6,0,8.9,1.2,12.3,3.3c4.3-6.5,13-11,23-11
	c14.3,0,27.2,11.2,30.5,20.2h16.3c7.2,0,13.1,5.9,13.1,13.1c0,7.2-5.9,13.1-13.1,13.1h-40.2h-1.9h-43H64H36.9
	c-7.2,0-13.1-5.9-13.1-13.1C23.8,50.4,29.7,44.5,36.9,44.5z"/>
</svg>
