<?xml version="1.0" encoding="utf-8"?>
<!-- Generator: Adobe Illustrator 20.1.0, SVG Export Plug-In . SVG Version: 6.00 Build 0)  -->
<svg version="1.1" id="圖層_1" xmlns="http://www.w3.org/2000/svg" xmlns:xlink="http://www.w3.org/1999/xlink" x="0px" y="0px"
	 viewBox="0 0 239.1 197.2" style="enable-background:new 0 0 239.1 197.2;" xml:space="preserve">
<style type="text/css">
	.st0{fill:#FFFFFF;}
	.st1{fill:#F7B52C;}
	.st2{fill:#C8C9CA;}
	.st3{fill:#EEEEEF;}
	.st4{fill:#F7F095;}
	.st5{fill:#C3E5F0;}
	.st6{fill:#946134;}
	.st7{fill:#B28146;}
	.st8{fill:#DBDCDC;}
	.st9{fill:#C79F62;}
</style>
<g>
	<path class="st0" d="M91.6,6.4c0.3,0,0.6,0,1,0.1c3.1,0.5,5.3,3.5,4.7,6.7c-0.4,2.2-1.9,3.9-3.9,4.5l-0.4,2.5
		c10.1,1.2,50.9,7.1,71.4,23.2c16.1,12.6,29.7,18,43,18c7.2,0,14.2-1.5,21.6-4.3c-21.6,20.5-26.5,29.6-55,29.6c-0.7,0-1.3,0-2,0
		c-18.4-0.3-27.1-5.6-54.2-11.5c-5.8-1.3-10.8-1.8-15.2-1.8c-9.4,0-15.7,2.3-19.3,4.2L71,149.9l-4.1-0.7v0l-1.1-0.2L88.1,16.8
		c-1.7-1.3-2.6-3.4-2.2-5.6C86.4,8.4,88.8,6.4,91.6,6.4 M91.6,4.4L91.6,4.4c-3.8,0-7,2.7-7.7,6.5c-0.4,2.4,0.4,4.9,2,6.7L63.7,148.7
		l-0.3,2l2,0.3l1.1,0.2l4.1,0.7l2,0.3l0.3-2L85,78.8c3.5-1.7,9.2-3.5,17.5-3.5c4.6,0,9.6,0.6,14.8,1.7c9.9,2.2,17.3,4.3,23.8,6.1
		c11,3.1,18.9,5.3,30.8,5.5c0.7,0,1.4,0,2.1,0c25.4,0,33.1-7.5,48.3-22.4c2.4-2.3,5.1-4.9,8-7.7l7.3-6.9l-9.3,3.5
		c-7.4,2.8-14.3,4.2-20.8,4.2c-13.2,0-26.5-5.6-41.8-17.5c-9-7-22.5-12.9-40.3-17.5c-12-3.1-23-4.9-29.2-5.7c1.7-1.2,2.8-3,3.2-5.1
		c0.7-4.2-2.1-8.3-6.4-9C92.5,4.4,92,4.4,91.6,4.4L91.6,4.4L91.6,4.4z"/>
</g>
<g>
	<path class="st1" d="M90.6,19.9c0,0,50.2,5,73.7,23.5C189.1,62.8,208,64.9,228.9,57c-22.1,20.9-26.7,30-57,29.6
		c-18.4-0.3-27.1-5.6-54.2-11.5c-27.1-5.9-38.3,5-38.3,5L90.6,19.9z"/>
	<rect x="12.1" y="80.3" transform="matrix(0.1668 -0.986 0.986 0.1668 -15.429 147.5868)" class="st2" width="135" height="5.3"/>
	<rect x="10" y="82" transform="matrix(0.1673 -0.9859 0.9859 0.1673 -16.8365 145.2119)" class="st3" width="135" height="1.1"/>
	<ellipse transform="matrix(0.1668 -0.986 0.986 0.1668 64.3091 100.4427)" class="st4" cx="91.6" cy="12.2" rx="5.8" ry="5.8"/>
</g>
<g>
	<path class="st0" d="M117.1,63.6c0.7,0,1.4,0.2,2,0.5c2,1.1,2.6,3.6,1.5,5.5c-0.7,1.3-2.1,2.1-3.5,2.1c0,0-0.1,0-0.1,0l-0.9,1.5
		c6.4,3.2,31.9,16.8,41.7,32.3c11.5,18.3,11.7,24.2,26.4,24.2c0.3,0,0.7,0,1,0c-11,4.8-18,6.8-24,6.8c-4.8,0-8.9-1.3-13.8-3.5
		c-11.8-5.3-11.4-7.4-27.9-17.7c-8.8-5.5-15.7-6.8-20.3-6.8c-1.2,0-2.2,0.1-3.1,0.2l-25.4,45l-2.6-1.4v0l-0.7-0.4l46.3-82.1
		c-0.8-1.2-0.9-2.9-0.1-4.2C114.3,64.4,115.6,63.6,117.1,63.6 M117.1,61.6L117.1,61.6c-2.2,0-4.2,1.2-5.3,3.1
		c-0.9,1.6-1,3.5-0.4,5.1l-45.8,81.2l-1,1.7l1.7,1l0.7,0.4l2.6,1.4l1.7,1l1-1.7l24.9-44.1c0.6-0.1,1.2-0.1,1.9-0.1
		c4.1,0,10.7,1.1,19.2,6.5c6.8,4.2,10.6,7.1,13.7,9.3c4.4,3.2,7.3,5.3,14.4,8.5c5.8,2.6,10.1,3.7,14.6,3.7c6.2,0,13.4-2,24.8-7
		l9.2-4l-10,0.2c-0.3,0-0.7,0-1,0c-10.9,0-12.7-3-19.3-14.4c-1.5-2.6-3.3-5.5-5.4-8.9c-8.8-14.1-29.8-26.4-39.5-31.5
		c1-0.5,1.8-1.3,2.4-2.4c1.6-2.9,0.6-6.6-2.3-8.3C119.1,61.9,118.1,61.6,117.1,61.6L117.1,61.6L117.1,61.6z"/>
</g>
<g>
	<path class="st5" d="M114.6,72.6c0,0,31.4,15.6,43.2,33.1c12.6,18.7,10.9,23.9,27.4,24.2c-19.6,8.6-26.8,7.9-37.8,3.3
		c-11.9-4.9-11.4-7.4-27.9-17.7c-16.5-10.4-26.5-5.8-26.5-5.8L114.6,72.6z"/>
	
		<rect x="44.9" y="109.8" transform="matrix(0.4913 -0.871 0.871 0.4913 -50.2848 137.1884)" class="st2" width="94.9" height="3.7"/>
	
		<rect x="43.6" y="110.5" transform="matrix(0.4921 -0.8705 0.8705 0.4921 -50.333 135.5564)" class="st3" width="94.9" height="0.8"/>
	<ellipse transform="matrix(0.491 -0.8712 0.8712 0.491 0.5979 136.4398)" class="st4" cx="117.1" cy="67.7" rx="4.1" ry="4.1"/>
</g>
<g>
	<path class="st6" d="M101.6,37.1c0.5,0.6,1.2,1.3,2,1.8c0.7,0.5,1.8,1.1,3.1,1.7c0.2,0.2,0.2,0.4,0.2,0.6c-0.2,0.5-0.5,0.7-1,0.7
		c-0.2,0-0.3-0.1-0.5-0.1c-1.3-0.7-2.3-1.3-2.8-1.7c-0.8-0.6-1.6-1.3-2.3-2.1c-0.1-0.2-0.3-0.3-0.4-0.3c-0.1,0-0.2,0-0.4,0.1
		c-1.2,0.9-2.5,1.7-3.7,2.3c-1,0.6-2.2,1.1-3.4,1.7c-0.1,0.1-0.3,0.1-0.4,0.1c-0.4,0-0.5-0.2-0.4-0.7c0.1-0.3,0.3-0.5,0.5-0.7
		c1.5-0.6,2.8-1.2,3.9-1.8c1.1-0.6,2.2-1.2,3.3-2c0.4-0.3,0.7-0.4,1.1-0.4C100.8,36.3,101.2,36.6,101.6,37.1z M102.8,44.2
		c0.9,0.1,1.2,0.6,1,1.5c-0.4,1.4-0.7,2.8-1.1,4.2c-0.2,0.9-0.8,1.3-1.7,1.2c-2.9-0.2-5.8-0.1-8.7,0.3c-0.9,0.1-1.2-0.3-1-1.2
		c0.4-1.5,0.8-2.9,1.1-4.4c0.2-0.9,0.8-1.5,1.7-1.6C97,43.9,99.9,43.9,102.8,44.2z M101.5,49.1c0.3-1,0.5-2,0.8-3.1
		c0.1-0.4,0-0.7-0.4-0.7c-2.5-0.2-5-0.2-7.6,0.1c-0.4,0-0.6,0.3-0.7,0.7c-0.3,1.1-0.5,2.1-0.8,3.2c-0.1,0.4,0,0.6,0.4,0.6
		c2.5-0.3,5.1-0.4,7.6-0.2C101.1,49.8,101.4,49.6,101.5,49.1z M103.9,42.2c-0.1,0.4-0.4,0.6-0.8,0.6c-2.9-0.3-5.9-0.3-8.8,0
		c-0.4,0-0.6-0.1-0.5-0.6c0.1-0.4,0.4-0.7,0.8-0.7c3-0.3,5.9-0.3,8.8,0C103.9,41.6,104,41.8,103.9,42.2z"/>
	<path class="st6" d="M114.3,39c0,0.1-0.1,0.2-0.1,0.3c-0.6,1-1.2,2-1.7,2.8c-0.9,3.3-1.8,6.7-2.7,10c-0.1,0.4-0.4,0.6-0.8,0.5
		c-0.4-0.1-0.6-0.3-0.4-0.7c0.7-2.5,1.3-5,2-7.4c-0.4,0.4-0.7,0.7-1.1,1.1c-0.2,0.1-0.4,0.1-0.6,0.1c-0.4-0.1-0.6-0.3-0.4-0.7
		c0-0.1,0.1-0.2,0.2-0.4c0.8-0.7,1.6-1.5,2.4-2.5c0.8-1,1.6-2.1,2.3-3.4c0.1-0.2,0.3-0.3,0.7-0.2C114.2,38.4,114.4,38.7,114.3,39z
		 M117.8,40.1c0,0.1-0.1,0.2-0.1,0.3c-0.2,0.4-0.4,0.7-0.6,1.1c2.3,0.8,4.6,1.6,6.9,2.5c0.4,0.2,0.5,0.4,0.4,0.8
		c-0.1,0.4-0.4,0.5-0.8,0.3c-1.6-0.7-3.3-1.3-4.9-1.9c-0.2,0.8-0.5,1.6-0.7,2.5c1.5,0.5,2.9,1.1,4.4,1.6c0.4,0.2,0.5,0.4,0.4,0.8
		c-0.1,0.4-0.4,0.5-0.8,0.4c-1.5-0.6-2.9-1.1-4.4-1.6c-0.3,0.9-0.5,1.8-0.8,2.8c1.5,0.5,2.9,1,4.4,1.6c0.4,0.2,0.5,0.4,0.4,0.8
		c-0.1,0.4-0.4,0.5-0.8,0.4c-1.5-0.6-2.9-1.1-4.4-1.6c-0.3,0.9-0.5,1.9-0.8,2.8c-0.1,0.4-0.4,0.5-0.8,0.4c-0.4-0.1-0.6-0.4-0.4-0.8
		c1-3.5,1.9-7,2.9-10.5c-0.4-0.1-0.7-0.2-1.1-0.3c-0.3,0.4-0.5,0.8-0.8,1.1c-0.7,0.9-1.4,1.6-2.2,2.3c-0.2,0.1-0.4,0.1-0.6,0
		c-0.4-0.1-0.6-0.4-0.4-0.8c0-0.1,0.1-0.2,0.2-0.3c0.7-0.6,1.4-1.4,2.1-2.2c0.7-0.9,1.4-1.9,2-3.1c0.1-0.2,0.3-0.3,0.6-0.2
		C117.7,39.5,117.9,39.8,117.8,40.1z"/>
	<path class="st6" d="M133,46.2c0.8,0.4,1.1,1,0.9,1.7c-0.4,1.4-0.8,2.7-1.2,4.1c-0.2,0.7-0.7,0.9-1.5,0.5c-0.4-0.2-0.8-0.4-1.3-0.6
		c-0.1,0.3-0.2,0.7-0.3,1c0.8,0.4,1.5,0.7,2.3,1.1c0.4,0.2,0.5,0.4,0.4,0.8c-0.1,0.4-0.4,0.5-0.7,0.3c-0.7-0.3-1.4-0.7-2.1-1
		c0.5,1.2,0.9,2.4,1.4,3.6c0.1,0.2,0.2,0.4,0.1,0.6c-0.1,0.3-0.4,0.4-0.8,0.3c-0.1,0-0.2-0.1-0.3-0.3c-0.3-1-0.6-1.9-1-2.9
		c-0.3,1.1-0.6,2.1-0.9,3.2c-0.1,0.4-0.4,0.4-0.8,0.3c-0.4-0.2-0.5-0.4-0.4-0.8c0.3-1,0.5-1.9,0.8-2.9c-0.8,0.7-1.6,1.3-2.5,1.8
		c-0.2,0-0.5,0-0.6-0.1c-0.4-0.2-0.5-0.5-0.4-0.8c0.1-0.2,0.2-0.3,0.4-0.4c1.4-0.7,2.5-1.3,3.3-2.1c0,0,0,0,0.1-0.1
		c-0.7-0.3-1.5-0.6-2.2-1c-0.4-0.2-0.5-0.4-0.4-0.8c0.1-0.4,0.3-0.5,0.7-0.3c0.8,0.3,1.6,0.7,2.4,1.1c0.1-0.4,0.2-0.7,0.3-1.1
		c-0.5-0.2-1-0.4-1.5-0.7c-0.8-0.3-1-0.9-0.8-1.6c0.4-1.4,0.8-2.8,1.2-4.1c0.2-0.7,0.7-0.9,1.5-0.6C130.5,45,131.7,45.6,133,46.2z
		 M129.6,48.8c-0.5-0.2-1-0.4-1.4-0.7c-0.1,0.4-0.2,0.8-0.3,1.2c-0.1,0.3,0,0.5,0.2,0.6c0.4,0.2,0.7,0.3,1.1,0.5
		C129.3,49.8,129.4,49.3,129.6,48.8z M129.9,47.7c0.1-0.5,0.3-1.1,0.4-1.6c-0.4-0.2-0.7-0.3-1.1-0.5c-0.2-0.1-0.4,0-0.5,0.2
		c-0.1,0.4-0.2,0.8-0.3,1.2C128.9,47.3,129.4,47.5,129.9,47.7z M131.7,51.1c0.1-0.4,0.2-0.8,0.3-1.2c-0.4-0.2-0.9-0.4-1.3-0.6
		c-0.1,0.5-0.3,1.1-0.4,1.6c0.3,0.1,0.6,0.3,0.9,0.4C131.5,51.5,131.6,51.4,131.7,51.1z M131,48.3c0.4,0.2,0.9,0.4,1.3,0.6
		c0.1-0.4,0.2-0.8,0.3-1.2c0.1-0.3,0-0.5-0.3-0.6c-0.3-0.1-0.6-0.3-0.9-0.4C131.3,47.2,131.2,47.7,131,48.3z M139.5,58.1
		c-0.3,0.9-0.6,1.6-1,2.1c-0.6,0.6-1.3,1-2.1,1.1c-0.8,0.1-1.6,0-2.6-0.1c-0.9-0.2-1.7-0.4-2.4-0.6c-0.2-0.1-0.4-0.1-0.4-0.1
		c-0.4-0.2-0.5-0.5-0.4-0.9c0.1-0.3,0.3-0.4,0.6-0.3c0.8,0.2,1.5,0.4,2,0.5c0.7,0.2,1.4,0.3,2,0.3c-0.3-0.5-0.5-0.8-0.7-1.2
		c-0.2-0.3-0.4-0.6-0.7-1c-0.1-0.2-0.1-0.4-0.1-0.5c0.1-0.3,0.3-0.4,0.7-0.3c0.1,0.1,0.2,0.2,0.4,0.3c0.3,0.4,0.5,0.8,0.7,1.1
		c0.2,0.4,0.5,0.8,0.8,1.4c0.4-0.1,0.8-0.3,1.1-0.7c0.4-0.3,0.6-0.8,0.8-1.4c0.1-0.3,0-0.6-0.3-0.7c-0.8-0.4-1.6-0.8-2.3-1.2
		c-0.2-0.1-0.4-0.2-0.5-0.1c-0.3,0.3-0.7,0.5-1,0.6c-0.3,0-0.7,0.1-1.1,0c-0.1,0-0.2-0.1-0.3-0.1c-0.4-0.2-0.6-0.5-0.5-0.8
		c0-0.2,0.1-0.3,0.3-0.4c0.5,0,0.9,0,1.2-0.1c0.3-0.1,0.6-0.3,0.8-0.5c0.2-0.2,0.6-0.1,1.3,0.2c1,0.5,2,1,2.9,1.5
		C139.4,56.7,139.7,57.3,139.5,58.1z M140.8,51.5c-0.2,0.8-0.5,1.5-0.9,1.9c-0.5,0.6-1.1,0.9-1.8,1c-0.6,0.1-1.4,0.1-2.2,0
		c-0.8-0.1-1.4-0.3-2-0.4c-0.2-0.1-0.3-0.1-0.3-0.1c-0.4-0.2-0.5-0.5-0.4-0.9c0.1-0.3,0.3-0.4,0.6-0.3c0.7,0.2,1.2,0.4,1.6,0.4
		c0.6,0.2,1.1,0.2,1.6,0.2c-0.3-0.4-0.5-0.8-0.7-1c-0.2-0.3-0.4-0.5-0.7-0.8c-0.1-0.2-0.1-0.4-0.1-0.5c0.1-0.3,0.3-0.4,0.7-0.3
		c0.1,0.1,0.2,0.2,0.4,0.3c0.3,0.3,0.5,0.6,0.7,0.9c0.2,0.3,0.5,0.7,0.8,1.2c0.3-0.1,0.5-0.3,0.8-0.5c0.3-0.3,0.5-0.7,0.7-1.2
		c0.1-0.3,0-0.5-0.3-0.7c-0.7-0.4-1.4-0.7-2.2-1.1c-0.2-0.1-0.4-0.1-0.4,0c-0.3,0.4-0.7,0.7-1,0.8c-0.3,0.1-0.6,0.1-1,0.1
		c-0.1,0-0.2,0-0.3-0.1c-0.4-0.2-0.6-0.5-0.5-0.8c0.1-0.2,0.1-0.3,0.3-0.4c0.5,0,0.8,0,1.1-0.2c0.3-0.1,0.6-0.3,0.8-0.7
		c0.2-0.2,0.6-0.2,1.2,0.1c0.9,0.5,1.8,0.9,2.8,1.4C140.7,50.2,141,50.7,140.8,51.5z"/>
	<path class="st6" d="M148.3,54.1c0,0.1-0.1,0.1-0.1,0.3c-0.6,1-1.3,1.9-2,2.6c-0.9,3.1-1.7,6.2-2.6,9.2c-0.1,0.4-0.4,0.5-0.8,0.3
		c-0.4-0.2-0.5-0.5-0.4-0.9c0.7-2.3,1.3-4.7,2-7c-0.3,0.2-0.7,0.4-1,0.6c-0.2,0-0.4,0-0.6-0.1c-0.4-0.2-0.5-0.5-0.4-0.9
		c0-0.1,0.1-0.2,0.2-0.3c0.8-0.5,1.6-1,2.3-1.8c0.8-0.7,1.5-1.7,2.2-2.8c0.1-0.2,0.3-0.2,0.7-0.1C148.2,53.5,148.4,53.8,148.3,54.1z
		 M156.9,64c-0.1,0.4-0.4,0.5-0.8,0.3c-1.2-0.6-2.5-1.1-3.7-1.7c-0.2,0.8-0.5,1.6-0.7,2.4c1.4,0.7,2.9,1.4,4.3,2
		c0.4,0.2,0.5,0.5,0.4,0.9c-0.1,0.4-0.4,0.5-0.8,0.3c-1.4-0.6-2.9-1.3-4.3-2c-0.3,1.1-0.6,2.3-1,3.4c-0.1,0.4-0.4,0.5-0.8,0.3
		c-0.4-0.2-0.5-0.5-0.4-0.9c0.3-1.1,0.6-2.3,1-3.4c-1.5-0.7-3-1.5-4.4-2.2c-0.4-0.2-0.5-0.5-0.4-0.9c0.1-0.4,0.4-0.5,0.8-0.3
		c1.5,0.7,3,1.5,4.4,2.2c0.2-0.8,0.4-1.6,0.7-2.4c-1.3-0.6-2.5-1.2-3.8-1.9c-0.4-0.2-0.6-0.5-0.5-0.9c0.1-0.4,0.4-0.5,0.8-0.3
		c1.3,0.6,2.5,1.2,3.8,1.9c0.4-1.5,0.8-3,1.3-4.4c0.1-0.4,0.4-0.5,0.8-0.3c0.4,0.2,0.6,0.5,0.5,0.9c-0.4,1.5-0.8,3-1.3,4.5
		c1.2,0.6,2.5,1.2,3.7,1.7C156.8,63.3,157,63.6,156.9,64z M149.6,55.4c0.3,1,0.6,2.2,0.8,3.4c0,0.1,0,0.2,0,0.3
		c-0.1,0.4-0.4,0.5-0.8,0.3c-0.1-0.1-0.2-0.2-0.3-0.3c-0.2-1.1-0.5-2.3-0.8-3.4c-0.1-0.2-0.1-0.3,0-0.4c0.1-0.4,0.4-0.5,0.9-0.3
		C149.4,55.1,149.5,55.2,149.6,55.4z M157.6,59.1c0.1,0.2,0.2,0.3,0.1,0.5c0,0.1-0.1,0.2-0.2,0.3c-0.8,0.8-1.7,1.3-2.6,1.8
		c-0.2,0.1-0.4,0.1-0.6,0c-0.4-0.2-0.6-0.4-0.5-0.7c0-0.1,0.1-0.2,0.1-0.3c0.8-0.4,1.6-1,2.5-1.8c0.1-0.2,0.3-0.3,0.6-0.1
		C157.3,58.8,157.5,58.9,157.6,59.1z"/>
	<path class="st6" d="M165.5,64.8c-0.1,0.4-0.4,0.5-0.8,0.4c-0.4-0.1-0.8-0.3-1.2-0.4c-0.2,0.9-0.5,1.8-0.7,2.6c0.3,0,0.6-0.1,1-0.2
		c0.1,0,0.2,0,0.3,0c0.4,0.1,0.5,0.4,0.4,0.9c0,0.1-0.2,0.2-0.4,0.3c-0.5,0.2-1,0.3-1.7,0.3c-0.4,1.5-0.9,3.1-1.3,4.6
		c-0.3,0.9-1,1.1-2.1,0.7c-0.3-0.1-0.7-0.4-1.1-0.7c-0.3-0.2-0.4-0.5-0.3-0.8c0.1-0.4,0.3-0.5,0.7-0.4c0,0,0.1,0.1,0.2,0.1
		c0.4,0.3,0.7,0.5,0.8,0.6c0.3,0.1,0.5,0,0.6-0.3c0.3-1.2,0.7-2.5,1-3.7c-0.5,0-1,0-1.4,0c-0.1,0-0.2,0-0.3-0.1
		c-0.4-0.2-0.5-0.4-0.4-0.8c0.1-0.3,0.3-0.5,0.6-0.5c0.8,0.1,1.4,0.1,1.9,0.1c0.3-1.1,0.6-2.1,0.9-3.2c-0.5-0.2-0.9-0.4-1.4-0.6
		c-0.4-0.2-0.5-0.4-0.4-0.8c0.1-0.4,0.4-0.5,0.8-0.3c0.5,0.2,0.9,0.4,1.4,0.5c0.2-0.7,0.4-1.4,0.6-2.1c0.1-0.4,0.4-0.5,0.8-0.4
		c0.4,0.1,0.5,0.4,0.4,0.8c-0.2,0.7-0.4,1.4-0.6,2.1c0.4,0.2,0.8,0.3,1.2,0.4C165.5,64.2,165.6,64.4,165.5,64.8z M172.1,71.8
		c0.8,0.2,1.1,0.7,0.9,1.5c-0.3,1.2-0.6,2.4-1,3.6c-0.2,0.8-0.7,1.1-1.5,0.8c-2.1-0.6-4.2-1.2-6.3-2c-0.8-0.3-1.1-0.8-0.9-1.6
		c0.3-1.2,0.6-2.3,1-3.5c0.2-0.8,0.7-1,1.5-0.7C167.9,70.6,170,71.3,172.1,71.8z M174.2,64.5c0.8,0.2,1,0.7,0.8,1.5
		c-0.3,1.2-0.7,2.2-1,3.1c-0.4,0.8-0.7,1.3-1.2,1.5c-0.5,0.2-1.1,0.2-1.8,0c-0.7-0.2-1.5-0.5-2.3-1c-0.3-0.2-0.4-0.4-0.3-0.7
		c0.1-0.5,0.4-0.7,0.7-0.6c0.9,0.5,1.6,0.8,2.1,1c0.5,0.1,0.8,0.1,1,0c0.2-0.1,0.5-0.5,0.7-1c0.2-0.6,0.5-1.2,0.7-2.1
		c0.1-0.4,0-0.7-0.4-0.7c-1-0.2-2.1-0.5-3.1-0.8c-0.6,1.5-1.2,2.6-1.9,3.2c-0.5,0.5-1.4,1-2.5,1.4c-0.2,0-0.3,0-0.5-0.1
		c-0.4-0.1-0.5-0.4-0.4-0.9c0-0.1,0.1-0.1,0.2-0.3c1.1-0.4,1.8-0.8,2.3-1.2c0.6-0.4,1.1-1.3,1.6-2.5c-0.8-0.2-1.6-0.5-2.4-0.8
		c-0.4-0.1-0.6-0.4-0.4-0.8c0.1-0.4,0.4-0.5,0.8-0.3C169.3,63.2,171.7,63.9,174.2,64.5z M171,76c0.2-0.9,0.5-1.7,0.7-2.6
		c0.1-0.4,0-0.6-0.3-0.7c-1.8-0.5-3.6-1-5.4-1.6c-0.3-0.1-0.5,0-0.6,0.4c-0.2,0.8-0.5,1.7-0.7,2.5c-0.1,0.4,0,0.6,0.3,0.7
		c1.8,0.6,3.6,1.2,5.4,1.7C170.6,76.5,170.9,76.4,171,76z"/>
	<path class="st6" d="M190.3,67.4c0.6-0.1,0.9,0.2,0.7,0.8c-0.2,0.8-0.4,1.6-0.6,2.4c-0.2,0.6-0.6,1-1.2,1c-1.6,0.2-3.2,0.2-4.8,0.2
		c0,0-0.1,0-0.1,0.1c-0.2,0.3-0.4,0.5-0.6,0.7c2.3,0.1,4.7,0,7-0.4c0.3,0,0.4,0.1,0.4,0.5c-0.1,0.4-0.3,0.6-0.6,0.7
		c-1.5,0.2-2.9,0.3-4.4,0.3c0.4,0.3,0.8,0.5,1.2,0.7c0.5,0.2,1.5,0.4,2.9,0.4c0.1,0,0.2,0,0.3,0.1c0.1,0.1,0.2,0.2,0.1,0.4
		c-0.1,0.2-0.2,0.4-0.3,0.5c-0.1,0.1-0.3,0.2-0.5,0.2c-0.6,0.1-1.2,0-1.8-0.1c0.1,0.2,0.2,0.4,0.1,0.7c-0.3,1-0.6,1.8-0.9,2.4
		c-0.2,0.4-0.5,0.7-0.9,0.8c-0.4,0.1-0.9,0.2-1.6,0.2c-0.7,0-1.6-0.1-2.7-0.4c-0.3-0.1-0.4-0.3-0.3-0.7c0.1-0.5,0.4-0.7,0.8-0.7
		c1.2,0.3,2.1,0.4,2.5,0.4c0.3,0,0.6,0,0.8-0.1c0.2-0.1,0.3-0.2,0.4-0.3c0.2-0.2,0.3-0.5,0.4-1c0.1-0.3,0-0.5-0.3-0.5
		c-1.1,0-2.3,0-3.4,0c-0.1,0.2-0.2,0.3-0.3,0.4c-0.7,0.8-1.5,1.3-2.6,1.7c-1.2,0.4-2.6,0.5-4.2,0.4c-0.1,0-0.2,0-0.3,0
		c-0.4-0.1-0.5-0.4-0.4-0.8c0.1-0.3,0.3-0.5,0.6-0.5c1.4,0.2,2.6,0.1,3.7-0.2c0.8-0.2,1.4-0.6,2-1c-0.9-0.1-1.7-0.1-2.6-0.2
		c-0.3,0-0.4-0.2-0.3-0.6c0-0.1,0-0.2,0.1-0.2c-0.7,0.2-1.4,0.3-2.3,0.4c-0.2,0-0.3,0-0.4,0c-0.2,0-0.3-0.1-0.3-0.2
		c-0.1-0.1-0.1-0.3,0-0.5c0.1-0.3,0.2-0.5,0.5-0.5c1.8-0.2,3.1-0.5,3.9-0.9c0.3-0.1,0.5-0.2,0.8-0.4c-1.3-0.1-2.6-0.3-3.9-0.5
		c-0.3-0.1-0.5-0.3-0.4-0.6c0.1-0.3,0.3-0.5,0.6-0.4c1.7,0.3,3.4,0.5,5.1,0.6c0.2-0.2,0.5-0.5,0.7-0.7c-1.3-0.1-2.6-0.2-3.9-0.3
		c-0.6-0.1-0.8-0.4-0.6-1c0.2-0.8,0.4-1.6,0.6-2.3c0.2-0.6,0.5-0.8,1.1-0.8C183.6,67.7,186.9,67.8,190.3,67.4z M192.7,65.8
		c-0.1,0.4-0.3,0.6-0.7,0.7c-1,0.2-2.1,0.3-3.1,0.4c-0.1,0.4-0.4,0.6-0.8,0.6c-0.4,0-0.6-0.1-0.5-0.5c-1.5,0.1-2.9,0.1-4.4,0
		c-0.1,0.4-0.4,0.6-0.8,0.5c-0.4,0-0.6-0.2-0.5-0.6c-1-0.1-2-0.2-3-0.3c-0.4-0.1-0.5-0.3-0.4-0.6c0.1-0.4,0.3-0.6,0.7-0.5
		c1,0.1,2,0.2,3,0.3c0-0.1,0-0.1,0-0.2c0.1-0.4,0.4-0.6,0.8-0.6c0.4,0,0.6,0.2,0.4,0.7c0,0.1,0,0.1,0,0.2c1.5,0.1,2.9,0.1,4.4,0
		c0-0.1,0-0.1,0-0.2c0.1-0.4,0.4-0.7,0.8-0.7c0.4,0,0.6,0.2,0.5,0.6c0,0.1,0,0.1,0,0.2c1-0.1,2-0.2,3.1-0.4
		C192.7,65.2,192.8,65.4,192.7,65.8z M189.5,70c-3.3,0.3-6.5,0.3-9.7-0.1c-0.1,0.4,0,0.6,0.3,0.6c2.9,0.3,5.8,0.4,8.7,0.1
		C189.1,70.6,189.4,70.4,189.5,70z M182.4,75.6c0.2-0.3,0.4-0.7,0.6-1.2c0.1-0.3,0.3-0.4,0.7-0.4c0.4,0,0.6,0.2,0.6,0.5
		c-0.2,0.5-0.4,0.9-0.5,1.2c1.2,0,2.4,0,3.5,0c-0.5-0.2-0.9-0.4-1.2-0.6c-0.5-0.3-1-0.8-1.4-1.3c-0.7,0-1.3,0-2-0.1
		c-0.6,0.5-1.3,1-2,1.3c-0.3,0.2-0.7,0.3-1.2,0.5C180.4,75.5,181.4,75.6,182.4,75.6z M189.7,69.1C189.7,69.1,189.7,69,189.7,69.1
		c0.1-0.5,0-0.6-0.4-0.6c-2.9,0.3-5.8,0.2-8.7-0.1c-0.3,0-0.5,0.1-0.6,0.5c0,0,0,0,0,0.1C183.2,69.4,186.5,69.4,189.7,69.1z"/>
</g>
<g>
	<path class="st7" d="M26,79.1c-0.6-1.6-3.2-0.9-2.6,0.7c0.1,0.2,0.1,0.4,0.2,0.6l-13.1,3.5c0-0.2-0.1-0.4-0.1-0.6
		c-0.3-1.7-2.9-1-2.6,0.7c0.6,3.3,1.3,7.7,3.8,10.1c1.5,1.5,3.6,2.6,5.5,3.7c1.1,0.6,2.2,1.2,3.3,1.8l7.6,28.6l2.5-0.7L22.8,99
		c1.9-2.8,4-5.9,5-9.2c0.6-2,0-4.4-0.5-6.4C26.9,81.9,26.5,80.5,26,79.1z M25.1,89.3c-0.8,2.7-2.5,5.3-4.1,7.6
		c-2.6-1.3-5.3-2.7-7.4-4.5c-1.3-1.2-1.8-3.4-2.3-5c-0.1-0.3-0.2-0.6-0.2-0.9l13.3-3.6c0.1,0.2,0.1,0.4,0.2,0.6
		C25,85.2,25.6,87.4,25.1,89.3z"/>
	<path class="st8" d="M39.4,127.5c-1.8-1.1-3.9,0.2-7.5,2.5l-0.9-3.2c-0.1-0.3-0.4-0.5-0.7-0.4l-2.9,0.8c-0.3,0.1-0.5,0.4-0.4,0.7
		l0.9,3.2c-4.3-0.2-6.8-0.3-7.8,1.6c-1,1.9,1.4,6.8,3.3,10.9c2,4.1,5.9,7,9.2,7.9c1,0.3,1.8,0.4,2.4,0.4c0.1,0,0.2,0,0.3,0
		c0,0,0,0,0,0c0.1,0,0.1,0,0.2,0c0.1,0,0.1,0,0.2-0.1c0,0,0,0,0,0c0.1,0,0.2-0.1,0.3-0.1c0.5-0.3,1.1-0.8,1.9-1.5
		c2.4-2.4,4.4-6.9,4-11.4C41.6,134.1,41.2,128.6,39.4,127.5z"/>
	<polygon class="st2" points="28,135.1 32.2,139.3 34.2,133.4 33.5,144.3 	"/>
</g>
<path class="st9" d="M49,143.1c-0.7,0-1.3,0.2-1.9,0.5c-0.4-1.3-1.9-2.2-3.6-2.2c-2.1,0-3.8,1.3-3.8,2.9c0,0.1,0,0.2,0,0.2
	c-0.1,0-0.2,0-0.3,0.1c-3,0.9-2.7,3.4-2.7,3.4s-1.6-1.8-4.8-0.2c-0.7,0.4-1.2,0.8-1.6,1.3c-0.2-0.7-1-2.1-3.4-1.4
	c-3,0.9-2.7,3.4-2.7,3.4s-1.6-1.8-4.8-0.2c-3.1,1.6-2.8,5.3-2.8,5.3c-1.4,1.1,0.7,1.3,0.7,1.3s0.2,1.2,3.4,0.8
	c3.2-0.4,6.2-2.7,6.2-2.7s2.1,1.4,4.8,0c0.2-0.1,0.4-0.2,0.5-0.3c0.3,0,0.5,0,0.9-0.1c3.2-0.4,6.2-2.7,6.2-2.7s2.1,1.4,4.8,0
	c2-1,2.9-2.7,3.3-3.6c0.4,0.1,0.8,0.2,1.3,0.2c1.9,0,3.5-1.4,3.5-3C52.4,144.5,50.9,143.1,49,143.1z"/>
<path class="st9" d="M87.4,152c-0.6-0.3-1.3-0.3-1.9-0.2c0.1-1.3-0.9-2.7-2.6-3.4c-1.9-0.8-4-0.2-4.6,1.3c0,0.1,0,0.2-0.1,0.2
	c-0.1,0-0.2,0-0.3,0c-3.1-0.2-3.7,2.1-3.7,2.1s-0.9-2.3-4.4-1.9c-0.8,0.1-1.4,0.3-2,0.6c0-0.7-0.2-2.4-2.6-2.6
	c-3.1-0.2-3.7,2.1-3.7,2.1s-0.9-2.3-4.4-1.9c-3.5,0.4-4.6,3.9-4.6,3.9c-1.7,0.5,0.2,1.5,0.2,1.5s-0.3,1.2,2.9,2
	c3.1,0.8,6.8-0.2,6.8-0.2s1.4,2,4.5,1.7c0.2,0,0.4-0.1,0.6-0.1c0.2,0.1,0.5,0.2,0.8,0.3c3.1,0.8,6.8-0.2,6.8-0.2s1.4,2,4.4,1.7
	c2.2-0.2,3.7-1.5,4.4-2.1c0.3,0.3,0.7,0.5,1.1,0.7c1.8,0.7,3.7,0,4.4-1.5C90.2,154.6,89.2,152.7,87.4,152z"/>
<g>
	<path class="st0" d="M101.8,133.2l-0.1,0.2c-0.1,0.1-0.1,0.2-0.2,0.3l1.3,0.4c0,0,0.1,0,0.1-0.1c0.2-0.2,0.3-0.3,0.5-0.5
		c0.1-0.1,0.2-0.1,0.4,0c0.1,0,0.2,0.1,0.2,0.2c0,0.1,0.1,0.2,0,0.3c0,0.1-0.1,0.2-0.2,0.2c-0.1,0.1-0.1,0.1-0.2,0.2l1.3,0.4
		c0.2,0.1,0.3,0.2,0.3,0.5c-0.1,0.2-0.2,0.3-0.5,0.3l-1.4-0.4l-0.2,0.6l1.3,0.4c0.2,0.1,0.3,0.2,0.3,0.5c-0.1,0.2-0.2,0.3-0.5,0.3
		l-1.3-0.4l-0.2,0.7l1.3,0.4c0.2,0.1,0.3,0.2,0.3,0.5c-0.1,0.3-0.2,0.4-0.5,0.3l-1.3-0.4l-0.2,0.7l1.3,0.4c0.3,0.1,0.4,0.2,0.3,0.4
		c0,0,0.1-0.1,0.1-0.1c0.5-0.4,0.9-0.7,1.2-1c0.4-0.4,0.8-0.8,1.1-1.2c0.3-0.4,0.5-0.8,0.7-1.2c0.2-0.4,0.3-0.8,0.4-1.1l0.5-1.7
		c0-0.2,0.2-0.2,0.5-0.1c0.3,0.1,0.4,0.2,0.4,0.4l-0.5,1.7c-0.1,0.3-0.2,0.7-0.2,1.2c-0.1,0.5-0.1,1,0,1.6c0,0.5,0.1,1,0.3,1.5
		c0.1,0.4,0.2,0.8,0.5,1.3c0.1,0.1,0.1,0.2,0,0.3c-0.1,0.3-0.3,0.5-0.6,0.4c-0.1-0.1-0.2-0.1-0.3-0.2c-0.2-0.5-0.4-1-0.5-1.5
		c-0.1-0.5-0.2-0.9-0.2-1.4c0-0.5,0-0.9,0-1.4c-0.2,0.4-0.4,0.8-0.7,1.1c-0.2,0.4-0.5,0.7-0.9,1.1c-0.4,0.4-0.8,0.8-1.2,1.1
		c-0.2,0.1-0.3,0.1-0.4,0.1c-0.3-0.1-0.5-0.3-0.4-0.7c-0.1,0.1-0.2,0.1-0.4,0.1l-3.8-1.1c-0.6-0.2-0.7-0.5-0.6-1l0.6-2.3
		c0,0-0.1,0-0.1,0c-0.1,0.1-0.3,0.1-0.4,0c-0.3-0.1-0.4-0.3-0.3-0.5c0,0,0.1-0.1,0.2-0.2c0.3-0.2,0.6-0.4,0.9-0.7
		c0.3-0.3,0.6-0.6,0.9-1c0.1-0.1,0.2-0.2,0.4-0.1C101.7,132.9,101.8,133,101.8,133.2z M101.9,137.6l-1.7-0.5l-0.1,0.3
		c-0.1,0.3,0,0.4,0.2,0.5l1.4,0.4L101.9,137.6z M102.7,130.7c0.4,0.1,0.6,0.4,0.5,0.8l-0.3,0.9c-0.1,0.4-0.4,0.5-0.8,0.4l-1.2-0.3
		c-0.4-0.1-0.6-0.4-0.5-0.8l0.3-0.9c0.1-0.4,0.4-0.5,0.8-0.4L102.7,130.7z M102.3,136.1l-1.7-0.5l-0.2,0.7l1.7,0.5L102.3,136.1z
		 M102.7,134.8l-1.7-0.5c0,0-0.1,0-0.1,0.1l-0.2,0.6l1.7,0.5L102.7,134.8z M107,130.7c-0.1,0.3-0.2,0.4-0.5,0.3l-1.2-0.3l0,0.1
		c-0.1,0.3-0.3,0.4-0.5,0.3c-0.3-0.1-0.4-0.3-0.3-0.5l0-0.1l-1.4-0.4l0,0.1c-0.1,0.3-0.3,0.4-0.5,0.3c-0.3-0.1-0.4-0.3-0.3-0.5
		l0-0.1l-1.2-0.3c-0.2-0.1-0.3-0.2-0.2-0.5c0.1-0.2,0.2-0.3,0.5-0.3l1.2,0.3l0.1-0.2c0.1-0.3,0.3-0.4,0.5-0.3
		c0.3,0.1,0.4,0.3,0.3,0.5l-0.1,0.2l1.4,0.4l0.1-0.2c0.1-0.3,0.2-0.4,0.5-0.3c0.3,0.1,0.4,0.3,0.3,0.5l-0.1,0.2l1.2,0.3
		C107,130.3,107.1,130.4,107,130.7z M102.2,131.9l0.1-0.3c0-0.2,0-0.3-0.1-0.3l-0.5-0.2c-0.2,0-0.2,0-0.3,0.2l-0.1,0.3
		c-0.1,0.2,0,0.3,0.1,0.3l0.5,0.2C102.1,132.1,102.2,132.1,102.2,131.9z M105.6,131.6c0.4,0.1,0.6,0.4,0.5,0.8l-0.3,0.9
		c-0.1,0.4-0.4,0.5-0.8,0.4l-1.2-0.3c-0.4-0.1-0.6-0.4-0.5-0.8l0.2-0.9c0.1-0.4,0.4-0.5,0.8-0.4L105.6,131.6z M105.2,132.7l0.1-0.3
		c0-0.2,0-0.3-0.1-0.3l-0.5-0.2c-0.2,0-0.3,0-0.3,0.2l-0.1,0.3c-0.1,0.2,0,0.3,0.2,0.3l0.5,0.2C105,133,105.1,132.9,105.2,132.7z
		 M108.5,130.5c-0.1,0.3-0.2,0.6-0.3,0.8l2.6,0.7c0.5,0.1,0.7,0.5,0.6,1c-0.1,0.3-0.2,0.6-0.4,1c-0.3,0.6-0.7,1.3-1.2,2.1
		c-0.2,0.1-0.3,0.2-0.4,0.1c-0.3-0.1-0.5-0.3-0.4-0.5c0,0,0-0.1,0.1-0.1c0.4-0.7,0.8-1.3,1.1-1.9c0.1-0.2,0.2-0.4,0.2-0.6
		c0-0.2,0-0.3-0.2-0.3l-2.4-0.7c-0.1,0.2-0.2,0.5-0.3,0.7c-0.3,0.7-0.8,1.3-1.3,1.8c-0.2,0.1-0.3,0.1-0.5,0.1
		c-0.3-0.1-0.4-0.3-0.3-0.5c0,0,0-0.1,0.1-0.2c0.5-0.5,0.8-1,1.2-1.6c0.3-0.5,0.6-1.2,0.8-2c0.1-0.3,0.2-0.4,0.5-0.3
		C108.5,130.1,108.6,130.2,108.5,130.5z"/>
	<path class="st0" d="M115.5,138.1c0.5,0.2,0.6,0.5,0.4,1l-0.9,2.2c-0.1,0.3-0.1,0.7,0.2,1c0.3,0.4,0.9,0.8,1.6,1.1l5,2.1
		c0.3,0.1,0.4,0.3,0.2,0.7c-0.1,0.3-0.3,0.4-0.6,0.2l-4.7-2c-0.6-0.2-1.1-0.5-1.5-0.9c-0.4-0.3-0.7-0.6-1-1l-0.1-0.1
		c0,0-0.1,0-0.2,0c-0.4,0.2-0.9,0.3-1.3,0.3c-0.2,0-0.4,0-0.5,0c-0.3-0.2-0.4-0.4-0.3-0.6c0.1-0.2,0.3-0.3,0.5-0.3
		c0.5,0,0.8-0.1,1-0.1c0.2-0.1,0.5-0.3,0.7-0.8l0.8-1.8c0.1-0.1,0-0.2-0.1-0.3l-0.9-0.4c-0.3-0.1-0.4-0.3-0.3-0.6
		c0.1-0.3,0.3-0.4,0.6-0.3L115.5,138.1z M115.7,135.3c0.2,0.2,0.3,0.4,0.5,0.6c0.2,0.2,0.3,0.5,0.6,0.9c0,0.1,0,0.2-0.1,0.3
		c-0.1,0.3-0.3,0.3-0.6,0.2c-0.1-0.1-0.2-0.1-0.3-0.2c-0.2-0.3-0.4-0.6-0.5-0.8c-0.1-0.2-0.3-0.4-0.4-0.6c0-0.1,0-0.3,0-0.4
		c0.1-0.3,0.3-0.4,0.6-0.3C115.5,135.1,115.6,135.1,115.7,135.3z M121.9,135.8c-0.1,0.3-0.3,0.4-0.7,0.3c-0.5-0.1-0.9-0.2-1.2-0.3
		c-0.2-0.1-0.3,0-0.4,0.2l-2,4.7c0.4,0,0.7,0,1,0c0.1,0,0.2,0,0.3,0c0.2,0.1,0.3,0.3,0.2,0.5c-0.1,0.2-0.3,0.3-0.4,0.3
		c-0.4,0.1-0.8,0.1-1.3,0.1c-0.4,0-0.9,0-1.4-0.1c-0.2-0.1-0.3-0.3-0.2-0.6c0.1-0.3,0.3-0.4,0.6-0.3c0.1,0,0.2,0,0.3,0.1l2.2-5.2
		c0.1-0.3,0.3-0.5,0.5-0.6c0.2-0.1,0.4,0,0.8,0.1c0.5,0.2,1,0.3,1.6,0.3C121.9,135.3,122,135.5,121.9,135.8z M116.7,133
		c0.2,0.2,0.3,0.5,0.5,0.7c0.2,0.2,0.4,0.6,0.6,1c0,0.1,0,0.2-0.1,0.3c-0.1,0.3-0.3,0.3-0.6,0.2c-0.1-0.1-0.2-0.1-0.3-0.2
		c-0.2-0.4-0.4-0.7-0.5-0.9c-0.1-0.2-0.3-0.4-0.5-0.6c0-0.1,0-0.3,0-0.4c0.1-0.3,0.3-0.4,0.6-0.3C116.5,132.8,116.6,132.9,116.7,133
		z M124.7,136.9c0.5,0.2,0.7,0.6,0.5,1.1l-2.2,5.1c-0.3,0.7-0.8,0.9-1.5,0.6c-0.2-0.1-0.5-0.2-0.7-0.5c-0.2-0.2-0.2-0.3-0.1-0.5
		c0.1-0.3,0.3-0.4,0.5-0.3c0,0,0.1,0,0.1,0.1c0.2,0.2,0.3,0.3,0.5,0.3c0.2,0.1,0.3-0.1,0.5-0.4l1.9-4.4c0.1-0.2,0.1-0.4-0.1-0.5
		l-1.1-0.5c-0.2-0.1-0.3,0-0.4,0.2l-2.7,6.4c-0.1,0.3-0.3,0.4-0.6,0.2c-0.3-0.1-0.4-0.3-0.3-0.6l2.8-6.8c0.2-0.5,0.6-0.7,1.2-0.4
		L124.7,136.9z"/>
	<path class="st0" d="M130.9,140.8c0.1-0.3,0.3-0.5,0.5-0.8c0.2-0.3,0.4-0.3,0.6-0.2c0.3,0.2,0.4,0.4,0.2,0.7
		c-0.2,0.3-0.3,0.5-0.5,0.8l1.4,0.8c0.6,0.3,0.7,0.8,0.4,1.3c-1.3,2.2-2.3,3.9-3.2,5.1c-0.6,0.8-1.1,1.2-1.5,1.4
		c-0.4,0.2-0.9,0.1-1.4-0.2c-0.2-0.1-0.6-0.4-0.9-0.8c-0.2-0.2-0.2-0.4-0.1-0.6c0.2-0.3,0.4-0.4,0.7-0.2c0.4,0.4,0.6,0.7,0.8,0.8
		c0.3,0.1,0.5,0.1,0.8,0c0.3-0.2,0.6-0.6,1-1.1c0.6-0.8,1.5-2.3,2.8-4.5c0.1-0.2,0.1-0.4-0.1-0.5l-1.1-0.6c-0.6,0.9-1.2,1.8-1.8,2.5
		c-1.3,1.5-2.6,2.8-4.2,3.7c-0.2,0-0.3,0-0.5,0c-0.3-0.2-0.4-0.4-0.2-0.7c0,0,0.1-0.1,0.2-0.2c1.4-0.9,2.7-2,3.9-3.5
		c0.5-0.7,1.1-1.5,1.6-2.3l-1.1-0.6c-0.3-0.2-0.3-0.4-0.2-0.6c0.2-0.3,0.4-0.3,0.6-0.2L130.9,140.8z M138.1,144.2
		c0.5,0.3,0.7,0.7,0.3,1.3l-4,7c-0.3,0.5-0.7,0.7-1.3,0.3l-2.4-1.4c-0.5-0.3-0.7-0.7-0.3-1.3l4-6.9c0.3-0.5,0.7-0.7,1.3-0.3
		L138.1,144.2z M133.8,151.7l3.7-6.4c0.1-0.2,0.1-0.3-0.1-0.4l-1.8-1c-0.2-0.1-0.3-0.1-0.5,0.1l-3.7,6.4c-0.1,0.2-0.1,0.3,0.1,0.4
		l1.8,1C133.5,151.9,133.7,151.9,133.8,151.7z"/>
	<path class="st0" d="M147.3,150.2c0.4,0.3,0.5,0.7,0.3,1.2c-0.8,1.8-1.3,3.3-1.5,4.5c-0.2,0.9-0.3,1.8-0.3,2.8c0,0.6,0,1.3,0.2,2.3
		c0,0.2,0,0.3-0.1,0.4c-0.2,0.2-0.5,0.3-0.7,0.1c-0.1-0.1-0.2-0.2-0.2-0.4c-0.1-1-0.2-1.8-0.1-2.6c0-1.1,0.2-2.2,0.4-3.4
		c0.3-1.1,0.6-2.2,1.2-3.3c-0.9,0.7-1.7,1.3-2.4,1.7c-0.8,0.4-1.6,0.8-2.5,1.1c-1.1,0.4-2.5,0.8-4.1,1c-0.1,0-0.3-0.1-0.4-0.2
		c-0.1-0.1-0.2-0.2-0.2-0.4c0-0.2,0-0.3,0.1-0.4c0.1-0.1,0.2-0.2,0.3-0.2c1.5-0.2,2.8-0.5,3.9-0.9c0.9-0.3,1.7-0.7,2.4-1.1
		c0.9-0.5,1.9-1.1,2.8-1.9l-2.3-1.8c-0.2-0.2-0.3-0.4-0.1-0.7c0.2-0.2,0.4-0.3,0.7-0.1L147.3,150.2z"/>
	<path class="st0" d="M158.6,159.8c-0.1,0.1-0.3,0.1-0.5,0.1c-0.5-0.2-1.1-0.4-1.6-0.7l-1.1,1.2l2.1,1.9c0.5-0.7,1.1-1.4,1.8-2.1
		c0.3-0.3,0.5-0.3,0.7-0.1c0.2,0.2,0.3,0.5,0,0.8c-0.7,0.7-1.3,1.4-1.8,2.1l2.6,2.4c0.2,0.2,0.2,0.4,0,0.7c-0.2,0.2-0.4,0.2-0.7,0
		l-2.5-2.3c-0.2,0.3-0.4,0.6-0.6,0.9c-0.3,0.5-0.5,0.9-0.7,1.4c0.6-0.1,1.3-0.3,2-0.7c0.2-0.1,0.4-0.1,0.6,0.1
		c0.1,0.1,0.1,0.2,0.2,0.3c0,0.1,0,0.2-0.1,0.3c-0.1,0.1-0.2,0.2-0.3,0.2c-0.8,0.4-1.6,0.7-2.3,0.8c-0.2,0-0.3,0-0.5,0.1
		c-0.2,0.6-0.3,1.2-0.4,1.7c0,0.3,0,0.5,0.1,0.6c0.1,0.1,0.2,0.1,0.4-0.1l1.1-0.9c0.2-0.2,0.3-0.2,0.5-0.1c0.3,0.3,0.3,0.6,0,0.9
		c-0.5,0.5-1,0.9-1.7,1.3c-0.5,0.2-0.9,0.2-1.2-0.1c-0.3-0.3-0.4-0.7-0.4-1.3c0-0.6,0.1-1.2,0.3-1.9c-0.3,0-0.6,0-0.8,0
		c-0.7,0-1.4-0.1-2.2-0.3c-0.1-0.1-0.2-0.1-0.3-0.2c-0.1-0.1-0.2-0.2-0.2-0.4c0-0.2,0.1-0.3,0.2-0.4c0.1-0.1,0.2-0.2,0.4-0.2
		c0.7,0.2,1.4,0.3,2.1,0.4c0.4,0,0.9,0,1.3,0c0.3-0.8,0.8-1.7,1.5-2.7c0.1-0.1,0.2-0.3,0.3-0.5l-2.1-2l-1.4,1.6
		c0.6,0.3,1.2,0.6,1.7,0.8c0.1,0,0.2,0.1,0.2,0.1c0.2,0.2,0.2,0.4,0.1,0.6c-0.2,0.2-0.4,0.2-0.6,0.2c-0.6-0.2-1.3-0.5-2.1-1
		l-1.7,1.9c-0.5,0.6-1.2,0.5-1.9-0.2c-0.3-0.2-0.5-0.6-0.8-1.2c-0.1-0.3-0.1-0.5,0-0.7c0.2-0.2,0.5-0.2,0.7-0.1c0,0,0.1,0.1,0.1,0.2
		c0.3,0.5,0.5,0.9,0.6,1c0.2,0.2,0.4,0.2,0.6,0l1.4-1.5c-0.5-0.3-1-0.6-1.6-1c-0.2-0.2-0.2-0.4,0-0.7c0.2-0.2,0.4-0.3,0.7-0.1
		c0.6,0.4,1.1,0.8,1.6,1l1.6-1.8l-1.4-1.3c-0.2-0.2-0.2-0.4,0-0.7c0.2-0.2,0.4-0.2,0.7,0l1.4,1.3l0.9-1c-0.4-0.2-0.8-0.5-1.3-0.9
		c-0.3-0.3-0.3-0.5,0-0.8c0.2-0.2,0.4-0.2,0.6,0c0.7,0.5,1.2,0.9,1.5,1c0.5,0.3,1.2,0.7,2.2,1.1
		C158.8,159.3,158.8,159.6,158.6,159.8z M161.1,161.8c0.1,0.3,0.1,0.7,0.2,1c0.1,0.4,0.1,0.8,0.2,1.4c0,0.1-0.1,0.2-0.2,0.2
		c-0.2,0.2-0.4,0.2-0.6,0c-0.1-0.1-0.2-0.2-0.2-0.3c0-0.5-0.1-1-0.1-1.3c-0.1-0.3-0.1-0.6-0.2-0.9c0-0.1,0-0.3,0.1-0.3
		c0.2-0.2,0.4-0.2,0.7,0C161,161.6,161.1,161.7,161.1,161.8z"/>
	<path class="st0" d="M167.5,168.3c0,0-0.1,0.1-0.2,0.1c-0.8,0.5-1.6,0.9-2.3,1.2l-5.4,5c-0.2,0.2-0.4,0.2-0.7,0
		c-0.2-0.2-0.2-0.4,0-0.7l3.9-3.7c-0.2,0-0.3,0.1-0.5,0.1c-0.2,0-0.3-0.1-0.4-0.2c-0.2-0.2-0.2-0.4,0-0.6c0,0,0.1-0.1,0.3-0.1
		c0.7-0.1,1.4-0.4,2.2-0.7c0.8-0.3,1.6-0.8,2.5-1.3c0.1-0.1,0.3,0,0.5,0.1C167.7,167.9,167.7,168.1,167.5,168.3z M167.2,168.9
		c0.4-0.4,0.8-0.4,1.2,0l1.3,1.4c0.4,0.4,0.4,0.9,0,1.2l-2.3,2.2c-0.4,0.4-0.8,0.4-1.2-0.1l-1.3-1.4l-4.1,3.8
		c-0.2,0.2-0.4,0.2-0.6,0c-0.2-0.2-0.2-0.4,0-0.6l4.7-4.4L167.2,168.9z M172.8,173.5c0.4,0.4,0.4,0.8,0,1.2l-6.6,6.2
		c-0.5,0.5-1.1,0.4-1.8-0.3c-0.2-0.3-0.5-0.7-0.7-1.2c-0.1-0.2-0.1-0.4,0.1-0.5c0.2-0.2,0.4-0.2,0.6,0c0,0,0.1,0.1,0.1,0.2
		c0.2,0.5,0.4,0.8,0.5,0.9c0.3,0.3,0.6,0.4,0.8,0.1l3.4-3.2l-1.4-1.5c-0.4-0.4-0.4-0.8,0-1.2l2.4-2.2c0.4-0.4,0.8-0.4,1.2,0
		L172.8,173.5z M167.1,172.9l0.6-0.6l-1.3-1.4l-0.6,0.6c-0.2,0.1-0.2,0.3,0,0.4l0.9,1C166.8,173,166.9,173,167.1,172.9z
		 M168.3,171.7l0.6-0.5c0.2-0.1,0.2-0.3,0-0.5l-0.9-1c-0.1-0.1-0.3-0.1-0.4,0l-0.6,0.5L168.3,171.7z M170.1,176.1l0.6-0.6l-1.4-1.5
		l-0.6,0.6c-0.2,0.1-0.2,0.3,0,0.4l1,1C169.8,176.2,169.9,176.2,170.1,176.1z M171.4,174.9l0.6-0.6c0.2-0.1,0.2-0.3,0-0.5l-1-1
		c-0.1-0.1-0.3-0.1-0.4,0l-0.6,0.6L171.4,174.9z"/>
	<path class="st0" d="M172.6,187.9c-0.2,0-0.4-0.1-0.6-0.3c-0.2-0.2-0.2-0.4-0.2-0.6c0-0.2,0.1-0.4,0.3-0.6c0.2-0.2,0.4-0.2,0.6-0.2
		c0.2,0,0.4,0.1,0.6,0.3c0.2,0.2,0.2,0.4,0.2,0.7c0,0.2-0.1,0.4-0.3,0.6C173.1,187.9,172.9,188,172.6,187.9z M178.1,183.6l-3.3,2.3
		c-0.3,0.2-0.5,0.2-0.7,0.1c-0.1-0.2-0.1-0.4,0.2-0.7l2.9-2.8c0.3-0.3,0.6-0.5,0.8-0.7c0.4-0.3,0.7-0.2,1,0.2c0.3,0.4,0.3,0.7,0,1
		C178.7,183.2,178.4,183.4,178.1,183.6z"/>
</g>
<path class="st0" d="M59.2,24.8c3.1,3,6.1,6,9.2,9c0.6,0.6,2.9-0.4,2.3-0.9c-3.1-3-6.1-6-9.2-9C60.9,23.3,58.6,24.2,59.2,24.8
	L59.2,24.8z"/>
<path class="st0" d="M51.9,38.4c3.9,1.5,7.9,3.1,11.8,4.6c0.9,0.4,2.9-1,1.5-1.5c-3.9-1.5-7.9-3.1-11.8-4.6
	C52.4,36.5,50.4,37.9,51.9,38.4L51.9,38.4z"/>
<path class="st0" d="M51.2,53.2c3.7-0.5,7.4-1,11.1-1.4c1.3-0.2,2-1.9,0.3-1.7c-3.7,0.5-7.4,1-11.1,1.4
	C50.1,51.7,49.5,53.4,51.2,53.2L51.2,53.2z"/>
</svg>
