<?xml version="1.0" encoding="utf-8"?>
<!-- Generator: Adobe Illustrator 20.1.0, SVG Export Plug-In . SVG Version: 6.00 Build 0)  -->
<svg version="1.1" id="圖層_1" xmlns="http://www.w3.org/2000/svg" xmlns:xlink="http://www.w3.org/1999/xlink" x="0px" y="0px"
	 viewBox="0 0 300 100" style="enable-background:new 0 0 300 100;" xml:space="preserve">
<style type="text/css">
	.st0{fill:#F3C88F;}
	.st1{fill:#FCFAE9;}
	.st2{fill:#673A1B;}
</style>
<g>
	<g>
		<path class="st0" d="M234.9,22.8H67.7c-10.6,0-19.2,8.6-19.2,19.2s8.6,19.2,19.2,19.2h10.7c0.4,1.4,0.8,4.5-1.6,6.2
			c4.5-1,7.2-4.6,8.1-6.2h150c10.6,0,19.2-8.6,19.2-19.2C254.2,31.4,245.6,22.8,234.9,22.8z"/>
		<path class="st1" d="M233.7,21.2H66.5c-10.6,0-19.2,8.6-19.2,19.2s8.6,19.2,19.2,19.2h10.7c0.4,1.4,0.8,4.5-1.6,6.2
			c4.5-1,7.2-4.6,8.1-6.2h150c10.6,0,19.2-8.6,19.2-19.2S244.3,21.2,233.7,21.2z"/>
	</g>
	<g>
		<path class="st2" d="M83.3,34.6c0.7,0,1.1,0.4,1.1,1v10.7c0,0.7-0.4,1.1-1.1,1.1H73c-0.8,0-1.1-0.4-1.1-1.1V35.6
			c0-0.7,0.4-1,1.1-1H83.3z M83.5,46.1V35.9c0-0.3-0.1-0.4-0.4-0.4h-9.9c-0.3,0-0.4,0.2-0.4,0.4v10.2c0,0.3,0.1,0.5,0.4,0.5h9.9
			C83.3,46.5,83.5,46.4,83.5,46.1z M81.4,36c0.6,0,0.9,0.3,0.9,0.8v0.8c0,0.5-0.3,0.8-0.9,0.8h-2.7v0.7h4c0.3,0,0.4,0.1,0.4,0.4
			c0,0.3-0.2,0.5-0.4,0.5h-9c-0.3,0-0.4-0.2-0.4-0.5s0.1-0.4,0.4-0.4h3.9v-0.7H75c-0.6,0-0.8-0.3-0.8-0.8v-0.8
			c0-0.5,0.3-0.8,0.8-0.8H81.4z M81.5,40.6c0.7,0,1.1,0.3,1.1,1v3.2c0,0.7-0.4,1.1-1.1,1.1h-6.7c-0.8,0-1.1-0.3-1.1-1.1v-3.2
			c0-0.7,0.4-1,1.1-1H81.5z M81.7,44.6v-2.8c0-0.3-0.1-0.4-0.4-0.4H75c-0.2,0-0.4,0.1-0.4,0.4v2.8c0,0.3,0.1,0.5,0.4,0.5h6.3
			C81.5,45.1,81.7,44.9,81.7,44.6z M81.4,37.3v-0.2c0-0.2-0.1-0.4-0.3-0.4h-5.9c-0.1,0-0.2,0.1-0.2,0.4v0.2c0,0.2,0.1,0.4,0.2,0.4
			h5.9C81.2,37.7,81.4,37.6,81.4,37.3z M79.9,42c0.5,0,0.8,0.2,0.8,0.7v0.9c0,0.5-0.3,0.8-0.8,0.8h-3.6c-0.5,0-0.8-0.3-0.8-0.8v-0.9
			c0-0.5,0.3-0.7,0.8-0.7H79.9z M79.9,43.5v-0.6c0-0.2-0.1-0.2-0.2-0.2h-3.2c-0.1,0-0.2,0.1-0.2,0.2v0.6c0,0.2,0.1,0.3,0.2,0.3h3.2
			C79.8,43.8,79.9,43.7,79.9,43.5z"/>
		<path class="st2" d="M101.8,36.7c0.5,0,0.8,0.3,0.8,0.8v2.1c0,0.6-0.3,0.8-0.8,0.8h-4c-0.2,0.2-0.4,0.3-0.6,0.4
			c0.5,0.5,0.9,1,1.1,1.5c0.1,0.2,0.3,0.3,0.4,0.4c1-0.7,1.9-1.3,2.5-1.8c0.1-0.2,0.2-0.2,0.3-0.2c0.3,0,0.5,0.2,0.5,0.5
			c0,0.2-0.1,0.3-0.2,0.5c-0.7,0.6-1.5,1.2-2.4,1.8c0.4,0.4,0.8,0.7,1.2,1c0.7,0.5,1.7,1.1,2.9,1.6c0.2,0.2,0.3,0.3,0.3,0.5
			c0,0.4-0.2,0.6-0.6,0.6c-0.2,0-0.3-0.1-0.5-0.2c-1.3-0.6-2.4-1.3-3.2-2c-0.4-0.3-0.7-0.6-1-1c0,0.3,0,0.5,0,0.8
			c0,0.5-0.1,1-0.2,1.3c-0.2,0.5-0.4,1-0.7,1.3c-0.4,0.3-0.9,0.5-1.4,0.5c-0.6,0-1.3-0.1-1.9-0.2C94.1,47.3,94,47.2,94,47
			c0-0.4,0.2-0.6,0.5-0.6c0.1,0,0.2,0,0.4,0.1c0.5,0.1,0.9,0.2,1.3,0.2c0.2,0,0.5-0.1,0.6-0.2c0.2-0.1,0.3-0.4,0.5-0.7
			c0.1-0.3,0.2-0.7,0.2-1.2c0-0.2,0-0.3,0-0.5c-0.9,0.6-1.6,1.1-2.3,1.5c-0.8,0.4-1.8,0.8-2.8,1.1c-0.8,0.2-1.3,0.4-1.7,0.4
			c-0.4,0-0.5-0.2-0.5-0.5c0-0.2,0.1-0.4,0.4-0.4c1.4-0.3,2.8-0.8,4.2-1.4c0.8-0.3,1.6-0.8,2.6-1.5c-0.1-0.2-0.1-0.4-0.2-0.6
			c0-0.1,0-0.1-0.1-0.2c-0.8,0.6-1.6,1-2.2,1.3c-0.7,0.4-1.6,0.7-2.6,0.9c-0.7,0.2-1.2,0.3-1.5,0.3c-0.4,0-0.5-0.2-0.5-0.5
			c0-0.2,0.1-0.3,0.4-0.4c1.2-0.2,2.5-0.6,3.9-1.1c0.6-0.3,1.4-0.6,2.1-1.1c-0.1-0.2-0.3-0.3-0.5-0.5c-0.2,0.1-0.3,0.2-0.5,0.2
			c-0.8,0.4-1.8,0.7-2.9,1c-0.9,0.3-1.6,0.4-1.9,0.4s-0.5-0.2-0.5-0.5s0.2-0.5,0.5-0.5c1.2-0.2,2.4-0.5,3.6-0.9
			c0.5-0.1,1-0.3,1.6-0.6h-4.2c-0.5,0-0.8-0.3-0.8-0.8v-2.1c0-0.2,0-0.3,0.1-0.4c-0.2,0.1-0.4,0.2-0.6,0.3c-0.1,0.1-0.2,0.1-0.3,0.1
			c-0.1,0-0.3,0-0.3-0.2c-0.1-0.1-0.1-0.3-0.1-0.4c0-0.2,0.1-0.3,0.3-0.4c0.6-0.2,1.2-0.5,1.7-0.7c0.4-0.2,0.8-0.5,1.2-0.8
			c0.3-0.2,0.7-0.6,1.1-1c0.1-0.1,0.2-0.2,0.3-0.2c0.1,0,0.2,0,0.3,0.1c0.2,0,0.2,0.1,0.2,0.2c0,0.2,0,0.3-0.1,0.4h3.6
			c0.8,0,1.2,0.3,1.2,0.8c0,0-0.3,0.5-0.8,1.3H101.8z M93.7,35.7c-0.4,0.3-0.8,0.6-1.2,0.8c-0.1,0.1-0.3,0.1-0.4,0.2h5.5
			c0.4-0.6,0.6-0.9,0.6-0.9c0-0.2-0.1-0.2-0.4-0.2h-3.9C93.9,35.6,93.8,35.6,93.7,35.7z M96.3,37.7h-3.7c-0.2,0-0.3,0.1-0.3,0.3v1
			c0,0.2,0.1,0.3,0.3,0.3h3.7V37.7z M101.5,39v-1c0-0.2-0.1-0.3-0.3-0.3h-3.8v1.6h3.8C101.4,39.3,101.5,39.2,101.5,39z"/>
		<path class="st2" d="M115.4,40.4c0.1,0.1,0.2,0.1,0.3,0.2l0,0c0.6-0.2,1-0.5,1.3-0.6c0.4-0.2,0.8-0.5,1.1-0.8
			c0.2-0.2,0.4-0.3,0.4-0.4c0-0.1-0.1-0.1-0.2-0.1h-6.8c-0.3,0-0.5-0.2-0.5-0.5s0.1-0.5,0.5-0.5h7.7c0.5,0,0.8,0.2,0.8,0.6
			c0,0.2-0.1,0.4-0.3,0.7c-0.3,0.4-0.8,0.9-1.4,1.3c-0.6,0.5-1.2,0.8-1.8,1.1c0.3,0.3,0.5,0.6,0.7,0.9h4.8c0.3,0,0.5,0.2,0.5,0.5
			c0,0.4-0.2,0.5-0.5,0.5h-4.4c0.2,0.6,0.3,1.2,0.3,1.8c0,0.5-0.2,1-0.5,1.5c-0.3,0.4-0.6,0.8-1.1,0.9c-0.4,0.2-0.9,0.3-1.4,0.3
			c-0.8,0-1.8-0.2-2.9-0.6c-0.3-0.1-0.5-0.3-0.5-0.6c0-0.4,0.2-0.6,0.5-0.6c1.5,0.4,2.4,0.6,2.8,0.6c0.3,0,0.6-0.1,0.8-0.2
			c0.3-0.1,0.6-0.3,0.8-0.6c0.2-0.2,0.3-0.5,0.3-0.8c0-0.7-0.1-1.3-0.3-1.8h-7.2c-0.3,0-0.5-0.2-0.5-0.5s0.2-0.5,0.5-0.5h6.6
			c-0.1-0.1-0.2-0.3-0.3-0.4c-0.3-0.3-0.7-0.6-1.1-0.8c-0.1-0.1-0.2-0.2-0.2-0.2c0-0.4,0.2-0.6,0.6-0.6
			C115,40.2,115.2,40.3,115.4,40.4z M116.2,34.6v0.8h5.1c0.4,0,0.7,0.2,0.9,0.4c0.2,0.2,0.3,0.6,0.3,1s-0.1,0.9-0.2,1.4
			c-0.1,0.3-0.3,0.4-0.6,0.4c-0.4,0-0.5-0.2-0.5-0.5c0.1-0.6,0.2-1.1,0.2-1.2c0-0.3-0.2-0.5-0.5-0.5h-10.3c-0.4,0-0.5,0.2-0.5,0.5
			v1.5c0,0.4-0.2,0.5-0.5,0.5c-0.4,0-0.5-0.2-0.5-0.5v-1.6c0-0.9,0.5-1.3,1.3-1.3h4.7v-0.8c0-0.3,0.2-0.5,0.5-0.5
			C116,34.1,116.2,34.2,116.2,34.6z"/>
		<path class="st2" d="M130.8,34.8c0.7,0,1,0.3,1,0.9V46c0,0.7-0.3,1-1,1h-2c-0.7,0-1-0.3-1-1V35.7c0-0.6,0.3-0.9,1-0.9H130.8z
			 M130.8,40v-4c0-0.2-0.1-0.3-0.3-0.3h-1.3c-0.2,0-0.3,0.1-0.3,0.3v4H130.8z M130.8,45.7V41h-1.9v4.7c0,0.2,0.1,0.3,0.3,0.3h1.3
			C130.6,46,130.8,45.9,130.8,45.7z M141.1,36.2c0,0.4-0.2,0.5-0.5,0.5h-3.5v1.6h2.9c0.3,0,0.5,0.2,0.5,0.5c0,0.4-0.2,0.5-0.5,0.5
			h-6.7c-0.3,0-0.5-0.2-0.5-0.5s0.2-0.5,0.5-0.5h2.7v-1.6h-3.3c-0.3,0-0.5-0.2-0.5-0.5s0.2-0.5,0.5-0.5h3.3v-1.2
			c0-0.3,0.2-0.5,0.5-0.5c0.4,0,0.6,0.2,0.6,0.5v1.2h3.5C141,35.8,141.1,35.9,141.1,36.2z M141.3,41.4c0,0.4-0.2,0.5-0.5,0.5h-1.4
			v4.3c0,1-0.6,1.5-1.6,1.5c-0.8,0-1.8-0.2-3-0.4c-0.3-0.1-0.4-0.3-0.4-0.5c0-0.4,0.2-0.6,0.5-0.6c0.1,0,0.3,0,0.5,0.1
			c1.3,0.2,2.1,0.4,2.5,0.4c0.3,0,0.5-0.2,0.5-0.6v-4h-5.2c-0.3,0-0.5-0.2-0.5-0.5s0.1-0.5,0.5-0.5h5.2v-1c0-0.3,0.2-0.5,0.5-0.5
			c0.4,0,0.6,0.2,0.6,0.5v1h1.4C141.1,40.9,141.3,41.1,141.3,41.4z M134.3,42.8c0.6,0.5,1.1,1,1.6,1.6c0.1,0.2,0.1,0.3,0.1,0.3
			c0,0.4-0.2,0.5-0.6,0.5c-0.1,0-0.2,0-0.3-0.1c-0.5-0.6-1.1-1.2-1.6-1.8c-0.1-0.2-0.1-0.2-0.1-0.3c0-0.3,0.2-0.5,0.6-0.5
			C134.1,42.6,134.2,42.7,134.3,42.8z"/>
		<path class="st2" d="M150.2,34.4c0.1,0.1,0.2,0.2,0.2,0.4c0,0.1,0,0.2-0.1,0.4c-0.3,1.2-0.7,2.2-1.1,3.1v9.1
			c0,0.4-0.2,0.5-0.5,0.5c-0.4,0-0.5-0.2-0.5-0.5v-7.2c-0.3,0.4-0.6,0.8-0.9,1.2c-0.2,0.2-0.3,0.2-0.4,0.2c-0.4,0-0.6-0.2-0.6-0.5
			c0-0.1,0-0.3,0.1-0.4c0.6-0.8,1.2-1.6,1.7-2.6s1-2.1,1.3-3.5c0-0.2,0.2-0.4,0.4-0.4C150,34.2,150.1,34.3,150.2,34.4z M159.8,38.8
			c0,0.4-0.2,0.6-0.5,0.6l-4.6,0.5c0.3,1.3,0.6,2.5,1.1,3.4c0.4,0.9,0.9,1.8,1.6,2.5c0.4,0.4,0.7,0.6,0.8,0.6s0.2-0.1,0.3-0.3
			s0.2-0.9,0.2-2.1c0-0.3,0.2-0.5,0.5-0.5c0.4,0,0.6,0.2,0.6,0.6c0,0.4-0.1,1-0.2,1.7c-0.1,0.8-0.3,1.4-0.5,1.6
			c-0.2,0.2-0.4,0.3-0.7,0.3c-0.4,0-0.8-0.2-1.4-0.7c-0.8-0.8-1.5-1.7-1.9-2.7c-0.5-0.9-0.9-2-1.2-3.2c-0.1-0.4-0.2-0.8-0.3-1.3
			l-3.1,0.3c-0.4,0-0.5-0.2-0.5-0.6c0-0.3,0.2-0.5,0.5-0.5l2.9-0.3c-0.1-0.5-0.2-1-0.2-1.6c-0.1-1.2-0.2-2-0.2-2.6
			c0-0.4,0.2-0.5,0.6-0.5c0.3,0,0.5,0.2,0.5,0.5c0.1,1.6,0.2,2.9,0.4,4.1l4.8-0.5C159.6,38.3,159.8,38.5,159.8,38.8z M156.4,34.8
			c0.4,0.3,0.7,0.5,1,0.8c0.5,0.3,0.9,0.7,1.3,1.2c0.1,0.2,0.2,0.3,0.2,0.4c0,0.4-0.2,0.5-0.5,0.5c-0.2,0-0.3-0.1-0.5-0.2
			c-0.5-0.5-0.9-0.8-1.2-1.1c-0.3-0.2-0.6-0.5-0.9-0.7c-0.1-0.1-0.2-0.3-0.2-0.4c0-0.3,0.2-0.5,0.5-0.5
			C156.1,34.7,156.2,34.8,156.4,34.8z"/>
		<path class="st2" d="M178.5,36.3c0,0.4-0.2,0.5-0.5,0.5h-5.5v4.6c0.8,0.9,1.6,1.7,2.5,2.4c1.2,0.9,2.3,1.7,3.3,2.1
			c0.3,0.1,0.4,0.3,0.4,0.6c0,0.1-0.1,0.3-0.1,0.4c-0.1,0.1-0.3,0.2-0.4,0.2c-0.2,0-0.4-0.1-0.6-0.2c-0.9-0.6-1.8-1.2-2.6-1.9
			s-1.7-1.5-2.4-2.4v4.7c0,0.3-0.2,0.5-0.6,0.5c-0.4,0-0.5-0.2-0.5-0.5v-4.6c-0.6,0.7-1.2,1.3-1.8,1.9c-0.8,0.8-2,1.6-3.5,2.5
			c-0.2,0.1-0.3,0.1-0.4,0.1c-0.4,0-0.6-0.2-0.6-0.7c0-0.3,0.2-0.5,0.5-0.6c1.5-0.8,2.8-1.7,3.6-2.4s1.5-1.5,2.1-2.3v-4.4h-5.6
			c-0.4,0-0.5-0.2-0.5-0.5s0.2-0.5,0.5-0.5h5.6v-1.2c0-0.3,0.2-0.5,0.5-0.5c0.4,0,0.6,0.2,0.6,0.5v1.2h5.5
			C178.3,35.8,178.5,35.9,178.5,36.3z M168.9,37.3c0.1,0.1,0.2,0.2,0.2,0.4c0,0.1,0,0.2-0.1,0.3c-0.1,0.5-0.2,0.9-0.4,1.2
			c0.2,0.4,0.4,0.6,0.6,0.8c0.2,0.3,0.5,0.7,1,1.2c0.1,0.1,0.2,0.3,0.2,0.5c-0.1,0.3-0.2,0.4-0.5,0.4c-0.2,0-0.4-0.1-0.5-0.3
			c-0.2-0.2-0.4-0.5-0.6-0.8c-0.2-0.3-0.4-0.6-0.6-1c-0.3,0.6-0.6,1.1-0.9,1.5c-0.3,0.5-0.7,0.8-1.1,1.2c-0.1,0.1-0.2,0.1-0.4,0.1
			s-0.3,0-0.4-0.2c-0.1-0.1-0.2-0.3-0.2-0.4c0-0.1,0.1-0.3,0.2-0.3c0.4-0.3,0.7-0.7,1-1.1c0.3-0.5,0.6-1,0.9-1.6
			c0.2-0.5,0.5-1.1,0.6-1.9c0.1-0.2,0.2-0.3,0.5-0.3C168.7,37.2,168.8,37.3,168.9,37.3z M176,37.2c0.1,0.1,0.1,0.2,0.1,0.3
			s0,0.2-0.1,0.3c-0.1,0.4-0.2,0.7-0.3,1c0.3,0.5,0.6,0.9,0.9,1.2c0.3,0.4,0.7,0.9,1.4,1.5c0.2,0.1,0.2,0.3,0.2,0.6
			c-0.1,0.3-0.2,0.4-0.5,0.5c-0.2,0-0.4-0.1-0.6-0.3c-0.3-0.3-0.6-0.6-0.9-1c-0.3-0.4-0.6-0.8-1-1.4c-0.2,0.3-0.4,0.6-0.6,0.9
			c-0.3,0.4-0.6,0.7-0.9,0.9c-0.1,0.1-0.2,0.1-0.3,0.1s-0.3,0-0.3-0.2c-0.1-0.1-0.1-0.2-0.1-0.4c0-0.1,0-0.3,0.2-0.3
			c0.3-0.3,0.6-0.5,0.8-0.9s0.5-0.8,0.7-1.2s0.3-0.9,0.5-1.5c0.1-0.2,0.3-0.3,0.5-0.3C175.8,37.1,175.9,37.2,176,37.2z"/>
		<path class="st2" d="M189,35.1c0,0.4-0.2,0.5-0.5,0.5h-1.1v2.6h0.7c0.5,0,0.8,0.3,0.8,0.8v3.6c0,0.6-0.3,0.8-0.8,0.8h-0.7v3h1.1
			c0.3,0,0.5,0.2,0.5,0.5s-0.2,0.5-0.5,0.5h-3.3c-0.6,0-0.9-0.3-0.9-1V35.5c0-0.6,0.3-0.9,0.9-0.9h3.3C188.8,34.6,189,34.8,189,35.1
			z M186.4,38.2v-2.6h-0.8c-0.3,0-0.4,0.1-0.4,0.4v2.2C185.2,38.2,186.4,38.2,186.4,38.2z M187.6,42.4c0.2,0,0.3-0.1,0.3-0.3v-2.7
			c0-0.2-0.1-0.2-0.3-0.2h-2.5v3.2H187.6z M185.2,43.4V46c0,0.3,0.1,0.5,0.4,0.5h0.8v-3L185.2,43.4L185.2,43.4z M190.6,36.2
			c-0.2,0.6-0.5,1-0.8,1.4c-0.2,0.2-0.4,0.3-0.5,0.3c-0.4,0-0.6-0.2-0.6-0.5c0-0.1,0-0.1,0.2-0.3c0.3-0.4,0.5-0.8,0.7-1.2
			c0.1-0.4,0.2-0.8,0.3-1.3c0-0.3,0.2-0.5,0.5-0.5s0.5,0.2,0.5,0.5c0,0.1,0,0.2,0,0.2h6.2c0.3,0,0.5,0.2,0.5,0.5
			c0,0.4-0.2,0.5-0.5,0.5h-6.3C190.7,35.9,190.7,36,190.6,36.2z M192.1,41.5c0.5,0,0.7,0.2,0.7,0.6v4.7c0,0.5-0.2,0.7-0.7,0.7h-1.8
			c-0.4,0-0.6-0.2-0.6-0.7v-4.7c0-0.4,0.2-0.6,0.6-0.6H192.1z M195.7,36.7c0.5,0,0.7,0.2,0.7,0.7v2.4c0,0.5-0.2,0.7-0.7,0.7h-4.6
			c-0.5,0-0.7-0.2-0.7-0.7v-2.4c0-0.5,0.2-0.7,0.7-0.7H195.7z M191.8,46.2v-3.4c0-0.2-0.1-0.3-0.4-0.3h-0.5c-0.2,0-0.3,0.1-0.3,0.3
			v3.4c0,0.2,0.1,0.4,0.3,0.4h0.5C191.7,46.5,191.8,46.4,191.8,46.2z M195.4,39.2v-1.1c0-0.2-0.1-0.3-0.3-0.3h-3.3
			c-0.2,0-0.3,0.1-0.3,0.3v1.1c0,0.2,0.1,0.3,0.3,0.3h3.3C195.3,39.5,195.4,39.4,195.4,39.2z M196.3,41.6c0.5,0,0.7,0.2,0.7,0.6v4.6
			c0,0.5-0.2,0.7-0.7,0.7h-1.9c-0.4,0-0.6-0.2-0.6-0.7v-4.6c0-0.4,0.2-0.6,0.6-0.6H196.3z M196,46.2v-3.3c0-0.2-0.1-0.3-0.4-0.3H195
			c-0.2,0-0.3,0.1-0.3,0.3v3.3c0,0.2,0.1,0.4,0.3,0.4h0.6C195.9,46.5,196,46.4,196,46.2z"/>
		<path class="st2" d="M214.3,34.8c0.5,0,0.8,0.2,0.8,0.6c0,0.3-0.2,0.6-0.4,0.9c-0.4,0.5-1.1,1.1-1.9,1.7c-0.9,0.6-1.8,1.1-2.7,1.6
			l0,0c0,0.1,0.1,0.1,0.1,0.1c0.4,0.6,0.7,1.2,1,2c0.3,1,0.4,2,0.4,3c0,0.6-0.1,1.1-0.4,1.7c-0.2,0.5-0.6,0.8-0.9,1
			c-0.4,0.2-0.8,0.3-1.3,0.3c-1,0-2.2-0.2-3.6-0.5c-0.3-0.1-0.5-0.3-0.5-0.6c0-0.4,0.2-0.6,0.5-0.6c1.9,0.4,3,0.5,3.5,0.5
			c0.2,0,0.5-0.1,0.7-0.2c0.2-0.1,0.5-0.4,0.6-0.7s0.2-0.6,0.2-1c0-1-0.1-1.8-0.3-2.6c-0.2-0.7-0.5-1.3-0.8-1.8s-0.7-0.9-1.1-1.2
			c-0.1-0.1-0.2-0.2-0.2-0.3c0-0.4,0.2-0.6,0.6-0.6c0.1,0,0.3,0.1,0.5,0.3c0.1,0.1,0.2,0.1,0.2,0.2c0.9-0.4,1.5-0.7,2-1
			c0.6-0.4,1.2-0.8,1.7-1.2c0.4-0.3,0.6-0.5,0.6-0.6s-0.1-0.1-0.2-0.1H204c-0.3,0-0.5-0.2-0.5-0.5s0.1-0.5,0.5-0.5L214.3,34.8
			L214.3,34.8z"/>
		<path class="st2" d="M228.9,46.1c-0.2,0.2-0.5,0.3-0.7,0.3c-0.3,0-0.5-0.1-0.7-0.3s-0.3-0.4-0.3-0.7s0.1-0.5,0.3-0.7
			s0.4-0.3,0.7-0.3s0.5,0.1,0.7,0.3s0.3,0.5,0.3,0.7S229.1,45.9,228.9,46.1z M228.8,37.5c-0.1,0.9-0.1,1.4-0.1,1.5l-0.1,2.5
			c0,0.2,0,0.6-0.1,1c0,0.4-0.2,0.6-0.4,0.6c-0.3,0-0.4-0.2-0.4-0.6l-0.2-3.5c-0.1-1.9-0.2-2.9-0.2-3c0-0.5,0.3-0.8,0.8-0.8
			s0.8,0.3,0.8,0.8C228.9,36.5,228.9,37,228.8,37.5z"/>
	</g>
</g>
</svg>
