<?xml version="1.0" encoding="utf-8"?>
<!-- Generator: Adobe Illustrator 20.1.0, SVG Export Plug-In . SVG Version: 6.00 Build 0)  -->
<svg version="1.1" id="圖層_1" xmlns="http://www.w3.org/2000/svg" xmlns:xlink="http://www.w3.org/1999/xlink" x="0px" y="0px"
	 viewBox="0 0 510.2 286.3" style="enable-background:new 0 0 510.2 286.3;" xml:space="preserve">
<style type="text/css">
	.st0{fill:#FFFFFF;}
	.st1{fill:#CBBDBD;}
	.st2{fill:#B9AEAE;}
	.st3{fill:#5B4948;}
	.st4{clip-path:url(#SVGID_2_);fill:#9D8884;}
	.st5{clip-path:url(#SVGID_2_);fill:#715C58;}
	.st6{clip-path:url(#SVGID_2_);fill:#7B6A69;}
	.st7{clip-path:url(#SVGID_2_);fill:#837473;}
	.st8{clip-path:url(#SVGID_2_);fill:#503F3D;}
	.st9{clip-path:url(#SVGID_2_);fill:#918280;}
	.st10{clip-path:url(#SVGID_2_);fill:#9D8C8C;}
	.st11{fill:#D1ECF9;}
	.st12{fill:none;}
	.st13{opacity:0.15;fill:url(#SVGID_3_);}
	.st14{opacity:0.5;fill:url(#SVGID_4_);}
	.st15{fill:url(#SVGID_5_);}
	.st16{opacity:3.000000e-02;fill:#FFFFFF;}
	.st17{fill:#F9F0E4;}
	.st18{opacity:0.3;fill:#FFFFFF;}
	.st19{fill:#988679;}
	.st20{fill:#C8B1A2;}
	.st21{fill:#908A80;}
	.st22{fill:#B09C8D;}
	.st23{fill:#D4BDAF;}
	.st24{fill:#E2D4B5;}
	.st25{fill:#EAD9BA;}
	.st26{fill:#F3E4C2;}
	.st27{fill:#D0BD99;}
	.st28{fill:#D8CCB2;}
	.st29{fill:#C3AD8B;}
	.st30{fill:#DFCFAF;}
	.st31{fill:#D98471;}
	.st32{fill:#5C5D5D;}
	.st33{fill:#D9C3B8;}
	.st34{fill:#F1E4C7;}
	.st35{fill:#B5A38E;}
</style>
<g>
	<path class="st0" d="M224.3,8.5c46.6,0,86.6,10.7,118.5,29.9l15.2-3.6c2.7-3.4,12.5-15.2,23.6-18.2c5.4-1.5,10.7-2.3,15.5-2.3
		c9.5,0,17.8,2.9,24.5,8.5c9.8,8.2,15.5,18.1,17.2,21.4c1.9,0.7,6,2.4,10.2,4.6c2.9-5.5,6.5-11,10.7-16.4c0.6-0.8,1.5-1.2,2.4-1.2
		c0.5,0,1,0.1,1.5,0.4c1.3,0.7,1.9,2.3,1.4,3.7c-1.9,5.2-4,11.9-6.4,20c0.1,0.1,0.1,0.1,0.2,0.2c0.3-0.4,0.7-0.8,1.1-1.2
		c7.5-7.8,19.6-15.3,20.1-15.6c0.5-0.3,1-0.5,1.6-0.5c0.9,0,1.8,0.4,2.4,1.1c1,1.2,0.9,3-0.2,4.1c-0.1,0.1-10.8,10.9-14.7,17.5
		c-0.7,1.2-1.3,2.5-1.8,3.9c2-1.7,4.2-3.4,6.5-4.6c7.3-4,17.6-7.7,18.1-7.9c0.3-0.1,0.7-0.2,1-0.2c1.1,0,2.2,0.6,2.7,1.7
		c0.7,1.4,0.2,3.1-1,3.9c-0.1,0.1-11.2,7.4-15.4,11.9c-0.2,0.2-0.4,0.4-0.6,0.6c6.5-2.7,17.5-5.4,18-5.5c0.2-0.1,0.5-0.1,0.7-0.1
		c1.2,0,2.4,0.7,2.9,2c0.6,1.4,0,3-1.4,3.8c-0.1,0.1-11,6-15.3,10.3c-1.1,1.1-2.3,2.2-3.3,3.1c-1.8,1.7-4.3,4-4.4,4.8
		c0.5,3.4-0.4,8.1-3.4,10.5c0,0.1-1.6,2.6-8.7,17.8c1.3,1.8,2.1,3.2,2.5,4.4c1.2,3.3,2,7.8,2.3,9.6c0,0.1,0.1,0.3,0.1,0.4
		c0.1,0.4,0,0.8-0.1,1.2c-0.2,1.1-0.9,2.2-2,2.6l-2.7,0.9l-3.3,1.6l0.2,0.9c1,0.7,2.4,1.8,3.6,3.2c2.5,2.8,1.5,7.2,0.7,9.4l0,0.2
		c2.6,2.8,5.3,9.1,4.5,12.5c-0.1,0.5-0.3,0.9-0.5,1.3l7.7,18.3c0.4,0.9,0.3,2-0.3,2.9c-0.6,0.9-1.5,1.4-2.5,1.4c0,0-1.2,0-3.2,0
		c0.7,5.1,0.6,10.9-0.2,16.3c0.2,0,0.4,0,0.5,0c2.1,0,3.8-0.6,5.2-1.8c5.4-4.8,10.9-10.2,13.6-19.9c0.4-1.3,1.6-2.3,2.9-2.3
		c0,0,0,0,0.1,0c1.4,0,2.6,1,2.9,2.4c2.6,12-4.1,26.7-12,33.9c-5.7,5.2-12.2,8.1-18.1,8.1c-1.3,0-2.5-0.1-3.8-0.4
		c-7.1,7.7-15.4,11.7-25.6,12.5c-1.2,0.7-2.7,1.2-4.5,1.5c-2.2,0.5-4.1,0.7-5.8,0.8c-3.4,0.4-5.7,0.6-9.8,3
		c-7.5,4.3-11.6,4.6-17.7,4.6h-1.4c-4.2,0-4.2,0-6.4,1.8c-0.6,0.4-1.2,0.6-1.9,0.6c-0.8,0-1.6-0.3-2.2-0.9c-0.5-0.5-0.8-1.2-0.9-1.9
		c-0.3,0.1-0.7,0.2-1.1,0.2c-0.5,0-1.1-0.1-1.5-0.4c-1.1-0.6-1.7-1.8-1.5-3.1c0.1-0.8,0.4-1.6,0.9-2.3c-1,0.1-1.8,0.4-3.1,1.6
		c-0.6,0.5-1.3,0.7-2,0.7c-0.6,0-1.2-0.2-1.8-0.6c-40.6,24.3-99.9,35.8-151.2,35.8c-3.4,0-6.8-0.1-10.1-0.2
		c-146.1-4.4-234.3-62.1-196-160.4C39.2,64.2,106.3,8.5,224.3,8.5 M224.3,0.2C169,0.2,119.4,12.6,80.7,35.9
		c-33.1,20-57.9,47.9-69.9,78.6c-14.5,37.2-12.6,70.2,5.8,97.9c29.5,44.6,99.7,70.8,197.6,73.8c3.4,0.1,6.9,0.2,10.3,0.2
		c57,0,113.5-13.1,152.2-35.1c0.7,0.7,1.5,1.3,2.3,1.8c0.6,0.3,1.2,0.6,1.8,0.9c2.1,2.2,5,3.3,8,3.3c2.5,0,4.9-0.8,6.9-2.3
		c0,0,0,0,0.1,0c0.4,0,0.9,0,1.4,0h1.3c7.1,0,12.8-0.5,21.9-5.7c2.6-1.5,3.5-1.6,6.5-1.9c1.6-0.2,3.9-0.4,6.6-1
		c1.9-0.4,3.6-0.9,5.1-1.6c10.2-1.1,18.9-5.1,26.4-12c0.2,0,0.5,0,0.7,0c8,0,16.4-3.6,23.6-10.2c9.5-8.6,17.9-26.2,14.5-41.7
		c-1.1-5.1-5.5-8.7-10.7-8.9l-0.1,0h-0.1c-4.1,0-7.7,2.1-9.7,5.5l-5.3-12.7c0.7-5.1-1.4-10.9-3.9-15.1c0.5-3.3,0.2-6.3-0.8-8.9
		c1.7-1.6,2.9-3.8,3.4-6.2c0.3-1.4,0.4-2.8,0.1-4.2c0-0.3-0.1-0.5-0.2-0.8c-0.3-2.2-1.2-6.9-2.6-10.8c-0.3-0.7-0.6-1.4-0.9-2.1
		c2.1-4.4,4.4-9.2,6-12.3c3.5-3.6,4.9-8.5,5.1-12.8c0.5-0.5,1.1-1.1,1.5-1.4l0.2-0.2c1.1-1,2.3-2.1,3.5-3.3
		c2.7-2.6,10.2-7.1,13.5-8.9c5-2.7,7.2-8.7,5.1-14c-0.8-2.2-2.3-4-4.2-5.2c0.8-2.7,0.6-5.7-0.7-8.3c-1.9-3.8-5.8-6.2-10.1-6.2
		c-0.1,0-0.2,0-0.3,0c0.8-3.3,0.1-6.8-2.1-9.6c-2.2-2.7-5.4-4.3-8.9-4.3c-2.1,0-4.2,0.6-6,1.7c0,0-0.9,0.5-2.3,1.5
		c-0.3-3.6-2.4-6.9-5.8-8.8c-1.7-0.9-3.6-1.4-5.5-1.4c-3.5,0-6.7,1.6-8.9,4.3c-2.8,3.6-5.3,7.2-7.6,10.8c-0.4-0.2-0.7-0.3-1-0.4
		c-3-5.1-8.8-13.7-17.7-21.2c-8.3-6.9-18.3-10.5-29.8-10.5c-5.6,0-11.6,0.9-17.7,2.6c-11.4,3.1-21,12.9-26,18.8l-9.2,2.2
		C310.4,10.1,270.2,0.2,224.3,0.2L224.3,0.2z"/>
	<path class="st1" d="M214.4,277.9c94.6,2.9,224.2-35,208.3-122.1C406.4,66.9,333.3,8.5,224.3,8.5c-118,0-185.1,55.7-205.8,109
		C-19.8,215.8,68.4,273.5,214.4,277.9z"/>
	<g>
		<path class="st0" d="M86.1,217.9c-1.8,7.7-5.3,14-10.5,18.7v-7.3c2.5-2.6,4.4-6.5,5.6-11.4H86.1z M86,210.1v5.4
			c-3.4-2.1-6.8-3.7-10.1-4.8v-5.1C79.6,206.9,83,208.3,86,210.1z M86.1,199.2v5.4c-3.4-2.1-6.7-3.7-10.1-4.8v-5
			C79.7,195.9,83.1,197.4,86.1,199.2z M106.4,194.9c5.3,0.7,8.6,3.6,9.9,8.7c0.6,3.3,1,7.5,1,12.9c0,7.4-0.3,11.5-0.7,12
			c-0.8,5.7-4,8.7-9.6,9.1c-2.7,0-5-0.1-6.8-0.3l0-4.5c1.6,0.3,3.6,0.4,5.9,0.4c3.3-0.4,5.2-2.1,5.7-5.3c0.4-1.2,0.6-5,0.6-11.3
			c0-5.7-0.3-10-0.8-12.7c-0.7-2.9-2.7-4.6-6.1-5l-13,0v39.2l-4.5,0.1v-43.5H106.4z M110,203.5v4.6H94.7v-4.6H110z M108.6,213.8
			c1,1.5,1.5,3.6,1.5,6.2c0,2.5-0.6,4.7-1.7,6.4c-1.2,1.7-2.6,2.5-4.4,2.6h-8.6v-17.7h8.8C105.9,211.2,107.3,212.1,108.6,213.8z
			 M103.5,225c1.6-0.4,2.4-2.1,2.4-5.1c0-2.6-0.9-4.2-2.6-4.8h-3.7v10H103.5z"/>
		<path class="st0" d="M143,208.2c-1.4,13.6-6.7,23.7-15.9,30.3v-6.4c6.3-6.1,9.9-14.1,10.8-24L143,208.2z M150.3,193.5v4.3h12
			c4.2,0.5,6.3,2.2,6.4,5.2c-0.1,3-0.5,5.2-1,6.7h-5.1c0.7-2.8,1.1-4.7,1.1-5.6c0-1.2-0.9-1.8-2.6-1.8h-28.5v7.3h-4.9l-0.1-11.8
			l17.8,0v-4.3H150.3z M168.5,231.6l0.1,6.8c-8.7-7.3-14.1-17.4-16.2-30.2l5-0.1C158.7,218.2,162.4,226,168.5,231.6z"/>
		<path class="st0" d="M200.7,211.2v4.8h-7.9v14.2c3.2-0.2,6.3-0.5,9.5-0.9v5.2c-6.5,0.7-14.6,1.2-24.2,1.6V231
			c3.2,0,6.5-0.2,9.8-0.4V216h-8.7v-4.8H200.7z M201.3,200.2c-0.2-2.1-0.3-4.2-0.3-6.5h4.9c0,2.3,0.1,4.4,0.2,6.5h4.9
			c-0.5-1.8-1-3.7-1.6-5.5h4.9c0.6,1.8,1.1,3.6,1.6,5.5h3.6v4.9h-13.1c1.5,13.6,5.9,22.8,13.1,27.5v5.9c-10.1-4.9-16-16-17.9-33.4
			h-23.5v-4.9H201.3z"/>
		<path class="st0" d="M233.5,199.3c0-1.9-0.1-3.8-0.1-5.7h4.7c0.1,2,0.1,3.9,0.2,5.7h4.3v4.5h-4.2c0.1,4.1,0.1,7.7,0.1,10.9
			c1.4-0.6,2.8-1.2,4.2-1.9v5.2c-1.4,0.7-2.9,1.3-4.2,1.9v10.8c0,4.9-1.5,7.3-4.4,7.3c-1.6,0-3.1-0.1-4.3-0.3l0.1-4.6
			c0.5,0.2,1.3,0.4,2.5,0.4c1,0,1.5-1.1,1.5-3.3c0-2.8,0-5.7,0.1-8.6c-1.8,0.6-3.6,1.2-5.3,1.6v-5c1.8-0.5,3.6-1.1,5.3-1.7v-1.3
			c-0.1-3.9-0.2-7.7-0.2-11.4h-5.1v-4.5H233.5z M254.5,216v-3.3h4.6v3.3h11.6v4.4h-5.2c0.6,5.1,2.3,8.8,5.1,11.1v5.7
			c-5.1-3.3-8.2-8.9-9.4-16.8h-2.1v17.9h-4.6v-17.9h-1.8c-1.1,8.4-4.2,14.1-9.4,16.9v-5.5c2.8-2,4.5-5.8,5.1-11.4h-4.5V216H254.5z
			 M265.3,194.9c3.8,0.5,5.7,2.1,5.8,4.8c-0.1,3.1-0.4,5.3-0.9,6.9h-4.6c0.6-3,1-4.9,1-5.9c0-1.1-0.8-1.7-2.4-1.7h-1.3
			c-0.1,1.5-0.1,3-0.1,4.5c0,1.3,0.1,2.6,0.3,3.8c0.5,1.1,1.5,1.6,3,1.6c1.5,0,2.8,0,3.9-0.2v4.1c-0.9,0.2-2.6,0.3-5.2,0.3
			c-3.1,0-5-1.2-5.7-3.6c-0.3-1.7-0.5-3.4-0.5-5.2c0-1.9,0-3.6,0.1-5.2h-2.1c-1,7.8-4.8,13.1-11.6,15.7v-4.8
			c4.2-1.8,6.7-5.5,7.4-10.9h-3.9v7.6H244v-11.8H265.3z"/>
		<path class="st0" d="M294.2,229.3c-2.4,4.9-7.3,7.5-14.7,8.1v-4.3c5.5-0.6,8.7-1.9,9.3-3.8H294.2z M303,193.6v2.8h18.3v4.6H303
			v3.1h12c4.1,0.5,6.2,2.1,6.2,5c-0.1,2.4-0.4,4.3-0.9,5.5h-5c0.7-2.2,1.1-3.8,1.1-4.5c0-1.1-0.9-1.7-2.6-1.7h-28.4v6.3h-4.8
			l-0.1-10.6l17.5,0.1V201h-18.2v-4.6h18.2v-2.8H303z M286,227.5c-1,0-1.4-0.7-1.4-2.2c0-0.8,0.7-1.7,2.2-2.6c1-0.5,2.2-1.2,3.7-1.9
			h-4.7c-1.5,0-2.2-0.8-2.2-2.3c0-0.7,0.3-1.3,0.9-2c0.5-0.5,4.2-2.7,10.9-6.5h9.1c-4.3,2.3-8.6,4.5-12.7,6.7h6.4
			c2.3-1.3,5-2.9,7.9-4.7l8.8,0l-20,11h15.8c0.4,0,0.6-0.3,0.6-1v-4.7h4.9v5.5c-0.3,3.1-1.8,4.6-4.8,4.6h-8.5v10.8h-4.9v-10.8H286z
			 M311.8,229.3c1.6,2.3,4.9,3.6,9.7,4v4.4c-7.3-0.5-12.3-3.3-14.9-8.4H311.8z"/>
	</g>
	<g>
		<path class="st2" d="M35.9,166.2l45.7,2.1l50-57.2l13.3-28.2l8.1-22.3l67.8-10.8l45.3,16l20.8,16.2l20.2,63.8l29.2,23.4h57.3
			c0,0-1.2-50.8-43.9-87.7c-42.7-36.9-66.3-48.1-133.4-47.3c-71.5,0.9-89.6,3.7-134.8,48.5C36.5,127.3,35.9,166.2,35.9,166.2z"/>
		<path class="st3" d="M270.9,65.9c0,0-16.2,5-28.7,2.5C229.8,65.9,230.5,54,230.5,54s-9.9-5.6-19.9,0c-10,5.6-27.6,10-35.3,10.6
			c-7.7,0.6-16.4-7.5-16.4-7.5v11.9c0,0-0.8,5.4-6,8.3c-5.2,2.8-15.7,10.9-15.7,10.9s1.2,17.2-1.6,24.8c-2.8,7.6-16,26.9-16,26.9
			l-13.6,17.4l46.9,2.5c0,0-12.1,9.3,4.8,9.3c16.8,0,78.5,5,93.4-3.7c15-8.7-5-5.6,2.5-7.5c7.5-1.9,28.7-1.3,28.7-1.3l29.9,1.3
			c0,0-16.2-22.4-18.7-32c-2.5-9.7,1.2-29.7,1.2-29.7l-20.6-23.6L270.9,65.9z"/>
		<g>
			<defs>
				<path id="SVGID_1_" d="M285.5,55.3c0,0-15.6,2.4-30.9-0.7c-15.4-3.1-19.1-13.9-19.1-13.9s-12.2-6.9-24.5,0
					c-12.4,6.9-30.2,5.9-39.8,6.7c-9.5,0.8-18.8,2.3-18.8,2.3l-5.4,9.6c0,0-1,6.7-7.4,10.2c-6.4,3.5-19.4,13.5-19.4,13.5
					s1.4,21.3-2,30.6s-19.7,33.2-19.7,33.2l-16.8,21.5l58,3.1c0,0-14.9,11.5,5.9,11.5s96.9,6.2,115.4-4.6c18.5-10.8-6.2-6.9,3.1-9.2
					c9.2-2.3,35.4-1.5,35.4-1.5l36.9,1.5c0,0-24.1-46.3-26.9-60.6c2.7-10.1,5.4-15.6,5.4-15.6l-25.4-29.1L285.5,55.3z"/>
			</defs>
			<clipPath id="SVGID_2_">
				<use xlink:href="#SVGID_1_"  style="overflow:visible;"/>
			</clipPath>
			<path class="st4" d="M356.3,178.5l-75.4-36.9c0,0-13.8-5.8-17.7-4.6c-3.9,1.1-4.6-7.7-4.6-7.7l-10.8-2.3h-66.2
				c0,0-5.4,6.5-16.2,10c-10.8,3.5-28.1,11.9-28.1,11.9l-13.1,10.8l-22.7,3.8l-52,11.3l61.2,16.4h211.2L356.3,178.5z"/>
			<path class="st5" d="M166.7,50c0,0,11.3,22.5,19.6,24.8c8.4,2.3,18.5-1.2,42.1,6.6c23.7,7.8,28.8,25.1,28.8,25.1l-4.3,16.2l0,5.3
				l23.3,5.6l54.8,10.4l-13.8-70.7L265.9,35l-57-7.5L166.7,50z"/>
			<path class="st6" d="M268.5,50c0,0-13.3,32-21.6,34.3c-8.4,2.3-18.2-9.8-41.8-2c-23.7,7.8-21.1,20.5-21.1,20.5l-1.7,19.9l4,4.2
				L169,138.3l-64.9,5.8l13.8-70.7L169.3,35l57-7.5L268.5,50z"/>
			<path class="st7" d="M229.6,66.7c0,0,21.6,2.3,29.1,17.3c7.5,15,3.8,34,0,41.3c-3.8,7.2-4.6,11.5-4.6,11.5l5.8,7.2
				c0,0,4.1-1,16.2,0c12.1,1,23,6.3,23,6.3l10.8-27.1l-8.9-37.5l-3.2-36.6l-36.4-21.6l-41.5,17.6C219.8,45.1,222.4,60.9,229.6,66.7z
				"/>
			<path class="st7" d="M169.2,125.4c0,0-19.2-10.3-20.5-27c-1.3-16.7,31.4-29.6,37.6-34.8c6.2-5.3,13-26,13-26l-4.6-15.8
				c0,0-21.5,11.2-32.3,5.7c-10.8-5.5-25.9-5.7-25.9-5.7l-20.2,21l-5.9,38.1L99.5,116l25.5,33.8l45.1-0.6
				C170.1,149.2,173.7,133.5,169.2,125.4z"/>
			<path class="st8" d="M242,99.6c-2.5-10.1-20.5-7.8-20.5-7.8l-1.8,5.8l-8.1,2l-8.7-3.9l-1.7,3.9l-4,10.1v9.8l2,5.8l3.7,1.6h35.8
				l3.2-6.5c0,0,4.3-4.9,2.3-9.2C242.3,106.8,243.4,105.4,242,99.6z"/>
			<path class="st9" d="M328,59.5l-44.7-22l-14.7,23.4c0,0-0.3,19.6,8.4,34.6c8.7,15,8.9,19.4,13.3,31.4c4.3,11.9,6.1,17.1,4,20
				c-2,2.9-10.1,5.2-10.1,5.2s12.4,5.2,14.1,6.9c1.7,1.7,13,6.3,15,6.9c2,0.6,23.7,6.6,24.8,6.6c1.2,0,14.7-3.7,14.7-3.7l-28-94.3
				L328,59.5z"/>
			<path class="st10" d="M104.1,50.3l-27.4,97.8l-3.5,26l46.2-8.7c0,0,8.1,7.5,17.3-1.1c9.2-8.7,18.2-8.1,18.2-8.1
				s-0.9-5.2-8.9-13.6c-8.1-8.4-12.1-39.5-12.1-39.5l13.3-23.9c0,0,3.7-16.2,16.7-17.9c13-1.7,30.3-3.5,30.3-3.5s11.6,8.1,27.4,4.9
				c15.8-3.2,31.7-10.4,32-12.4c0.3-2,12.4-15.3,12.4-15.3l5.2-13.2l-75.6-6.7h-57.4L104.1,50.3z"/>
		</g>
		<circle class="st11" cx="220.8" cy="119.8" r="4.4"/>
		<g>
			<line class="st12" x1="220.7" y1="120" x2="227.3" y2="127"/>
			<ellipse class="st12" cx="220.7" cy="120" rx="7.9" ry="7.9"/>
			<path class="st12" d="M211.2,120c0,5.3,4.3,9.5,9.5,9.5c5.3,0,9.5-4.3,9.5-9.5c0-5.3-4.3-9.5-9.5-9.5
				C215.5,110.5,211.2,114.8,211.2,120z"/>
			<polyline class="st12" points="220.7,120 216.7,114.4 220.7,120 224.8,125.7 220.7,120 226.4,116 220.7,120 215.1,124.1 
				220.7,120 221.8,117.3 220.7,120 219.7,122.8 220.7,120 223.5,121.1 220.7,120 218,119 220.7,120 228.2,81 220.7,120 
				213.3,159.1 220.7,120 259.8,127.5 220.7,120 181.7,112.6 220.7,120 224.7,115.8 220.7,120 216.8,124.2 220.7,120 224.9,124 
				220.7,120 216.5,116.1 220.7,120 204.5,77.6 220.7,120 237,162.5 220.7,120 263.2,103.8 220.7,120 178.3,136.3 220.7,120 
				220.6,118.3 220.7,120 220.9,121.8 220.7,120 222.5,119.9 220.7,120 219,120.2 220.7,120 201.6,87.1 220.7,120 239.9,153 
				220.7,120 253.7,100.9 220.7,120 187.8,139.2 220.7,120 220.1,108.5 220.7,120 221.3,131.6 220.7,120 232.3,119.4 220.7,120 
				209.2,120.6 220.7,120 221.3,119 220.7,120 220.2,121.1 220.7,120 221.8,120.6 220.7,120 219.7,119.5 220.7,120 216.3,85.9 
				220.7,120 225.2,154.2 220.7,120 254.9,115.5 220.7,120 186.6,124.5 220.7,120 226.2,110.6 220.7,120 215.3,129.5 220.7,120 
				230.2,125.5 220.7,120 211.3,114.6 220.7,120 223,117.1 220.7,120 218.4,123 220.7,120 223.7,122.3 220.7,120 217.8,117.7 
				220.7,120 226.3,92.5 220.7,120 215.2,147.6 220.7,120 248.3,125.6 220.7,120 193.2,114.5 220.7,120 224.6,94.4 220.7,120 
				216.9,145.6 220.7,120 246.3,123.9 220.7,120 195.1,116.2 220.7,120 226.5,91.6 220.7,120 215,148.5 220.7,120 249.2,125.8 
				220.7,120 192.3,114.3 			"/>
			<radialGradient id="SVGID_3_" cx="220.7341" cy="120.032" r="19.0684" gradientUnits="userSpaceOnUse">
				<stop  offset="0" style="stop-color:#001F21"/>
				<stop  offset="0.73" style="stop-color:#0091AB"/>
				<stop  offset="1" style="stop-color:#001F21"/>
			</radialGradient>
			<path class="st13" d="M201.7,120c0,10.5,8.5,19.1,19.1,19.1c10.5,0,19.1-8.5,19.1-19.1c0-10.5-8.5-19.1-19.1-19.1
				C210.2,101,201.7,109.5,201.7,120z"/>
			<radialGradient id="SVGID_4_" cx="220.732" cy="120.032" r="9.5333" gradientUnits="userSpaceOnUse">
				<stop  offset="0.15" style="stop-color:#37BEF0"/>
				<stop  offset="0.2745" style="stop-color:#00A7DF"/>
				<stop  offset="0.3833" style="stop-color:#0098D4"/>
				<stop  offset="0.45" style="stop-color:#0094CF"/>
				<stop  offset="0.5442" style="stop-color:#00779A"/>
				<stop  offset="0.6472" style="stop-color:#005666"/>
				<stop  offset="0.7362" style="stop-color:#003B42"/>
				<stop  offset="0.8068" style="stop-color:#00272A"/>
				<stop  offset="0.85" style="stop-color:#001F21"/>
				<stop  offset="0.8564" style="stop-color:#012324"/>
				<stop  offset="0.863" style="stop-color:#062D30"/>
				<stop  offset="0.8697" style="stop-color:#0F3E40"/>
				<stop  offset="0.8764" style="stop-color:#165155"/>
				<stop  offset="0.8833" style="stop-color:#176A70"/>
				<stop  offset="0.8902" style="stop-color:#01848E"/>
				<stop  offset="0.897" style="stop-color:#00A0AF"/>
				<stop  offset="0.9" style="stop-color:#00ABBE"/>
				<stop  offset="0.9021" style="stop-color:#00A7B8"/>
				<stop  offset="0.9123" style="stop-color:#008D99"/>
				<stop  offset="0.9229" style="stop-color:#14757C"/>
				<stop  offset="0.9339" style="stop-color:#185D63"/>
				<stop  offset="0.9452" style="stop-color:#14494D"/>
				<stop  offset="0.9569" style="stop-color:#0D383B"/>
				<stop  offset="0.9694" style="stop-color:#042A2C"/>
				<stop  offset="0.983" style="stop-color:#002224"/>
				<stop  offset="1" style="stop-color:#001F21"/>
			</radialGradient>
			<path class="st14" d="M211.2,120c0,5.3,4.3,9.5,9.5,9.5c5.3,0,9.5-4.3,9.5-9.5c0-5.3-4.3-9.5-9.5-9.5
				C215.5,110.5,211.2,114.8,211.2,120z"/>
			<radialGradient id="SVGID_5_" cx="220.7339" cy="120.032" r="7.9422" gradientUnits="userSpaceOnUse">
				<stop  offset="0.15" style="stop-color:#FFFFFF"/>
				<stop  offset="0.2824" style="stop-color:#AAA29D"/>
				<stop  offset="0.4253" style="stop-color:#635853"/>
				<stop  offset="0.5636" style="stop-color:#322825"/>
				<stop  offset="0.6936" style="stop-color:#100403"/>
				<stop  offset="0.8134" style="stop-color:#000000"/>
				<stop  offset="0.9192" style="stop-color:#000000"/>
				<stop  offset="1" style="stop-color:#000000"/>
			</radialGradient>
			<ellipse class="st15" cx="220.7" cy="120" rx="7.9" ry="7.9"/>
			<polygon class="st16" points="235.8,163 223.5,131 226.5,154 223.9,154.3 220.9,131.6 220.3,131.6 218.2,145.8 217.2,145.7 
				214.6,159.3 212,158.8 214,148.3 213.7,148.2 217.8,127.8 216.4,130.2 214.1,128.8 216.6,124.6 215.9,125.1 215.5,124.6 
				188.5,140.4 187.1,138.1 205.9,127.1 178.8,137.5 177.8,135.1 209.8,122.8 186.8,125.8 186.4,123.2 209.2,120.2 209.1,119.6 
				194.9,117.5 195.1,116.5 181.4,113.9 181.9,111.3 192.5,113.3 192.6,113 213,117.1 210.6,115.7 211.9,113.5 216.1,115.9 
				215.6,115.2 216.1,114.8 200.4,87.8 202.7,86.4 213.6,105.2 203.2,78 205.7,77.1 218,109.1 214.9,86.1 217.6,85.7 220.6,108.5 
				221.1,108.4 223.3,94.2 224.3,94.4 226.9,80.7 229.5,81.2 227.5,91.8 227.8,91.9 223.7,112.3 225,109.9 227.3,111.2 224.9,115.4 
				225.6,114.9 226,115.4 253,99.7 254.3,102 235.6,112.9 262.7,102.5 263.7,105 231.7,117.3 254.7,114.2 255,116.9 232.3,119.9 
				232.3,120.4 246.5,122.6 246.4,123.6 260,126.2 259.5,128.8 249,126.8 248.9,127.1 228.5,123 230.9,124.3 229.5,126.6 
				225.3,124.2 225.8,124.9 225.3,125.3 241.1,152.3 238.8,153.6 227.8,134.9 238.2,162 			"/>
		</g>
	</g>
	<g>
		<g>
			<path class="st17" d="M388.8,249c-0.8,0-1.6-0.3-2.2-0.9c-0.5-0.5-0.8-1.2-0.9-1.9c-0.3,0.1-0.7,0.2-1.1,0.2
				c-0.5,0-1.1-0.1-1.5-0.4c-1.1-0.6-1.7-1.8-1.5-3.1c0.1-0.8,0.4-1.6,0.9-2.3c-1,0.1-1.8,0.4-3.1,1.6c-0.6,0.5-1.3,0.7-2,0.7
				c-0.8,0-1.6-0.3-2.2-0.9c-1.1-1.1-1.2-2.9-0.2-4.1c2.1-2.6,4.2-4.9,7-6.3c-0.4-0.1-0.7-0.2-1.1-0.2c-0.8,0.1-1.6,0.1-2.3,0.1
				c-3.7,0-7.2-0.6-10.4-1.7c-0.5,0-1,0-1.5,0c-1.5,0-3.3,0.1-5.1,0.3c-8,0.8-19.3,4.9-23.6,7.3c-0.5,0.3-1,0.4-1.5,0.4
				c-0.7,0-1.4-0.2-1.9-0.7c-1-0.8-1.4-2.1-1-3.3c0.4-1,1-2.1,1.8-3c-0.8-0.7-1.2-1.9-0.9-3c0.2-0.8,0.5-1.5,0.9-2.2
				c-0.2-0.3-0.4-0.6-0.6-0.9c-0.6-1.3-0.1-2.9,1.1-3.7c4-2.7,5.3-3.2,8.4-4.2l0.6-0.2c1.2-1.3,2.9-2.2,5.2-2.6
				c-0.6-1.4-1.1-3-1.6-4.6c0,0-0.1,0.1-0.2,0.2c-0.6,0.6-1.3,0.8-2.1,0.8c-0.6,0-1.2-0.2-1.8-0.6c-0.3-0.2-7.1-5.1-10-11.6
				c-2.4-5.4-3.3-12.1-3.6-14.3l-0.1-0.6c-0.2-0.9-0.1-2.4,0.4-6.7l0.2-2.1c0.1-1,0-1.5-0.2-2.1c-0.5-1.7-0.9-3.4,0.5-6.5
				c0.6-1.3,1-2.5,1.4-3.7c1-2.6,2.1-5.6,4.5-10.1l0.3-0.6c1-2.4,2.3-4.8,3.9-7.3c-1.7-2-2.7-3.5-2.7-3.6c-0.8-1.3-0.5-3,0.7-4
				l6.2-4.9c0.5-1,1.5-3.2,3.8-7.8c1.7-3.4,3.9-5.9,6-7.7c-10.6-1.8-23.5-6.5-31.1-10.6c-3.6-1.9-6.2-3.7-7.7-5.4
				c-3-0.2-9.3-0.8-13-2.3c-4.3-1.7-6.2-7.7-5.3-12.2c0.8-4,3.6-6.4,7.3-6.4c1.6,0.1,4.2,0.2,12.2,10.4c0,0,2.5,3.1,2.7,3.3
				c1.8,0,4.7-0.8,12.9-5.5c3.2-1.8,6.2-4.3,9.1-7.3c-1.5-3.3-2.2-6.8-2.2-10.2c0-2.9,0.5-5.8,1.5-8.6c-4.8-1.4-8.4-2.9-11-4.5
				c-3.6-2.3-6.8-4.9-6.4-8.4c0.5-4.2,5.5-6.3,15.9-9.7l17-4c2.7-3.4,12.5-15.2,23.6-18.2c5.4-1.5,10.7-2.3,15.5-2.3
				c9.5,0,17.8,2.9,24.5,8.5c9.8,8.2,15.5,18.1,17.2,21.4c1.9,0.7,6,2.4,10.2,4.6c2.9-5.5,6.5-11,10.7-16.4c0.6-0.8,1.5-1.2,2.4-1.2
				c0.5,0,1,0.1,1.5,0.4c1.3,0.7,1.9,2.3,1.4,3.7c-1.9,5.2-4,11.9-6.4,20c0.1,0.1,0.1,0.1,0.2,0.2c0.3-0.4,0.7-0.8,1.1-1.2
				c7.5-7.8,19.6-15.3,20.1-15.6c0.5-0.3,1-0.5,1.6-0.5c0.9,0,1.8,0.4,2.4,1.1c1,1.2,0.9,3-0.2,4.1c-0.1,0.1-10.8,10.9-14.7,17.5
				c-0.7,1.2-1.3,2.5-1.8,3.9c2-1.7,4.2-3.4,6.5-4.6c7.3-4,17.6-7.7,18.1-7.9c0.3-0.1,0.7-0.2,1-0.2c1.1,0,2.2,0.6,2.7,1.7
				c0.7,1.4,0.2,3.1-1,3.9c-0.1,0.1-11.2,7.4-15.4,11.9c-0.2,0.2-0.4,0.4-0.6,0.6c6.5-2.7,17.5-5.4,18-5.5c0.2-0.1,0.5-0.1,0.7-0.1
				c1.2,0,2.4,0.7,2.9,2c0.6,1.4,0,3-1.4,3.8c-0.1,0.1-11,6-15.3,10.3c-1.1,1.1-2.3,2.2-3.3,3.1c-1.8,1.7-4.3,4-4.4,4.8
				c0.5,3.4-0.4,8.1-3.4,10.5c0,0.1-1.6,2.6-8.7,17.8c1.3,1.8,2.1,3.2,2.5,4.4c1.2,3.3,2,7.8,2.3,9.6c0,0.1,0.1,0.3,0.1,0.4
				c0.1,0.4,0,0.8-0.1,1.2c-0.2,1.1-0.9,2.2-2,2.6l-2.7,0.9l-3.3,1.6l0.2,0.9c1,0.7,2.4,1.8,3.6,3.2c2.5,2.8,1.5,7.2,0.7,9.4l0,0.2
				c2.6,2.8,5.3,9.1,4.5,12.5c-0.1,0.5-0.3,0.9-0.5,1.3l7.7,18.3c0.4,0.9,0.3,2-0.3,2.9c-0.6,0.9-1.5,1.4-2.5,1.4c0,0-1.2,0-3.2,0
				c0.7,5.1,0.6,10.9-0.2,16.3c0.2,0,0.4,0,0.5,0c2.1,0,3.8-0.6,5.2-1.8c5.4-4.8,10.9-10.2,13.6-19.9c0.4-1.3,1.6-2.3,2.9-2.3
				c0,0,0,0,0.1,0c1.4,0,2.6,1,2.9,2.4c2.6,12-4.1,26.7-12,33.9c-5.7,5.2-12.2,8.1-18.1,8.1c-1.3,0-2.5-0.1-3.8-0.4
				c-7.1,7.7-15.4,11.7-25.6,12.5c-1.2,0.7-2.7,1.2-4.5,1.5c-2.2,0.5-4.1,0.7-5.8,0.8c-3.4,0.4-5.7,0.6-9.8,3
				c-7.5,4.3-11.6,4.6-17.7,4.6h-1.4c-4.2,0-4.2,0-6.4,1.8C390.1,248.8,389.5,249,388.8,249z"/>
		</g>
		<g>
			<path class="st0" d="M478.3,204.5c-3.7,3.2-8.2,2.9-11.3,2c1.6-7.5,1.5-15.6,0.1-21.8c4-0.1,6.8-0.1,6.8-0.1l-8.6-20.4
				c0,0,0,0,0.1,0c3.3-0.3-0.9-9.8-3.2-11.3l-0.4-2c0,0,2-5,0.1-7.1c-1.8-2.1-4.1-3.4-4.1-3.4l-0.9-4.4l5.7-2.8l2.7-0.9
				c0,0,0-0.2-0.1-0.4l0.1,0c0,0-0.1,0-0.1,0c-0.2-1.4-1-6.1-2.2-9.5c-0.5-1.3-1.6-3.1-3.2-5.1c4.4-9.5,9.3-19.8,10.3-20.6
				c1.8-1.4,2.7-4.9,2.3-7.8c-0.4-2.9,3.9-5.9,8.6-10.5c4.7-4.6,16-10.8,16-10.8s-11.5,2.8-17.8,5.5c-6.3,2.7-11.6,10-11.6,10
				s4.5-10.9,9-15.7c4.5-4.8,15.9-12.4,15.9-12.4s-10.5,3.7-17.6,7.7c-7.2,4-13.5,12.2-13.5,12.2s1.1-9.5,4.8-15.7
				c4.2-7.1,15.2-18.1,15.2-18.1s-12.2,7.5-19.5,15.1c-1.6,1.6-2.9,3.2-4.1,4.6c0.2-1.4-0.5-3-2.6-4.6c-0.1-0.1-0.2-0.1-0.3-0.2
				c2-6.9,4.5-15.2,6.9-22c-4.7,6.1-8.8,12.5-11.8,18.8c-6.3-3.6-13.7-6.3-13.7-6.3s-5.7-12-17-21.5c-11.3-9.5-25.4-8.9-37.3-5.7
				c-11.9,3.3-22.6,18-22.6,18l-17.8,4.2c-14.6,4.9-17.8,7-8.8,12.7c3,1.9,7.8,3.6,13.6,5C345,62.6,344,66.1,344,70
				c0,3.9,1.1,7.5,2.8,10.8c-3.1,3.6-6.9,7-11.3,9.5c-10.4,5.9-13.1,6-15.6,5.9c-0.1,0-0.2,0-0.4,0c-0.6-0.9-1.9-2.3-3.6-4.5
				c-3.4-4.3-7.7-9.2-9.5-9.2c-6.8-0.3-5.6,11-1.2,12.7c3.8,1.5,11,2.1,13.6,2.2c0.6,1.2,2.8,3.2,7.5,5.7
				c7.9,4.2,22.7,9.7,34.1,10.8l5,0.6l-4.1-0.3c0,0,0,0.8,0,2.2c-2,1.1-6.2,4-8.7,9.1c-3.3,6.8-4,8.4-4,8.4l-6.8,5.4
				c0,0,1.5,2.4,4,4.9c-1.7,2.4-3.6,5.4-5,8.7c0,0,0,0,0,0c-0.2,0.3-0.3,0.6-0.5,0.9c-3.4,6.4-4,9.5-5.8,13.6
				c-1.8,4.1,0.4,3.9,0,7.8c-0.4,3.9-0.9,7.2-0.7,7.9c0.1,0.7,0.9,8.3,3.5,14.1c2.6,5.8,8.9,10.3,8.9,10.3s-4.4-7.1-4.8-14.3
				c2,3.3,3.4,6.4,6.1,9.2c1,1.1,2,1.8,2.9,2.4c1.1,5.3,2.9,9.5,4.5,12.1c-3.4-0.1-6.9,0.6-8.1,2.6c-3.9,1.3-4.6,1.3-9.2,4.3
				c4.7-0.9,7.5-1,7.5-1s-6.7,2-7.7,6c6.4-3.9,9.9-2.1,9.9-2.1s-9.4,4-10.8,8.3c4.3-2.5,16.2-6.9,24.8-7.7c2.9-0.3,5.4-0.3,7.5-0.2
				c3.5,1.3,7.6,1.9,12.4,1.6c2.6,0.6,5.6,1.1,8.9,1.4c5.5,0.5,10.1,0.7,13.8,0.7c-2.9,0.5-6.1,0.8-9.1,1c-6.5,0.4-8.4,2.1-8.4,2.1
				c-3.9,0.5-6.2,2.9-8.9,6.3c2.4-2,4.1-2.5,7-2.3c2.9,0.2,6.4,0.8,6.4,0.8s-5.8,2.3-6.2,5c3.1-2.5,2.2-2.5,5.2-2.5
				c3-0.1,6.1,0,6.1,0s-4.7,2.1-7.2,5.2c3.3-2.6,4-2.4,9.7-2.4c5.7,0,9.3-0.2,16.2-4.2c6.9-4,9.7-2.8,16.5-4.2
				c2.1-0.4,3.3-1,4.2-1.5c10.4-0.7,18.5-4.7,25.3-12.7c0.1-0.1,0.2-0.2,0.2-0.3c6.7,2.3,14.4-0.7,20.8-6.5
				c6.9-6.2,13.5-19.7,11.1-31C490.1,193.3,484.5,199.1,478.3,204.5z M433.2,71.4c-0.1,0.2-0.1,0.5-0.1,0.7l-2.5-3.3
				c1.1,0,2.1-0.1,3.2-0.2C433.6,69.6,433.4,70.5,433.2,71.4z M455.8,63.9c-3.1,4.1-4.6,7-4.6,7s0.5-2.1,1.4-5.4
				C453.9,64.9,455,64.4,455.8,63.9z M445.1,67.3c-2.2,7.8-4.2,16.2-4.2,16.2s-0.7-2.3-1.8-10.2c-0.2-1.5-0.4-3.2-0.5-5.2
				c1-0.1,2.1-0.2,3.1-0.3C442.9,67.7,444,67.5,445.1,67.3z"/>
		</g>
		<g>
			<ellipse class="st18" cx="366.8" cy="69.5" rx="21" ry="21"/>
			<path class="st19" d="M348.4,140.1c0,0-4.6,7.1-8,13.5c-3.4,6.4-4,9.5-5.8,13.6c-1.8,4.1,0.4,3.9,0,7.8c-0.4,3.9-0.9,7.2-0.7,7.9
				c0.1,0.7,0.9,8.3,3.5,14.1c2.6,5.8,8.9,10.3,8.9,10.3s-4.4-7.1-4.8-14.3c2,3.3,3.4,6.4,6.1,9.2c2.7,2.8,5.2,3.7,5.2,3.7l5.2-38.8
				l1.1-15.2L348.4,140.1z"/>
			<path class="st20" d="M350,138.8c0,0,0,0-0.1,0.1c-0.8,0.9-6,6.7-8.9,13.7c-3.2,7.6-3.9,12.6-3.7,17.5c0.2,4.9,1.2,10.4,3.5,14.9
				c2.3,4.6,3.8,11.1,7.7,13.9c-1.6-10.6-3.4-19.7-1.9-23.1c1.5-3.5-0.4-1.6-0.3-3.7c0.1-2.2,3.1-10.8,7.3-13.8
				c4.2-3,7.1-6.4,7.1-6.4"/>
			<path class="st21" d="M366.8,92.8C354.2,92.8,344,82.6,344,70c0-12.6,10.3-22.9,22.9-22.9c12.6,0,22.9,10.3,22.9,22.9
				C389.7,82.6,379.4,92.8,366.8,92.8z M366.8,50.9c-10.5,0-19.1,8.6-19.1,19.1s8.6,19.1,19.1,19.1c10.5,0,19.1-8.6,19.1-19.1
				S377.4,50.9,366.8,50.9z"/>
			<path class="st20" d="M463.6,205.3c0,0,8.6,4.6,14.7-0.8c6.1-5.4,11.7-11.3,14.5-21.4c2.4,11.2-4.2,24.7-11.1,31
				c-6.9,6.3-15.3,9.4-22.3,5.9C452.4,216.6,463.6,205.3,463.6,205.3z"/>
			<path class="st20" d="M429.6,67.5c0,0-6.8-17.5-23.2-21.7c-16.4-4.1-29.1-1-37,3.9c-7.9,4.9-10.2,9-13.4,16.5
				c-3.2,7.4-10.1,18.2-20.5,24.1c-10.4,5.9-13.1,6-15.6,5.9c-2.5-0.2-1.5,2.7,6.4,6.9c7.9,4.2,22.7,9.7,34.1,10.8l5,0.6l-1.9,12.7
				l11.5,4.4l41.8-20.6l26.2-5.1l4.1-3.5l-13.6-29.5L429.6,67.5z"/>
			<path class="st21" d="M306.5,82.4c-6.8-0.3-5.6,11-1.2,12.7c4.4,1.7,13.3,2.2,14.4,2.2c1.1,0-0.4-1.4-3.8-5.7
				C312.6,87.3,308.3,82.5,306.5,82.4z"/>
			<path class="st22" d="M359.2,171.4c0,0-9.6,9.2-9.8,22c-0.2,12.8,4.6,22.9,7.2,25.4c2.6,2.5,12,11.4,26.8,9.2
				c14.8-2.2,6.3-9.6,6.3-9.6L359.2,171.4z"/>
			<path class="st20" d="M353.7,172.7c0,0-5.9,16.6,1.1,31c7,14.3,12.9,23.9,35.3,26c22.5,2.2,28.9-1.2,28.9-1.2s16-14.5,9.7-33.8
				c-6.3-19.3-29.4-28.5-30-28.5c-0.6,0-28.3,2-28.3,2L353.7,172.7z"/>
			<path class="st23" d="M425.2,172c0,0-23.9,16.7-27.8,26.6c-3.9,9.9-4.4,28,17,32.8c21.4,4.8,35.5,2.1,46.3-10.6
				c10.8-12.6,9.1-43.2,0.7-45.8C453,172.5,425.2,172,425.2,172z"/>
			<path class="st22" d="M375.7,227.5c0,0-5.7-1.4-14.4-0.5c-8.7,0.9-20.5,5.2-24.8,7.7c1.4-4.2,10.8-8.3,10.8-8.3s-3.5-1.8-9.9,2.1
				c1-4,7.7-6,7.7-6s-2.7,0.1-7.5,1c4.5-3,5.2-3,9.2-4.3c1.7-2.9,8.1-3,12.3-2.1C363.4,218,375.7,227.5,375.7,227.5z"/>
			<path class="st23" d="M436.8,231c0,0,1.2,2.8-5.6,4.2c-6.8,1.4-9.6,0.2-16.5,4.2c-6.9,4-10.5,4.2-16.2,4.2
				c-5.7,0-6.3-0.2-9.7,2.4c2.5-3.1,7.2-5.2,7.2-5.2s-3.1-0.1-6.1,0c-3,0.1-2.1,0.1-5.2,2.5c0.4-2.7,6.2-5,6.2-5s-3.5-0.6-6.4-0.8
				c-2.9-0.2-4.6,0.2-7,2.3c2.8-3.4,5.1-5.8,8.9-6.3c0,0,1.8-1.7,8.4-2.1c6.5-0.4,13.6-1.1,17-3.9c3.4-2.8,12.9-6.1,12.9-6.1
				L436.8,231z"/>
			<path class="st24" d="M362.5,115.6c0,0-0.1,0-0.3,0.1c-1.2,0.6-6.6,3.5-9.5,9.6c-3.3,6.8-4,8.4-4,8.4l-6.8,5.4
				c0,0,2.9,4.7,7.6,7.9c4.7,3.2,6.4,5,6.4,5l6.3-1.9l3.3-25.4v-7.9L362.5,115.6z"/>
			<path class="st25" d="M363.4,119.3l-2.7,12.9c0,0-4,14.2-4,21.1c0,0-4.7,2.8-3,4.8c1.6,2,0.1,5.8,0.1,5.8v3.7c0,0-2,3.1-5.6,6.4
				c-3.6,3.4-5.5,7.6-5.5,7.6l24.2,16.7l8.9-17.8l-1.6-28.7l1.5-23.3L363.4,119.3z"/>
			<path class="st26" d="M398.5,117l-23.6,11c0,0-4.7,12.5-4.7,15.1c0,2.7,1.1,3.3,1.1,3.3s-1.9,4.8-2.5,7.8c-0.6,3,3.6,6.5,3.2,9.5
				c-0.4,3,1.9,34.3,1.9,34.3s11.8-7.4,19.8-8.5c8-1.1,37.6-1.9,47.3-3.2c9.7-1.3,33-1.6,33-1.6l-10.4-24.8l-1.6-8.9
				c0,0,2-5,0.1-7.1c-1.8-2.1-4.1-3.4-4.1-3.4l-5-24.9l-7.6-13.9l-30.3,5.2L398.5,117z"/>
			<path class="st27" d="M448.3,104.5c6.4,6.2,13.6,14.1,15,18c1.4,3.9,2.2,9.9,2.2,9.9l-7.5,2.5l-26.3-12.6L417.8,106l7.6-13.2
				c0,0,8.2,2.3,11.4,4C440,98.6,444.6,101,448.3,104.5z"/>
			<path class="st28" d="M361.3,114l4.1,0.3c0,0,3.1,4.5,4.8,6.6c1.7,2,4.3,5.1,4.3,5.1l0.2,2.6l-1.2-2.5c0,0-4.8,8.5-5.4,11
				c-0.6,2.5-4.9-5.1-5.9-11.8C361.2,118.5,361.3,114,361.3,114z"/>
			<path class="st28" d="M417.8,103.6l-24.1,13c0,0-15.6,6.4-16.8,7.9c-1.1,1.5-2.8,4.9-2.8,4.9l3.5-2.7c0,0,5,8.7,6.4,11.1
				c1.4,2.3,2.9,0.1,7.2-2.9c4.2-2.9,14.1-14.2,16.1-16c2-1.8,10.5-6.3,10.5-6.3V103.6z"/>
			<path class="st29" d="M353.9,159.7c0,0,31.6,0.1,43.7-1.3c12.1-1.4,62.2-6.6,64.5-5.6c2.2,1,6.8,11.1,3.4,11.5
				c-3.4,0.4-69.5,7-82.3,5.5c-12.8-1.6-28.8,3.1-30.6-1C350.7,164.6,352.1,160,353.9,159.7z"/>
			
				<rect x="397.6" y="67.9" transform="matrix(0.9221 -0.3868 0.3868 0.9221 4.698 162.9702)" class="st21" width="19.3" height="3.7"/>
			<path class="st30" d="M420.2,67.5c0,0-2.4,12.7-1.9,16c0.5,3.3,3.2,16.3,3.2,16.3l-4.6,6.3l0-12.2l-2.7-7.7l0.7-22.3L420.2,67.5z
				"/>
			<path class="st31" d="M370.2,108.6c0,0,7.7-9.7,16.2-10.8c8.4-1.1,9.3,5.5,5.2,9.7c-4.1,4.2-9.4,6.7-14.4,5.1
				C372.2,111.1,370.2,108.6,370.2,108.6z"/>
			<path class="st0" d="M370.2,108.6c0.6-0.9,4.2-4.5,4.8-4.9c0.6,1.4,1.6,3.9,0.4,5.1C374.5,109.6,371.4,109.3,370.2,108.6z"/>
			<path class="st0" d="M376.9,102.2c1.1-0.9,4-2.8,5.5-3.3c0.4,2.4,0.2,3.9-1,5C380.2,104.8,377.6,103.1,376.9,102.2z"/>
			<path class="st0" d="M384,98.3c0,0,3.6-1.3,6.8-0.2c-1,1.5-1.9,4-3.2,4.2C386.3,102.5,384,98.3,384,98.3z"/>
			<path class="st32" d="M384,72.7c2.2-1.1,3.5,0.4,4.1,1.4c0.7,0.9,1.6,3.3-1.8,2.4S383.6,72.9,384,72.7z"/>
			<circle class="st18" cx="377.4" cy="72.3" r="21"/>
			<path class="st21" d="M377.4,95.2c-12.6,0-22.9-10.3-22.9-22.9s10.3-22.9,22.9-22.9c12.6,0,22.9,10.3,22.9,22.9
				S390,95.2,377.4,95.2z M377.4,53.2c-10.5,0-19.1,8.6-19.1,19.1c0,10.5,8.6,19.1,19.1,19.1c10.5,0,19.1-8.6,19.1-19.1
				C396.5,61.7,387.9,53.2,377.4,53.2z"/>
			<path class="st26" d="M359.7,37.5c0,0,10.8-14.7,22.6-18c11.9-3.3,26-3.8,37.3,5.7c11.3,9.5,17,21.5,17,21.5s12.4,4.5,18.8,9.8
				c6.5,5.3,1.2,9.4-13.8,11.5c-15.1,2-34.9,1-55.3-1.8c-20.4-2.8-44.3-5.9-53.2-11.7c-9-5.8-5.9-7.8,8.8-12.7L359.7,37.5z"/>
			<path class="st33" d="M423.5,103.1l8.8-11c0,0-1.6-9.3,0.9-20.7c2.4-11.3,4.7-22.4,4.7-22.4s0.1,16.5,1.2,24.4
				c1.1,7.9,1.8,10.2,1.8,10.2s3.4-14.4,6.3-23c2.9-8.6,8.3-17.8,15-26.3c-5.4,14.9-10.9,36.6-10.9,36.6s3.6-6.8,10.9-14.4
				c7.3-7.6,19.5-15.1,19.5-15.1s-11,11.1-15.2,18.1c-3.6,6.2-4.8,15.7-4.8,15.7s6.4-8.3,13.5-12.2c7.2-4,17.6-7.7,17.6-7.7
				s-11.4,7.6-15.9,12.4c-4.6,4.8-9,15.7-9,15.7s5.3-7.3,11.6-10c6.3-2.7,17.8-5.5,17.8-5.5s-11.4,6.2-16,10.8
				c-4.7,4.6-9,7.6-8.6,10.5c0.4,2.9-0.5,6.4-2.3,7.8c-1.8,1.4-17.5,36.3-17.5,36.3L425,115.6L423.5,103.1z"/>
			<path class="st34" d="M425.5,92.8c0,0-7.9,8.1-10.5,12.6c-2.6,4.5-6.3,11.6-6.3,11.6s-2,11.1,1.9,16c3.9,4.8,16.7,13.4,25.7,13.2
				c9-0.2,15.1-1.4,15.1-1.4l1.6-6.7l12.5-6.2c0,0-4-0.6-12-4.7c-7.9-4.2-18.7-12.8-22.6-19.8C427,100.5,425.5,92.8,425.5,92.8z"/>
			<path class="st25" d="M379.8,141.4c0,0,18.6-2,20.7-1.3c2.1,0.7,1.2,11.8-4.5,13.5c-5.7,1.7-10.7,2.5-13.4,0
				C379.8,151,378.3,142,379.8,141.4z"/>
			<path class="st28" d="M358.4,141c0,0-1.8,9.7-2.1,12.6c-0.2,2.9,6.9,0,8.4-4.6c1.4-4.7,1.2-7.8,0.3-7.9
				C364.2,140.9,358.4,141,358.4,141z"/>
			<path class="st20" d="M442.8,86.3c0,0,1.2,2.8,3.8,7.5c2.6,4.8,0.6,9.1,0.6,9.1s4.7-5.2,1.8-9.7C446,88.8,442.8,86.3,442.8,86.3z
				"/>
			<path class="st20" d="M445.8,69c0,0,0.2,1.3,2.5,1.4c2.2,0.1,2.3-0.7,2.3-0.7s0.1,1.3-2.4,1.2C445.7,70.7,445.8,69,445.8,69z"/>
			<path class="st20" d="M452.9,70.2c0,0-0.2,2,2.9,3.1c3.2,1.1,3.7,0,3.7,0s-0.4,1.9-4,0.6C452,72.7,452.9,70.2,452.9,70.2z"/>
			<path class="st20" d="M462.2,75.8c0,0-1,1.8,1.5,4c2.5,2.2,3.4,1.4,3.4,1.4s-1.1,1.6-3.9-0.9C460.4,77.7,462.2,75.8,462.2,75.8z"
				/>
			<path class="st20" d="M433.6,93c0,0,2,1.6,5.3-1.1c3.3-2.7,2.5-4,2.5-4s1.8,1.7-2,4.7C435.6,95.6,433.6,93,433.6,93z"/>
			<path class="st19" d="M345.7,172.4c0,0-1.3-1.8-4.7-0.2c-3.3,1.5-2.9,2.8-2.9,2.8s-1.1-1.8,2.6-3.5
				C344.6,169.8,345.7,172.4,345.7,172.4z"/>
			<path class="st20" d="M467.6,83.3c0,0-0.8,1.5,1.2,3.3c2.1,1.8,2.8,1.2,2.8,1.2s-0.9,1.4-3.2-0.8
				C466.1,84.9,467.6,83.3,467.6,83.3z"/>
			<path class="st35" d="M406.2,50.5c-3.9,0-8.1-0.2-12.3-0.6c-21.5-2-29.8-7.7-31.7-8.7c-1.9-0.9-0.4-2.4,1-1.6
				c1.5,0.8,9.8,6.4,30.8,8.4c21.1,1.9,37.5-1.6,39.3-2c1.8-0.3,2.6,1.4,0.4,1.8C431.6,48.3,421.9,50.5,406.2,50.5z"/>
			<path class="st35" d="M414.1,49.6l-1.8-0.3c0-0.1,1.3-7.3-2.2-16.5c-3.4-9.1-11.6-12.4-12.9-13.3c-1.3-0.8-1.1-2.2,0.7-1.7
				c1.8,0.5,10.2,4.5,13.9,14.3C415.5,41.8,414.2,49.3,414.1,49.6z"/>
		</g>
	</g>
</g>
</svg>
