<?xml version="1.0" encoding="utf-8"?>
<!-- Generator: Adobe Illustrator 20.1.0, SVG Export Plug-In . SVG Version: 6.00 Build 0)  -->
<svg version="1.1" id="圖層_1" xmlns="http://www.w3.org/2000/svg" xmlns:xlink="http://www.w3.org/1999/xlink" x="0px" y="0px"
	 viewBox="0 0 1921 351.8" style="enable-background:new 0 0 1921 351.8;" xml:space="preserve">
<style type="text/css">
	.st0{fill:#DCAE8E;}
</style>
<path class="st0" d="M1921,20.5c-8.8,0-13.2,3.2-18.6,8.1c-5.4-5-13.3-8.1-22.1-8.1c-8.8,0-16.7,3.2-22.1,8.1
	c-5.4-5-13.3-8.1-22.1-8.1c-8.8,0-16.7,3.2-22.1,8.1c-5.4-5-13.3-8.1-22.1-8.1c-8.8,0-16.7,3.2-22.1,8.1c-5.4-5-13.3-8.1-22.1-8.1
	c-8.8,0-16.7,3.2-22.1,8.1c-5.4-5-13.3-8.1-22.1-8.1c-8.8,0-16.7,3.2-22.1,8.1c-5.4-5-13.3-8.1-22.1-8.1s-16.7,3.2-22.1,8.1
	c-5.4-5-13.3-8.1-22.1-8.1c-8.8,0-16.7,3.2-22.1,8.1c-5.4-5-13.3-8.1-22.1-8.1c-8.8,0-16.7,3.2-22.1,8.1c-5.4-5-13.3-8.1-22.1-8.1
	c-8.8,0-16.7,3.2-22.1,8.1c-5.4-5-13.3-8.1-22.1-8.1s-16.7,3.2-22.1,8.1c-5.4-5-13.3-8.1-22.1-8.1c-8.8,0-16.7,3.2-22.1,8.1
	c-5.4-5-13.3-8.1-22.1-8.1c-8.8,0-16.7,3.2-22.1,8.1c-5.4-5-13.3-8.1-22.1-8.1s-16.7,3.2-22.1,8.1c-5.4-5-13.3-8.1-22.1-8.1
	s-16.7,3.2-22.1,8.1c-5.4-5-13.3-8.1-22.1-8.1c-8.8,0-16.7,3.2-22.1,8.1c-5.4-5-13.3-8.1-22.1-8.1s-16.7,3.2-22.1,8.1
	c-5.4-5-13.3-8.1-22.1-8.1c-8.8,0-16.7,3.2-22.1,8.1c-5.4-5-13.3-8.1-22.1-8.1c-8.8,0-16.7,3.2-22.1,8.1c-5.4-5-13.3-8.1-22.1-8.1
	c-8.8,0-16.7,3.2-22.1,8.1c-5.4-5-13.3-8.1-22.1-8.1c-8.8,0-16.7,3.2-22.1,8.1c-5.4-5-13.3-8.1-22.1-8.1c-8.8,0-16.7,3.2-22.1,8.1
	c-5.4-5-13.3-8.1-22.1-8.1c-8.8,0-16.7,3.2-22.1,8.1c-5.4-5-13.3-8.1-22.1-8.1c-8.8,0-16.7,3.2-22.1,8.1c-5.4-5-13.3-8.1-22.1-8.1
	c-8.8,0-16.7,3.2-22.1,8.1c-5.4-5-13.3-8.1-22.1-8.1c-8.8,0-16.7,3.1-22.1,8.1v-1.8c0-5.2-4.2-9.4-9.4-9.4c-4.6,0-8.4-0.3-9.2,3.3
	c-1.2-0.1-2.4-0.2-3.6-0.2c-8.8,0-16.7,3.2-22.1,8.1c-5.4-5-13.3-8.1-22.1-8.1c-1.4,0-2.7,0.1-4.1,0.2c-0.8-3.6-4.6-3.3-9.2-3.3
	c-5.2,0-9.4,4.2-9.4,9.4v1.4c-5.4-4.7-13.1-7.7-21.6-7.7c-8.8,0-16.7,3.2-22.1,8.1c-5.4-5-13.3-8.1-22.1-8.1
	c-8.8,0-16.7,3.2-22.1,8.1c-5.4-5-13.3-8.1-22.1-8.1c-8.8,0-16.7,3.2-22.1,8.1c-5.4-5-13.3-8.1-22.1-8.1c-8.8,0-16.7,3.2-22.1,8.1
	c-5.4-5-13.3-8.1-22.1-8.1c-8.8,0-16.7,3.2-22.1,8.1c-5.4-5-13.3-8.1-22.1-8.1c-8.8,0-16.7,3.2-22.1,8.1c-5.4-5-13.3-8.1-22.1-8.1
	c-8.8,0-16.7,3.2-22.1,8.1c-5.4-5-13.3-8.1-22.1-8.1c-8.8,0-16.7,3.2-22.1,8.1c-5.4-5-13.3-8.1-22.1-8.1c-8.8,0-16.7,3.2-22.1,8.1
	c-5.4-5-13.3-8.1-22.1-8.1c-8.8,0-16.7,3.2-22.1,8.1c-5.4-5-13.3-8.1-22.1-8.1c-8.8,0-16.7,3.2-22.1,8.1c-5.4-5-13.3-8.1-22.1-8.1
	c-8.8,0-16.7,3.2-22.1,8.1c-5.4-5-13.3-8.1-22.1-8.1c-8.8,0-16.7,3.2-22.1,8.1c-5.4-5-13.3-8.1-22.1-8.1S92,23.7,86.5,28.6
	c-5.4-5-13.3-8.1-22.1-8.1c-8.8,0-16.7,3.2-22.1,8.1c-5.4-5-13.3-8.1-22.1-8.1c-7.8,0-14.8,2.4-20.1,6.4c0,10.9,0,59.5,0,69.3V98
	v258.5h1921V96.2h0C1921,86.8,1920.9,41.4,1921,20.5z"/>
</svg>
