<?xml version="1.0" encoding="utf-8"?>
<!-- Generator: Adobe Illustrator 20.1.0, SVG Export Plug-In . SVG Version: 6.00 Build 0)  -->
<svg version="1.1" id="圖層_1" xmlns="http://www.w3.org/2000/svg" xmlns:xlink="http://www.w3.org/1999/xlink" x="0px" y="0px"
	 viewBox="0 0 189 262" style="enable-background:new 0 0 189 262;" xml:space="preserve">
<style type="text/css">
	.st0{fill:#9F9E9F;}
	.st1{fill:#FFFFFF;stroke:#9F9E9F;stroke-width:1.1112;stroke-miterlimit:10;}
	.st2{fill:#E99214;}
	.st3{fill:#DFDE4E;stroke:#C39C61;stroke-width:0.7408;stroke-miterlimit:10;}
	.st4{fill:#FFFFFF;}
	.st5{fill:#E4805B;}
	.st6{fill:#231815;}
	.st7{fill:#37302F;}
	.st8{fill:#E69083;}
	.st9{fill:#673A1B;}
	.st10{fill:#DD8A7E;}
	.st11{fill:#B982B1;}
	.st12{clip-path:url(#SVGID_2_);fill:#595857;}
	.st13{fill:#595857;}
</style>
<path class="st0" d="M160.2,4.9h-20.8H67.5C52,4.9,39.4,17.5,39.4,33S52,61.1,67.5,61.1H92c0.5,1.7,1.4,6.2-2.1,8.8
	c6.4-1.4,10-6.8,11.2-8.8h38.3h20.8c15.5,0,28.1-12.6,28.1-28.1S175.8,4.9,160.2,4.9z"/>
<path class="st1" d="M155.8,1.9H66C50.5,1.9,37.9,14.5,37.9,30S50.5,58.1,66,58.1h21.7c0.5,1.7,1.4,6.2-2.1,8.8
	c6.4-1.4,10-6.8,11.2-8.8h59c15.5,0,28.1-12.6,28.1-28.1S171.3,1.9,155.8,1.9z"/>
<g>
	<path class="st2" d="M71.3,17.9c0.6,0.7,1.1,1.4,1.6,2.1c0.5-0.8,0.8-1.6,1.2-2.6c0.1-0.5,0.5-0.8,1.1-0.8c0.3,0,0.5,0.1,0.7,0.2
		c0.2,0.2,0.3,0.4,0.3,0.6c0,0.3-0.1,0.5-0.1,0.8c-0.4,1.4-0.9,2.5-1.4,3.4c-0.2,0.3-0.3,0.5-0.5,0.7c0.5,1.2,0.9,2.4,1.2,3.7
		c0.6,2.7,0.9,5.3,0.9,7.7c0,1.5-0.3,3.1-0.7,4.6c-0.4,1.4-0.9,2.3-1.5,3c-0.7,0.5-1.4,0.8-2.3,0.8c-0.5,0-1.1-0.2-1.7-0.6
		c-0.6-0.2-1-0.6-1-1.1c0-0.8,0.4-1.2,1-1.2c0.8,0.5,1.4,0.7,1.6,0.7c0.4,0,0.7-0.2,1.1-0.6c0.4-0.5,0.7-1.2,1-2.3
		c0.3-1,0.4-2,0.4-3.3c0-1.2-0.1-2.3-0.2-3.4c-0.3,0.4-0.6,0.8-0.8,1.1c-0.6,0.8-1.4,1.5-2.1,2.1c-0.5,0.5-0.8,0.6-1.1,0.6
		c-0.8,0-1.2-0.3-1.2-1c0-0.5,0.2-0.8,0.6-1.2c1.5-1.2,2.6-2.2,3.4-3.1c0.3-0.3,0.6-0.7,0.8-1.1c-0.1-0.2-0.1-0.5-0.1-0.7
		c-0.2-1.1-0.5-2-0.8-2.9c-0.1,0.1-0.1,0.1-0.1,0.1c-0.6,0.8-1.4,1.4-2.3,1.9c-0.2,0.1-0.4,0.1-0.6,0.1c-0.3,0-0.6-0.1-0.8-0.4
		c-0.2-0.2-0.3-0.5-0.3-0.8s0.1-0.5,0.3-0.8c0.8-0.5,1.5-1.1,2.1-1.7c0.3-0.3,0.5-0.5,0.7-0.8c-0.5-0.9-1.2-1.8-2.1-2.7
		c-0.3-0.3-0.4-0.6-0.4-0.8c0-0.7,0.4-1,1.2-1.1C70.6,17.3,70.9,17.5,71.3,17.9z M94.1,19.1c0,0.7-0.3,1-1,1h-6.8v1.4H92
		c0.6,0,0.9,0.3,0.9,0.9c0,0.7-0.3,1-0.9,1h-5.7v1.5H94c0.6,0,1,0.3,1,1s-0.3,1-1,1H77.3c-0.7,0-1-0.3-1-1s0.3-1,1-1H84v-1.5h-5.3
		c-0.6,0-0.9-0.3-0.9-1c0-0.6,0.3-0.9,0.9-0.9H84v-1.4h-6.2c-0.7,0-1-0.3-1-1c0-0.6,0.3-1,1-1H84v-0.5c0-0.7,0.4-1.1,1.1-1.1
		c0.8,0,1.2,0.4,1.2,1.1v0.5h6.8C93.8,18.1,94.1,18.5,94.1,19.1z M91,28.4c1.4,0,2.1,0.7,2.1,2v8.9c0,2.1-1,3.1-3.1,3.1
		c-1,0-2.1-0.2-3.4-0.5c-0.5-0.2-0.8-0.5-0.8-1c0-0.8,0.3-1.2,0.9-1.2c0.2,0,0.5,0,0.8,0.1c1,0.2,1.8,0.4,2.3,0.4
		c0.7,0,1.1-0.4,1.1-1.3v-1H80v3.5c0,0.7-0.4,1.1-1.1,1.1s-1.1-0.4-1.1-1.1v-11c0-1.3,0.7-2,2.2-2C80,28.4,91,28.4,91,28.4z
		 M90.9,32.2v-0.9c0-0.6-0.3-1-0.9-1h-9.1c-0.6,0-0.9,0.3-0.9,1v0.9H90.9z M90.9,35.9V34H80v1.9H90.9z"/>
	<path class="st2" d="M108.4,21.9c0,0.7-0.4,1.1-1.1,1.1H101c-0.8,0-1.1-0.4-1.1-1.1s0.4-1.1,1.1-1.1h6.4
		C108.1,20.8,108.4,21.1,108.4,21.9z M106.1,31.6c1.2,0,1.9,0.6,1.9,1.7v6.6c0,1.2-0.6,1.9-1.9,1.9H102c-1.2,0-1.8-0.6-1.8-1.9v-6.6
		c0-1.2,0.6-1.7,1.8-1.7H106.1z M107.7,28.7c0,0.7-0.3,1.1-1,1.1h-5.3c-0.7,0-1-0.4-1-1.1c0-0.6,0.3-1,1-1h5.3
		C107.4,27.7,107.7,28,107.7,28.7z M107.7,25.4c0,0.7-0.3,1.1-1,1.1h-5.2c-0.7,0-1-0.4-1-1.1c0-0.6,0.3-1,1-1h5.2
		C107.4,24.4,107.7,24.7,107.7,25.4z M107.6,18.7c0,0.7-0.3,1.1-1,1.1h-5c-0.7,0-1-0.4-1-1.1c0-0.6,0.3-1,1-1h5
		C107.2,17.7,107.6,18,107.6,18.7z M105.9,38.9v-4.6c0-0.4-0.3-0.6-0.8-0.6H103c-0.5,0-0.7,0.2-0.7,0.6v4.6c0,0.5,0.2,0.8,0.7,0.8
		h2.1C105.7,39.7,105.9,39.4,105.9,38.9z M124.9,27.2c0,0.8-0.3,1.1-1,1.1H120c0.8,1.4,1.7,2.6,2.4,3.6c0.6,0.8,1.5,1.6,2.6,2.4
		c0.4,0.3,0.6,0.6,0.6,1c-0.1,0.8-0.5,1.2-1.2,1.2c-0.3,0-0.5-0.1-0.8-0.2c-0.7-0.6-1.3-1.4-1.9-2.2c-0.6-0.7-1.2-1.6-1.7-2.6v6.6
		c0,0.7-0.4,1-1.1,1s-1-0.3-1-1v-6.6c-0.9,1.7-1.9,3.3-3,4.7c-0.3,0.2-0.5,0.3-0.8,0.3c-0.6,0-1-0.3-1.2-0.8v0.5
		c0,0.9,0.3,1.7,0.9,2.3c0.7,0.7,1.7,1.1,2.8,1.1h8.1c0.6,0,1,0.3,1,1c0,0.6-0.3,1-1,1H117c-1,0-1.8-0.2-2.6-0.5s-1.4-0.8-1.9-1.4
		l-0.2-0.2c-0.1,0-0.2,0.1-0.3,0.2c-0.6,0.7-1.2,1.3-1.9,1.7c-0.4,0.2-0.6,0.4-0.8,0.4c-0.7-0.1-1.1-0.4-1.1-1
		c0-0.5,0.2-0.7,0.7-0.9c0.7-0.5,1.2-0.9,1.5-1.3s0.5-1.2,0.5-2.4V31c0-0.3-0.2-0.5-0.6-0.5H109c-0.7,0-1.1-0.4-1.1-1.1s0.4-1,1.1-1
		h2.3c1.1,0,1.6,0.6,1.6,1.7v4.7c0.1-0.1,0.2-0.3,0.3-0.4c1-0.9,1.8-1.8,2.3-2.5c0.7-0.8,1.4-2.1,2.2-3.6H114c-0.7,0-1-0.4-1-1.1
		c0-0.6,0.3-1,1-1h3.9v-8.1c0-0.6,0.3-1,1-1s1.1,0.3,1.1,1v8.1h4C124.6,26.3,124.9,26.6,124.9,27.2z M110.2,22.4
		c0.3,0.4,0.6,0.8,1,1.1c0.3,0.4,0.7,1,1.2,1.8c0.1,0.2,0.1,0.4,0.1,0.6c0,0.6-0.3,0.9-1,0.9c-0.3,0-0.6-0.1-0.8-0.2
		c-0.4-0.7-0.8-1.2-1-1.6c-0.3-0.3-0.5-0.6-0.8-1c-0.2-0.2-0.3-0.5-0.3-0.8c0-0.6,0.3-1,1-1C109.7,22.2,109.9,22.3,110.2,22.4z
		 M110.3,17.5c0.3,0.4,0.7,0.8,1,1.1c0.3,0.4,0.8,1,1.3,1.7c0.1,0.2,0.1,0.4,0.1,0.6c0,0.6-0.3,0.9-1,0.9c-0.3,0-0.5-0.1-0.8-0.2
		c-0.5-0.6-0.8-1.2-1.1-1.5s-0.6-0.6-0.8-1c-0.2-0.3-0.3-0.5-0.3-0.8c0-0.6,0.3-1,1-1C109.8,17.3,110.1,17.3,110.3,17.5z
		 M115.1,18.5c0.7,1.5,1.3,3.1,1.9,5c0.1,0.2,0.1,0.4,0.1,0.5c0,0.6-0.3,0.9-1,0.9c-0.2,0-0.4-0.1-0.6-0.2c-0.7-1.6-1.4-3.2-2.1-4.7
		c-0.2-0.3-0.2-0.5-0.2-0.6c0-0.7,0.4-1.1,1.1-1.1C114.6,18.2,114.9,18.3,115.1,18.5z M124.6,18.5c0.2,0.2,0.4,0.4,0.4,0.6
		s-0.1,0.4-0.1,0.6c-0.7,1.8-1.5,3.4-2.3,4.7c-0.3,0.3-0.6,0.5-0.9,0.5c-0.7,0-1-0.3-1-0.8c0-0.3,0-0.4,0.1-0.5
		c0.7-1.2,1.4-2.8,2.2-4.7c0.1-0.4,0.4-0.6,0.8-0.6C124,18.2,124.3,18.3,124.6,18.5z"/>
	<path class="st2" d="M143.8,18v2.4h10.1c0.7,0,1.1,0.4,1.1,1.1c0,0.8-0.4,1.2-1.1,1.2h-10.1v4.6h12c0.7,0,1.1,0.4,1.1,1.1
		c0,0.8-0.4,1.2-1.1,1.2h-12v2c0.1,0.1,0.2,0.1,0.3,0.1c1.5,0.8,2.9,1.5,4.1,2.3c1.4,0.8,3.2,2.1,5.3,3.7c0.1,0.2,0.1,0.5,0.1,0.8
		c0,0.7-0.4,1-1.2,1c-0.3,0-0.6-0.1-0.9-0.2c-2-1.5-3.7-2.7-5-3.6c-0.9-0.6-1.8-1.1-2.8-1.7v7.2c0,0.7-0.4,1.1-1.2,1.1
		c-0.7,0-1.1-0.4-1.1-1.1V29.7h-9.9c-0.7,0-1.1-0.4-1.1-1.2c0-0.7,0.4-1.1,1.1-1.1h9.9V18c0-0.7,0.4-1.1,1.1-1.1
		C143.4,16.9,143.8,17.3,143.8,18z"/>
</g>
<g>
	<g>
		<g>
			<polygon class="st3" points="132,96.5 131.9,96.1 131.6,95.7 131.3,95.4 130.9,95.1 130.5,94.9 130.1,94.8 117.2,93.4 
				116.8,93.4 116.3,93.4 115.9,93.6 115.5,93.8 115.2,94.2 114.9,94.5 114.7,95 114.6,95.4 111.8,120 111.8,120.5 111.9,121 
				112.1,121.5 112.3,121.9 112.7,122.3 113.1,122.5 113.6,122.7 114.1,122.9 126.4,124.3 126.9,124.3 127.4,124.2 127.9,124 
				128.3,123.7 128.7,123.4 129,123 129.2,122.5 129.3,122 132.1,97.4 132.1,97 			"/>
			
				<ellipse transform="matrix(0.1144 -0.9934 0.9934 0.1144 9.2007 210.9628)" class="st4" cx="122.9" cy="100.3" rx="3.7" ry="3.7"/>
			<g>
				<g>
					<path class="st5" d="M118.7,109c-1,0.2-1.4,0.4-1.8,0.7c-0.2,0.1-0.5,0.3-0.6,0.7c-0.1,0.2,0,0.3,0.1,0.3c0,0,0.1,0.1,0.3,0
						c0.1-0.1,0.3-0.3,0.6-0.4c0.4-0.2,1.2-0.4,1.9-0.5c0.4-0.1,1.3-0.1,1.9,0c0.8,0.2,3.8,1.3,3.8,2.2c0,0.6-0.5,1.9-0.4,2.9
						c0.1,0.6,0,2.5-0.4,2.6c-0.3,0.1-0.4,0-0.8,0.1c-0.2,0.1-0.2,0.2-0.2,0.3c0,0.2,0.3,0.2,0.8,0.3c0.4,0,0.7,0.1,1,0.1
						c0.2,0,0.5-0.2,0.4-0.4c-0.1-0.3,0.1-2.2,0.3-3.1c0.1-0.7,1.4-2.1,1.2-3.3c-0.1-1-0.7-1.6-2.5-2.6c-1.1-0.6-1.8-0.8-2-1.1
						c-0.3-0.4-0.1-0.6-0.2-1.1c-0.1-0.4-0.5-0.7-1.1-0.7c-0.6,0.1-0.7,0.4-0.7,0.8c0,0.3,0.1,0.4,0,0.7c-0.1,0.1,0.2,0.1,0.2,0.1
						c0.1,0.2,0,0.5,0.3,0.5c0.2,0,0.3-0.1,0.3,0.2c0,0.1-0.1,0.1-0.1,0.1c-0.1,0.1-0.2,0.1-0.3,0.2
						C119.7,108.8,119.4,108.8,118.7,109z"/>
					
						<ellipse transform="matrix(0.1177 -0.993 0.993 0.1177 -0.1814 214.1832)" class="st6" cx="120.4" cy="107.2" rx="0.1" ry="0.1"/>
				</g>
				<path class="st5" d="M118.4,111.7c-0.6,1.7-0.2,3.3,1.1,4.2c1,0.6,2.6,0.8,3.3,0.5c0.8-0.4,0.3-1.5-0.5-1.5
					c-1.2-0.1-1.6-0.9-1.4-1.5c0.5-0.1,0.9-0.5,1-1.2s-0.4-1.5-1.6-1.6C119.3,110.3,118.6,111,118.4,111.7L118.4,111.7z M121.4,112
					c-0.1,0.5-0.5,0.9-1.3,0.8c-0.7-0.1-1-0.6-0.9-1c0.1-0.5,0.5-0.8,1.1-0.7C121,111.1,121.4,111.5,121.4,112z"/>
				
					<ellipse transform="matrix(0.1102 -0.9939 0.9939 0.1102 -4.3813 218.3161)" class="st7" cx="119.7" cy="111.6" rx="0.1" ry="0.1"/>
				
					<ellipse transform="matrix(0.1103 -0.9939 0.9939 0.1103 -3.6873 219.4795)" class="st7" cx="120.7" cy="111.8" rx="0.1" ry="0.1"/>
				<path class="st8" d="M119.8,112.2c0.1,0,0.2,0.1,0.3,0.1s0.2,0,0.4,0c-0.1,0-0.2,0.2-0.4,0.1C120,112.4,119.9,112.2,119.8,112.2
					z"/>
			</g>
			<g>
				<path class="st9" d="M121.8,99.6c0-0.1,0.1-0.3,0.2-0.4s0.3-0.3,0.5-0.3c0.2-0.1,0.4-0.1,0.7-0.1c0.2,0,0.4,0.1,0.6,0.2
					s0.3,0.2,0.4,0.4c0.1,0.2,0.1,0.3,0.1,0.5c0,0.1-0.1,0.2-0.1,0.3c-0.1,0.1-0.1,0.2-0.2,0.2c-0.1,0.1-0.2,0.2-0.4,0.3
					c-0.1,0-0.1,0.1-0.1,0.1l-0.1,0.1v0.1c0,0,0,0.1-0.1,0.2c0,0.2-0.2,0.2-0.3,0.2s-0.1,0-0.2-0.1s-0.1-0.1-0.1-0.2s0-0.2,0.1-0.3
					s0.1-0.2,0.2-0.2c0.1-0.1,0.2-0.1,0.3-0.2c0.1-0.1,0.2-0.1,0.2-0.2l0.1-0.1c0-0.1,0.1-0.1,0.1-0.2s0-0.2-0.1-0.3
					s-0.2-0.2-0.3-0.2c-0.2,0-0.3,0-0.4,0.1s-0.2,0.2-0.3,0.4s-0.2,0.2-0.3,0.2s-0.2-0.1-0.2-0.1C121.8,99.7,121.8,99.6,121.8,99.6z
					 M122.6,102.3c-0.1,0-0.2-0.1-0.2-0.1c-0.1-0.1-0.1-0.2-0.1-0.3s0.1-0.2,0.1-0.2c0.1-0.1,0.2-0.1,0.3-0.1s0.2,0.1,0.2,0.1
					c0.1,0.1,0.1,0.2,0.1,0.3s-0.1,0.2-0.1,0.2C122.8,102.3,122.7,102.3,122.6,102.3z"/>
			</g>
		</g>
		<g>
			<polygon class="st3" points="150,102.5 150,102.1 149.9,101.6 149.6,101.2 149.3,100.9 149,100.6 148.6,100.4 136.6,95.5 
				136.2,95.4 135.7,95.3 135.3,95.4 134.8,95.5 134.4,95.7 134.1,96 133.8,96.4 133.6,96.8 124.2,119.7 124.1,120.2 124,120.7 
				124.1,121.2 124.2,121.7 124.5,122.1 124.8,122.5 125.2,122.8 125.7,123.1 137.2,127.7 137.7,127.9 138.2,127.9 138.7,127.9 
				139.2,127.7 139.6,127.5 140,127.2 140.3,126.8 140.5,126.4 149.9,103.4 150,103 			"/>
			
				<ellipse transform="matrix(0.3769 -0.9262 0.9262 0.3769 -8.8366 194.6235)" class="st4" cx="140.2" cy="103.9" rx="3.7" ry="3.7"/>
			<g>
				<path class="st9" d="M139.4,102.7c0.1-0.1,0.2-0.3,0.3-0.4s0.3-0.2,0.5-0.2s0.4,0,0.7,0.1c0.2,0.1,0.4,0.2,0.5,0.3
					s0.2,0.3,0.2,0.5s0,0.3,0,0.5c0,0.1-0.1,0.2-0.2,0.3c-0.1,0.1-0.2,0.1-0.3,0.2c-0.1,0-0.3,0.1-0.5,0.2c-0.1,0-0.1,0.1-0.2,0.1
					c0,0-0.1,0-0.1,0.1c0,0-0.1,0-0.1,0.1l-0.1,0.1c-0.1,0.1-0.2,0.2-0.4,0.1c-0.1,0-0.1-0.1-0.2-0.2c0-0.1,0-0.2,0-0.3
					s0.1-0.2,0.2-0.3c0.1-0.1,0.2-0.1,0.2-0.2c0.1,0,0.2-0.1,0.4-0.1c0.1,0,0.2-0.1,0.3-0.1s0.1-0.1,0.2-0.1c0.1,0,0.1-0.1,0.1-0.2
					s0-0.2,0-0.3c-0.1-0.1-0.2-0.2-0.3-0.3c-0.2-0.1-0.3-0.1-0.4,0c-0.1,0.1-0.2,0.1-0.3,0.3c-0.1,0.1-0.2,0.2-0.4,0.1
					c-0.1,0-0.1-0.1-0.2-0.2C139.3,102.8,139.3,102.8,139.4,102.7z M139.4,105.5c-0.1,0-0.2-0.1-0.2-0.2s0-0.2,0-0.3
					s0.1-0.2,0.2-0.2c0.1,0,0.2,0,0.3,0s0.2,0.1,0.2,0.2s0,0.2,0,0.3s-0.1,0.2-0.2,0.2C139.6,105.6,139.5,105.6,139.4,105.5z"/>
			</g>
			<g>
				<path class="st5" d="M133.6,111.4c-1.3,2-1.5,4.1-0.2,5.7c0.9,1.1,2.9,1.9,3.9,1.7c1.1-0.2,0.9-1.8,0-2.1
					c-1.4-0.5-1.6-1.7-1.1-2.4c0.6,0.1,1.3-0.3,1.7-1.2s0-2-1.4-2.6C135.1,110,134.1,110.6,133.6,111.4L133.6,111.4z M137.1,112.7
					c-0.3,0.7-1,1-1.9,0.6s-1-1.1-0.7-1.6c0.3-0.6,0.9-0.8,1.6-0.5C136.9,111.6,137.3,112.2,137.1,112.7z"/>
				
					<ellipse transform="matrix(0.371 -0.9286 0.9286 0.371 -18.7875 195.9525)" class="st6" cx="135.3" cy="111.8" rx="0.2" ry="0.2"/>
				
					<ellipse transform="matrix(0.372 -0.9282 0.9282 0.372 -18.5647 197.0153)" class="st6" cx="136.3" cy="112.2" rx="0.2" ry="0.2"/>
				<path class="st5" d="M135.1,112.5c0.2,0,0.2,0.1,0.4,0.2s0.3,0,0.5,0.1c-0.1,0-0.3,0.1-0.5,0
					C135.2,112.8,135.2,112.6,135.1,112.5z"/>
			</g>
		</g>
		<g>
			<polygon class="st3" points="164.2,115.7 164.3,115.3 164.4,114.8 164.3,114.4 164.1,113.9 163.9,113.6 163.6,113.2 153.9,104.7 
				153.5,104.4 153.1,104.2 152.6,104.1 152.2,104.1 151.7,104.2 151.3,104.3 150.9,104.6 150.6,104.9 134.2,123.5 133.9,123.9 
				133.7,124.4 133.6,124.8 133.6,125.4 133.7,125.8 133.8,126.3 134.1,126.7 134.5,127.1 143.8,135.3 144.2,135.6 144.7,135.8 
				145.2,136 145.7,136 146.2,135.9 146.6,135.7 147.1,135.5 147.4,135.1 163.8,116.5 164.1,116.1 			"/>
			
				<ellipse transform="matrix(0.6602 -0.7511 0.7511 0.6602 -32.8747 154.7798)" class="st4" cx="154.6" cy="113.7" rx="3.7" ry="3.7"/>
			<g>
				<path class="st9" d="M154.1,112.4c0.1-0.1,0.2-0.2,0.4-0.2c0.2-0.1,0.4-0.1,0.6,0c0.2,0,0.4,0.2,0.6,0.3
					c0.2,0.2,0.3,0.3,0.4,0.5s0.1,0.4,0.1,0.5c0,0.2-0.1,0.3-0.2,0.5c-0.1,0.1-0.2,0.2-0.3,0.2s-0.2,0.1-0.3,0.1s-0.3,0-0.6,0
					c-0.1,0-0.1,0-0.2,0h-0.1h-0.1l-0.1,0.1c-0.1,0.1-0.3,0.1-0.4,0s-0.1-0.1-0.1-0.2s0-0.2,0.1-0.2c0.1-0.1,0.2-0.2,0.3-0.2
					s0.2-0.1,0.3-0.1s0.2,0,0.4,0c0.1,0,0.2,0,0.3,0s0.1,0,0.2,0s0.1-0.1,0.2-0.1c0.1-0.1,0.1-0.2,0.1-0.3s-0.1-0.2-0.2-0.3
					s-0.3-0.2-0.4-0.2s-0.3,0.1-0.4,0.2c-0.2,0.1-0.3,0.1-0.4,0s-0.1-0.1-0.1-0.2C154,112.5,154,112.5,154.1,112.4z M153.2,115.1
					c-0.1-0.1-0.1-0.1-0.1-0.2s0-0.2,0.1-0.3s0.1-0.1,0.2-0.1s0.2,0,0.3,0.1s0.1,0.1,0.1,0.2s0,0.2-0.1,0.3s-0.2,0.1-0.3,0.1
					C153.4,115.2,153.3,115.2,153.2,115.1z"/>
			</g>
			<g>
				
					<ellipse transform="matrix(0.6607 -0.7507 0.7507 0.6607 -39.363 151.7901)" class="st7" cx="148.2" cy="119.4" rx="0.2" ry="0.2"/>
				
					<ellipse transform="matrix(0.6652 -0.7466 0.7466 0.6652 -39.917 151.565)" class="st7" cx="149.1" cy="120.3" rx="0.2" ry="0.2"/>
				<path class="st10" d="M147.6,120.2c0.2,0.1,0.2,0.2,0.4,0.4c0.2,0.1,0.3,0.1,0.5,0.3c-0.1-0.1-0.4,0-0.6-0.1
					C147.6,120.5,147.7,120.3,147.6,120.2z"/>
				<path class="st5" d="M150.3,121.4c-0.7,0.8-1.5,0.9-2.3,0.6l-0.2,0.4c0.4,0.4,0.3,0.5,0.5,0.7c0.4,0.5,1.4,1.1,1.7,1.2
					c1.5,0.4,1.5,1.4,0.1,1.1c-1.1-0.2-2.1-1-2.6-1.4c-0.9,1.2-2.7,2.5-5.1,1c-1.2-0.7-1.5-2.1-0.3-1.5c1.1,0.5,3-0.4,3.2-1.6
					c-0.5-0.5-1.1-1.2-2.5-1.2c-0.8,0-0.5-1.2,0.8-1c1.4,0.3,1.8,0.5,3,1.6l0.2-0.3c-0.7-0.7-0.5-1.9,0-2.5c0.8-1,1.8-1,3,0
					C150.9,119.4,151,120.7,150.3,121.4L150.3,121.4z M147.4,118.9c-0.4,0.5-0.7,1.3,0.2,2.1c0.9,0.8,1.8,0.3,2.1,0
					c0.5-0.7,0.4-1.4-0.4-2.1C148.7,118.3,147.9,118.3,147.4,118.9z"/>
			</g>
		</g>
	</g>
	<g>
		<path class="st11" d="M20,165.6C4.8,147.1-5.8,122,27.5,98.8c19.8-10.9,30.9-12.6,40.4-12.4c32.3,0.7,37.3,49.3,42,47.8
			s7.7-22.2,12.8-20c2.5,1.1-2.7,7.4-1.1,8.1s6.1-9.7,11.4-7.2c3.6,1.7-5.3,10-4.1,11s8.5-11.7,11.8-6.3c2.6,4.3-7.5,9.2-6.1,10.7
			c1.1,1.1,7-7.3,9.8-3.7c2.8,3.7-18.9,25.3-33.3,14.8s-10.1-33.4-26.3-44c-10-6.5-18.9-2.5-16.7,2.7c3.6,8.5,34,32,6,63.9
			c-16,21.8-20.6,20.2-19.5,45.1s0,36.3,10.6,39.8s14.4,12.2,7.3,11.7c-7-0.5-15.2,1.9-19.2-4.6c-4.1-6.5,1-68.6-6.7-68.2
			s-4.2,31.1-3.9,50.3s-0.3,21.5-11.4,22.5c-11.1,1.1-13.5-6-4.3-9.5s12.5-8.4,10.8-42.8C36.2,174.1,28.4,175.7,20,165.6z"/>
		<path class="st4" d="M14.4,133.9c0-0.7,1.7-5,5-8.8C22.3,121.6,30,106,47.9,106c17.2,0,26.2,13.8,30.2,19.7c3.3,4.9,6,8.6,4.4,11
			s-15,23.1-33.8,23.1c-18.7,0-27.8-15-30.2-18.8C16,137.1,14.4,134.6,14.4,133.9z"/>
		<g>
			<g>
				<g>
					<g>
						<defs>
							<path id="SVGID_1_" d="M14.1,133.9c0-0.7,1.7-5.1,5-8.9c3-3.5,10.7-19.3,28.7-19.3c17.3,0,26.4,13.9,30.5,19.9
								c3.3,4.9,6.1,8.7,4.5,11.1S67.7,160.1,48.7,160c-18.9,0-28.1-15.1-30.5-19C15.7,137.1,14.1,134.6,14.1,133.9z"/>
						</defs>
						<clipPath id="SVGID_2_">
							<use xlink:href="#SVGID_1_"  style="overflow:visible;"/>
						</clipPath>
						<path class="st12" d="M62.9,133.4c0,13.6-11,24.7-24.7,24.7c-13.6,0-24.7-11.1-24.7-24.7s11-24.7,24.7-24.7
							S62.9,119.8,62.9,133.4z"/>
					</g>
				</g>
			</g>
		</g>
	</g>
	<path class="st13" d="M37.4,164.8c2.4,2.9,5.7,5.2,9.5,5.5c3.7,0.3,7.6-2.8,9.9-5.5c0.8-0.9-0.5-2.2-1.3-1.3
		c-2.2,2.5-5.2,4.7-8.6,4.9c-3.2,0.2-6.4-2.6-8.2-4.9C38,162.5,36.7,163.8,37.4,164.8L37.4,164.8z"/>
</g>
</svg>
