<?xml version="1.0" encoding="utf-8"?>
<!-- Generator: Adobe Illustrator 20.1.0, SVG Export Plug-In . SVG Version: 6.00 Build 0)  -->
<svg version="1.1" id="圖層_1" xmlns="http://www.w3.org/2000/svg" xmlns:xlink="http://www.w3.org/1999/xlink" x="0px" y="0px"
	 viewBox="0 0 189 262" style="enable-background:new 0 0 189 262;" xml:space="preserve">
<style type="text/css">
	.st0{fill:#9F9E9F;}
	.st1{fill:#FFFFFF;stroke:#9F9E9F;stroke-width:1.1112;stroke-miterlimit:10;}
	.st2{fill:#E99214;}
	.st3{fill:#B982B1;}
	.st4{fill:#FFFFFF;}
	.st5{clip-path:url(#SVGID_2_);fill:#595857;}
	.st6{fill:#595857;}
</style>
<path class="st0" d="M160.2,17.9h-20.8H67.5C52,17.9,39.4,30.5,39.4,46S52,74.1,67.5,74.1H92c0.5,1.7,1.4,6.2-2.1,8.8
	c6.4-1.4,10-6.8,11.2-8.8h38.3h20.8c15.5,0,28.1-12.6,28.1-28.1S175.8,17.9,160.2,17.9z"/>
<path class="st1" d="M155.8,14.9H66c-15.5,0-28.1,12.6-28.1,28.1S50.5,71.1,66,71.1h21.7c0.5,1.7,1.4,6.2-2.1,8.8
	c6.4-1.4,10-6.8,11.2-8.8h59c15.5,0,28.1-12.6,28.1-28.1S171.3,14.9,155.8,14.9z"/>
<g>
	<path class="st2" d="M71.3,30.9c0.6,0.7,1.1,1.4,1.6,2.1c0.5-0.8,0.8-1.6,1.2-2.6c0.1-0.5,0.5-0.8,1.1-0.8c0.3,0,0.5,0.1,0.7,0.2
		c0.2,0.2,0.3,0.4,0.3,0.6c0,0.3-0.1,0.5-0.1,0.8c-0.4,1.4-0.9,2.5-1.4,3.4c-0.2,0.3-0.3,0.5-0.5,0.7c0.5,1.2,0.9,2.4,1.2,3.7
		c0.6,2.7,0.9,5.3,0.9,7.7c0,1.5-0.3,3.1-0.7,4.6c-0.4,1.4-0.9,2.3-1.5,3c-0.7,0.5-1.4,0.8-2.3,0.8c-0.5,0-1.1-0.2-1.7-0.6
		c-0.6-0.2-1-0.6-1-1.1c0-0.8,0.4-1.2,1-1.2c0.8,0.5,1.4,0.7,1.6,0.7c0.4,0,0.7-0.2,1.1-0.6c0.4-0.5,0.7-1.2,1-2.3
		c0.3-1,0.4-2,0.4-3.3c0-1.2-0.1-2.3-0.2-3.4c-0.3,0.4-0.6,0.8-0.8,1.1c-0.6,0.8-1.4,1.5-2.1,2.1c-0.5,0.5-0.8,0.6-1.1,0.6
		c-0.8,0-1.2-0.3-1.2-1c0-0.5,0.2-0.8,0.6-1.2c1.5-1.2,2.6-2.2,3.4-3.1c0.3-0.3,0.6-0.7,0.8-1.1c-0.1-0.2-0.1-0.5-0.1-0.7
		c-0.2-1.1-0.5-2-0.8-2.9c-0.1,0.1-0.1,0.1-0.1,0.1c-0.6,0.8-1.4,1.4-2.3,1.9c-0.2,0.1-0.4,0.1-0.6,0.1c-0.3,0-0.6-0.1-0.8-0.4
		c-0.2-0.2-0.3-0.5-0.3-0.8s0.1-0.5,0.3-0.8c0.8-0.5,1.5-1.1,2.1-1.7c0.3-0.3,0.5-0.5,0.7-0.8c-0.5-0.9-1.2-1.8-2.1-2.7
		c-0.3-0.3-0.4-0.6-0.4-0.8c0-0.7,0.4-1,1.2-1.1C70.6,30.3,70.9,30.5,71.3,30.9z M94.1,32.1c0,0.7-0.3,1-1,1h-6.8v1.4H92
		c0.6,0,0.9,0.3,0.9,0.9c0,0.7-0.3,1-0.9,1h-5.7v1.5H94c0.6,0,1,0.3,1,1s-0.3,1-1,1H77.3c-0.7,0-1-0.3-1-1s0.3-1,1-1H84v-1.5h-5.3
		c-0.6,0-0.9-0.3-0.9-1c0-0.6,0.3-0.9,0.9-0.9H84v-1.4h-6.2c-0.7,0-1-0.3-1-1c0-0.6,0.3-1,1-1H84v-0.5c0-0.7,0.4-1.1,1.1-1.1
		c0.8,0,1.2,0.4,1.2,1.1v0.5h6.8C93.8,31.1,94.1,31.5,94.1,32.1z M91,41.4c1.4,0,2.1,0.7,2.1,2v8.9c0,2.1-1,3.1-3.1,3.1
		c-1,0-2.1-0.2-3.4-0.5c-0.5-0.2-0.8-0.5-0.8-1c0-0.8,0.3-1.2,0.9-1.2c0.2,0,0.5,0,0.8,0.1c1,0.2,1.8,0.4,2.3,0.4
		c0.7,0,1.1-0.4,1.1-1.3v-1H80v3.5c0,0.7-0.4,1.1-1.1,1.1s-1.1-0.4-1.1-1.1v-11c0-1.3,0.7-2,2.2-2H91z M90.9,45.2v-0.9
		c0-0.6-0.3-1-0.9-1h-9.1c-0.6,0-0.9,0.3-0.9,1v0.9H90.9z M90.9,48.9V47H80v1.9H90.9z"/>
	<path class="st2" d="M108.4,34.9c0,0.7-0.4,1.1-1.1,1.1H101c-0.8,0-1.1-0.4-1.1-1.1s0.4-1.1,1.1-1.1h6.4
		C108.1,33.8,108.4,34.1,108.4,34.9z M106.1,44.6c1.2,0,1.9,0.6,1.9,1.7v6.6c0,1.2-0.6,1.9-1.9,1.9H102c-1.2,0-1.8-0.6-1.8-1.9v-6.6
		c0-1.2,0.6-1.7,1.8-1.7H106.1z M107.7,41.7c0,0.7-0.3,1.1-1,1.1h-5.3c-0.7,0-1-0.4-1-1.1c0-0.6,0.3-1,1-1h5.3
		C107.4,40.7,107.7,41,107.7,41.7z M107.7,38.4c0,0.7-0.3,1.1-1,1.1h-5.2c-0.7,0-1-0.4-1-1.1c0-0.6,0.3-1,1-1h5.2
		C107.4,37.4,107.7,37.7,107.7,38.4z M107.6,31.7c0,0.7-0.3,1.1-1,1.1h-5c-0.7,0-1-0.4-1-1.1c0-0.6,0.3-1,1-1h5
		C107.2,30.7,107.6,31,107.6,31.7z M105.9,51.9v-4.6c0-0.4-0.3-0.6-0.8-0.6H103c-0.5,0-0.7,0.2-0.7,0.6v4.6c0,0.5,0.2,0.8,0.7,0.8
		h2.1C105.7,52.7,105.9,52.4,105.9,51.9z M124.9,40.2c0,0.8-0.3,1.1-1,1.1H120c0.8,1.4,1.7,2.6,2.4,3.6c0.6,0.8,1.5,1.6,2.6,2.4
		c0.4,0.3,0.6,0.6,0.6,1c-0.1,0.8-0.5,1.2-1.2,1.2c-0.3,0-0.5-0.1-0.8-0.2c-0.7-0.6-1.3-1.4-1.9-2.2c-0.6-0.7-1.2-1.6-1.7-2.6v6.6
		c0,0.7-0.4,1-1.1,1s-1-0.3-1-1v-6.6c-0.9,1.7-1.9,3.3-3,4.7c-0.3,0.2-0.5,0.3-0.8,0.3c-0.6,0-1-0.3-1.2-0.8v0.5
		c0,0.9,0.3,1.7,0.9,2.3c0.7,0.7,1.7,1.1,2.8,1.1h8.1c0.6,0,1,0.3,1,1c0,0.6-0.3,1-1,1H117c-1,0-1.8-0.2-2.6-0.5s-1.4-0.8-1.9-1.4
		l-0.2-0.2c-0.1,0-0.2,0.1-0.3,0.2c-0.6,0.7-1.2,1.3-1.9,1.7c-0.4,0.2-0.6,0.4-0.8,0.4c-0.7-0.1-1.1-0.4-1.1-1
		c0-0.5,0.2-0.7,0.7-0.9c0.7-0.5,1.2-0.9,1.5-1.3s0.5-1.2,0.5-2.4V44c0-0.3-0.2-0.5-0.6-0.5H109c-0.7,0-1.1-0.4-1.1-1.1s0.4-1,1.1-1
		h2.3c1.1,0,1.6,0.6,1.6,1.7v4.7c0.1-0.1,0.2-0.3,0.3-0.4c1-0.9,1.8-1.8,2.3-2.5c0.7-0.8,1.4-2.1,2.2-3.6H114c-0.7,0-1-0.4-1-1.1
		c0-0.6,0.3-1,1-1h3.9v-8.1c0-0.6,0.3-1,1-1s1.1,0.3,1.1,1v8.1h4C124.6,39.3,124.9,39.6,124.9,40.2z M110.2,35.4
		c0.3,0.4,0.6,0.8,1,1.1c0.3,0.4,0.7,1,1.2,1.8c0.1,0.2,0.1,0.4,0.1,0.6c0,0.6-0.3,0.9-1,0.9c-0.3,0-0.6-0.1-0.8-0.2
		c-0.4-0.7-0.8-1.2-1-1.6c-0.3-0.3-0.5-0.6-0.8-1c-0.2-0.2-0.3-0.5-0.3-0.8c0-0.6,0.3-1,1-1C109.7,35.2,109.9,35.3,110.2,35.4z
		 M110.3,30.5c0.3,0.4,0.7,0.8,1,1.1c0.3,0.4,0.8,1,1.3,1.7c0.1,0.2,0.1,0.4,0.1,0.6c0,0.6-0.3,0.9-1,0.9c-0.3,0-0.5-0.1-0.8-0.2
		c-0.5-0.6-0.8-1.2-1.1-1.5s-0.6-0.6-0.8-1c-0.2-0.3-0.3-0.5-0.3-0.8c0-0.6,0.3-1,1-1C109.8,30.3,110.1,30.3,110.3,30.5z
		 M115.1,31.5c0.7,1.5,1.3,3.1,1.9,5c0.1,0.2,0.1,0.4,0.1,0.5c0,0.6-0.3,0.9-1,0.9c-0.2,0-0.4-0.1-0.6-0.2c-0.7-1.6-1.4-3.2-2.1-4.7
		c-0.2-0.3-0.2-0.5-0.2-0.6c0-0.7,0.4-1.1,1.1-1.1C114.6,31.2,114.9,31.3,115.1,31.5z M124.6,31.5c0.2,0.2,0.4,0.4,0.4,0.6
		c0,0.2-0.1,0.4-0.1,0.6c-0.7,1.8-1.5,3.4-2.3,4.7c-0.3,0.3-0.6,0.5-0.9,0.5c-0.7,0-1-0.3-1-0.8c0-0.3,0-0.4,0.1-0.5
		c0.7-1.2,1.4-2.8,2.2-4.7c0.1-0.4,0.4-0.6,0.8-0.6C124,31.2,124.3,31.3,124.6,31.5z"/>
	<path class="st2" d="M143.8,31v2.4h10.1c0.7,0,1.1,0.4,1.1,1.1c0,0.8-0.4,1.2-1.1,1.2h-10.1v4.6h12c0.7,0,1.1,0.4,1.1,1.1
		c0,0.8-0.4,1.2-1.1,1.2h-12v2c0.1,0.1,0.2,0.1,0.3,0.1c1.5,0.8,2.9,1.5,4.1,2.3c1.4,0.8,3.2,2.1,5.3,3.7c0.1,0.2,0.1,0.5,0.1,0.8
		c0,0.7-0.4,1-1.2,1c-0.3,0-0.6-0.1-0.9-0.2c-2-1.5-3.7-2.7-5-3.6c-0.9-0.6-1.8-1.1-2.8-1.7v7.2c0,0.7-0.4,1.1-1.2,1.1
		c-0.7,0-1.1-0.4-1.1-1.1V42.7h-9.9c-0.7,0-1.1-0.4-1.1-1.2c0-0.7,0.4-1.1,1.1-1.1h9.9V31c0-0.7,0.4-1.1,1.1-1.1
		C143.4,29.9,143.8,30.3,143.8,31z"/>
</g>
<g>
	<g>
		<path class="st3" d="M20.7,166.6C5.6,148.3-3.1,117.7,30,94.7c4.6-4.3,3.8-3.2,3.8-3.2s2.5-9.9,7.9-11.3
			c3.4-0.8,0.8,10.1,0.8,10.1s4.6-8.9,10.2-10.4C62.1,77.2,53,91,53,91s3.6-6.7,14.9-6.3c11.3,0.4-7.6,10.3-4.5,9.9
			c3.6-0.5,15-3.4,17.8,0.2C84,98.4,68.3,98,68.3,98s37.6,31.3,6,67.2c-15.8,21.6-20.4,20-19.3,44.7c1.1,24.7,0,36,10.5,39.5
			s14.2,12.1,7.2,11.5c-7-0.5-15,1.9-19.1-4.6c-4-6.4,0.9-68-6.6-67.6c-7.7,0.4-4.1,30.8-3.9,49.9c0.3,19.1-0.3,21.3-11.3,22.3
			s-13.4-5.9-4.3-9.4s12.3-8.3,10.7-42.4C36.6,175,28.9,176.6,20.7,166.6z"/>
		<path class="st4" d="M15,135.2c0-0.7,1.7-5,4.9-8.8c2.9-3.5,10.5-18.9,28.2-18.9c17,0,25.9,13.6,29.9,19.5c3.3,4.8,6,8.5,4.4,10.9
			s-14.9,22.9-33.5,22.9S21.4,146,19,142.2S15,135.9,15,135.2z"/>
		<g>
			<g>
				<g>
					<g>
						<defs>
							<path id="SVGID_1_" d="M14.7,135.2c0-0.7,1.7-5,4.9-8.8c3-3.5,10.6-19.1,28.5-19.1c17.2,0,26.2,13.8,30.2,19.7
								c3.3,4.9,6,8.6,4.4,11s-15,23.1-33.8,23.1s-27.8-15-30.2-18.8C16.3,138.4,14.7,135.9,14.7,135.2z"/>
						</defs>
						<clipPath id="SVGID_2_">
							<use xlink:href="#SVGID_1_"  style="overflow:visible;"/>
						</clipPath>
						<circle class="st5" cx="38.7" cy="134.7" r="24.4"/>
					</g>
				</g>
			</g>
		</g>
	</g>
	<path class="st6" d="M39.3,165.8c2.4,2.9,5.7,5.1,9.5,5.4c3.7,0.3,7.5-2.8,9.8-5.4c0.8-0.9-0.5-2.2-1.3-1.3
		c-2.2,2.5-5.1,4.6-8.5,4.9c-3.1,0.2-6.3-2.6-8.2-4.9C39.8,163.5,38.6,164.9,39.3,165.8L39.3,165.8z"/>
</g>
</svg>
