<?xml version="1.0" encoding="utf-8"?>
<!-- Generator: Adobe Illustrator 20.1.0, SVG Export Plug-In . SVG Version: 6.00 Build 0)  -->
<svg version="1.1" id="圖層_1" xmlns="http://www.w3.org/2000/svg" xmlns:xlink="http://www.w3.org/1999/xlink" x="0px" y="0px"
	 viewBox="0 0 187.4 126.5" style="enable-background:new 0 0 187.4 126.5;" xml:space="preserve">
<style type="text/css">
	.st0{fill:#E8E746;}
	.st1{fill:#050001;}
	.st2{fill:#FCEBD5;}
	.st3{fill:#DE9380;}
	.st4{fill:#F8D9D0;}
	.st5{fill:#E7A89A;}
	.st6{fill:#231815;}
</style>
<g>
	<path class="st0" d="M125.4,67.9c-2-7-5.5-13.2-11-17.9c-5.1-4.4-11.7-7.3-18.3-8.4C89,40.3,81.4,41.8,75,45.3
		c-11.4,6.2-19,18.4-19.7,31.5c-0.5,9.5,4,18.9,8.1,22.1c4.3,3.3,9.3,4.4,11.5-2.6c0.4-1.3,0.9-4.2,1.9-5.2c0,0,0.2,7.7,4.8,12.4
		c2.3,2.4,5.4,3.7,8.6,4.5c9.2,2.3,26.7,2.1,34.1-19C126.7,82.2,127.4,74.9,125.4,67.9z"/>
	<g>
		<path class="st1" d="M84.3,38.8c-1.7-1.2-3.8-0.9-5,0.5c-1.5,1.8-0.6,3.1-2.8,4.1c-1.6,0.7-3,1.8-4.5,3.5
			c-1.9,2.1-1.9,3.3-3.9,3.3c-2.3,0-4.1,0.8-4.5,2.6c-0.7,2.7,1.3,3.2,0.3,5.3c-1.1,2.3-6.5,7.5-10.2,9.1c-4.1,1.8-7.9,2.2-7.7,0.1
			c0.1-1.6,0.1-2.2,1.2-2.4c1.7-0.4,6.7-1.7,7.3-5.7c0.6-4.1-1-4.2-4.1-4.3c-3-0.1-3.7,0-3.7-1.4c0.1-1.8,1-2.3,2.2-3.7
			c2.9-3.5,1.6-5.4,4.6-5.8c3-0.4,6.8-2.3,8.7-3.8c1.9-1.5,3.8,0,5.4-2.6c1.2-1.9-0.1-5.1-2.7-5c-3,0-3.9,2.2-3.7,5.1
			c0.2,2.3-4.1,3.9-6.8,4.3c-3.3,0.4-2.6-3.5-2.6-10.8c0-6,0.5-10.6,1.2-14.4c0.1-0.8,0.4-1.5,1.1-2c1.2-0.9,2.5-2.4,1.7-4.3
			c-1.1-2.8-4.3-2.5-5.5-1.2c-1.4,1.5-1.1,3.5,0.2,5c1.3,1.5,0.7,2.8,0,9.5c-0.7,6.8-0.5,12.7-0.6,15.9c-0.1,3.2-2.1,3-6.9,2.7
			c-3.6-0.2-2.1-2.4-3.9-8.4c-1.2-4.2-1.5-4.7-2.4-6.9c-0.8-1.9,1.7-3.8-0.3-6.5c-1.6-2.2-4.5-2.2-6-0.5c-1.6,1.9-1.3,4.2-0.2,5.4
			c2.4,2.4,4,0.2,5.1,2.1c1.4,2.5,2.8,6.8,3.1,9.4c0.5,4.2,0.8,5.3-3,5.5c-3.2,0.2-5,1.9-5.5,3.2c-0.4,0.9,0.5,1.3,1.3,0.2
			c1-1.3,2.6-1.8,4.9-1.8c1.7,0,2.5-0.1,3,2.1c0.7,3,2.5,4.9,4,5.7c1.6,0.8,1.1,2.6-0.2,2.6c-4.1,0.1-7.3-0.6-8.2,1.9
			c-0.9,2.4,0.5,6.2,4.7,7.9c2.4,0.9,3.8,0.5,3.8,2c0,1.8-0.4,3.2-5.6,1.5c-5.2-1.7-5.8-1.8-6.4-3.4c-0.6-1.6-3.2-2.6-5-1
			c-1.8,1.5-0.9,4.3,0.7,5c1.7,0.8,2.8,0.1,3.7-0.4c0.9-0.4,1.9-0.3,4.5,0.7c2.9,1.1,5.2,1.4,6.4,1.7c1.2,0.2,1.3,2.4,0,2.4
			c-3-0.1-6.7,0.2-8.1,1.1c-0.9,0.5-0.4,1.4,0.6,1c1.7-0.7,8.3-1.2,8.3,0.5c0,1.7-0.2,2.1-1.4,3.2c-3,3.1-3.5,4.6-4.3,6.9
			c-0.8,2.2-0.9,3.5-2.3,3.7c-1.3,0.2-1.6,1.5,0.4,1.4c1.1,0,1.7-0.3,2.3-1.8c1.6-4.6,2.3-5.6,4.4-7.4c1.7-1.5,2.8-1.2,4.2,0
			c2.4,2.1,3.3,4,4,6.2c0.7,2.2,0.9,3,2.3,3c1.4,0,2,0.2,1.7-0.6c-0.2-0.8-1.6-0.4-2-1.1c-0.9-1.4-0.7-4-2.8-7.2
			c-1.3-2-3.5-3.6-3.6-4.6c-0.1-1.3-0.3-2.2,2.1-1.5c2.4,0.7,3.6,1.3,4.8,1.9c0.7,0.4,1.8-0.2,0.5-1c-1.5-1-3-1.7-4.4-2.2
			c-2.2-0.7-2.9-1.2-2.8-2.1c0.1-0.9,0.2-1.2,1.8-1.3c1.6-0.1,4.9-0.8,8-2.5c3.9-2.2,8-6.1,9.1-7.9c1.2-1.8,1.9-2.6,3.3-2.7
			c1.8-0.1,3.3-1.6,3-3.8c-0.3-2.1,0-2.5,0.6-3.6c0.9-1.6,2-2.9,3.8-4.2c1.9-1.3,3.5-2,4.6-1.5c2,0.9,4,0.5,5.1-1.2
			C85.8,42,85.8,40,84.3,38.8z M41.9,47.5c-0.8-1.6-0.4-2.6,0-2.9c0.6-0.4,1-0.3,3.7-0.3c2.2,0,3.1,0.1,3.1,1.6c0,2-1.7,3-2.9,4.4
			c-0.4,0.5-1,0.3-1.6,0C43.3,49.7,42.7,49.2,41.9,47.5z M45.1,63.1c-3,0.1-7.2-1-8-3.8c-0.6-2.3,0.7-2.7,2.5-2.8
			c1.8,0,4.7-0.4,4.5,2.1c-0.1,2.1,0.6,2.4,1.3,2.3c0.9-0.1,0.9-1,1.1-2.7c0.1-1.8,2-1.3,3.9-1.3c1.6,0,2,0.5,1.8,2.1
			C52.1,60.6,49.4,62.9,45.1,63.1z"/>
	</g>
	<g>
		<path class="st2" d="M96.1,67.8c-6.2-2.7-13.4,2.1-12.9,9.5c0.2,2.2,1.7,7,7.8,7.3c3.4,0.1,5.8-1.2,7.4-2.3
			C102,79.9,102.8,70.8,96.1,67.8z"/>
		<path class="st1" d="M82.9,57.8c2.1-1.4,4.2-2.9,5.4-5.2c1.3-2.3,1.2-5,2-7.5c-0.8,0.6-1.5,1.8-1.5,3.2c0,2.6-0.9,4.3-4.3,6.5
			c-1.1,0.6-11.6,7.9-11.6,7.9C76.3,61.3,79.7,59.8,82.9,57.8z"/>
		<path class="st1" d="M102.5,57.6c1.5,1.5,3,3.1,4.4,4.7c2.4,2.8,8.9,9.1,11.5,14.3c1.4-3.5-2-7.5-6.2-11.2
			C109.7,63.3,104.4,59.1,102.5,57.6z"/>
		<path class="st1" d="M113.5,102.3c0,0.7,0.1,1.2,0.1,1.7c0.2-1.9,0.3-3.8,0.2-5.8c-0.3-5.6-1-10.4-3.4-15.4c0,3.8,0.2,6.4,1.3,8.7
			C113.4,95.7,113.3,97.9,113.5,102.3z"/>
		<path class="st1" d="M83,58.8c4.6-3.4,9-7.7,8.3-14c0,0-0.8,0.1-0.8,0.2c-0.7,2.7-0.6,5.6-2.1,8.1c-1.2,1.9-2.9,3.4-4.7,4.6
			c-3,2-6.1,3.5-9.4,4.9c-0.7,0.3-1.5,0.6-2.2,0.9c0,0-0.1,0.1-0.1,0.1c-2.1,1.8-4.1,3.8-6,5.8c-0.6,0.9-1,1.8-1.4,2.6
			c2.2-2.2,4.8-4,7.2-5.7C75.5,63.8,79.4,61.5,83,58.8z"/>
		<path class="st1" d="M91.6,44.9c0.6,5.3-2.3,9.2-6.1,12.3c-3.6,3-7.6,5.5-11.5,8c-3.4,2.2-6.9,4.4-9.7,7.3
			c-0.8,2.2-0.6,4.1,0.5,6.1c0.3,0.6,0.7,1,1.2,1.3l0.5,5c1.4-4.3,2.9-8.3,5.5-11.9c1-1.4,2.1-2.7,3.2-4c2-3.1,5.2-6.2,10.2-8.8
			c1.9-1.8,3.7-3.8,4.7-6.2c1.3-2.9,1.8-5.8,2-8.9C92,45,91.6,44.9,91.6,44.9z"/>
		<path class="st1" d="M72.6,76.4c-4.4,9.9-5.6,21.1-3.8,31.9c0.1,0.6,0.9,1,1.5,1c1.3,0,1.7-1,1.7-2.4c0.1-6.6-0.3-13.3-0.3-19.9
			C71.8,83.7,71.7,79.8,72.6,76.4z"/>
		<path class="st1" d="M72.8,75.2c0.1-1,0.6-2.7,1.2-4c0,0,0-0.1,0.1-0.1c-2,2.4-5.1,7-7.4,15.1v4.3c0,5.2,0.1,9.6,1.3,15.3
			C66.6,95.4,68.2,84.5,72.8,75.2z"/>
		<path class="st1" d="M92.7,45.2c-0.1,0-0.2-0.1-0.3-0.1c-0.1,2.6-0.4,5.1-1.3,7.5c-1,2.6-2.5,4.9-4.5,6.9c4-1.8,7.5-1.2,10.5,0.2
			c-1.5-3.3-2.8-6.8-3.7-10.4C93.3,48.2,92.8,45.7,92.7,45.2z"/>
		<path class="st1" d="M117.4,79c-0.7-1.7-1.7-3.4-2.9-4.9c-2.5-3.1-5.5-5.8-8.4-8.4c-3.1-2.9-6.3-5.8-8.5-9.5
			c-2-3.2-3.2-6.8-4-10.5c0,0,0,0,0,0c0,0,0,0,0,0l0-0.1c0,0,0,0,0,0c-0.2-0.1-0.4-0.2-0.6-0.3c0.2,1.2,0.4,2.3,0.6,3.5
			c0.9,3.8,2.3,7.5,4,11.1c1.7,0.8,3.1,1.8,4.4,2.7c3.4,2.5,5.9,5.4,7.7,9.7c0.9,2.2,0.8,9.1,0.8,9.6l0,0c6.3,10,3.3,25.7,3.3,25.8
			c0.5,1.5,1.3,1.5,1.8,1.5c1.7-0.2,1.6-3,1.6-8.5c0-1.8-0.1-20.6-0.1-20.8C117,79.9,117.3,79.2,117.4,79z"/>
		<path class="st1" d="M113.4,70.4c-2.2-2.7-4.7-5-6.9-7.6c-2.2-2.6-4.3-5.6-7.2-7.5c0,0,0-0.1,0-0.1c-3.8-2.7-3.9-4.7-4.1-6.5
			c-0.2-1.5-0.7-2.4-1.5-3c0,0,0,0,0,0c0,0,0,0,0,0c0,0,0,0,0,0c1.2,4.8,3,9.4,6.2,13.3c2.5,3,5.5,5.6,8.3,8.2
			c3.6,3.2,7.4,6.9,9.4,11.3c0.2-0.4,0.4-0.9,0.5-1.3C116.8,74.8,115.1,72.5,113.4,70.4z"/>
		<path class="st3" d="M77,90.8c0.4-1.5,0.8-3.2,1.2-4.7c0.3-1.4,0.7-2.7,0.9-3.9c0.3-1.4-1.5-1.8-1.7-0.4c-0.2,1.2-0.4,2.9-0.5,4.1
			c-0.2,1.6-0.3,3.3-0.5,4.9C76.4,91.3,76.9,91.3,77,90.8z"/>
		<path class="st1" d="M88.3,78.2c-0.2-0.3-0.9-0.7-1.4-0.2c-0.4,0.4-0.6,1.4,0.2,1.7C88,80,88.8,79,88.3,78.2z"/>
		<path class="st1" d="M95.4,77.6c0.1-0.4,0.6-0.9,1.3-0.6c0.5,0.2,1,1.1,0.3,1.7C96.2,79.2,95.2,78.5,95.4,77.6z"/>
		<path class="st4" d="M91.6,77.7c0.1,0.1,0.1,1,0.1,1.2c0,0.3,0,0.5,0,0.8c0,0,0,0,0,0.1c0.5-0.1,1,0,1.2,0.4
			c0,0.1,0.1,0.2,0.1,0.2c0.1-0.2,0-0.6-0.1-1c0-0.1,0-0.1,0-0.1c0,0,0-0.1,0-0.1c-0.2-0.7-0.8-1.7-1.2-1.7c-0.1,0-0.2,0-0.3,0.1
			C91.5,77.5,91.6,77.6,91.6,77.7z"/>
		<path class="st1" d="M108.5,91.5c-0.3-0.3-4.3-3.4-11.1-3.3c-2.9,0.1-3.4-2.7-2.1-3.1c7.8-2.2,8.2-10.1,6.1-14.6
			c-1.5-3.2-4.9-5.5-9.7-5.3c-3.6,0.1-10.5,2.9-9.6,12c0,0.2,1,7.5,7.3,7.7c0.2-0.1,0.2-0.1,0.3-0.4c0.1-0.3-7.4-0.3-5.8-9.8
			c0.5-2.7,3.2-5.9,7.2-6.2c5.1-0.4,9.9,2.6,8.9,10.1c-0.6,4.5-5.5,4.4-7.2,6.1c-1.5,1.5-0.2,3.4-3.2,4.3
			c-5.1,1.4-11.5-1.7-11.8-1.7c-0.1,0-0.2,0.2-0.2,0.2c-0.2,0.8,3.2,3.7,9.5,4.1c4,0.3,3.4,2.4,3.4,3.7c0.1,4.5-3.1,5.2-1.9,8.2
			c0.8,1.9,3,2,4.7,0.8c1.8-1.3,2.8-4.4,2.8-7.6c0.1-2.3,0.4-3.4,1.8-4.5c2.8-2.1,6.6-0.7,8.2-0.2c1.2,0.4,2.1,1.4,2.6,1
			C109.1,92.6,108.9,91.9,108.5,91.5z"/>
		<path class="st5" d="M93,80.1c-0.2-0.5-0.8-0.5-1.2-0.4c0,0,0,0,0-0.1c0-0.2,0-0.5,0-0.8c0-0.1,0-1.1-0.1-1.2
			c0-0.1-0.1-0.2-0.1-0.2c-0.1,0-0.2,0.1-0.2,0.3c-0.1,0.4-0.1,0.7-0.1,1c0,1-0.5,1.3,0,1.8c0.2,0.2,0.5,0.2,0.9,0.1
			c0.2,0,0.4,0.1,0.6,0c0.2-0.1,0.3-0.3,0.3-0.5C93,80.3,93,80.2,93,80.1z"/>
		<g>
			<path class="st6" d="M76.8,117.4c-0.3,0-0.4-0.3-0.4-0.5c0-0.2,0-0.4,0-0.8c0-0.4,0-0.7,0-0.8c0-0.2,0-0.4,0-0.6v-0.8
				c0-0.1,0-0.2,0-0.3c0-0.1,0-0.3,0-0.5c0-0.2,0-0.3,0-0.5c0-0.4,0.2-0.5,0.5-0.5c0.4,0,0.7,0,1,0.1c0.5,0.1,0.9,0.2,1.2,0.5
				c0.3,0.2,0.4,0.6,0.4,1c0,0.2-0.1,0.5-0.2,0.7c-0.1,0.2-0.3,0.4-0.5,0.6c-0.2,0.2-0.5,0.4-0.8,0.5c-0.2,0.1-0.4,0.2-0.6,0.2
				c-0.3,0.1-0.4,0.1-0.4,0.5c0,0,0,0.5,0,0.7C77.1,117.1,77,117.4,76.8,117.4z M77.1,112.9v2.4c0.3-0.1,0.6-0.2,0.9-0.3
				c0.2-0.1,0.4-0.3,0.6-0.5c0.1-0.2,0.2-0.4,0.2-0.7c0-0.1,0-0.3-0.1-0.4c-0.1-0.2-0.2-0.3-0.5-0.5c-0.2-0.1-0.5-0.2-0.8-0.2
				C77.3,112.6,77.1,112.6,77.1,112.9z"/>
			<path class="st6" d="M82.3,114.3v0.8c0,0.2,0,0.4,0,0.7c0,0.3,0,0.5,0,0.7c0,0.1,0,0.3,0,0.4c0,0.2,0,0.5-0.3,0.5
				c-0.3,0-0.4-0.3-0.4-0.5c0-0.2,0-0.3,0-0.5c0-0.5,0-0.9,0-1.3v-0.8c0,0,0-0.2,0-0.5c0-0.4,0-0.7,0-1c0-0.3,0.1-0.6,0.4-0.6
				c0.3,0,0.4,0.3,0.4,0.6c0,0.1,0,0.2,0,0.2C82.3,113.4,82.3,113.9,82.3,114.3z"/>
			<path class="st6" d="M88.6,117.2c0,0.3-0.3,0.3-0.5,0.3c-0.2,0-0.3,0-0.5,0c-0.6,0-1.1-0.1-1.5-0.2c-0.4-0.2-0.8-0.4-1-0.6
				c-0.2-0.2-0.4-0.5-0.5-0.7c-0.1-0.3-0.2-0.5-0.2-0.7c0-0.3,0.1-0.7,0.2-1c0.2-0.3,0.4-0.7,0.7-1c0.3-0.3,0.7-0.6,1.2-0.8
				c0.3-0.2,0.7-0.3,1.2-0.4c0.2,0,0.5-0.1,0.6,0.2c0.1,0.2-0.3,0.4-0.5,0.4c-0.2,0.1-0.5,0.1-0.7,0.2c-0.4,0.1-0.7,0.3-1,0.6
				c-0.3,0.2-0.5,0.5-0.7,0.8c-0.2,0.3-0.2,0.6-0.2,0.9c0,0.2,0,0.5,0.1,0.7c0.1,0.2,0.2,0.4,0.5,0.6c0.2,0.2,0.5,0.3,0.8,0.4
				c0.3,0.1,0.7,0.1,1.1,0.1c0.1,0,0.3,0,0.4,0C88.2,116.9,88.6,116.9,88.6,117.2z"/>
			<path class="st6" d="M90.7,117.4c-0.3,0-0.3-0.3-0.3-0.6c0-0.1,0-0.2,0-0.3c0-0.5,0-1,0.1-1.7c0-0.7,0.1-1.6,0.1-2.2
				c0-0.4,0.4-0.5,0.6-0.2c0.1,0.1,0.2,0.2,0.3,0.3c0.6,0.6,1,1.1,1.5,1.6c0.4,0.5,0.8,0.9,1.1,1.2c0.3,0.3,0.5,0.5,0.6,0.7
				c0-0.2,0-0.4,0-0.7c0-0.3,0-0.8,0-1.4c0-0.6,0-1.1,0-1.4c0-0.3,0.1-0.6,0.4-0.6c0.3,0,0.3,0.3,0.3,0.6c0,0.1,0,0.1,0,0.2
				c0,0.4,0,0.9-0.1,1.3c0,0.5,0,1-0.1,1.7c0,0.4,0,0.7,0,1c0,0.2-0.2,0.4-0.5,0.2c-0.1-0.1-0.2-0.2-0.4-0.4c-0.5-0.5-1-1-1.5-1.6
				c-0.5-0.5-1-1-1.3-1.4c-0.3-0.4-0.5-0.6-0.6-0.6h0c0,0.2,0,0.4,0,0.7c0,0.3,0,0.7,0,1.3c0,0.6,0,1,0,1.4c0,0.1,0,0.2,0,0.3
				C91.1,117.1,91,117.4,90.7,117.4z"/>
			<path class="st6" d="M100.7,117.2c0,0.3-0.2,0.3-0.6,0.3c-0.2,0-0.4,0-0.7,0c-0.3,0-0.6,0-0.8,0c-0.3,0-0.5-0.3-0.5-0.6
				c0-0.3,0-0.6,0-0.9c0-0.3,0-0.6,0-0.8v-1c0,0,0-0.4,0-1c0-0.2,0-0.4,0-0.5c0-0.3,0.1-0.6,0.5-0.6c0.3,0,0.8,0,1.2-0.1
				c0.1,0,0.2,0,0.2,0c0.3,0,0.5,0,0.5,0.3c0,0.3-0.3,0.3-0.5,0.3c-0.2,0-0.4,0-0.5,0c-0.2,0-0.3,0-0.4,0c-0.2,0-0.3,0.1-0.3,0.2
				c0,0,0,1.4,0,1.4c0,0.2,0.1,0.3,0.3,0.3c0.1,0,0.6,0,0.7,0c0.2,0,0.5,0,0.5,0.2c0,0.2-0.2,0.3-0.5,0.2c-0.1,0-0.6,0-0.7,0
				c-0.2,0-0.3,0-0.3,0.3v1.4c0,0.2,0.1,0.2,0.2,0.2c0.1,0,0.1,0,0.2,0c0.1,0,0.2,0,0.3,0c0.2,0,0.4,0,0.5,0
				C100.3,116.8,100.7,116.9,100.7,117.2z"/>
			<path class="st6" d="M110.2,117.2c0,0.3-0.2,0.3-0.6,0.3c-0.2,0-0.4,0-0.7,0c-0.3,0-0.6,0-0.8,0c-0.3,0-0.5-0.3-0.5-0.6
				c0-0.3,0-0.6,0-0.9c0-0.3,0-0.6,0-0.8v-1c0,0,0-0.4,0-1c0-0.2,0-0.4,0-0.5c0-0.3,0.1-0.6,0.4-0.6c0.3,0,0.8,0,1.2-0.1
				c0.1,0,0.2,0,0.2,0c0.3,0,0.5,0,0.5,0.3c0,0.3-0.3,0.3-0.5,0.3c-0.2,0-0.4,0-0.6,0c-0.2,0-0.3,0-0.4,0c-0.2,0-0.3,0.1-0.3,0.2
				c0,0,0,1.4,0,1.4c0,0.2,0.1,0.3,0.3,0.3c0.1,0,0.6,0,0.7,0c0.2,0,0.5,0,0.5,0.2c0,0.2-0.2,0.3-0.5,0.2c-0.1,0-0.6,0-0.7,0
				c-0.2,0-0.3,0-0.3,0.3v1.4c0,0.2,0.1,0.2,0.2,0.2c0.1,0,0.1,0,0.2,0c0.1,0,0.2,0,0.3,0c0.2,0,0.4,0,0.5,0
				C109.8,116.8,110.2,116.9,110.2,117.2z"/>
			<path class="st6" d="M103,117.3c-0.1-0.2,0.2-0.4,0.3-0.4c0.3-0.1,0.6-0.2,0.8-0.3c0.3-0.2,0.5-0.4,0.5-0.7c0-0.1,0-0.2-0.1-0.3
				c-0.1-0.1-0.1-0.2-0.2-0.3c-0.1-0.1-0.3-0.2-0.5-0.3c-0.2-0.1-0.4-0.3-0.6-0.4c-0.2-0.1-0.3-0.2-0.4-0.4
				c-0.1-0.1-0.1-0.3-0.1-0.5c0-0.2,0.1-0.4,0.2-0.6c0.1-0.2,0.3-0.4,0.5-0.5c0.2-0.2,0.4-0.3,0.7-0.4c0.1-0.1,0.3-0.1,0.4-0.2
				c0.1,0,0.4-0.1,0.5,0.2c0.1,0.2-0.1,0.4-0.3,0.4c-0.1,0-0.2,0.1-0.3,0.1c-0.2,0.1-0.5,0.2-0.6,0.4c-0.2,0.2-0.3,0.3-0.3,0.5
				c0,0.1,0,0.2,0.1,0.3c0.1,0.1,0.1,0.2,0.2,0.2c0.1,0.1,0.2,0.1,0.3,0.2c0.1,0.1,0.2,0.1,0.3,0.2c0.4,0.2,0.6,0.4,0.8,0.6
				c0.2,0.2,0.2,0.4,0.2,0.6c0,0.2-0.1,0.4-0.1,0.6c-0.1,0.2-0.2,0.4-0.4,0.5c-0.2,0.2-0.4,0.3-0.7,0.5c-0.2,0.1-0.4,0.2-0.6,0.2
				C103.3,117.5,103,117.5,103,117.3z"/>
		</g>
	</g>
	<path class="st1" d="M130.9,52.9c-0.2,7.5-0.7,8.5-2.3,7.3c-2.2-1.6-3.2-3.7-6.1-7.2c-2.5-3-5.1-5.2-8.6-7.8
		c-3.2-2.4-2.8-4.4-2.9-5.6c-0.1-1.9-0.6-3.9,0.6-4.7c1.6-1,2.1-3.9,0-5.2c-2-1.3-4-0.3-4.7,1.1c-0.7,1.3-0.4,3.1,1,4.1
		c0.9,0.7,1.1,1.3,1.3,2.5c0.2,2.5,0.2,4.8-2.8,3.9c-3.7-1-8.4-3.7-11-6c-3.3-2.8-3.5-4.1-3.8-6.1c-0.2-2-0.4-2.5-0.7-4
		c-0.3-1.5,1-1.9,1.2-3.4c0.3-1.5-0.2-2.6-1.7-3.2c-2-0.9-4.3,0.4-4.5,2.5c-0.1,1.5,0.6,2.6,2.5,3.4c1.2,0.5,1.4,3.1,1.6,4.9
		c0.3,2.8-5.7,0.8-7.8-0.3c-2.3-1.2-3.9-2-3.6-3.3c0.3-1.7-0.9-4.1-3.5-4.1c-2.5,0-3.6,2.3-3.2,4c0.4,1.8,2.1,3,4.2,2.5
		c1.1-0.3,1.3-0.3,2.9,0.8c1.8,1.3,4.8,2.8,8.2,3.4c3.3,0.6,3,1.4,7.1,4.8c7.9,6.4,11.4,5.6,16.1,8.5c4.7,3,7.7,6.1,8.7,7.5
		c1.4,1.9,0.4,3.1-2.5,2.1c-1.3-0.5-1.9-0.8-2.2-1.8c-0.3-1-0.8-3-3-3.6c-2.7-0.7-5,1.2-5.1,3.5c-0.1,2.3,1.8,4.3,4.1,4.1
		c2.2-0.2,3.2-1.8,4.5-1.3c1.3,0.5,3.3,1.3,5.6,1.2c2.3,0,2.7,1.2,5.4,4.3c2.2,2.5,3.9,2.5,3.8,7.9c-0.2,5.4,2.4,17-1.7,20.7
		c-4.1,3.7-3.6,7.6-5.7,10.9c-0.9,1.5,0.2,3.1,1.9,0.2c1.7-2.9,2.2-5.8,3.7-7.2c1.5-1.4,2.2-0.4,2,2c-0.2,2.4,0.3,4.9-0.2,7.9
		c-0.6,3.8,0.7,5.1,1.9,1.6c0.9-2.6,1.3-4.8,1.3-7.3c-0.1-2.4,1.2-3.2,2.1-1.1c0.9,2.1,2,3.2,3.2,4.4c1.2,1.3,2.3,0.6,0.7-2
		c-1.6-2.6-1.7-4.3-2.7-6.3c-1-2.1-2.8-3.3-2.7-8.4c0.2-8.8-1-16.4-0.4-18.3c0.9-2.7,4-3,7.5-10.9c1.9-4.4,3.8-7.4,5.1-11.4
		c1-3.1,1-4.2,1.8-4.9c0.7-0.6,2.3-0.9,2.7-2.9c0.4-1.7-0.4-3.3-2.3-3.7c-1.8-0.4-3.3,0.9-3.6,2.2c-0.5,2.9,1.6,2.8,1.2,5.6
		c-0.7,5-2.3,6.7-4.5,11.3c-1.1,2.2-3,6.3-5.1,8.1c-1.2,1.1-2.9,1-2.7-1.9c0.3-4.6-0.2-12.6,0.4-16.3c0.7-3.6,2.9-8.2,4-8.7
		c1.1-0.5,3.1-0.2,3.7-1.9c0.6-1.7,0.9-3.9-1.4-4.8c-2.3-1-3.9,0.5-4.2,2.4c-0.3,1.9,1.3,2.2,0.1,4.3c-1.2,2-1.5,2.6-2,3.7
		c-0.5,1.1-1.5,1.4-2.5-0.6c-1-2-4.1-5.4-6.4-8.2c-2.3-2.8-2.8-4-3.2-5.9c-0.4-1.9,0.6-1.5,1-3.2c0.4-1.7-0.6-3.9-2.5-4.1
		c-2-0.2-4.1,1.2-3.5,3.7c0.8,3,3.3,2.3,3.7,3.8c0.4,1.9,1.8,4.9,4.9,8.4c3.6,4,6,7.8,6,12.7C131.1,50,131,48.8,130.9,52.9z"/>
	<path class="st1" d="M41.6,59c-0.2-0.3-0.9-0.7-1.4-0.2c-0.4,0.4-0.6,1.4,0.2,1.7C41.3,60.8,42.1,59.8,41.6,59z"/>
	<path class="st1" d="M50,59c-0.2-0.3-0.9-0.7-1.4-0.2c-0.4,0.4-0.6,1.4,0.2,1.7C49.7,60.8,50.5,59.8,50,59z"/>
	<path class="st1" d="M44.6,61.8c-0.6-0.3-0.8,0.1-0.2,0.4c0.4,0.2,1.4,0.2,2-0.1c0.3-0.1,0.2-0.5-0.3-0.3
		C45.6,61.9,45,62,44.6,61.8z"/>
	<path class="st1" d="M147.2,65.3c1.8-1.1,3.8-2.1,3.8-3.4c0.2-2.6,0.6-4.4-0.9-4.8c-0.7-0.2-1.9-0.9-2.4-2c-0.6-1.4-1.4-1.6-3-2.3
		c-1.6-0.7-3-2.2-4-3.6c-1-1.4-0.7-1.9-2.1-2.2c-1.1-0.2-2.4-1.3-2.3-3.3c0.1-1.5,1.9-3,3.9-2.4c1.7,0.6,2.4,2.4,1.8,3.8
		c-0.6,1.3-1.2,1.9-0.3,3.3c0.9,1.3,2.8,3,4.2,3.4c1.2,0.4,1.5,0.4,2.2-0.4c1.3-1.6,1.9-0.7,2-2.3c0.3-3.6,1.2-6.2,2-8.4
		c1.5-4.3,1.6-6.2,1.2-8.3c-0.6-2.8,0-4.9-1.8-5.7c-1.3-0.6-2.2-1.8-2.1-3.6c0.2-1.8,1.9-3.2,3.9-2.8c1.7,0.4,3,2.2,2.6,4
		c-0.4,1.8-2.2,2-2.1,3.4c0.1,1.4,0,5.7,1.8,3.5c1.5-1.9,3.7-3.3,6.3-4c3-0.9,6.3-3.4,6.1-5c-0.2-1.5-0.5-3.9,2.4-5.1
		c2.4-0.9,4.8,1,4.8,3.2c0,2.5-1.7,4-3.7,3.9c-1.8-0.1-2.2-0.6-3.3,0.4c-1.1,1-2.3,2.5-5.8,3.7c-2.2,0.8-4.1,2.2-6.2,4.4
		c-1,1.1-1.4,2.2-2.3,6c-0.8,3.2-2,5.5-2.3,9.2c-0.1,1.5,0.1,2,1,2.7c1.1,0.8,0.8,1.8,2.6,0.9c2.3-1.2,6.3-5.1,6.2-6.4
		c-0.1-1.3-1.3-2.2-0.4-4.4c0.9-2.3,5.4-2.8,6.4,0.7c0.6,2.2-0.6,4.3-3,4.5c-2.1,0.2-1.9,1.1-4,3.3c-2.1,2.2-3.7,3.6-5.1,4.3
		c-1.3,0.8-0.9,1.5-1.7,2.4c-0.8,1-1.1,1.7-1,3.8c0,3.1,0.4,2.9,2.1,3.9c1.8,1,2.4,1.4,3.1,1.9c1.2,0.9,0.8,1.7-1,1
		c-1.9-0.7-3.2-2.2-5.1-1.8c-1.5,0.3-3.8,1.8-4.7,1.9C146.3,66.8,145.9,66.1,147.2,65.3z"/>
	<path class="st6" d="M162.7,88.6c-1.1-0.1-1.4,0.1-2.7,0.1c-1.3,0-2.1-1.4-2.7-3.7c-0.6-2-1.4-3.6-0.1-4.3c1.7-0.9,2.8-2.3,3.4-3.5
		c0.7-1.5,1-3.5,1.1-5.4c0-3.1-3.2-2-9.2-2.1c-6.3-0.1-8.5-0.9-9,1.8c-0.4,1.9,0.3,4.4,1.1,6c0.9,1.8,2.4,2.3,3.7,3.1
		c1.3,0.8,0.6,2.5,0.1,4.5c-0.7,2.7-1.2,3.7-2.6,3.6c-1.2-0.1-1.6-0.1-2.8,0c-1.3,0.1-0.9,1.7,0.4,1.6c0.5,0,17.5-0.1,19.2-0.3
		C164.3,90,164,88.7,162.7,88.6z M149.4,78.9c-3.1-1.1-3.7-3.7-3.5-5.4c0.2-2.3,2.6-2.1,7.5-1.9c5.4,0.1,7,0.2,5.6,4.8
		C158.2,78.8,153.4,80.4,149.4,78.9z M149.7,86.7c0.2-1.8,0.5-4.1,1.6-5c0.8-0.7,2-0.6,2.9-0.1c1.2,0.6,1.7,3.8,2,5.3
		c0.3,1.4-0.9,2-3.2,2C150.5,88.8,149.5,88.4,149.7,86.7z"/>
	<path class="st1" d="M167.9,50.9c1.2,1.8,5.6,5.9,3.5,8.6c-1.7,2.2-4.1,2.8-6.6,1.5c-2.7-1.5-3.5-2.4-4.3-2.4
		c-0.7,0-1.4,0.7,0.2,1.9c2.4,1.8,5.2,3.5,7.8,3.1c3.6-0.5,5.2-3.8,5.6,1.9c0.3,5.5,0.9,13-0.7,19.3c-0.5,2.1-1.8,4.9-3.4,7.6
		c-1.8,2.9,0,3.9,1.8,0.9c4.6-7.3,5-13.4,4.6-21.5c-0.4-8-1-12-0.5-14.4c0.5-2.4,1.7-3.2,2-8.3c0.2-3.7,0.1-5.3-0.9-5.3
		c-1,0.1-0.5,1.8-0.5,3.7c0,2-0.3,4.4-1.3,5.9c-1,1.5-2.1,1-3.7-1.3c-0.5-0.8-1.4-1.8-2-2.4C168,48.5,166.7,49.1,167.9,50.9z"/>
	<path class="st1" d="M169.9,71.1c0.5-0.5,1.6-0.7,0.8,0.8c-0.8,1.5-2,3-2.7,4c-1.1,1.4-2.5,0.2-1.4-1.1
		C167.9,73.4,169.2,71.9,169.9,71.1z"/>
	<path class="st1" d="M16.4,36.9c-0.7-2.1-2.3-3.4-4-2.2c-1.7,1.1-1.1,3.4,0.7,4.4c1.7,1.1,3.3,1.2,4.1,1.2c0.8,0,1-0.6,0.5-1
		C17.1,38.7,16.7,37.8,16.4,36.9z"/>
	<path class="st1" d="M17.1,48c-1.7-1-3.8-0.7-4.3,1.2c-0.5,1.9,1,3.5,3.5,3.9c4.6,0.8,4.6-0.2,4-1.1C19.5,50.8,18.5,48.9,17.1,48z"
		/>
	<path class="st1" d="M21.3,78.8c-2.1,0.4-4.3-0.1-6.6,0.5c-2.7,0.8-2.8,4.1-0.3,4.8c2.4,0.7,4.6-0.7,6.4-2.4
		C22.6,79.9,22.8,78.4,21.3,78.8z"/>
	<path class="st6" d="M48.9,100.2c0-0.4,0.5-0.4,0.9-0.4c0.4,0,0.8,0,1.3,0.1c1.2,0.1,2.3,0.1,3.4,0.1c0.2,0,0.4,0,0.6,0
		c0.7,0,0.9,0.5,0.6,0.9c-0.1,0.2-0.3,0.4-0.4,0.6c-0.5,0.8-1.2,1.7-1.9,2.7c-0.7,1.1-1.4,2-2,2.9c-0.2,0.3-0.4,0.5-0.5,0.7
		c-0.3,0.4,0.1,0.7,0.5,0.7c0.4,0,1,0,1.7,0c0.7,0,1.3,0,1.9,0c0.6,0,1,0.3,1,0.6c0,0.4-0.4,0.5-1,0.5c-0.2,0-0.5,0-0.8,0
		c-1,0-1.6,0-1.8,0c-0.2,0-0.8,0-2,0c-0.4,0-0.8,0-1.1,0c-0.5,0-0.7-0.5-0.3-0.9c0.1-0.1,0.2-0.2,0.3-0.4c0.5-0.7,1.1-1.6,2-2.9
		c0.9-1.3,1.6-2.3,2.1-3.1c0.2-0.4,0.4-0.7,0.6-0.9c0.2-0.3,0-0.5-0.3-0.5c-0.3,0-0.8,0-1.3,0c-1.1,0-1.9,0-2.4-0.1
		C49.4,100.8,48.9,100.6,48.9,100.2z"/>
	<path class="st6" d="M23.6,109.3c-0.4-0.3-0.3-0.8-0.1-1.2c0.1-0.2,1.4-2.8,2.3-4.4c0.8-1.6,1.4-2.7,1.7-3.3c0.3-0.6,0.9-0.5,1.2,0
		c0.2,0.3,0.3,0.6,0.5,0.9c0.5,0.9,1.1,1.9,1.7,3.1c0.6,1.1,1.1,2.1,1.6,2.9c0.1,0.3,0.3,0.5,0.4,0.7c0.2,0.4,0.4,1,0,1.2
		c-0.5,0.3-0.9-0.1-1.2-0.7c-0.3-0.5-0.9-1.8-1-1.9c-0.2-0.3-0.4-0.5-0.8-0.5l-3.6,0.1c-0.5,0-0.7,0.3-0.8,0.5
		c-0.1,0.3-0.8,1.9-0.9,2C24.3,109.3,23.9,109.5,23.6,109.3z M26.1,105.4l3.8-0.2c-0.1-0.3-1.4-2.7-1.6-3c-0.2-0.4-0.5-0.4-0.7-0.1
		C27.6,102.3,26.1,105.4,26.1,105.4z"/>
	<path class="st6" d="M12.1,109.4c-0.5,0-0.6-0.6-0.6-1c0-0.2,0-1.3,0-4.5c0-1.5,0-2.2,0-2.8c0-0.6,0.1-1.1,0.6-1.1
		c0.5,0,0.7,0.5,0.7,1.1c0,0.4,0,1.2,0,2.2c0,0.9,0,1,1,1l3.9-0.2c0.9-0.2,1,0.1,1-1.1c0,0,0-1.9,0-2.1c0-0.4,0.1-0.8,0.7-0.9
		c0.5,0,0.7,0.4,0.7,0.8c0,0.3-0.1,1.5-0.1,3.5c0,2.5,0,4,0,4.2c0,0.6-0.1,1-0.6,1c-0.5,0-0.7-0.4-0.7-0.9c0-0.5,0-1.6,0-2.3
		c0-0.5,0.2-1.2-0.8-1.3l-4.3,0.2c-0.7,0-0.9,0.2-0.9,0.9c0,0.2,0,2.3,0,2.4C12.7,109,12.6,109.4,12.1,109.4z"/>
	<path class="st6" d="M36.7,109.4c-0.6,0-0.6-0.6-0.6-1.1c0-0.2,0-0.3,0-0.5c0-0.8,0.1-1.8,0.1-3c0.1-1.2,0.1-2.7,0.2-3.9
		c0-0.7,0.6-0.9,1.1-0.4c0.2,0.2,0.3,0.3,0.5,0.6c1,1,1.8,1.9,2.6,2.7c0.8,0.8,1.4,1.5,2,2.1c0.6,0.6,0.9,1,1.1,1.1
		c0-0.3,0-0.7,0-1.2c0-0.5,0-1.4,0-2.4c0-1.1,0-1.9,0-2.4c0-0.5,0.1-1,0.6-1c0.5,0,0.6,0.6,0.6,1.1c0,0.1,0,0.2,0,0.4
		c0,0.7-0.1,1.5-0.1,2.3c0,0.8-0.1,1.8-0.1,3c0,0.7,0,1.3-0.1,1.8c0,0.4-0.4,0.8-0.8,0.3c-0.2-0.2-0.4-0.4-0.6-0.7
		c-0.8-0.9-1.7-1.8-2.6-2.7c-0.9-1-1.7-1.7-2.3-2.4c-0.6-0.6-0.9-1-1-1.1h0c0,0.3,0,0.7,0,1.2c0,0.5,0,1.2,0,2.2c0,1,0,1.8,0,2.5
		c0,0.2,0,0.3,0,0.5C37.3,108.9,37.3,109.4,36.7,109.4z"/>
	<path class="st6" d="M61,103.9v1.4c0,0.3,0,0.8,0,1.3c0,0.5,0,0.9,0,1.3c0,0.3,0,0.5,0,0.7c0,0.3,0,0.8-0.6,0.8
		c-0.6,0-0.7-0.6-0.7-0.9c0-0.3,0-0.5,0-0.8c0-0.9,0-1.6,0-2.3v-1.4c0,0,0-0.3,0-1c0-0.7,0-1.3,0-1.8c0-0.6,0.1-1.1,0.6-1.1
		c0.6,0,0.6,0.5,0.6,1.1c0,0.1,0,0.3,0,0.4C61,102.4,61,103.2,61,103.9z"/>
	<path class="st6" d="M148.4,109.7c-0.5,0-0.7-0.4-0.7-0.9c0-0.2,0.1-1.9,0.1-3.7c0-1.4,0-3.1,0-3.1c0-0.6-0.2-0.7-0.7-0.7
		c-0.2,0-2.1,0-2.3,0.1c-0.1,0-0.7,0-0.7-0.5c0-0.4,0.3-0.5,0.7-0.5c0.3,0,2.9,0.1,3.2,0.1h1.2c0.3,0,2.6-0.1,2.8-0.1
		c0.5,0,0.9,0,0.9,0.5c0,0.6-0.8,0.5-1,0.5c-0.2,0-1.9,0-2.1,0c-0.5,0-0.7,0.1-0.7,0.7c0,0,0,1.2,0,3.5c0,1.5,0.1,3,0.1,3.3
		C149.1,109.2,149,109.7,148.4,109.7z"/>
	<path class="st6" d="M156.8,102c0,1.3,0,4.5,0,6.7c0,0.2,0,1.1-0.7,1c-0.5,0-0.6-0.4-0.6-1.2c0-0.3,0-2.9,0-3.8c0,0,0-3.2,0-3.4
		c0-0.8,0.4-1.2,1.1-1.2c0.6,0,1.1,0.1,1.6,0.1c0.9,0.1,1.6,0.3,2.1,0.7c0.5,0.4,0.7,0.8,0.7,1.4c0,0.9-0.7,1.7-1.6,2.5
		c-0.4,0.3-0.3,0.5-0.1,0.8c0.7,0.9,2.4,2.7,2.4,2.7c0.3,0.3,0.4,0.8,0,1.1c-0.3,0.2-0.7,0.1-1-0.3c-0.3-0.4-2.3-3.1-2.4-3.2
		c-0.6-0.8,0.1-1.2,0.3-1.4c0.2-0.1,0.3-0.3,0.5-0.4c0.4-0.4,0.6-0.9,0.6-1.5c0-0.4-0.5-1.4-2.2-1.4
		C157.1,101.3,156.8,101.5,156.8,102z"/>
	<path class="st6" d="M170.3,109.3c0,0.5-0.4,0.5-1,0.5c-0.3,0-0.7,0-1.2,0c-0.6,0-1,0-1.4,0c-0.5,0-0.9-0.5-0.9-1c0-0.5,0-1,0-1.6
		c0-0.6,0-1,0-1.4V104c0-0.1,0-0.7,0-1.8c0-0.4,0-0.7,0-1c0-0.5,0.2-1,0.8-1c0.6,0,1.5-0.1,2.2-0.1c0.1,0,0.3,0,0.4,0
		c0.5,0,0.9,0.1,0.9,0.5c0,0.5-0.5,0.5-0.8,0.6c-0.3,0-0.7,0-1,0c-0.3,0-0.6,0-0.7,0c-0.3,0-0.5,0.1-0.5,0.4c0,0,0,2.5,0,2.5
		c0,0.4,0.1,0.5,0.5,0.5c0.2,0,1.1,0,1.3,0c0.4,0,0.8,0,0.8,0.4c0,0.4-0.4,0.4-0.8,0.4c-0.2,0-1.1,0-1.3,0c-0.3,0-0.5,0-0.5,0.5v2.5
		c0,0.3,0.1,0.4,0.3,0.4c0.1,0,0.2,0,0.4,0c0.1,0,0.3,0,0.6,0c0.3,0,0.7,0,0.9,0C169.7,108.7,170.3,108.7,170.3,109.3z"/>
	<path class="st6" d="M179,109.3c0,0.5-0.4,0.5-1,0.5c-0.3,0-0.7,0-1.2,0c-0.6,0-1,0-1.4,0c-0.5,0-0.9-0.5-0.9-1c0-0.5,0-1,0-1.6
		c0-0.6,0-1,0-1.4V104c0-0.1,0-0.7,0-1.8c0-0.4,0-0.7,0-1c0-0.5,0.2-1,0.8-1c0.6,0,1.5-0.1,2.2-0.1c0.2,0,0.3,0,0.4,0
		c0.5,0,0.9,0.1,0.9,0.5c0,0.5-0.5,0.5-0.8,0.6c-0.3,0-0.7,0-1,0c-0.3,0-0.6,0-0.7,0c-0.3,0-0.5,0.1-0.5,0.4c0,0,0,2.5,0,2.5
		c0,0.4,0.1,0.5,0.5,0.5c0.2,0,1.1,0,1.3,0c0.4,0,0.8,0,0.8,0.4c0,0.4-0.4,0.4-0.8,0.4c-0.2,0-1.1,0-1.3,0c-0.3,0-0.5,0-0.5,0.5v2.5
		c0,0.3,0.1,0.4,0.3,0.4c0.1,0,0.2,0,0.4,0c0.1,0,0.3,0,0.6,0c0.3,0,0.7,0,0.9,0C178.4,108.7,179,108.7,179,109.3z"/>
	<path class="st1" d="M67.7,113.7c-3.7-1-9.9,0.1-14.7,1c-4.5,0.8-8.5,2-12.2-1.6c-0.7-0.7-1-0.1-0.5,0.5c2.9,2.8,5.2,3.6,12.3,2.1
		c8-1.7,11.6-1.7,14.5-1.2c2.9,0.5,3.3,2.6,3,4.4c-0.3,1.8-2.4,1.4-3.3,1.4c-2,0-2.3-1.6-1.8-2.5c0.3-0.5-0.2-0.6-0.4-0.3
		c-0.4,0.5-0.7,1.6-0.1,2.5c0.8,1.3,2,1.3,4.4,1.1c1-0.1,2.1-0.9,2-3.5C70.8,114.8,69.6,114.2,67.7,113.7z"/>
	<path class="st1" d="M118.7,113.7c3.7-1,11.5,0.1,16.3,1c4.5,0.8,11.9,2,15.6-1.6c0.7-0.7,1-0.1,0.5,0.5c-2.9,2.8-8.6,3.6-15.7,2.1
		c-8-1.7-13.3-1.7-16.1-1.2c-2.9,0.5-3.3,2.6-3,4.4c0.3,1.8,2.4,1.4,3.3,1.4c2,0,2.3-1.6,1.8-2.5c-0.3-0.5,0.2-0.6,0.4-0.3
		c0.4,0.5,0.7,1.6,0.1,2.5c-0.8,1.3-2,1.3-4.4,1.1c-1-0.1-2.1-0.9-2-3.5C115.6,114.8,116.9,114.2,118.7,113.7z"/>
</g>
</svg>
