<?xml version="1.0" encoding="utf-8"?>
<!-- Generator: Adobe Illustrator 20.1.0, SVG Export Plug-In . SVG Version: 6.00 Build 0)  -->
<svg version="1.1" id="圖層_1" xmlns="http://www.w3.org/2000/svg" xmlns:xlink="http://www.w3.org/1999/xlink" x="0px" y="0px"
	 viewBox="0 0 205.9 112.8" style="enable-background:new 0 0 205.9 112.8;" xml:space="preserve">
<style type="text/css">
	.st0{fill:#E8E746;}
	.st1{fill:#050001;}
	.st2{fill:#FCEBD5;}
	.st3{fill:#DE9380;}
	.st4{fill:#F8D9D0;}
	.st5{fill:#E7A89A;}
	.st6{fill:#231815;}
	.st7{fill:#D4EFAC;}
	.st8{fill:#FFFEE9;}
	.st9{fill:#6A3906;}
	.st10{font-family:'DFYuanStd-W5';}
	.st11{font-size:15px;glyph-orientation-vertical:0;writing-mode:tb;}
	.st12{letter-spacing:3;}
</style>
<g>
	<path class="st0" d="M114,59.6c-2-7-5.5-13.2-11-17.9c-5.1-4.4-11.7-7.3-18.3-8.4c-7.2-1.2-14.8,0.2-21.1,3.7
		c-11.4,6.2-19,18.4-19.7,31.5c-0.5,9.5,4,18.9,8.1,22.1C56.1,94,61.2,95,63.4,88c0.4-1.3,0.9-4.2,1.9-5.2c0,0,0.2,7.7,4.8,12.4
		c2.3,2.4,5.4,3.7,8.6,4.5c9.2,2.3,26.7,2.1,34.1-19C115.2,73.9,116,66.6,114,59.6z"/>
	<g>
		<path class="st1" d="M72.8,30.6c-1.7-1.2-3.8-0.9-5,0.5c-1.5,1.8-0.6,3.1-2.8,4.1c-1.6,0.7-3,1.8-4.5,3.5
			c-1.9,2.1-1.9,3.3-3.9,3.3c-2.3,0-4.1,0.8-4.5,2.6c-0.7,2.7,1.3,3.2,0.3,5.3c-1.1,2.3-6.5,7.5-10.2,9.1c-4.1,1.8-7.9,2.2-7.7,0.1
			c0.1-1.6,0.1-2.2,1.2-2.4c1.7-0.4,6.7-1.7,7.3-5.7c0.6-4.1-1-4.2-4.1-4.3c-3-0.1-3.7,0-3.7-1.4c0.1-1.8,1-2.3,2.2-3.7
			c2.9-3.5,1.6-5.4,4.6-5.8c3-0.4,6.8-2.3,8.7-3.8c1.9-1.5,3.8,0,5.4-2.6c1.2-1.9-0.1-5.1-2.7-5c-3,0-3.9,2.2-3.7,5.1
			c0.2,2.3-4.1,3.9-6.8,4.3c-3.3,0.4-2.6-3.5-2.6-10.8c0-6,0.5-10.6,1.2-14.4c0.1-0.8,0.4-1.5,1.1-2c1.2-0.9,2.5-2.4,1.7-4.3
			c-1.1-2.8-4.3-2.5-5.5-1.2c-1.4,1.5-1.1,3.5,0.2,5c1.3,1.5,0.7,2.8,0,9.5c-0.7,6.8-0.5,12.7-0.6,15.9c-0.1,3.2-2.1,3-6.9,2.7
			c-3.6-0.2-2.1-2.4-3.9-8.4c-1.2-4.2-1.5-4.7-2.4-6.9c-0.8-1.9,1.7-3.8-0.3-6.5c-1.6-2.2-4.5-2.2-6-0.5c-1.6,1.9-1.3,4.2-0.2,5.4
			c2.4,2.4,4,0.2,5.1,2.1c1.4,2.5,2.8,6.8,3.1,9.4c0.5,4.2,0.8,5.3-3,5.5c-3.2,0.2-5,1.9-5.5,3.2c-0.4,0.9,0.5,1.3,1.3,0.2
			c1-1.3,2.6-1.8,4.9-1.8c1.7,0,2.5-0.1,3,2.1c0.7,3,2.5,4.9,4,5.7c1.6,0.8,1.1,2.6-0.2,2.6c-4.1,0.1-7.3-0.6-8.2,1.9
			c-0.9,2.4,0.5,6.2,4.7,7.9c2.4,0.9,3.8,0.5,3.8,2c0,1.8-0.4,3.2-5.6,1.5c-5.2-1.7-5.8-1.8-6.4-3.4c-0.6-1.6-3.2-2.6-5-1
			c-1.8,1.5-0.9,4.3,0.7,5c1.7,0.8,2.8,0.1,3.7-0.4c0.9-0.4,1.9-0.3,4.5,0.7c2.9,1.1,5.2,1.4,6.4,1.7c1.2,0.2,1.3,2.4,0,2.4
			c-3-0.1-6.7,0.2-8.1,1.1c-0.9,0.5-0.4,1.4,0.6,1c1.7-0.7,8.3-1.2,8.3,0.5c0,1.7-0.2,2.1-1.4,3.2c-3,3.1-3.5,4.6-4.3,6.9
			c-0.8,2.2-0.9,3.5-2.3,3.7c-1.3,0.2-1.6,1.5,0.4,1.4c1.1,0,1.7-0.3,2.3-1.8c1.6-4.6,2.3-5.6,4.4-7.4c1.7-1.5,2.8-1.2,4.2,0
			c2.4,2.1,3.3,4,4,6.2c0.7,2.2,0.9,3,2.3,3c1.4,0,2,0.2,1.7-0.6c-0.2-0.8-1.6-0.4-2-1.1c-0.9-1.4-0.7-4-2.8-7.2
			c-1.3-2-3.5-3.6-3.6-4.6c-0.1-1.3-0.3-2.2,2.1-1.5c2.4,0.7,3.6,1.3,4.8,1.9c0.7,0.4,1.8-0.2,0.5-1c-1.5-1-3-1.7-4.4-2.2
			c-2.2-0.7-2.9-1.2-2.8-2.1c0.1-0.9,0.2-1.2,1.8-1.3c1.6-0.1,4.9-0.8,8-2.5c3.9-2.2,8-6.1,9.1-7.9c1.2-1.8,1.9-2.6,3.3-2.7
			c1.8-0.1,3.3-1.6,3-3.8c-0.3-2.1,0-2.5,0.6-3.6c0.9-1.6,2-2.9,3.8-4.2c1.9-1.3,3.5-2,4.6-1.5c2,0.9,4,0.5,5.1-1.2
			C74.4,33.7,74.4,31.7,72.8,30.6z M30.5,39.3c-0.8-1.6-0.4-2.6,0-2.9c0.6-0.4,1-0.3,3.7-0.3c2.2,0,3.1,0.1,3.1,1.6
			c0,2-1.7,3-2.9,4.4c-0.4,0.5-1,0.3-1.6,0C31.8,41.4,31.3,40.9,30.5,39.3z M33.7,54.8c-3,0.1-7.2-1-8-3.8c-0.6-2.3,0.7-2.7,2.5-2.8
			c1.8,0,4.7-0.4,4.5,2.1c-0.1,2.1,0.6,2.4,1.3,2.3c0.9-0.1,0.9-1,1.1-2.7c0.1-1.8,2-1.3,3.9-1.3c1.6,0,2,0.5,1.8,2.1
			C40.6,52.3,37.9,54.7,33.7,54.8z"/>
	</g>
	<g>
		<path class="st2" d="M84.7,59.6c-6.2-2.7-13.4,2.1-12.9,9.5c0.2,2.2,1.7,7,7.8,7.3c3.4,0.1,5.8-1.2,7.4-2.3
			C90.6,71.6,91.3,62.5,84.7,59.6z"/>
		<path class="st1" d="M71.4,49.5c2.1-1.4,4.2-2.9,5.4-5.2c1.3-2.3,1.2-5,2-7.5c-0.8,0.6-1.5,1.8-1.5,3.2c0,2.6-0.9,4.3-4.3,6.5
			c-1.1,0.6-11.6,7.9-11.6,7.9C64.9,53,68.3,51.6,71.4,49.5z"/>
		<path class="st1" d="M91.1,49.3c1.5,1.5,3,3.1,4.4,4.7c2.4,2.8,8.9,9.1,11.5,14.3c1.4-3.5-2-7.5-6.2-11.2
			C98.2,55,92.9,50.8,91.1,49.3z"/>
		<path class="st1" d="M102,94.1c0,0.7,0.1,1.2,0.1,1.7c0.2-1.9,0.3-3.8,0.2-5.8c-0.3-5.6-1-10.4-3.4-15.4c0,3.8,0.2,6.4,1.3,8.7
			C102,87.4,101.9,89.7,102,94.1z"/>
		<path class="st1" d="M71.6,50.6c4.6-3.4,9-7.7,8.3-14c0,0-0.8,0.1-0.8,0.2c-0.7,2.7-0.6,5.6-2.1,8.1c-1.2,1.9-2.9,3.4-4.7,4.6
			c-3,2-6.1,3.5-9.4,4.9c-0.7,0.3-1.5,0.6-2.2,0.9c0,0-0.1,0.1-0.1,0.1c-2.1,1.8-4.1,3.8-6,5.8c-0.6,0.9-1,1.8-1.4,2.6
			c2.2-2.2,4.8-4,7.2-5.7C64.1,55.6,67.9,53.2,71.6,50.6z"/>
		<path class="st1" d="M80.2,36.6c0.6,5.3-2.3,9.2-6.1,12.3c-3.6,3-7.6,5.5-11.5,8c-3.4,2.2-6.9,4.4-9.7,7.3
			c-0.8,2.2-0.6,4.1,0.5,6.1c0.3,0.6,0.7,1,1.2,1.3l0.5,5c1.4-4.3,2.9-8.3,5.5-11.9c1-1.4,2.1-2.7,3.2-4c2-3.1,5.2-6.2,10.2-8.8
			c1.9-1.8,3.7-3.8,4.7-6.2c1.3-2.9,1.8-5.8,2-8.9C80.6,36.7,80.2,36.6,80.2,36.6z"/>
		<path class="st1" d="M61.1,68.1c-4.4,9.9-5.6,21.1-3.8,31.9c0.1,0.6,0.9,1,1.5,1c1.3,0,1.7-1,1.7-2.4c0.1-6.6-0.3-13.3-0.3-19.9
			C60.3,75.4,60.3,71.6,61.1,68.1z"/>
		<path class="st1" d="M61.3,66.9c0.1-1,0.6-2.7,1.2-4c0,0,0-0.1,0.1-0.1c-2,2.4-5.1,7-7.4,15.1v4.3c0,5.2,0.1,9.6,1.3,15.3
			C55.1,87.1,56.7,76.2,61.3,66.9z"/>
		<path class="st1" d="M81.3,36.9c-0.1,0-0.2-0.1-0.3-0.1c-0.1,2.6-0.4,5.1-1.3,7.5c-1,2.6-2.5,4.9-4.5,6.9c4-1.8,7.5-1.2,10.5,0.2
			c-1.5-3.3-2.8-6.8-3.7-10.4C81.8,39.9,81.4,37.4,81.3,36.9z"/>
		<path class="st1" d="M106,70.8c-0.7-1.7-1.7-3.4-2.9-4.9c-2.5-3.1-5.5-5.8-8.4-8.4c-3.1-2.9-6.3-5.8-8.5-9.5
			c-2-3.2-3.2-6.8-4-10.5c0,0,0,0,0,0c0,0,0,0,0,0l0-0.1c0,0,0,0,0,0c-0.2-0.1-0.4-0.2-0.6-0.3c0.2,1.2,0.4,2.3,0.6,3.5
			c0.9,3.8,2.3,7.5,4,11.1c1.7,0.8,3.1,1.8,4.4,2.7c3.4,2.5,5.9,5.4,7.7,9.7c0.9,2.2,0.8,9.1,0.8,9.6l0,0c6.3,10,3.3,25.7,3.3,25.8
			c0.5,1.5,1.3,1.5,1.8,1.5c1.7-0.2,1.6-3,1.6-8.5c0-1.8-0.1-20.6-0.1-20.8C105.5,71.6,105.9,70.9,106,70.8z"/>
		<path class="st1" d="M101.9,62.1c-2.2-2.7-4.7-5-6.9-7.6c-2.2-2.6-4.3-5.6-7.2-7.5c0,0,0-0.1,0-0.1c-3.8-2.7-3.9-4.7-4.1-6.5
			c-0.2-1.5-0.7-2.4-1.5-3c0,0,0,0,0,0c0,0,0,0,0,0c0,0,0,0,0,0c1.2,4.8,3,9.4,6.2,13.3c2.5,3,5.5,5.6,8.3,8.2
			c3.6,3.2,7.4,6.9,9.4,11.3c0.2-0.4,0.4-0.9,0.5-1.3C105.3,66.5,103.7,64.2,101.9,62.1z"/>
		<path class="st3" d="M65.5,82.5c0.4-1.5,0.8-3.2,1.2-4.7c0.3-1.4,0.7-2.7,0.9-3.9c0.3-1.4-1.5-1.8-1.7-0.4
			c-0.2,1.2-0.4,2.9-0.5,4.1c-0.2,1.6-0.3,3.3-0.5,4.9C64.9,83,65.4,83,65.5,82.5z"/>
		<path class="st1" d="M76.9,70c-0.2-0.3-0.9-0.7-1.4-0.2c-0.4,0.4-0.6,1.4,0.2,1.7C76.6,71.8,77.4,70.8,76.9,70z"/>
		<path class="st1" d="M83.9,69.4c0.1-0.4,0.6-0.9,1.3-0.6c0.5,0.2,1,1.1,0.3,1.7C84.8,71,83.7,70.2,83.9,69.4z"/>
		<path class="st4" d="M80.1,69.4c0.1,0.1,0.1,1,0.1,1.2c0,0.3,0,0.5,0,0.8c0,0,0,0,0,0.1c0.5-0.1,1,0,1.2,0.4
			c0,0.1,0.1,0.2,0.1,0.2c0.1-0.2,0-0.6-0.1-1c0-0.1,0-0.1,0-0.1c0,0,0-0.1,0-0.1c-0.2-0.7-0.8-1.7-1.2-1.7c-0.1,0-0.2,0-0.3,0.1
			C80.1,69.2,80.1,69.3,80.1,69.4z"/>
		<path class="st1" d="M97,83.3C96.8,83,92.8,79.8,86,80c-2.9,0.1-3.4-2.7-2.1-3.1c7.8-2.2,8.2-10.1,6.1-14.6
			c-1.5-3.2-4.9-5.5-9.7-5.3c-3.6,0.1-10.5,2.9-9.6,12c0,0.2,1,7.5,7.3,7.7c0.2-0.1,0.2-0.1,0.3-0.4c0.1-0.3-7.4-0.3-5.8-9.8
			c0.5-2.7,3.2-5.9,7.2-6.2c5.1-0.4,9.9,2.6,8.9,10.1c-0.6,4.5-5.5,4.4-7.2,6.1c-1.5,1.5-0.2,3.4-3.2,4.3
			c-5.1,1.4-11.5-1.7-11.8-1.7c-0.1,0-0.2,0.2-0.2,0.2c-0.2,0.8,3.2,3.7,9.5,4.1c4,0.3,3.4,2.4,3.4,3.7c0.1,4.5-3.1,5.2-1.9,8.2
			c0.8,1.9,3,2,4.7,0.8c1.8-1.3,2.8-4.4,2.8-7.6c0.1-2.3,0.4-3.4,1.8-4.5c2.8-2.1,6.6-0.7,8.2-0.2c1.2,0.4,2.1,1.4,2.6,1
			C97.7,84.4,97.5,83.7,97,83.3z"/>
		<path class="st5" d="M81.5,71.8c-0.2-0.5-0.8-0.5-1.2-0.4c0,0,0,0,0-0.1c0-0.2,0-0.5,0-0.8c0-0.1,0-1.1-0.1-1.2
			c0-0.1-0.1-0.2-0.1-0.2c-0.1,0-0.2,0.1-0.2,0.3c-0.1,0.4-0.1,0.7-0.1,1c0,1-0.5,1.3,0,1.8c0.2,0.2,0.5,0.2,0.9,0.1
			c0.2,0,0.4,0.1,0.6,0c0.2-0.1,0.3-0.3,0.3-0.5C81.6,72,81.5,71.9,81.5,71.8z"/>
		<g>
			<path class="st6" d="M65.3,109.1c-0.3,0-0.4-0.3-0.4-0.5c0-0.2,0-0.4,0-0.8c0-0.4,0-0.7,0-0.8c0-0.2,0-0.4,0-0.6v-0.8
				c0-0.1,0-0.2,0-0.3c0-0.1,0-0.3,0-0.5c0-0.2,0-0.3,0-0.5c0-0.4,0.2-0.5,0.5-0.5c0.4,0,0.7,0,1,0.1c0.5,0.1,0.9,0.2,1.2,0.5
				c0.3,0.2,0.4,0.6,0.4,1c0,0.2-0.1,0.5-0.2,0.7c-0.1,0.2-0.3,0.4-0.5,0.6c-0.2,0.2-0.5,0.4-0.8,0.5c-0.2,0.1-0.4,0.2-0.6,0.2
				c-0.3,0.1-0.4,0.1-0.4,0.5c0,0,0,0.5,0,0.7C65.7,108.9,65.6,109.1,65.3,109.1z M65.6,104.6v2.4c0.3-0.1,0.6-0.2,0.9-0.3
				c0.2-0.1,0.4-0.3,0.6-0.5c0.1-0.2,0.2-0.4,0.2-0.7c0-0.1,0-0.3-0.1-0.4c-0.1-0.2-0.2-0.3-0.5-0.5c-0.2-0.1-0.5-0.2-0.8-0.2
				C65.8,104.3,65.6,104.4,65.6,104.6z"/>
			<path class="st6" d="M70.8,106v0.8c0,0.2,0,0.4,0,0.7c0,0.3,0,0.5,0,0.7c0,0.1,0,0.3,0,0.4c0,0.2,0,0.5-0.3,0.5
				c-0.3,0-0.4-0.3-0.4-0.5c0-0.2,0-0.3,0-0.5c0-0.5,0-0.9,0-1.3V106c0,0,0-0.2,0-0.5c0-0.4,0-0.7,0-1c0-0.3,0.1-0.6,0.4-0.6
				c0.3,0,0.4,0.3,0.4,0.6c0,0.1,0,0.2,0,0.2C70.8,105.2,70.8,105.6,70.8,106z"/>
			<path class="st6" d="M77.1,108.9c0,0.3-0.3,0.3-0.5,0.3c-0.2,0-0.3,0-0.5,0c-0.6,0-1.1-0.1-1.5-0.2c-0.4-0.2-0.8-0.4-1-0.6
				c-0.2-0.2-0.4-0.5-0.5-0.7c-0.1-0.3-0.2-0.5-0.2-0.7c0-0.3,0.1-0.7,0.2-1c0.2-0.3,0.4-0.7,0.7-1c0.3-0.3,0.7-0.6,1.2-0.8
				c0.3-0.2,0.7-0.3,1.2-0.4c0.2,0,0.5-0.1,0.6,0.2c0.1,0.2-0.3,0.4-0.5,0.4c-0.2,0.1-0.5,0.1-0.7,0.2c-0.4,0.2-0.7,0.3-1,0.6
				c-0.3,0.2-0.5,0.5-0.7,0.8c-0.2,0.3-0.2,0.6-0.2,0.9c0,0.2,0,0.5,0.1,0.7c0.1,0.2,0.2,0.4,0.5,0.6c0.2,0.2,0.5,0.3,0.8,0.4
				c0.3,0.1,0.7,0.1,1.1,0.1c0.1,0,0.3,0,0.4,0C76.8,108.6,77.1,108.6,77.1,108.9z"/>
			<path class="st6" d="M79.3,109.2c-0.3,0-0.3-0.3-0.3-0.6c0-0.1,0-0.2,0-0.3c0-0.5,0-1,0.1-1.7c0-0.7,0.1-1.6,0.1-2.2
				c0-0.4,0.4-0.5,0.6-0.2c0.1,0.1,0.2,0.2,0.3,0.3c0.6,0.6,1,1.1,1.5,1.6c0.4,0.5,0.8,0.9,1.1,1.2c0.3,0.3,0.5,0.5,0.6,0.7
				c0-0.2,0-0.4,0-0.7c0-0.3,0-0.8,0-1.4c0-0.6,0-1.1,0-1.4c0-0.3,0.1-0.6,0.4-0.6c0.3,0,0.3,0.3,0.3,0.6c0,0.1,0,0.1,0,0.2
				c0,0.4,0,0.9-0.1,1.3c0,0.5,0,1-0.1,1.7c0,0.4,0,0.7,0,1c0,0.2-0.2,0.4-0.5,0.2c-0.1-0.1-0.2-0.2-0.4-0.4c-0.5-0.5-1-1-1.5-1.6
				c-0.5-0.5-1-1-1.3-1.4c-0.3-0.4-0.5-0.6-0.6-0.6h0c0,0.2,0,0.4,0,0.7c0,0.3,0,0.7,0,1.3c0,0.6,0,1,0,1.4c0,0.1,0,0.2,0,0.3
				C79.6,108.9,79.6,109.2,79.3,109.2z"/>
			<path class="st6" d="M89.2,108.9c0,0.3-0.2,0.3-0.6,0.3c-0.2,0-0.4,0-0.7,0c-0.3,0-0.6,0-0.8,0c-0.3,0-0.5-0.3-0.5-0.6
				c0-0.3,0-0.6,0-0.9c0-0.3,0-0.6,0-0.8v-1c0,0,0-0.4,0-1c0-0.2,0-0.4,0-0.5c0-0.3,0.1-0.6,0.5-0.6c0.3,0,0.8,0,1.2-0.1
				c0.1,0,0.2,0,0.2,0c0.3,0,0.5,0,0.5,0.3c0,0.3-0.3,0.3-0.5,0.3c-0.2,0-0.4,0-0.5,0c-0.2,0-0.3,0-0.4,0c-0.2,0-0.3,0.1-0.3,0.2
				c0,0,0,1.4,0,1.4c0,0.2,0.1,0.3,0.3,0.3c0.1,0,0.6,0,0.7,0c0.2,0,0.5,0,0.5,0.2c0,0.2-0.2,0.3-0.5,0.2c-0.1,0-0.6,0-0.7,0
				c-0.2,0-0.3,0-0.3,0.3v1.4c0,0.2,0.1,0.2,0.2,0.2c0.1,0,0.1,0,0.2,0c0.1,0,0.2,0,0.3,0c0.2,0,0.4,0,0.5,0
				C88.9,108.6,89.2,108.6,89.2,108.9z"/>
			<path class="st6" d="M98.7,108.9c0,0.3-0.2,0.3-0.6,0.3c-0.2,0-0.4,0-0.7,0c-0.3,0-0.6,0-0.8,0c-0.3,0-0.5-0.3-0.5-0.6
				c0-0.3,0-0.6,0-0.9c0-0.3,0-0.6,0-0.8v-1c0,0,0-0.4,0-1c0-0.2,0-0.4,0-0.5c0-0.3,0.1-0.6,0.4-0.6c0.3,0,0.8,0,1.2-0.1
				c0.1,0,0.2,0,0.2,0c0.3,0,0.5,0,0.5,0.3c0,0.3-0.3,0.3-0.5,0.3c-0.2,0-0.4,0-0.5,0c-0.2,0-0.3,0-0.4,0c-0.2,0-0.3,0.1-0.3,0.2
				c0,0,0,1.4,0,1.4c0,0.2,0.1,0.3,0.3,0.3c0.1,0,0.6,0,0.7,0c0.2,0,0.5,0,0.5,0.2c0,0.2-0.2,0.3-0.5,0.2c-0.1,0-0.6,0-0.7,0
				c-0.2,0-0.3,0-0.3,0.3v1.4c0,0.2,0.1,0.2,0.2,0.2c0.1,0,0.1,0,0.2,0c0.1,0,0.2,0,0.3,0c0.2,0,0.4,0,0.5,0
				C98.4,108.6,98.7,108.6,98.7,108.9z"/>
			<path class="st6" d="M91.5,109c-0.1-0.2,0.2-0.4,0.3-0.4c0.3-0.1,0.6-0.2,0.8-0.3c0.3-0.2,0.5-0.4,0.5-0.7c0-0.1,0-0.2-0.1-0.3
				c-0.1-0.1-0.1-0.2-0.2-0.3c-0.1-0.1-0.3-0.2-0.5-0.3c-0.2-0.1-0.4-0.3-0.6-0.4c-0.2-0.1-0.3-0.2-0.4-0.4
				c-0.1-0.1-0.1-0.3-0.1-0.5c0-0.2,0.1-0.4,0.2-0.6c0.1-0.2,0.3-0.4,0.5-0.5c0.2-0.2,0.4-0.3,0.7-0.4c0.1-0.1,0.3-0.1,0.4-0.2
				c0.1,0,0.4-0.1,0.5,0.2c0.1,0.2-0.1,0.4-0.3,0.4c-0.1,0-0.2,0.1-0.3,0.1c-0.2,0.1-0.5,0.2-0.6,0.4c-0.2,0.2-0.3,0.3-0.3,0.5
				c0,0.1,0,0.2,0.1,0.3c0.1,0.1,0.1,0.2,0.2,0.2c0.1,0.1,0.2,0.1,0.3,0.2c0.1,0.1,0.2,0.1,0.3,0.2c0.4,0.2,0.6,0.4,0.8,0.6
				c0.2,0.2,0.2,0.4,0.2,0.6c0,0.2,0,0.4-0.1,0.6c-0.1,0.2-0.2,0.4-0.4,0.5c-0.2,0.2-0.4,0.3-0.7,0.5c-0.2,0.1-0.4,0.2-0.6,0.2
				C91.8,109.2,91.6,109.2,91.5,109z"/>
		</g>
	</g>
	<path class="st1" d="M119.5,44.6c-0.2,7.5-0.7,8.5-2.3,7.3c-2.2-1.6-3.2-3.7-6.1-7.2c-2.5-3-5.1-5.2-8.6-7.8
		c-3.2-2.4-2.8-4.4-2.9-5.6c-0.1-1.9-0.6-3.9,0.6-4.7c1.6-1,2.1-3.9,0-5.2c-2-1.3-4-0.3-4.7,1.1c-0.7,1.3-0.4,3.1,1,4.1
		c0.9,0.7,1.1,1.3,1.3,2.5c0.2,2.5,0.2,4.8-2.8,3.9c-3.7-1-8.4-3.7-11-6c-3.3-2.8-3.5-4.1-3.8-6.1c-0.2-2-0.4-2.5-0.7-4
		c-0.3-1.5,1-1.9,1.2-3.4c0.3-1.5-0.2-2.6-1.7-3.2c-2-0.9-4.3,0.4-4.5,2.5c-0.1,1.5,0.6,2.6,2.5,3.4c1.2,0.5,1.4,3.1,1.6,4.9
		c0.3,2.8-5.7,0.8-7.8-0.3c-2.3-1.2-3.9-2-3.6-3.3c0.3-1.7-0.9-4.1-3.5-4.1c-2.5,0-3.6,2.3-3.2,4c0.4,1.8,2.1,3,4.2,2.5
		c1.1-0.3,1.3-0.3,2.9,0.8c1.8,1.3,4.8,2.8,8.2,3.4c3.3,0.6,3,1.4,7.1,4.8c7.9,6.4,11.4,5.6,16.1,8.5c4.7,3,7.7,6.1,8.7,7.5
		c1.4,1.9,0.4,3.1-2.5,2.1c-1.3-0.5-1.9-0.8-2.2-1.8c-0.3-1-0.8-3-3-3.6c-2.7-0.7-5,1.2-5.1,3.5c-0.1,2.3,1.8,4.3,4.1,4.1
		c2.2-0.2,3.2-1.8,4.5-1.3c1.3,0.5,3.3,1.3,5.6,1.2c2.3,0,2.7,1.2,5.4,4.3c2.2,2.5,3.9,2.5,3.8,7.9c-0.2,5.4,2.4,17-1.7,20.7
		c-4.1,3.7-3.6,7.6-5.7,10.9c-0.9,1.5,0.2,3.1,1.9,0.2c1.7-2.9,2.2-5.8,3.7-7.2c1.5-1.4,2.2-0.4,2,2c-0.2,2.4,0.3,4.9-0.2,7.9
		c-0.6,3.8,0.7,5.1,1.9,1.6c0.9-2.6,1.3-4.8,1.3-7.3c-0.1-2.4,1.2-3.2,2.1-1.1c0.9,2.1,2,3.2,3.2,4.4c1.2,1.3,2.3,0.6,0.7-2
		c-1.6-2.6-1.7-4.3-2.7-6.3c-1-2.1-2.8-3.3-2.7-8.4c0.2-8.8-1-16.4-0.4-18.3c0.9-2.7,4-3,7.5-10.9c1.9-4.4,3.8-7.4,5.1-11.4
		c1-3.1,1-4.2,1.8-4.9c0.7-0.6,2.3-0.9,2.7-2.9c0.4-1.7-0.4-3.3-2.3-3.7c-1.8-0.4-3.3,0.9-3.6,2.2c-0.5,2.9,1.6,2.8,1.2,5.6
		c-0.7,5-2.3,6.7-4.5,11.3c-1.1,2.2-3,6.3-5.1,8.1c-1.2,1.1-2.9,1-2.7-1.9c0.3-4.6-0.2-12.6,0.4-16.3c0.7-3.6,2.9-8.2,4-8.7
		c1.1-0.5,3.1-0.2,3.7-1.9c0.6-1.7,0.9-3.9-1.4-4.8c-2.3-1-3.9,0.5-4.2,2.4c-0.3,1.9,1.3,2.2,0.1,4.3c-1.2,2-1.5,2.6-2,3.7
		c-0.5,1.1-1.5,1.4-2.5-0.6c-1-2-4.1-5.4-6.4-8.2c-2.3-2.8-2.8-4-3.2-5.9c-0.4-1.9,0.6-1.5,1-3.2c0.4-1.7-0.6-3.9-2.5-4.1
		c-2-0.2-4.1,1.2-3.5,3.7c0.8,3,3.3,2.3,3.7,3.8c0.4,1.9,1.8,4.9,4.9,8.4c3.6,4,6,7.8,6,12.7C119.7,41.7,119.6,40.5,119.5,44.6z"/>
	<path class="st1" d="M30.1,50.7c-0.2-0.3-0.9-0.7-1.4-0.2c-0.4,0.4-0.6,1.4,0.2,1.7C29.8,52.5,30.6,51.5,30.1,50.7z"/>
	<path class="st1" d="M38.5,50.7c-0.2-0.3-0.9-0.7-1.4-0.2c-0.4,0.4-0.6,1.4,0.2,1.7C38.2,52.5,39,51.5,38.5,50.7z"/>
	<path class="st1" d="M33.1,53.5c-0.6-0.3-0.8,0.1-0.2,0.4c0.4,0.2,1.4,0.2,2-0.1c0.3-0.1,0.2-0.5-0.3-0.3
		C34.2,53.6,33.5,53.7,33.1,53.5z"/>
	<path class="st1" d="M135.8,57c1.8-1.1,3.8-2.1,3.8-3.4c0.2-2.6,0.6-4.4-0.9-4.8c-0.7-0.2-1.9-0.9-2.4-2c-0.6-1.4-1.4-1.6-3-2.3
		c-1.6-0.7-3-2.2-4-3.6c-1-1.4-0.7-1.9-2.1-2.2c-1.1-0.2-2.4-1.3-2.3-3.3c0.1-1.5,1.9-3,3.9-2.4c1.7,0.6,2.4,2.4,1.8,3.8
		c-0.6,1.3-1.2,1.9-0.3,3.3c0.9,1.3,2.8,3,4.2,3.4c1.2,0.4,1.5,0.4,2.2-0.4c1.3-1.6,1.9-0.7,2-2.3c0.3-3.6,1.2-6.2,2-8.4
		c1.5-4.3,1.6-6.2,1.2-8.3c-0.6-2.8,0-4.9-1.8-5.7c-1.3-0.6-2.2-1.8-2.1-3.6c0.2-1.8,1.9-3.2,3.9-2.8c1.7,0.4,3,2.2,2.6,4
		c-0.4,1.8-2.2,2-2.1,3.4c0.1,1.4,0,5.7,1.8,3.5c1.5-1.9,3.7-3.3,6.3-4c3-0.9,6.3-3.4,6.1-5c-0.2-1.5-0.5-3.9,2.4-5.1
		c2.4-0.9,4.8,1,4.8,3.2c0,2.5-1.7,4-3.7,3.9c-1.8-0.1-2.2-0.6-3.3,0.4c-1.1,1-2.3,2.5-5.8,3.7c-2.2,0.8-4.1,2.2-6.2,4.4
		c-1,1.1-1.4,2.2-2.3,6c-0.8,3.2-2,5.5-2.3,9.2c-0.1,1.5,0.1,2,1,2.7c1.1,0.8,0.8,1.8,2.6,0.9c2.3-1.2,6.3-5.1,6.2-6.4
		c-0.1-1.3-1.3-2.2-0.4-4.4c0.9-2.3,5.4-2.8,6.4,0.7c0.6,2.2-0.6,4.3-3,4.5c-2.1,0.2-1.9,1.1-4,3.3c-2.1,2.2-3.7,3.6-5.1,4.3
		c-1.3,0.8-0.9,1.5-1.7,2.4c-0.8,1-1.1,1.7-1,3.8c0,3.1,0.4,2.9,2.1,3.9c1.8,1,2.4,1.4,3.1,1.9c1.2,0.9,0.8,1.7-1,1
		c-1.9-0.7-3.2-2.2-5.1-1.8c-1.5,0.3-3.8,1.8-4.7,1.9C134.8,58.5,134.5,57.8,135.8,57z"/>
	<path class="st6" d="M151.2,80.3c-1.1-0.1-1.4,0.1-2.7,0.1c-1.3,0-2.1-1.4-2.7-3.7c-0.6-2-1.4-3.6-0.1-4.3c1.7-0.9,2.8-2.3,3.4-3.5
		c0.7-1.5,1-3.5,1.1-5.4c0-3.1-3.2-2-9.2-2.1c-6.3-0.1-8.5-0.9-9,1.8c-0.4,1.9,0.3,4.4,1.1,6c0.9,1.8,2.4,2.3,3.7,3.1
		c1.3,0.8,0.6,2.5,0.1,4.5c-0.7,2.7-1.2,3.7-2.6,3.6c-1.2-0.1-1.6-0.1-2.8,0c-1.4,0.1-0.9,1.7,0.4,1.6c0.5,0,17.5-0.1,19.2-0.3
		C152.9,81.7,152.6,80.4,151.2,80.3z M137.9,70.7c-3.1-1.1-3.7-3.7-3.5-5.4c0.2-2.3,2.6-2.1,7.5-1.9c5.4,0.1,7,0.2,5.6,4.8
		C146.8,70.5,142,72.1,137.9,70.7z M138.3,78.4c0.2-1.8,0.5-4.1,1.6-5c0.8-0.7,2-0.6,2.9-0.1c1.2,0.6,1.7,3.8,2,5.3
		c0.3,1.4-0.9,2-3.2,2C139,80.5,138,80.1,138.3,78.4z"/>
	<path class="st1" d="M156.4,42.7c1.2,1.8,5.6,5.9,3.5,8.6c-1.7,2.2-4.1,2.8-6.6,1.5c-2.7-1.5-3.5-2.4-4.3-2.4
		c-0.7,0-1.4,0.7,0.2,1.9c2.4,1.8,5.2,3.5,7.8,3.1c3.6-0.5,5.2-3.8,5.6,1.9c0.3,5.5,0.9,13-0.7,19.3c-0.5,2.1-1.8,4.9-3.4,7.6
		c-1.8,2.9,0,3.9,1.8,0.9c4.6-7.3,5-13.4,4.6-21.5c-0.4-8-1-12-0.5-14.4c0.5-2.4,1.7-3.2,2-8.3c0.2-3.7,0.1-5.3-0.9-5.3
		c-1,0.1-0.5,1.8-0.5,3.7c0,2-0.3,4.4-1.3,5.9c-1,1.5-2.1,1-3.7-1.3c-0.5-0.8-1.4-1.8-2-2.4C156.6,40.2,155.2,40.8,156.4,42.7z"/>
	<path class="st1" d="M158.5,62.8c0.5-0.5,1.6-0.7,0.8,0.8c-0.8,1.5-2,3-2.7,4c-1.1,1.4-2.5,0.2-1.4-1.1
		C156.4,65.2,157.7,63.6,158.5,62.8z"/>
	<path class="st1" d="M5,28.6c-0.7-2.1-2.3-3.4-4-2.2c-1.7,1.1-1.1,3.4,0.7,4.4C3.4,31.9,5,31.9,5.7,32c0.8,0,1-0.6,0.5-1
		C5.6,30.4,5.3,29.5,5,28.6z"/>
	<path class="st1" d="M5.6,39.7c-1.7-1-3.8-0.7-4.3,1.2c-0.5,1.9,1,3.5,3.5,3.9c4.6,0.8,4.6-0.2,4-1.1C8,42.5,7,40.6,5.6,39.7z"/>
	<path class="st1" d="M9.9,70.5c-2.1,0.4-4.3-0.1-6.6,0.5c-2.7,0.8-2.8,4.1-0.3,4.8c2.4,0.7,4.6-0.7,6.4-2.4
		C11.1,71.7,11.4,70.2,9.9,70.5z"/>
	<path class="st6" d="M37.5,91.9c0-0.4,0.5-0.4,0.9-0.4c0.4,0,0.8,0,1.3,0.1c1.2,0.1,2.3,0.1,3.4,0.1c0.2,0,0.4,0,0.6,0
		c0.7,0,0.9,0.5,0.6,0.9c-0.1,0.2-0.3,0.4-0.4,0.6c-0.5,0.8-1.2,1.7-1.9,2.7c-0.7,1.1-1.4,2-2,2.9c-0.2,0.3-0.4,0.5-0.5,0.7
		c-0.3,0.4,0.1,0.7,0.5,0.7c0.4,0,1,0,1.7,0c0.7,0,1.3,0,1.9,0c0.6,0,1,0.3,1,0.6c0,0.4-0.4,0.5-1,0.5c-0.2,0-0.5,0-0.8,0
		c-1,0-1.6,0-1.8,0c-0.2,0-0.8,0-2,0c-0.4,0-0.8,0-1.1,0c-0.5,0-0.7-0.5-0.3-0.9c0.1-0.1,0.2-0.2,0.3-0.4c0.5-0.7,1.1-1.6,2-2.9
		c0.9-1.3,1.6-2.3,2.1-3.1c0.2-0.4,0.4-0.7,0.6-0.9c0.2-0.3,0-0.5-0.3-0.5c-0.3,0-0.8,0-1.3,0c-1.1,0-1.9,0-2.4-0.1
		C37.9,92.5,37.5,92.4,37.5,91.9z"/>
	<path class="st6" d="M12.1,101c-0.4-0.3-0.3-0.8-0.1-1.2c0.1-0.2,1.4-2.8,2.3-4.4c0.8-1.6,1.4-2.7,1.7-3.3c0.3-0.6,0.9-0.5,1.2,0
		c0.2,0.3,0.3,0.6,0.5,0.9c0.5,0.9,1.1,1.9,1.7,3.1c0.6,1.1,1.1,2.1,1.6,2.9c0.1,0.3,0.3,0.5,0.4,0.7c0.2,0.4,0.4,1,0,1.2
		c-0.5,0.3-0.9-0.1-1.2-0.7c-0.3-0.5-0.9-1.8-1-1.9c-0.2-0.3-0.4-0.5-0.8-0.5L14.7,98c-0.5,0-0.7,0.3-0.8,0.5
		c-0.1,0.3-0.8,1.9-0.9,2C12.8,101.1,12.4,101.2,12.1,101z M14.6,97.1l3.8-0.2c-0.1-0.3-1.4-2.7-1.6-3c-0.2-0.4-0.5-0.4-0.7-0.1
		C16.1,94,14.7,97.1,14.6,97.1z"/>
	<path class="st6" d="M0.6,101.1c-0.5,0-0.6-0.6-0.6-1c0-0.2,0-1.3,0-4.5c0-1.5,0-2.2,0-2.8c0-0.6,0.1-1.1,0.6-1.1
		c0.5,0,0.7,0.5,0.7,1.1c0,0.4,0,1.2,0,2.2c0,0.9,0,1,1,1l3.9-0.2c0.9-0.2,1,0.1,1-1.1c0,0,0-1.9,0-2.1c0-0.4,0.1-0.8,0.7-0.9
		c0.5,0,0.7,0.4,0.7,0.8c0,0.3-0.1,1.5-0.1,3.5c0,2.5,0,4,0,4.2c0,0.6-0.1,1-0.6,1c-0.5,0-0.7-0.4-0.7-0.9c0-0.5,0-1.6,0-2.3
		c0-0.5,0.2-1.2-0.8-1.3l-4.3,0.2c-0.7,0-0.9,0.2-0.9,0.9c0,0.2,0,2.3,0,2.4C1.3,100.7,1.1,101.1,0.6,101.1z"/>
	<path class="st6" d="M25.3,101.2c-0.6,0-0.6-0.6-0.6-1.1c0-0.2,0-0.3,0-0.5c0-0.8,0.1-1.8,0.1-3c0.1-1.2,0.1-2.7,0.2-3.9
		c0-0.7,0.6-0.9,1.1-0.4c0.2,0.2,0.3,0.3,0.5,0.6c1,1,1.8,1.9,2.6,2.7c0.8,0.8,1.4,1.5,2,2.1c0.6,0.6,0.9,1,1.1,1.1
		c0-0.3,0-0.7,0-1.2c0-0.5,0-1.4,0-2.4c0-1.1,0-1.9,0-2.4c0-0.5,0.1-1,0.6-1c0.5,0,0.6,0.6,0.6,1.1c0,0.1,0,0.2,0,0.4
		c0,0.7-0.1,1.5-0.1,2.3c0,0.8-0.1,1.8-0.1,3c0,0.7,0,1.3-0.1,1.8c0,0.4-0.4,0.8-0.8,0.3c-0.2-0.2-0.4-0.4-0.6-0.7
		c-0.8-0.9-1.7-1.8-2.6-2.7c-0.9-1-1.7-1.7-2.3-2.4c-0.6-0.6-0.9-1-1-1.1h0c0,0.3,0,0.7,0,1.2c0,0.5,0,1.2,0,2.2c0,1,0,1.8,0,2.5
		c0,0.2,0,0.3,0,0.5C25.9,100.6,25.8,101.2,25.3,101.2z"/>
	<path class="st6" d="M49.6,95.6V97c0,0.3,0,0.8,0,1.3c0,0.5,0,0.9,0,1.3c0,0.3,0,0.5,0,0.7c0,0.3,0,0.8-0.6,0.8
		c-0.6,0-0.7-0.6-0.7-0.9c0-0.3,0-0.5,0-0.8c0-0.9,0-1.6,0-2.3v-1.4c0,0,0-0.3,0-1c0-0.7,0-1.3,0-1.8c0-0.6,0.1-1.1,0.6-1.1
		c0.6,0,0.6,0.5,0.6,1.1c0,0.1,0,0.3,0,0.4C49.6,94.1,49.6,94.9,49.6,95.6z"/>
	<path class="st6" d="M137,101.4c-0.5,0-0.7-0.4-0.7-0.9c0-0.2,0.1-1.9,0.1-3.7c0-1.4,0-3.1,0-3.1c0-0.6-0.2-0.7-0.7-0.7
		c-0.2,0-2.1,0-2.3,0.1c-0.1,0-0.7,0-0.7-0.5c0-0.4,0.3-0.5,0.7-0.5c0.3,0,2.9,0.1,3.2,0.1h1.2c0.3,0,2.6-0.1,2.8-0.1
		c0.5,0,0.9,0,0.9,0.5c0,0.6-0.8,0.5-1,0.5c-0.2,0-1.9,0-2.1,0c-0.5,0-0.7,0.1-0.7,0.7c0,0,0,1.2,0,3.5c0,1.5,0.1,3,0.1,3.3
		C137.6,100.9,137.5,101.4,137,101.4z"/>
	<path class="st6" d="M145.4,93.7c0,1.3,0,4.5,0,6.7c0,0.2,0,1.1-0.7,1c-0.5,0-0.6-0.4-0.6-1.2c0-0.3,0-2.9,0-3.8c0,0,0-3.2,0-3.4
		c0-0.8,0.4-1.2,1.1-1.2c0.6,0,1.1,0.1,1.6,0.1c0.9,0.1,1.6,0.3,2.1,0.7c0.5,0.4,0.7,0.8,0.7,1.4c0,0.9-0.7,1.7-1.6,2.5
		c-0.4,0.3-0.3,0.5-0.1,0.8c0.7,0.9,2.4,2.7,2.4,2.7c0.3,0.3,0.4,0.8,0,1.1c-0.3,0.2-0.7,0.1-1-0.3c-0.3-0.4-2.3-3.1-2.4-3.2
		c-0.6-0.8,0.1-1.2,0.3-1.4c0.2-0.1,0.3-0.3,0.5-0.4c0.4-0.4,0.6-0.9,0.6-1.5c0-0.4-0.5-1.4-2.2-1.4C145.7,93,145.4,93.2,145.4,93.7
		z"/>
	<path class="st6" d="M158.9,101c0,0.5-0.4,0.5-1,0.5c-0.3,0-0.7,0-1.2,0c-0.6,0-1,0-1.4,0c-0.5,0-0.9-0.5-0.9-1c0-0.5,0-1,0-1.6
		c0-0.6,0-1,0-1.4v-1.8c0-0.1,0-0.7,0-1.8c0-0.4,0-0.7,0-1c0-0.5,0.2-1,0.8-1c0.6,0,1.5-0.1,2.2-0.1c0.1,0,0.3,0,0.4,0
		c0.5,0,0.9,0.1,0.9,0.5c0,0.5-0.5,0.5-0.8,0.6c-0.3,0-0.7,0-1,0c-0.3,0-0.6,0-0.7,0c-0.3,0-0.5,0.1-0.5,0.4c0,0,0,2.5,0,2.5
		c0,0.4,0.1,0.5,0.5,0.5c0.2,0,1.1,0,1.3,0c0.4,0,0.8,0,0.8,0.4c0,0.4-0.4,0.4-0.8,0.4c-0.2,0-1.1,0-1.3,0c-0.3,0-0.5,0-0.5,0.5v2.5
		c0,0.3,0.1,0.4,0.3,0.4c0.1,0,0.2,0,0.4,0c0.1,0,0.3,0,0.6,0c0.3,0,0.7,0,0.9,0C158.2,100.4,158.9,100.5,158.9,101z"/>
	<path class="st6" d="M167.6,101c0,0.5-0.4,0.5-1,0.5c-0.3,0-0.7,0-1.2,0c-0.6,0-1,0-1.4,0c-0.5,0-0.9-0.5-0.9-1c0-0.5,0-1,0-1.6
		c0-0.6,0-1,0-1.4v-1.8c0-0.1,0-0.7,0-1.8c0-0.4,0-0.7,0-1c0-0.5,0.2-1,0.8-1c0.6,0,1.5-0.1,2.2-0.1c0.2,0,0.3,0,0.4,0
		c0.5,0,0.9,0.1,0.9,0.5c0,0.5-0.5,0.5-0.8,0.6c-0.3,0-0.7,0-1,0c-0.3,0-0.6,0-0.7,0c-0.3,0-0.5,0.1-0.5,0.4c0,0,0,2.5,0,2.5
		c0,0.4,0.1,0.5,0.5,0.5c0.2,0,1.1,0,1.3,0c0.4,0,0.8,0,0.8,0.4c0,0.4-0.4,0.4-0.8,0.4c-0.2,0-1.1,0-1.3,0c-0.3,0-0.5,0-0.5,0.5v2.5
		c0,0.3,0.1,0.4,0.3,0.4c0.1,0,0.2,0,0.4,0c0.1,0,0.3,0,0.6,0c0.3,0,0.7,0,0.9,0C167,100.4,167.6,100.5,167.6,101z"/>
	<path class="st1" d="M56.2,105.4c-3.7-1-9.9,0.1-14.7,1c-4.5,0.8-8.5,2-12.2-1.6c-0.7-0.7-1-0.1-0.5,0.5c2.9,2.8,5.2,3.6,12.3,2.1
		c8-1.7,11.6-1.7,14.5-1.2c2.9,0.5,3.3,2.7,3,4.4c-0.3,1.8-2.4,1.4-3.3,1.4c-2,0-2.3-1.6-1.8-2.5c0.3-0.5-0.2-0.6-0.4-0.3
		c-0.4,0.5-0.7,1.6-0.1,2.5c0.8,1.3,2,1.3,4.4,1.1c1-0.1,2.1-0.9,2-3.5C59.4,106.6,58.1,105.9,56.2,105.4z"/>
	<path class="st1" d="M107.3,105.4c3.7-1,11.5,0.1,16.3,1c4.5,0.8,11.9,2,15.6-1.6c0.7-0.7,1-0.1,0.5,0.5c-2.9,2.8-8.6,3.6-15.7,2.1
		c-8-1.7-13.3-1.7-16.1-1.2c-2.9,0.5-3.3,2.7-3,4.4c0.3,1.8,2.4,1.4,3.3,1.4c2,0,2.3-1.6,1.8-2.5c-0.3-0.5,0.2-0.6,0.4-0.3
		c0.4,0.5,0.7,1.6,0.1,2.5c-0.8,1.3-2,1.3-4.4,1.1c-1-0.1-2.1-0.9-2-3.5C104.2,106.6,105.4,105.9,107.3,105.4z"/>
</g>
<path class="st7" d="M193.2,18.4c-7,0-12.7,5.7-12.7,12.7v47.8l-0.3,4.3l0.3,6.7v3c0,7,5.7,12.7,12.7,12.7c7,0,12.7-5.7,12.7-12.7
	V31.1C205.9,24.1,200.2,18.4,193.2,18.4z"/>
<path class="st8" d="M191.2,15.2c-7,0-12.7,5.7-12.7,12.7v47.8l-11,5.7l11,5.3v3c0,7,5.7,12.7,12.7,12.7c7,0,12.7-5.7,12.7-12.7
	V27.9C203.9,20.9,198.2,15.2,191.2,15.2z"/>
<text transform="matrix(1 0 0 1 191.2241 23.3457)" class="st9 st10 st11 st12">索引系統</text>
</svg>
