<?xml version="1.0" encoding="utf-8"?>
<!-- Generator: Adobe Illustrator 20.1.0, SVG Export Plug-In . SVG Version: 6.00 Build 0)  -->
<svg version="1.1" id="圖層_1" xmlns="http://www.w3.org/2000/svg" xmlns:xlink="http://www.w3.org/1999/xlink" x="0px" y="0px"
	 viewBox="0 0 49.8 48.8" style="enable-background:new 0 0 49.8 48.8;" xml:space="preserve">
<style type="text/css">
	.st0{fill:#FFFFFF;}
	.st1{fill:#6A3906;}
</style>
<g>
	<circle class="st0" cx="24.4" cy="25.1" r="13.8"/>
	<path class="st1" d="M24.4,39.9c-8.2,0-14.8-6.6-14.8-14.8c0-8.2,6.6-14.8,14.8-14.8S39.2,17,39.2,25.1
		C39.2,33.3,32.5,39.9,24.4,39.9z M24.4,12.4c-7,0-12.8,5.7-12.8,12.8c0,7,5.7,12.8,12.8,12.8c7,0,12.8-5.7,12.8-12.8
		C37.2,18.1,31.4,12.4,24.4,12.4z"/>
</g>
<g>
	<path class="st1" d="M18.2,20.8c0-0.8,0.2-1.6,0.7-2.4c0.5-0.8,1.2-1.5,2.2-2c1-0.5,2.1-0.8,3.3-0.8c1.2,0,2.2,0.2,3.2,0.6
		c0.9,0.4,1.6,1,2.1,1.8c0.5,0.7,0.8,1.6,0.8,2.4c0,0.7-0.1,1.3-0.4,1.8c-0.3,0.5-0.6,1-1,1.4c-0.4,0.4-1.1,1-2.1,2
		c-0.3,0.3-0.5,0.5-0.6,0.7c-0.2,0.2-0.3,0.4-0.4,0.5c-0.1,0.2-0.1,0.3-0.2,0.5c0,0.2-0.1,0.4-0.2,0.8c-0.1,0.9-0.6,1.3-1.4,1.3
		c-0.4,0-0.8-0.1-1.1-0.4c-0.3-0.3-0.5-0.7-0.5-1.2c0-0.7,0.1-1.3,0.3-1.8c0.2-0.5,0.5-1,0.8-1.3c0.3-0.4,0.8-0.8,1.4-1.4
		c0.5-0.5,0.9-0.8,1.1-1.1c0.2-0.2,0.4-0.5,0.6-0.8c0.2-0.3,0.2-0.6,0.2-0.9c0-0.6-0.3-1.2-0.8-1.6c-0.5-0.4-1.1-0.7-1.9-0.6
		c-0.9,0-1.6,0.2-2,0.7c-0.4,0.5-0.8,1.1-1.1,2c-0.3,0.9-0.8,1.4-1.6,1.4c-0.5,0-0.8-0.1-1.2-0.5C18.4,21.5,18.3,21.1,18.2,20.8z
		 M24.5,34.1c-0.5,0-0.9-0.1-1.3-0.5c-0.4-0.3-0.6-0.8-0.6-1.3c0-0.5,0.2-1,0.5-1.3c0.4-0.4,0.8-0.5,1.3-0.6c0.5,0,1,0.2,1.3,0.5
		c0.4,0.3,0.5,0.8,0.6,1.3c0,0.6-0.2,1-0.5,1.4C25.4,33.9,25,34.1,24.5,34.1z"/>
</g>
</svg>
