<?xml version="1.0" encoding="utf-8"?>
<!-- Generator: Adobe Illustrator 20.1.0, SVG Export Plug-In . SVG Version: 6.00 Build 0)  -->
<svg version="1.1" id="圖層_1" xmlns="http://www.w3.org/2000/svg" xmlns:xlink="http://www.w3.org/1999/xlink" x="0px" y="0px"
	 viewBox="0 0 300 300" style="enable-background:new 0 0 300 300;" xml:space="preserve">
<style type="text/css">
	.st0{fill:#C16F2D;}
	.st1{fill:#FFFFFF;}
</style>
<path class="st0" d="M300,150c0,82.8-67.2,150-150,150C67.2,300,0,232.8,0,150C0,67.2,67.2,0,150,0C232.8,0,300,67.2,300,150z"/>
<g>
	<path class="st1" d="M157.2,24.2c-4-5.4-10.6-5.4-14.6,0c-29.8,40.4-59.5,80.7-89.3,121.1c-3.9,5.3,1.4,12.7,7.3,12.7
		c17.9,0,35.7,0,53.6,0c0,22.5,0,45,0,67.5c0,4.6,3.8,8.4,8.4,8.4c18.2,0,36.3,0,54.5,0c4.6,0,8.4-3.8,8.4-8.4c0-22.5,0-45,0-67.5
		c17.9,0,35.7,0,53.6,0c3,0,5.2-1.3,6.5-3.2c2.5-2.3,3.5-5.9,0.8-9.5C216.7,104.9,186.9,64.6,157.2,24.2z M177.1,141.1
		c-4.6,0-8.4,3.9-8.4,8.4c0,22.5,0,45,0,67.5c-12.5,0-25.1,0-37.7,0c0-22.5,0-45,0-67.5c0-4.6-3.8-8.4-8.4-8.4
		c-15.1,0-30.3,0-45.4,0c24.2-32.8,48.4-65.7,72.6-98.5c24.2,32.8,48.4,65.7,72.6,98.5C207.4,141.1,192.3,141.1,177.1,141.1z"/>
	<path class="st1" d="M176.4,243.1c-17.6,0-35.2,0-52.8,0c-8.4,0-8.4,13,0,13c17.6,0,35.2,0,52.8,0
		C184.8,256.1,184.8,243.1,176.4,243.1z"/>
</g>
</svg>
