<?xml version="1.0" encoding="utf-8"?>
<!-- Generator: Adobe Illustrator 20.1.0, SVG Export Plug-In . SVG Version: 6.00 Build 0)  -->
<svg version="1.1" id="圖層_1" xmlns="http://www.w3.org/2000/svg" xmlns:xlink="http://www.w3.org/1999/xlink" x="0px" y="0px"
	 viewBox="0 0 300 300" style="enable-background:new 0 0 300 300;" xml:space="preserve">
<style type="text/css">
	.st0{fill:#C16F2D;}
	.st1{fill:#FFFFFF;}
</style>
<g>
	<path class="st0" d="M300,150c0,82.8-67.2,150-150,150C67.2,300,0,232.8,0,150C0,67.2,67.2,0,150,0C232.8,0,300,67.2,300,150z"/>
	<g>
		<path class="st1" d="M112.8,96.6c0,11.1,0,22.1,0,33.2c0,3.4-2.8,6.2-6.2,6.2c-16.5,0-32.9,0-49.4,0c0,9.2,0,18.4,0,27.6
			c16.5,0,32.9,0,49.4,0c3.4,0,6.2,2.8,6.2,6.2c0,11.1,0,22.1,0,33.2c24-17.7,48-35.4,72.1-53.1C160.8,132.1,136.8,114.4,112.8,96.6
			z"/>
		<path class="st1" d="M84.8,176.7l0,56.2h135.5V66.7H84.8V123H64.3V66.7c0-11.3,9.2-20.5,20.4-20.5h135.5
			c11.3,0,20.5,9.2,20.5,20.5v166.2c0,11.3-9.2,20.5-20.5,20.5H84.8c-11.3,0-20.4-9.2-20.4-20.5v-56.2H84.8z"/>
		<rect x="42.6" y="136" class="st1" width="10.4" height="27.7"/>
	</g>
</g>
</svg>
