<?xml version="1.0" encoding="utf-8"?>
<!-- Generator: Adobe Illustrator 20.1.0, SVG Export Plug-In . SVG Version: 6.00 Build 0)  -->
<svg version="1.1" id="圖層_1" xmlns="http://www.w3.org/2000/svg" xmlns:xlink="http://www.w3.org/1999/xlink" x="0px" y="0px"
	 viewBox="0 0 300 300" style="enable-background:new 0 0 300 300;" xml:space="preserve">
<style type="text/css">
	.st0{fill:#C16F2D;}
	.st1{fill:#FFFFFF;}
</style>
<path class="st0" d="M300,150c0,82.8-67.2,150-150,150C67.2,300,0,232.8,0,150C0,67.2,67.2,0,150,0C232.8,0,300,67.2,300,150z"/>
<path class="st1" d="M189,138.3c15.3-11.7,24.9-29.5,25.7-49.7c1-24.8-13.9-48.4-35.7-59.5c-23-11.7-50.1-7.7-70.1,8
	c-20,15.6-27.6,43.1-21.3,67.2c3.7,13.9,12.2,25.6,23.3,34.1c-37.5,17.9-59.7,58.7-63.7,99.7c-1,10.2,15,10.2,16,0
	c3.9-39.7,28.3-79.7,68.5-90.4c8.3-2.2,6.9-12.7,0-15.4c-22.1-8.9-34.4-33.1-29.3-56.1c4.9-22.2,25.2-37.6,47.6-37.9
	c22.8-0.3,42.2,16.2,47.6,37.9c5.7,22.9-7.6,47.4-29.3,56.1c-6.9,2.8-8.3,13.2,0,15.4c40.3,10.8,64.7,50.7,68.5,90.4
	c1,10.2,17,10.2,16,0C248.8,197,226.6,156.3,189,138.3z"/>
</svg>
