<?xml version="1.0" encoding="utf-8"?>
<!-- Generator: Adobe Illustrator 20.1.0, SVG Export Plug-In . SVG Version: 6.00 Build 0)  -->
<svg version="1.1" id="圖層_1" xmlns="http://www.w3.org/2000/svg" xmlns:xlink="http://www.w3.org/1999/xlink" x="0px" y="0px"
	 viewBox="0 0 200 150" style="enable-background:new 0 0 200 150;" xml:space="preserve">
<style type="text/css">
	.st0{opacity:0.6;fill:url(#SVGID_1_);}
	.st1{fill:#51AD6F;}
	.st2{fill:#FFFFFF;}
	.st3{opacity:0.6;fill:url(#SVGID_2_);}
	.st4{fill-rule:evenodd;clip-rule:evenodd;fill:#FFFFFF;}
	.st5{fill:#F8EFE3;}
	.st6{opacity:0.3;fill:#FFFFFF;}
	.st7{fill:#978478;}
	.st8{fill:#C5AEA0;}
	.st9{fill:#90887F;}
	.st10{fill:#8F8A80;}
	.st11{fill:#AE9A8B;}
	.st12{fill:#D1BBAD;}
	.st13{fill:#DFD1B3;}
	.st14{fill:#E6D7B8;}
	.st15{fill:#EFE1C0;}
	.st16{fill:#CCBA96;}
	.st17{fill:#D6CAB0;}
	.st18{fill:#C1AA89;}
	.st19{fill:#DBCCAC;}
	.st20{fill:#D1816F;}
	.st21{fill:#5C5D5D;}
	.st22{fill:#D7C2B6;}
	.st23{fill:#EEE1C6;}
	.st24{fill:#B1A18C;}
</style>
<g>
	<radialGradient id="SVGID_1_" cx="56.1256" cy="52.1213" r="49.5238" gradientUnits="userSpaceOnUse">
		<stop  offset="5.263160e-02" style="stop-color:#CADDBC"/>
		<stop  offset="0.9105" style="stop-color:#FFFFFF;stop-opacity:0"/>
	</radialGradient>
	<ellipse class="st0" cx="56.1" cy="52.1" rx="51" ry="48"/>
	<g>
		<g>
			<path class="st1" d="M52.5,72.6c-2.7,0-5.6-0.2-8.8-2c-4.7-2.6-9.1-7.9-8.2-12.3c0.3-1.7,0.8-2.8,1.3-3.9
				c0.8-1.9,1.6-3.7,1.6-7.9c0-8.5,5-11.7,14.7-15l0.1,0c2.1-0.7,3.7-1.2,5.2-1.2c2.6,0,4.8,1.7,7.4,5.7c2.1,3.2,4.1,4.8,6,6.2
				c2.2,1.7,4,3,4.7,6.4c1.2,5.8-0.4,16.1-5.7,19.1c-4,2.2-9.7,4.9-14.3,4.9c-0.6,0-1.3,0-2,0C53.9,72.6,53.2,72.6,52.5,72.6z"/>
			<path class="st2" d="M58.5,30.5c2.4,0,4.4,1.3,7.2,5.6c4.6,7.1,9.4,6.4,10.6,12.5c1.2,6-0.6,16-5.6,18.8
				c-5,2.8-10.2,4.9-14.1,4.9c-1.3,0-2.7,0.1-4,0.1c-2.7,0-5.6-0.3-8.6-1.9c-4.6-2.5-8.9-7.7-8.1-12.1c0.8-4.4,2.9-5,2.9-11.8
				c0-6.9,2.7-10.8,14.5-14.8C55.2,31.1,56.9,30.5,58.5,30.5 M58.5,30L58.5,30c-1.6,0-3.2,0.5-5.3,1.2l-0.1,0
				c-12.5,4.2-14.9,8.6-14.9,15.2c0,4.2-0.8,5.9-1.6,7.8c-0.5,1.1-1,2.3-1.3,4c-0.9,4.6,3.6,10,8.4,12.6c3.2,1.8,6.3,2,8.9,2
				c0.7,0,1.4,0,2.1,0c0.7,0,1.3,0,2,0c4.6,0,10.4-2.7,14.4-5c5.4-3,7.1-13.5,5.9-19.3C76,45,74.2,43.6,72,42
				c-1.8-1.4-3.9-3-5.9-6.1C63.4,31.7,61.2,30,58.5,30L58.5,30z"/>
		</g>
		<radialGradient id="SVGID_2_" cx="61.6678" cy="54.4761" r="33.2124" gradientUnits="userSpaceOnUse">
			<stop  offset="0" style="stop-color:#51AD6F"/>
			<stop  offset="1" style="stop-color:#FFFFFF"/>
		</radialGradient>
		<path class="st3" d="M53.2,31.8c5.2-1.7,7.9-2.7,12.5,4.4s9.4,6.4,10.6,12.5s-0.6,16-5.6,18.8c-5,2.8-10.2,4.9-14.1,4.9
			s-8.1,0.6-12.7-1.9c-4.6-2.5-8.9-7.7-8.1-12.1c0.8-4.4,2.9-5,2.9-11.8S41.3,35.7,53.2,31.8z"/>
	</g>
	<g>
		<polygon class="st4" points="56.2,40.7 45.9,47.8 46.4,49.1 47.5,48.4 47.5,61.1 48.5,61.2 48.5,47.4 56.1,42.3 63.7,47.7 
			63.8,61 64.7,61 64.8,48.2 65.8,48.9 66.4,47.8 		"/>
		<ellipse class="st4" cx="54.7" cy="48.4" rx="0.3" ry="0.3"/>
		<ellipse class="st4" cx="56.5" cy="48.5" rx="0.3" ry="0.3"/>
		<path class="st4" d="M55.5,50.1c-0.2,0-0.5-0.2-0.7-0.1c0.2,0,0.3,0.5,0.7,0.4c0.4,0,0.6-0.5,0.8-0.5C56,49.9,55.8,50.1,55.5,50.1
			z"/>
		<path class="st4" d="M60.9,52.7c-0.4,0.2-1.9,0.5-2.9,0.3c-0.4-0.1-0.3-0.3-1.1-0.3L56.8,52c1.1-0.4,1.9-1.5,1.9-3.3
			c0-1.8-1.1-3.3-3.3-3.3c-2.1,0-3.2,1.3-3.1,3.4c0,1.5,0.9,3.1,2.3,3.3l0,0.6c-2.1-0.1-2.9,0-4.5,1.2c-1.5,1.1-0.7,3,0.1,2.1
			c1.4-1.6,2.7-1.4,3.7-1.2c0.9,1.7-0.2,5-1.8,5.6c-1.9,0.7-0.2,2.1,1.7,1.7c3.8-0.9,4.5-4.4,4.4-7c0.8,0,2.7-0.1,4-1.1
			C63.7,52.8,62.7,51.5,60.9,52.7z M55.5,51.1c-1.6,0-2.2-1.3-2.1-2.4c0-1.3,0.8-2.2,2-2.2c1.4,0,2.2,0.8,2.3,2.2
			C57.7,49.5,57.2,51.1,55.5,51.1z"/>
	</g>
</g>
<g>
	<g>
		<path class="st5" d="M146.9,145.8c-0.4,0-0.7-0.1-1-0.4c-0.2-0.2-0.4-0.5-0.4-0.8c-0.2,0.1-0.3,0.1-0.5,0.1
			c-0.2,0-0.5-0.1-0.7-0.2c-0.5-0.3-0.7-0.8-0.7-1.4c0.1-0.4,0.2-0.7,0.4-1c-0.4,0-0.8,0.2-1.4,0.7c-0.2,0.2-0.6,0.3-0.9,0.3
			c-0.3,0-0.7-0.1-1-0.4c-0.5-0.5-0.5-1.3-0.1-1.8c0.9-1.2,1.9-2.2,3.1-2.8c-0.2,0-0.3-0.1-0.5-0.1c-0.3,0-0.7,0-1,0
			c-1.6,0-3.2-0.2-4.6-0.7c-0.2,0-0.4,0-0.7,0c-0.7,0-1.4,0-2.3,0.1c-3.5,0.3-8.5,2.2-10.4,3.2c-0.2,0.1-0.4,0.2-0.7,0.2
			c-0.3,0-0.6-0.1-0.9-0.3c-0.4-0.4-0.6-0.9-0.4-1.5c0.2-0.5,0.4-0.9,0.8-1.3c-0.4-0.3-0.5-0.8-0.4-1.3c0.1-0.4,0.2-0.7,0.4-1
			c-0.1-0.1-0.2-0.3-0.3-0.4c-0.2-0.6,0-1.3,0.5-1.6c1.8-1.2,2.3-1.4,3.7-1.8l0.3-0.1c0.5-0.6,1.3-1,2.3-1.2c-0.3-0.6-0.5-1.3-0.7-2
			c0,0,0,0-0.1,0.1c-0.3,0.2-0.6,0.4-0.9,0.4c-0.3,0-0.5-0.1-0.8-0.3c-0.1-0.1-3.1-2.2-4.4-5.1c-1.1-2.4-1.5-5.3-1.6-6.3l0-0.2
			c-0.1-0.4,0-1,0.2-3l0.1-0.9c0-0.4,0-0.6-0.1-0.9c-0.2-0.8-0.4-1.5,0.2-2.9c0.2-0.6,0.4-1.1,0.6-1.6c0.4-1.2,0.9-2.5,2-4.5
			l0.2-0.3c0.5-1.1,1-2.1,1.7-3.2c-0.7-0.9-1.2-1.5-1.2-1.6c-0.4-0.6-0.2-1.3,0.3-1.8l2.7-2.2c0.2-0.4,0.7-1.4,1.7-3.4
			c0.7-1.5,1.7-2.6,2.7-3.4c-4.7-0.8-10.4-2.9-13.7-4.7c-1.6-0.8-2.7-1.7-3.4-2.4c-1.3-0.1-4.1-0.4-5.8-1c-1.9-0.7-2.7-3.4-2.4-5.4
			c0.3-1.8,1.6-2.8,3.2-2.8c0.7,0,1.8,0.1,5.4,4.6c0,0,1.1,1.4,1.2,1.5c0.8,0,2.1-0.4,5.7-2.4c1.4-0.8,2.8-1.9,4-3.2
			c-0.7-1.5-1-3-1-4.5c0-1.3,0.2-2.5,0.7-3.8c-2.1-0.6-3.7-1.3-4.9-2c-1.6-1-3-2.2-2.8-3.7c0.2-1.8,2.4-2.8,7-4.3l7.5-1.8
			c1.2-1.5,5.5-6.7,10.4-8c2.4-0.7,4.7-1,6.9-1c4.2,0,7.9,1.3,10.8,3.8c4.3,3.6,6.8,8,7.6,9.5c0.9,0.3,2.7,1.1,4.5,2
			c1.3-2.4,2.9-4.9,4.7-7.3c0.3-0.3,0.7-0.5,1.1-0.5c0.2,0,0.4,0.1,0.7,0.2c0.6,0.3,0.8,1,0.6,1.6c-0.8,2.3-1.8,5.3-2.8,8.8
			c0,0,0.1,0.1,0.1,0.1c0.2-0.2,0.3-0.3,0.5-0.5c3.3-3.4,8.6-6.8,8.9-6.9c0.2-0.1,0.5-0.2,0.7-0.2c0.4,0,0.8,0.2,1.1,0.5
			c0.4,0.5,0.4,1.3-0.1,1.8c0,0-4.8,4.8-6.5,7.7c-0.3,0.5-0.6,1.1-0.8,1.7c0.9-0.8,1.8-1.5,2.9-2.1c3.2-1.8,7.8-3.4,8-3.5
			c0.1-0.1,0.3-0.1,0.5-0.1c0.5,0,1,0.3,1.2,0.7c0.3,0.6,0.1,1.4-0.5,1.7c-0.1,0-4.9,3.3-6.8,5.3c-0.1,0.1-0.2,0.2-0.3,0.3
			c2.9-1.2,7.8-2.4,8-2.4c0.1,0,0.2,0,0.3,0c0.5,0,1.1,0.3,1.3,0.9c0.2,0.6,0,1.3-0.6,1.7c0,0-4.9,2.7-6.8,4.5c-0.5,0.5-1,1-1.5,1.4
			c-0.8,0.7-1.9,1.8-2,2.1c0.2,1.5-0.2,3.6-1.5,4.7c0,0.1-0.7,1.2-3.8,7.9c0.6,0.8,0.9,1.4,1.1,1.9c0.5,1.5,0.9,3.4,1,4.3
			c0,0.1,0,0.1,0,0.2c0,0.2,0,0.4,0,0.5c-0.1,0.5-0.4,1-0.9,1.1L180,96l-1.4,0.7l0.1,0.4c0.4,0.3,1,0.8,1.6,1.4
			c1.1,1.2,0.6,3.2,0.3,4.1l0,0.1c1.2,1.2,2.3,4,2,5.5c0,0.2-0.1,0.4-0.2,0.6l3.4,8.1c0.2,0.4,0.1,0.9-0.1,1.3
			c-0.2,0.4-0.7,0.6-1.1,0.6c0,0-0.5,0-1.4,0c0.3,2.3,0.3,4.8-0.1,7.2c0.1,0,0.2,0,0.2,0c0.9,0,1.7-0.3,2.3-0.8
			c2.4-2.1,4.8-4.5,6-8.8c0.2-0.6,0.7-1,1.3-1c0,0,0,0,0,0c0.6,0,1.2,0.5,1.3,1.1c1.2,5.3-1.8,11.8-5.3,15c-2.5,2.3-5.4,3.6-8,3.6
			c-0.6,0-1.1-0.1-1.7-0.2c-3.1,3.4-6.8,5.2-11.3,5.5c-0.5,0.3-1.2,0.5-2,0.7c-1,0.2-1.8,0.3-2.5,0.4c-1.5,0.2-2.5,0.3-4.3,1.3
			c-3.3,1.9-5.1,2-7.8,2h-0.6c-1.9,0-1.9,0-2.8,0.8C147.5,145.7,147.2,145.8,146.9,145.8z"/>
	</g>
	<g>
		<path class="st2" d="M186.4,126.2c-1.6,1.4-3.6,1.3-5,0.9c0.7-3.3,0.7-6.9,0.1-9.6c1.8,0,3-0.1,3-0.1l-3.8-9c0,0,0,0,0,0
			c1.5-0.2-0.4-4.3-1.4-5l-0.2-0.9c0,0,0.9-2.2,0.1-3.1c-0.8-0.9-1.8-1.5-1.8-1.5l-0.4-1.9l2.5-1.3l1.2-0.4c0,0,0-0.1,0-0.2l0,0
			c0,0,0,0,0,0c-0.1-0.6-0.4-2.7-1-4.2c-0.2-0.6-0.7-1.4-1.4-2.2c1.9-4.2,4.1-8.8,4.5-9.1c0.8-0.6,1.2-2.2,1-3.4
			c-0.2-1.3,1.7-2.6,3.8-4.6c2.1-2,7.1-4.8,7.1-4.8s-5.1,1.2-7.9,2.4c-2.8,1.2-5.1,4.4-5.1,4.4s2-4.8,4-6.9c2-2.1,7-5.5,7-5.5
			s-4.6,1.6-7.8,3.4c-3.2,1.8-6,5.4-6,5.4s0.5-4.2,2.1-6.9c1.8-3.1,6.7-8,6.7-8s-5.4,3.3-8.6,6.7c-0.7,0.7-1.3,1.4-1.8,2
			c0.1-0.6-0.2-1.3-1.1-2c0,0-0.1-0.1-0.1-0.1c0.9-3.1,2-6.7,3.1-9.7c-2.1,2.7-3.9,5.5-5.2,8.3c-2.8-1.6-6-2.8-6-2.8
			s-2.5-5.3-7.5-9.5c-5-4.2-11.2-4-16.5-2.5c-5.2,1.4-10,7.9-10,7.9l-7.9,1.8c-6.5,2.2-7.8,3.1-3.9,5.6c1.3,0.9,3.5,1.6,6,2.2
			c-0.7,1.4-1.2,3-1.2,4.7c0,1.7,0.5,3.3,1.2,4.8c-1.4,1.6-3,3.1-5,4.2c-4.6,2.6-5.8,2.7-6.9,2.6c-0.1,0-0.1,0-0.2,0
			c-0.3-0.4-0.8-1-1.6-2c-1.5-1.9-3.4-4-4.2-4.1c-3-0.1-2.5,4.9-0.5,5.6c1.7,0.7,4.9,0.9,6,1c0.2,0.5,1.2,1.4,3.3,2.5
			c3.5,1.9,10,4.3,15,4.8l2.2,0.2l-1.8-0.1c0,0,0,0.4,0,1c-0.9,0.5-2.7,1.8-3.8,4c-1.5,3-1.8,3.7-1.8,3.7l-3,2.4
			c0,0,0.7,1.1,1.8,2.2c-0.7,1.1-1.6,2.4-2.2,3.8c0,0,0,0,0,0c-0.1,0.1-0.2,0.3-0.2,0.4c-1.5,2.8-1.8,4.2-2.6,6
			c-0.8,1.8,0.2,1.7,0,3.4c-0.2,1.7-0.4,3.2-0.3,3.5c0.1,0.3,0.4,3.7,1.5,6.2c1.1,2.6,4,4.6,4,4.6s-2-3.1-2.1-6.3
			c0.9,1.5,1.5,2.8,2.7,4.1c0.5,0.5,0.9,0.8,1.3,1.1c0.5,2.3,1.3,4.2,2,5.3c-1.5,0-3,0.2-3.6,1.1c-1.7,0.6-2,0.6-4,1.9
			c2.1-0.4,3.3-0.5,3.3-0.5s-3,0.9-3.4,2.7c2.8-1.7,4.4-0.9,4.4-0.9s-4.2,1.8-4.8,3.7c1.9-1.1,7.1-3,11-3.4c1.3-0.1,2.4-0.1,3.3-0.1
			c1.5,0.6,3.4,0.8,5.5,0.7c1.2,0.3,2.5,0.5,3.9,0.6c2.4,0.2,4.4,0.3,6.1,0.3c-1.3,0.2-2.7,0.3-4,0.4c-2.9,0.2-3.7,0.9-3.7,0.9
			c-1.7,0.2-2.7,1.3-3.9,2.8c1.1-0.9,1.8-1.1,3.1-1c1.3,0.1,2.8,0.4,2.8,0.4s-2.5,1-2.7,2.2c1.4-1.1,1-1.1,2.3-1.1
			c1.3,0,2.7,0,2.7,0s-2.1,0.9-3.2,2.3c1.5-1.2,1.8-1,4.3-1.1c2.5,0,4.1-0.1,7.2-1.9c3.1-1.8,4.3-1.2,7.3-1.8
			c0.9-0.2,1.5-0.4,1.8-0.7c4.6-0.3,8.2-2.1,11.2-5.6c0,0,0.1-0.1,0.1-0.1c3,1,6.4-0.3,9.2-2.9c3-2.8,6-8.7,4.9-13.7
			C191.6,121.2,189.1,123.8,186.4,126.2z M166.5,67.3c0,0.1,0,0.2-0.1,0.3l-1.1-1.4c0.5,0,0.9,0,1.4-0.1
			C166.7,66.5,166.6,66.9,166.5,67.3z M176.5,64c-1.4,1.8-2,3.1-2,3.1s0.2-0.9,0.6-2.4C175.6,64.5,176.1,64.3,176.5,64z M171.7,65.6
			c-1,3.5-1.9,7.2-1.9,7.2s-0.3-1-0.8-4.5c-0.1-0.7-0.2-1.4-0.2-2.3c0.5,0,0.9-0.1,1.4-0.1C170.8,65.7,171.2,65.6,171.7,65.6z"/>
	</g>
	<g>
		<ellipse class="st6" cx="137.2" cy="66.5" rx="9.3" ry="9.3"/>
		<path class="st7" d="M129,97.7c0,0-2,3.1-3.5,6c-1.5,2.8-1.8,4.2-2.6,6c-0.8,1.8,0.2,1.7,0,3.4c-0.2,1.7-0.4,3.2-0.3,3.5
			c0.1,0.3,0.4,3.7,1.5,6.2c1.1,2.6,4,4.6,4,4.6s-2-3.1-2.1-6.3c0.9,1.5,1.5,2.8,2.7,4.1c1.2,1.2,2.3,1.6,2.3,1.6l2.3-17.1l0.5-6.7
			L129,97.7z"/>
		<path class="st8" d="M129.7,97.1C129.7,97.1,129.7,97.1,129.7,97.1c-0.4,0.4-2.7,3-4,6.1c-1.4,3.3-1.7,5.6-1.6,7.7
			c0.1,2.2,0.5,4.6,1.5,6.6c1,2,1.7,4.9,3.4,6.1c-0.7-4.7-1.5-8.7-0.8-10.2c0.7-1.5-0.2-0.7-0.1-1.7c0-1,1.4-4.8,3.2-6.1
			c1.8-1.3,3.1-2.8,3.1-2.8"/>
		<path class="st9" d="M137.2,76.8c-5.6,0-10.1-4.5-10.1-10.1c0-5.6,4.5-10.1,10.1-10.1c5.6,0,10.1,4.5,10.1,10.1
			C147.3,72.3,142.7,76.8,137.2,76.8z M137.2,58.3c-4.7,0-8.4,3.8-8.4,8.5c0,4.7,3.8,8.5,8.4,8.5c4.7,0,8.4-3.8,8.4-8.5
			C145.6,62.1,141.8,58.3,137.2,58.3z"/>
		<path class="st8" d="M179.9,126.5c0,0,3.8,2,6.5-0.3c2.7-2.4,5.2-5,6.4-9.4c1.1,5-1.9,10.9-4.9,13.7c-3,2.8-6.8,4.1-9.8,2.6
			C175,131.5,179.9,126.5,179.9,126.5z"/>
		<path class="st8" d="M164.9,65.6c0,0-3-7.8-10.3-9.6c-7.2-1.8-12.9-0.4-16.3,1.7c-3.5,2.2-4.5,4-5.9,7.3c-1.4,3.3-4.4,8-9.1,10.7
			c-4.6,2.6-5.8,2.7-6.9,2.6c-1.1-0.1-0.6,1.2,2.8,3c3.5,1.9,10,4.3,15,4.8l2.2,0.2l-0.8,5.6l5.1,1.9l18.5-9.1l11.6-2.3l1.8-1.6
			l-6-13L164.9,65.6z"/>
		<path class="st10" d="M110.5,72.2c-3-0.1-2.5,4.9-0.5,5.6c1.9,0.8,5.9,1,6.4,1c0.5,0-0.2-0.6-1.7-2.5
			C113.2,74.4,111.3,72.3,110.5,72.2z"/>
		<path class="st11" d="M133.8,111.5c0,0-4.2,4.1-4.3,9.7c-0.1,5.7,2,10.1,3.2,11.2c1.2,1.1,5.3,5,11.8,4.1c6.5-1,2.8-4.3,2.8-4.3
			L133.8,111.5z"/>
		<path class="st8" d="M131.4,112.1c0,0-2.6,7.3,0.5,13.7c3.1,6.3,5.7,10.5,15.6,11.5c9.9,1,12.8-0.5,12.8-0.5s7.1-6.4,4.3-14.9
			c-2.8-8.5-13-12.6-13.3-12.6c-0.3,0-12.5,0.9-12.5,0.9L131.4,112.1z"/>
		<path class="st12" d="M162.9,111.8c0,0-10.5,7.4-12.3,11.8c-1.7,4.4-1.9,12.4,7.5,14.5c9.5,2.1,15.7,0.9,20.4-4.7
			c4.8-5.6,4-19.1,0.3-20.2C175.2,112,162.9,111.8,162.9,111.8z"/>
		<path class="st11" d="M141.1,136.3c0,0-2.5-0.6-6.3-0.2c-3.8,0.4-9,2.3-11,3.4c0.6-1.9,4.8-3.7,4.8-3.7s-1.5-0.8-4.4,0.9
			c0.4-1.8,3.4-2.7,3.4-2.7s-1.2,0-3.3,0.5c2-1.3,2.3-1.3,4-1.9c0.7-1.3,3.6-1.3,5.4-0.9C135.7,132.1,141.1,136.3,141.1,136.3z"/>
		<path class="st12" d="M168.1,137.8c0,0,0.5,1.2-2.5,1.8c-3,0.6-4.2,0.1-7.3,1.8c-3.1,1.8-4.7,1.8-7.2,1.9c-2.5,0-2.8-0.1-4.3,1.1
			c1.1-1.4,3.2-2.3,3.2-2.3s-1.4,0-2.7,0c-1.3,0-0.9,0-2.3,1.1c0.2-1.2,2.7-2.2,2.7-2.2s-1.5-0.3-2.8-0.4c-1.3-0.1-2,0.1-3.1,1
			c1.2-1.5,2.2-2.6,3.9-2.8c0,0,0.8-0.7,3.7-0.9c2.9-0.2,6-0.5,7.5-1.7c1.5-1.2,5.7-2.7,5.7-2.7L168.1,137.8z"/>
		<path class="st13" d="M135.2,86.9c0,0,0,0-0.1,0.1c-0.5,0.3-2.9,1.6-4.2,4.2c-1.5,3-1.8,3.7-1.8,3.7l-3,2.4c0,0,1.3,2.1,3.3,3.5
			c2.1,1.4,2.8,2.2,2.8,2.2l2.8-0.8l1.5-11.2v-3.5L135.2,86.9z"/>
		<path class="st14" d="M135.6,88.5l-1.2,5.7c0,0-1.8,6.3-1.8,9.3c0,0-2.1,1.2-1.3,2.1c0.7,0.9,0.1,2.6,0.1,2.6v1.6
			c0,0-0.9,1.4-2.5,2.9c-1.6,1.5-2.4,3.3-2.4,3.3l10.7,7.4l3.9-7.9l-0.7-12.7l0.6-10.3L135.6,88.5z"/>
		<path class="st15" d="M151.2,87.5l-10.4,4.8c0,0-2.1,5.5-2.1,6.7c0,1.2,0.5,1.4,0.5,1.4s-0.9,2.1-1.1,3.4
			c-0.3,1.3,1.6,2.9,1.4,4.2c-0.2,1.3,0.8,15.1,0.8,15.1s5.2-3.3,8.8-3.8c3.5-0.5,16.6-0.8,20.9-1.4c4.3-0.6,14.6-0.7,14.6-0.7
			l-4.6-10.9l-0.7-3.9c0,0,0.9-2.2,0.1-3.1c-0.8-0.9-1.8-1.5-1.8-1.5l-2.2-11l-3.4-6.1L158.4,83L151.2,87.5z"/>
		<path class="st16" d="M173.1,82c2.8,2.7,6,6.2,6.6,7.9c0.6,1.7,1,4.4,1,4.4l-3.3,1.1l-11.6-5.6l-6.1-7.2l3.4-5.8c0,0,3.6,1,5,1.8
			C169.5,79.4,171.5,80.4,173.1,82z"/>
		<path class="st17" d="M134.7,86.2l1.8,0.1c0,0,1.4,2,2.1,2.9c0.8,0.9,1.9,2.3,1.9,2.3l0.1,1.2l-0.5-1.1c0,0-2.1,3.8-2.4,4.8
			c-0.3,1.1-2.2-2.2-2.6-5.2C134.7,88.2,134.7,86.2,134.7,86.2z"/>
		<path class="st17" d="M159.7,81.6L149,87.3c0,0-6.9,2.9-7.4,3.5c-0.5,0.6-1.2,2.2-1.2,2.2l1.5-1.2c0,0,2.2,3.9,2.8,4.9
			c0.6,1,1.3,0,3.2-1.3c1.9-1.3,6.2-6.3,7.1-7.1c0.9-0.8,4.6-2.8,4.6-2.8V81.6z"/>
		<path class="st18" d="M131.5,106.4c0,0,13.9,0,19.3-0.6c5.4-0.6,27.5-2.9,28.5-2.5c1,0.4,3,4.9,1.5,5.1
			c-1.5,0.2-30.7,3.1-36.4,2.4c-5.7-0.7-12.7,1.4-13.5-0.5C130.1,108.5,130.6,106.5,131.5,106.4z"/>
		
			<rect x="150.7" y="65.8" transform="matrix(0.9219 -0.3874 0.3874 0.9219 -13.7146 65.2481)" class="st9" width="8.5" height="1.6"/>
		<path class="st19" d="M160.7,65.6c0,0-1.1,5.6-0.8,7.1c0.2,1.5,1.4,7.2,1.4,7.2l-2,2.8l0-5.4l-1.2-3.4l0.3-9.8L160.7,65.6z"/>
		<path class="st20" d="M138.7,83.8c0,0,3.4-4.3,7.1-4.8c3.7-0.5,4.1,2.4,2.3,4.3c-1.8,1.8-4.2,2.9-6.4,2.3
			C139.6,84.9,138.7,83.8,138.7,83.8z"/>
		<path class="st2" d="M138.7,83.8c0.3-0.4,1.9-2,2.1-2.2c0.3,0.6,0.7,1.7,0.2,2.2C140.6,84.2,139.2,84.1,138.7,83.8z"/>
		<path class="st2" d="M141.6,81c0.5-0.4,1.8-1.2,2.4-1.4c0.2,1.1,0.1,1.7-0.5,2.2C143.1,82.1,141.9,81.3,141.6,81z"/>
		<path class="st2" d="M144.8,79.3c0,0,1.6-0.6,3-0.1c-0.5,0.7-0.8,1.8-1.4,1.8C145.8,81.1,144.8,79.3,144.8,79.3z"/>
		<path class="st21" d="M144.8,67.9c1-0.5,1.5,0.2,1.8,0.6c0.3,0.4,0.7,1.5-0.8,1.1C144.3,69.2,144.6,68,144.8,67.9z"/>
		<circle class="st6" cx="141.8" cy="67.7" r="9.3"/>
		<path class="st9" d="M141.8,77.8c-5.6,0-10.1-4.5-10.1-10.1c0-5.6,4.5-10.1,10.1-10.1c5.6,0,10.1,4.5,10.1,10.1
			C151.9,73.3,147.4,77.8,141.8,77.8z M141.8,59.3c-4.7,0-8.5,3.8-8.5,8.5c0,4.7,3.8,8.4,8.5,8.4c4.7,0,8.4-3.8,8.4-8.4
			C150.3,63.1,146.5,59.3,141.8,59.3z"/>
		<path class="st15" d="M134,52.4c0,0,4.7-6.5,10-7.9c5.2-1.5,11.5-1.7,16.5,2.5c5,4.2,7.5,9.5,7.5,9.5s5.5,2,8.3,4.3
			c2.9,2.3,0.5,4.2-6.1,5.1c-6.7,0.9-15.4,0.4-24.4-0.8c-9-1.2-19.5-2.6-23.5-5.2c-4-2.5-2.6-3.5,3.9-5.6L134,52.4z"/>
		<path class="st22" d="M162.2,81.3l3.9-4.9c0,0-0.7-4.1,0.4-9.1c1.1-5,2.1-9.9,2.1-9.9s0.1,7.3,0.5,10.8c0.5,3.5,0.8,4.5,0.8,4.5
			s1.5-6.4,2.8-10.2c1.3-3.8,3.7-7.8,6.6-11.6c-2.4,6.6-4.8,16.2-4.8,16.2s1.6-3,4.8-6.4c3.2-3.4,8.6-6.7,8.6-6.7s-4.9,4.9-6.7,8
			c-1.6,2.7-2.1,6.9-2.1,6.9s2.8-3.6,6-5.4c3.2-1.8,7.8-3.4,7.8-3.4s-5,3.4-7,5.5c-2,2.1-4,6.9-4,6.9s2.4-3.2,5.1-4.4
			c2.8-1.2,7.9-2.4,7.9-2.4s-5,2.7-7.1,4.8c-2.1,2-4,3.3-3.8,4.6c0.2,1.3-0.2,2.8-1,3.4c-0.8,0.6-7.7,16-7.7,16l-12.3-7.8
			L162.2,81.3z"/>
		<path class="st23" d="M163.1,76.8c0,0-3.5,3.6-4.6,5.6c-1.1,2-2.8,5.1-2.8,5.1s-0.9,4.9,0.8,7.1c1.7,2.1,7.4,5.9,11.3,5.9
			c4-0.1,6.7-0.6,6.7-0.6l0.7-3l5.5-2.7c0,0-1.8-0.2-5.3-2.1c-3.5-1.9-8.3-5.6-10-8.7C163.8,80.2,163.1,76.8,163.1,76.8z"/>
		<path class="st14" d="M142.9,98.3c0,0,8.2-0.9,9.1-0.6c0.9,0.3,0.5,5.2-2,6c-2.5,0.8-4.7,1.1-5.9,0
			C142.9,102.5,142.2,98.5,142.9,98.3z"/>
		<path class="st17" d="M133.5,98.1c0,0-0.8,4.3-0.9,5.6c-0.1,1.3,3.1,0,3.7-2.1c0.6-2.1,0.5-3.5,0.1-3.5
			C136,98,133.5,98.1,133.5,98.1z"/>
		<path class="st8" d="M170.7,73.9c0,0,0.5,1.2,1.7,3.3c1.2,2.1,0.3,4,0.3,4s2.1-2.3,0.8-4.3C172.2,75,170.7,73.9,170.7,73.9z"/>
		<path class="st8" d="M172,66.3c0,0,0.1,0.6,1.1,0.6c1,0,1-0.3,1-0.3s0.1,0.6-1.1,0.5C172,67,172,66.3,172,66.3z"/>
		<path class="st8" d="M175.2,66.8c0,0-0.1,0.9,1.3,1.4c1.4,0.5,1.6,0,1.6,0s-0.2,0.9-1.8,0.3C174.8,67.9,175.2,66.8,175.2,66.8z"/>
		<path class="st8" d="M179.3,69.3c0,0-0.4,0.8,0.7,1.8c1.1,1,1.5,0.6,1.5,0.6s-0.5,0.7-1.7-0.4C178.5,70.1,179.3,69.3,179.3,69.3z"
			/>
		<path class="st8" d="M166.7,76.9c0,0,0.9,0.7,2.4-0.5c1.5-1.2,1.1-1.8,1.1-1.8s0.8,0.8-0.9,2.1C167.6,78.1,166.7,76.9,166.7,76.9z
			"/>
		<path class="st7" d="M127.8,112c0,0-0.6-0.8-2.1-0.1c-1.5,0.7-1.3,1.2-1.3,1.2s-0.5-0.8,1.2-1.5C127.3,110.8,127.8,112,127.8,112z
			"/>
		<path class="st8" d="M181.7,72.6c0,0-0.4,0.6,0.6,1.5c0.9,0.8,1.2,0.5,1.2,0.5s-0.4,0.6-1.4-0.3C181,73.3,181.7,72.6,181.7,72.6z"
			/>
		<path class="st24" d="M154.6,58.1c-1.7,0-3.6-0.1-5.4-0.2c-9.5-0.9-13.2-3.4-14-3.8c-0.8-0.4-0.2-1.1,0.5-0.7
			c0.7,0.4,4.3,2.8,13.6,3.7c9.3,0.9,16.6-0.7,17.4-0.9c0.8-0.1,1.1,0.6,0.2,0.8C165.8,57.2,161.5,58.1,154.6,58.1z"/>
		<path class="st24" d="M158.1,57.7l-0.8-0.2c0,0,0.6-3.2-1-7.3c-1.5-4-5.1-5.5-5.7-5.9c-0.6-0.4-0.5-1,0.3-0.8
			c0.8,0.2,4.5,2,6.1,6.3C158.7,54.3,158.1,57.6,158.1,57.7z"/>
	</g>
</g>
</svg>
