<?xml version="1.0" encoding="utf-8"?>
<!-- Generator: Adobe Illustrator 20.1.0, SVG Export Plug-In . SVG Version: 6.00 Build 0)  -->
<svg version="1.1" id="圖層_1" xmlns="http://www.w3.org/2000/svg" xmlns:xlink="http://www.w3.org/1999/xlink" x="0px" y="0px"
	 viewBox="0 0 300 300" style="enable-background:new 0 0 300 300;" xml:space="preserve">
<style type="text/css">
	.st0{fill:#C16F2D;}
	.st1{fill:#FFFFFF;}
</style>
<g>
	<path class="st0" d="M300,150c0,82.8-67.2,150-150,150C67.2,300,0,232.8,0,150C0,67.2,67.2,0,150,0C232.8,0,300,67.2,300,150z"/>
	<path class="st1" d="M164.7,141.3c13.2-10.1,21.4-25.4,22.1-42.8c0.9-21.3-11.9-41.7-30.8-51.2c-19.8-10-43.2-6.6-60.4,6.9
		c-17.2,13.5-23.7,37.1-18.3,57.9c3.1,12,10.5,22.1,20.1,29.3c-32.3,15.4-51.4,50.5-54.9,85.9c-0.9,8.8,12.9,8.7,13.8,0
		c3.3-34.2,24.3-68.6,59-77.8c7.1-1.9,5.9-10.9,0-13.3c-19-7.6-29.6-28.5-25.2-48.3c4.2-19.1,21.6-32.4,40.9-32.6
		c19.6-0.3,36.3,13.9,40.9,32.6c4.9,19.7-6.5,40.9-25.2,48.3c-6,2.4-7.1,11.4,0,13.3c34.7,9.3,55.7,43.7,59,77.8
		c0.9,8.7,14.6,8.8,13.8,0C216.2,191.8,197,156.8,164.7,141.3z"/>
	<path class="st1" d="M274,133.5c-8,0-16,0-24,0c0-8,0-16,0-24.1c0-9.8-15.2-9.8-15.2,0c0,8,0,16,0,24.1c-8,0-16,0-24,0
		c-9.8,0-9.8,15.2,0,15.2c8,0,16,0,24,0c0,8,0,16,0,24c0,9.8,15.2,9.8,15.2,0c0-8,0-16,0-24c8,0,16,0,24,0
		C283.8,148.7,283.8,133.5,274,133.5z"/>
</g>
</svg>
