<?xml version="1.0" encoding="utf-8"?>
<!-- Generator: Adobe Illustrator 20.1.0, SVG Export Plug-In . SVG Version: 6.00 Build 0)  -->
<svg version="1.1" id="圖層_1" xmlns="http://www.w3.org/2000/svg" xmlns:xlink="http://www.w3.org/1999/xlink" x="0px" y="0px"
	 viewBox="0 0 425.2 425.2" style="enable-background:new 0 0 425.2 425.2;" xml:space="preserve">
<style type="text/css">
	.st0{fill:#9E9E9F;}
	.st1{fill:#FFFFFF;stroke:#9E9E9F;stroke-width:1.1071;stroke-miterlimit:10;}
	.st2{fill:#58B7DF;}
	.st3{fill:#009FE8;}
	.st4{fill:#F7E682;}
	.st5{fill:#6A3906;}
	.st6{fill:#F7E682;stroke:#C79F62;stroke-width:1.4762;stroke-miterlimit:10;}
	.st7{fill:#E3845C;}
	.st8{fill:none;stroke:#C36850;stroke-width:1.1071;stroke-miterlimit:10;}
	.st9{fill:#1BA67D;}
	.st10{fill:#F6CA53;}
	.st11{fill:#E84B4A;}
	.st12{fill:#5DC2E1;}
	.st13{fill:#A8C4B1;}
	.st14{fill:#D7EBDE;}
</style>
<path class="st0" d="M315.8,60.4h-88.1c-19,0-34.4,15.4-34.4,34.4s15.4,34.4,34.4,34.4h30c0.6,2.1,1.7,7.6-2.6,10.7
	c7.9-1.7,12.3-8.2,13.6-10.7h46.9c19,0,34.4-15.4,34.4-34.4C350.2,75.8,334.7,60.4,315.8,60.4z"/>
<path class="st1" d="M311.5,56.8h-88.1c-19,0-34.4,15.4-34.4,34.4s15.4,34.4,34.4,34.4h30c0.6,2.1,1.7,7.6-2.6,10.7
	c7.9-1.7,12.3-8.2,13.6-10.7h46.9c19,0,34.4-15.4,34.4-34.4C345.9,72.2,330.4,56.8,311.5,56.8z"/>
<g>
	<path class="st2" d="M246.6,75.9v0.6h12c0.7,0,1.2,0.4,1.2,1.2c0,0.9-0.4,1.2-1.2,1.2h-12v1.7h10.2c1.8,0,2.7,0.9,2.7,2.6V90
		c0,1.7-0.9,2.6-2.7,2.6h-9.3v2.3h13.3c0.9,0,1.4,0.5,1.4,1.4s-0.5,1.4-1.4,1.4h-12c1.6,0.9,3.2,1.6,4.9,2.2c3.1,1.1,5.8,2,8.1,2.6
		c0.5,0.2,0.7,0.7,0.7,1.5c0,0.9-0.5,1.4-1.4,1.4c-0.1,0-0.6-0.1-1.4-0.2c-2.3-0.7-4.4-1.6-6.4-2.5c-2.1-0.9-4.1-1.8-5.9-3.1v5.6
		c0,0.9-0.5,1.4-1.5,1.4c-0.9,0-1.4-0.5-1.4-1.4v-5.4c-1.4,0.9-2.6,1.6-3.9,2.2c-1.8,1-4.5,2-8,3.2c-0.5,0.1-0.7,0.1-0.9,0.1
		c-0.9,0-1.4-0.5-1.4-1.5c0-0.7,0.4-1.1,1-1.4c3.6-1,6.5-2,8.6-2.9c1.4-0.6,2.7-1.2,3.7-2H232c-0.9,0-1.4-0.5-1.4-1.4
		s0.5-1.4,1.4-1.4h12.8v-2.3h-9c-1.8,0-2.7-0.9-2.7-2.6V83c0-1.7,0.9-2.6,2.7-2.6h8.2v-4.8c0-0.9,0.5-1.4,1.4-1.4
		C246.2,74.6,246.6,75.1,246.6,75.9z M257,85.5v-1.2c0-0.7-0.4-1.1-1-1.1h-19.4c-0.6,0-1,0.4-1,1.1v1.2H257z M257,89.2v-1.4h-21.2
		v1.4c0,0.7,0.4,1.1,1,1.1h19.4C256.6,90.2,257,89.8,257,89.2z"/>
	<path class="st2" d="M276.6,90.3c1.5,0,2.3,0.7,2.3,2.1v6.8c0,1,0.5,1.8,1.7,2.5c1.4,0.7,3.3,1.2,5.6,1.2h16c0.9,0,1.4,0.5,1.4,1.5
		c0,0.9-0.5,1.4-1.4,1.4h-15.1c-1.8,0-3.6-0.2-5-0.6c-1.5-0.4-2.7-0.9-3.8-1.6l-0.5-0.2c-0.1,0-0.2,0.1-0.4,0.2
		c-0.9,0.9-1.8,1.5-2.8,2.1c-0.6,0.2-1,0.4-1.2,0.4c-1-0.1-1.5-0.5-1.5-1.4c0-0.7,0.4-1.1,1.1-1.4c1.1-0.5,1.8-1,2.3-1.5
		s0.7-1.4,0.7-2.6v-5.5c0-0.4-0.2-0.6-0.7-0.6h-1.7c-0.9,0-1.4-0.5-1.4-1.4s0.5-1.4,1.4-1.4H276.6z M274.6,82.6
		c0.6,0.2,1.1,0.5,1.6,0.9s1.2,0.7,2.1,1.4c0.1,0.2,0.1,0.5,0.1,0.7c0,0.9-0.5,1.2-1.4,1.2c-0.4,0-0.7-0.1-1.1-0.2
		c-0.7-0.5-1.5-0.9-2-1.1s-1-0.5-1.5-0.7c-0.2-0.4-0.4-0.6-0.4-1c0-0.9,0.5-1.4,1.4-1.4C273.9,82.2,274.2,82.3,274.6,82.6z
		 M275.6,75.7c0.5,0.2,1.1,0.5,1.6,0.9s1.2,0.7,2.1,1.4c0.1,0.2,0.1,0.5,0.1,0.9c0,0.9-0.5,1.2-1.4,1.2c-0.4,0-0.7-0.1-1.1-0.2
		c-0.7-0.5-1.4-0.9-1.8-1.2c-0.4-0.2-0.9-0.5-1.4-0.7c-0.2-0.4-0.4-0.6-0.4-1c0-0.9,0.5-1.4,1.4-1.4
		C274.9,75.4,275.3,75.4,275.6,75.7z M287.4,75.9v2.5h3.2c0.7,0,1.2,0.4,1.2,1.2c0,0.9-0.4,1.4-1.2,1.4h-5.2v3.2h2.7
		c1.7,0,2.6,0.9,2.6,2.5c0,4.4-0.1,8-0.5,10.6c-0.2,1.7-0.6,2.8-1.1,3.4c-0.6,0.6-1.5,1-2.6,1c-0.6,0-1.4-0.2-2.5-0.7
		c-0.6-0.2-1-0.6-1-1.4c0-0.9,0.4-1.4,1.2-1.4c1.1,0.5,1.8,0.7,2.1,0.7c0.4,0,0.7-0.2,1-0.6c0.1-0.5,0.4-1.2,0.4-2.3
		c0.1-1.5,0.2-4.3,0.2-8.4c0-0.5-0.4-0.9-1-0.9h-1.8c-0.1,2.2-0.5,4.3-0.9,6.1c-0.5,2.5-1.4,4.5-2.3,6.4c-0.4,0.2-0.7,0.4-1.1,0.4
		c-1,0-1.6-0.5-1.6-1.5c0-0.2,0.1-0.5,0.4-0.7c1.2-2.5,2.1-4.9,2.6-7.5c0.4-2,0.5-4.1,0.5-6V81h-1.8c-0.9,0-1.2-0.5-1.2-1.4
		c0-0.7,0.4-1.2,1.2-1.2h3.6v-2.5c0-0.9,0.5-1.4,1.4-1.4C286.9,74.6,287.4,75.1,287.4,75.9z M297,74.8c0.2,0.2,0.4,0.5,0.4,0.7
		c0,0.4-0.1,0.6-0.1,1c-0.1,0.7-0.4,1.4-0.5,1.8h5.8c0.7,0,1.2,0.4,1.2,1.2c0,0.9-0.4,1.4-1.2,1.4h-7.1c-0.4,0.5-0.6,1.1-1,1.5
		c-0.5,0.7-1.1,1.4-1.7,1.8c-0.2,0.1-0.5,0.1-0.7,0.1c-0.4,0-0.6-0.1-0.9-0.4c-0.2-0.2-0.4-0.6-0.4-1s0.1-0.7,0.4-1
		c0.5-0.5,1-1,1.5-1.6c0.5-0.7,0.9-1.5,1.2-2.3c0.4-0.7,0.6-1.7,1-2.7c0.1-0.6,0.6-1,1.4-1C296.4,74.6,296.6,74.7,297,74.8z
		 M300.3,83.8c1.2,0,1.8,0.6,1.8,1.7c0,0.4-0.1,0.7-0.5,1.2l-2.8,2.8c-0.1,0.1-0.1,0.2-0.1,0.2c0,0.1,0.1,0.2,0.2,0.5
		c0.1,0.2,0.4,0.5,0.5,0.7h3.1c0.7,0,1.2,0.4,1.2,1.2s-0.4,1.4-1.2,1.4h-1.8c0.4,1.1,0.5,2.2,0.5,3.2c0,1.7-0.4,2.9-1.2,3.8
		c-0.7,0.6-1.6,1-2.9,1c-1.1,0-2.2-0.2-3.2-0.7c-0.7-0.2-1-0.6-1.1-1.2c0-1,0.5-1.5,1.5-1.5c1.4,0.5,2.3,0.7,2.8,0.7
		s0.9-0.1,1.1-0.5s0.4-0.9,0.4-1.6c0-1.2-0.1-2.2-0.5-3.2l0,0h-4.9c-0.9,0-1.2-0.5-1.2-1.4c0-0.7,0.4-1.2,1.2-1.2h3.7
		c-0.1-0.2-0.2-0.4-0.4-0.6c-0.2-0.4-0.4-0.7-0.4-1c0-0.4,0.1-0.6,0.4-0.7l2.5-2.2c0-0.1-0.1-0.1-0.4-0.1h-3.3
		c-0.9,0-1.2-0.5-1.2-1.4c0-0.7,0.4-1.2,1.2-1.2L300.3,83.8L300.3,83.8z"/>
</g>
<g>
	<path class="st3" d="M143.2,154.4c0,0-7.9-18.9-26.4-11.9c-18.5,6.9-5.2,27.9-5.2,27.9L143.2,154.4z"/>
	<path class="st4" d="M263.4,322.7c0,0,18.9-91-20.5-136.3c-39.5-45.3-106.5-49.3-143.6-5.9C62.2,224,72.2,294,73.1,314.7
		c1,20.8,0.4,51.5,21.7,65.8c43,28.9,112.9-2.2,112.9-2.2s44.2,8.7,75.8,1.7c31.6-6.9,45.6-56.7,21.6-64.2
		c-20.3-6.4-29.2,16.5-33.8,12C268,324.6,263.4,322.7,263.4,322.7z"/>
	<ellipse transform="matrix(0.9052 -0.4249 0.4249 0.9052 -64.3383 113.5109)" class="st5" cx="222.3" cy="201" rx="1.2" ry="2.1"/>
	
		<ellipse transform="matrix(0.4251 -0.9051 0.9051 0.4251 -107.6267 241.5255)" class="st5" cx="136.3" cy="205.5" rx="2.1" ry="1.2"/>
	<path class="st6" d="M207.7,378.3c0,0,9.1-9.7,10.1-23s-1.2-26-15.5-30c-14.2-3.9-27.9,8.2-30.7,14.9"/>
	<path class="st7" d="M105.9,209.8c10.1,7.1,41.4,15.7,68.5,13.4c43.6-3.7,56.1-12.3,68.8-19.9c11.2-6.8,17.6,1.7,13.9,12.2
		c-2.1,6-21.9,13.5-36.1,19.2c-17.9,7-55.1,12.2-80.3,7.5c-25.4-4.7-51.1-12-54.9-24.1C82.1,206.1,97.9,204.3,105.9,209.8z"/>
	<path class="st8" d="M98.8,219c0,0,19.9,12.4,51.1,15s55.4-2,72.1-8.8c16.7-6.9,19.9-8.5,27.4-14.4"/>
	<g>
		<path class="st9" d="M162.9,271.6c-3.1-4.4-7.4-6.6-7.4-9.6c0-2.9,2.3-6.5,1.4-9.5c-1.4-4.2-5.8-6.5-9.9-5.2
			c-4.2,1.4-6.5,5.8-5.2,9.9c0.9,2.6,4.3,4.8,5.9,6.8c1.6,2,0,6.8-0.1,12.3c-0.1,5.8,3.8,17.3,3.8,17.3s3.1,0.4,9.6-1.7
			s9.2-4.2,9.2-4.2S166.2,276.2,162.9,271.6z"/>
	</g>
	<g>
		<path class="st10" d="M50.4,366.9c-1.6-5.2-5-8.6-4.1-11.4c1-2.8,4.2-5.5,4.2-8.6c0-4.4-3.4-8-7.9-8s-8,3.6-8,7.9
			c0,2.7,2.6,5.9,3.4,8.2c1,2.3-2.1,6.4-3.9,11.7c-1.8,5.5-1.6,17.8-1.6,17.8s2.8,1.4,9.7,1.4s10.1-1.1,10.1-1.1
			S52.1,372.4,50.4,366.9z"/>
	</g>
	<g>
		<path class="st11" d="M216.7,280.2c-0.7-5.4-3.6-9.2-2.2-11.9c1.4-2.6,5-4.8,5.5-7.7c0.7-4.3-2.2-8.4-6.5-9.1
			c-4.3-0.7-8.4,2.2-9.1,6.5c-0.5,2.7,1.6,6.3,2.1,8.7c0.5,2.5-3.1,6-5.8,10.9c-2.8,5-4.5,17.2-4.5,17.2s2.6,1.7,9.3,2.9
			c6.8,1.1,10.1,0.5,10.1,0.5S217.4,285.8,216.7,280.2z"/>
	</g>
	<g>
		<path class="st12" d="M102,366.9c-1.6-5.2-5-8.6-4.1-11.4c1-2.8,4.2-5.5,4.2-8.6c0-4.4-3.4-8-7.9-8c-4.4,0-8,3.6-8,7.9
			c0,2.7,2.6,5.9,3.4,8.2c1,2.3-2.1,6.4-3.9,11.7c-2,5.4-1.7,17.7-1.7,17.7s2.8,1.4,9.7,1.4c6.9,0,10.1-1.1,10.1-1.1
			S103.6,372.4,102,366.9z"/>
	</g>
	<path class="st6" d="M111.7,264.3c0,0,17.7-7.1,32.5-1.7c0,0,13.4,5.6,3.7,16c-9.7,10.3-23.2,13.9-23.2,13.9"/>
	<path class="st6" d="M230.8,293.3c0,0-15.5-6.5-20.6-18.8c0,0-4.2-11.5,8.6-11.8s23.2,5.8,23.2,5.8"/>
</g>
<g>
	<polygon class="st13" points="172.8,403.6 324.5,391.4 422.6,403.6 272.6,418.1 	"/>
	<polygon class="st14" points="175.3,402 327,389.9 425.1,402 275,416.5 	"/>
</g>
</svg>
