<?xml version="1.0" encoding="utf-8"?>
<!-- Generator: Adobe Illustrator 20.1.0, SVG Export Plug-In . SVG Version: 6.00 Build 0)  -->
<svg version="1.1" id="圖層_1" xmlns="http://www.w3.org/2000/svg" xmlns:xlink="http://www.w3.org/1999/xlink" x="0px" y="0px"
	 viewBox="0 0 425.2 425.2" style="enable-background:new 0 0 425.2 425.2;" xml:space="preserve">
<style type="text/css">
	.st0{fill:#9E9E9F;}
	.st1{fill:#FFFFFF;stroke:#9E9E9F;stroke-width:1.1072;stroke-miterlimit:10;}
	.st2{fill:#58B7DF;}
	.st3{fill:#009FE8;}
	.st4{fill:#F7E682;}
	.st5{fill:#6A3906;}
	.st6{fill:#F7E682;stroke:#C79F62;stroke-width:1.4763;stroke-miterlimit:10;}
	.st7{fill:#E3845C;}
	.st8{fill:none;stroke:#C36850;stroke-width:1.1072;stroke-miterlimit:10;}
	.st9{fill:#1BA67D;}
	.st10{fill:#F6CA53;}
	.st11{fill:#E84B4A;}
	.st12{fill:#5DC2E1;}
	.st13{fill:#A8C4B1;}
	.st14{fill:#D7EBDE;}
</style>
<path class="st0" d="M315.4,75.7h-87.8c-19,0-34.3,15.3-34.3,34.3s15.3,34.3,34.3,34.3h29.9c0.6,2.1,1.7,7.6-2.6,10.7
	c7.8-1.7,12.3-8.2,13.6-10.7h46.8c19,0,34.3-15.3,34.3-34.3C349.7,91.1,334.4,75.7,315.4,75.7z"/>
<path class="st1" d="M311.1,72.1h-87.8c-19,0-34.3,15.3-34.3,34.3s15.3,34.3,34.3,34.3h29.9c0.6,2.1,1.7,7.6-2.6,10.7
	c7.8-1.7,12.3-8.2,13.6-10.7H311c19,0,34.3-15.3,34.3-34.3C345.4,87.4,330.1,72.1,311.1,72.1z"/>
<g>
	<path class="st2" d="M246.5,91.2v0.6h12c0.7,0,1.2,0.4,1.2,1.2c0,0.9-0.4,1.2-1.2,1.2h-12V96h10.2c1.8,0,2.7,0.9,2.7,2.6v6.7
		c0,1.7-0.9,2.6-2.7,2.6h-9.4v2.3h13.2c0.9,0,1.3,0.5,1.3,1.3c0,0.9-0.5,1.3-1.3,1.3h-12.1c1.6,0.9,3.2,1.6,4.9,2.2
		c3.1,1.1,5.8,2,8.1,2.6c0.5,0.2,0.7,0.7,0.7,1.5c0,0.9-0.5,1.3-1.3,1.3c-0.1,0-0.6-0.1-1.3-0.2c-2.3-0.7-4.4-1.6-6.4-2.5
		c-2.1-0.9-4-1.8-5.9-3.1v5.6c0,0.9-0.5,1.3-1.5,1.3c-0.9,0-1.3-0.5-1.3-1.3V115c-1.3,0.9-2.6,1.6-3.9,2.2c-1.8,1-4.5,2-8,3.2
		c-0.5,0.1-0.7,0.1-0.9,0.1c-0.9,0-1.3-0.5-1.3-1.5c0-0.7,0.4-1.1,1-1.3c3.6-1,6.5-2,8.6-2.9c1.3-0.6,2.7-1.2,3.7-2h-11.8
		c-0.9,0-1.3-0.5-1.3-1.3c0-0.9,0.5-1.3,1.3-1.3h12.7v-2.3h-8.9c-1.8,0-2.7-0.9-2.7-2.6v-6.7c0-1.7,0.9-2.6,2.7-2.6h8.2v-4.8
		c0-0.9,0.5-1.3,1.3-1.3C246,89.9,246.5,90.2,246.5,91.2z M256.7,100.6v-1.2c0-0.7-0.4-1.1-1-1.1h-19.4c-0.6,0-1,0.4-1,1.1v1.2
		H256.7z M256.7,104.3V103h-21.2v1.3c0,0.7,0.4,1.1,1,1.1h19.4C256.3,105.4,256.7,105.1,256.7,104.3z"/>
	<path class="st2" d="M276.3,105.5c1.5,0,2.3,0.7,2.3,2.1v6.7c0,1,0.5,1.8,1.7,2.5c1.3,0.7,3.3,1.2,5.6,1.2h15.9
		c0.9,0,1.3,0.5,1.3,1.5c0,0.9-0.5,1.3-1.3,1.3h-15.1c-1.8,0-3.6-0.2-5-0.6c-1.5-0.4-2.7-0.9-3.8-1.6l-0.5-0.2
		c-0.1,0-0.2,0.1-0.4,0.2c-0.9,0.9-1.8,1.5-2.8,2.1c-0.6,0.2-1,0.4-1.2,0.4c-1-0.1-1.5-0.5-1.5-1.3c0-0.7,0.4-1.1,1.1-1.3
		c1.1-0.5,1.8-1,2.3-1.3c0.5-0.5,0.7-1.3,0.7-2.6V109c0-0.4-0.2-0.6-0.7-0.6h-1.7c-0.9,0-1.3-0.5-1.3-1.3c0-0.9,0.5-1.3,1.3-1.3h2.9
		V105.5z M274.3,97.7c0.6,0.2,1.1,0.5,1.6,0.9c0.5,0.4,1.2,0.7,2.1,1.3c0.1,0.2,0.1,0.5,0.1,0.7c0,0.9-0.5,1.2-1.3,1.2
		c-0.4,0-0.7-0.1-1.1-0.2c-0.7-0.5-1.3-0.9-2-1.1c-0.5-0.2-1-0.5-1.5-0.7c-0.2-0.4-0.4-0.6-0.4-1c0-0.9,0.5-1.3,1.3-1.3
		C273.6,97.5,274,97.6,274.3,97.7z M275.4,91c0.5,0.2,1.1,0.5,1.6,0.9c0.5,0.4,1.2,0.7,2.1,1.3c0.1,0.2,0.1,0.5,0.1,0.9
		c0,0.9-0.5,1.2-1.3,1.2c-0.4,0-0.7-0.1-1.1-0.2c-0.7-0.5-1.3-0.9-1.8-1.2c-0.4-0.2-0.9-0.5-1.3-0.7c-0.2-0.4-0.4-0.6-0.4-1
		c0-0.9,0.5-1.3,1.3-1.3C274.7,90.6,274.9,90.7,275.4,91z M287.1,91.2v2.5h3.2c0.7,0,1.2,0.4,1.2,1.2c0,0.9-0.4,1.3-1.2,1.3h-5.1
		v3.2h2.7c1.7,0,2.6,0.9,2.6,2.5c0,4.4-0.1,8-0.5,10.5c-0.2,1.7-0.6,2.8-1.1,3.4c-0.6,0.6-1.5,1-2.6,1c-0.6,0-1.3-0.2-2.5-0.7
		c-0.6-0.2-1-0.6-1-1.3c0-0.9,0.4-1.3,1.2-1.3c1.1,0.5,1.8,0.7,2.1,0.7c0.4,0,0.7-0.2,1-0.6c0.1-0.5,0.4-1.2,0.4-2.3
		c0.1-1.5,0.2-4.3,0.2-8.3c0-0.5-0.4-0.9-1-0.9h-1.8c-0.1,2.2-0.5,4.2-0.9,6.1c-0.5,2.5-1.3,4.5-2.3,6.4c-0.4,0.2-0.7,0.4-1.1,0.4
		c-1,0-1.6-0.5-1.6-1.5c0-0.2,0.1-0.5,0.4-0.7c1.2-2.5,2.1-4.9,2.6-7.5c0.4-2,0.5-4,0.5-6v-2.9h-1.8c-0.9,0-1.2-0.5-1.2-1.3
		c0-0.7,0.4-1.2,1.2-1.2h3.6v-2.5c0-0.9,0.5-1.3,1.3-1.3C286.6,89.9,287.1,90.2,287.1,91.2z M296.6,90.1c0.2,0.2,0.4,0.5,0.4,0.7
		c0,0.4-0.1,0.6-0.1,1c-0.1,0.7-0.4,1.3-0.5,1.8h5.8c0.7,0,1.2,0.4,1.2,1.2c0,0.9-0.4,1.3-1.2,1.3h-7c-0.4,0.5-0.6,1.1-1,1.5
		c-0.5,0.7-1.1,1.3-1.7,1.8c-0.2,0.1-0.5,0.1-0.7,0.1c-0.4,0-0.6-0.1-0.9-0.4c-0.2-0.2-0.4-0.6-0.4-1s0.1-0.7,0.4-1
		c0.5-0.5,1-1,1.5-1.6c0.5-0.7,0.9-1.5,1.2-2.3c0.4-0.7,0.6-1.7,1-2.7c0.1-0.6,0.6-1,1.3-1C296,89.9,296.4,90,296.6,90.1z
		 M299.9,98.9c1.2,0,1.8,0.6,1.8,1.7c0,0.4-0.1,0.7-0.5,1.2l-2.8,2.8c-0.1,0.1-0.1,0.2-0.1,0.2c0,0.1,0.1,0.2,0.2,0.5
		c0.1,0.2,0.4,0.5,0.5,0.7h3.1c0.7,0,1.2,0.4,1.2,1.2c0,0.9-0.4,1.3-1.2,1.3h-1.8c0.4,1.1,0.5,2.2,0.5,3.2c0,1.7-0.4,2.9-1.2,3.8
		c-0.7,0.6-1.6,1-2.9,1c-1.1,0-2.2-0.2-3.2-0.7c-0.7-0.2-1-0.6-1.1-1.2c0-1,0.5-1.3,1.5-1.5c1.3,0.5,2.3,0.7,2.8,0.7
		s0.9-0.1,1.1-0.5c0.2-0.4,0.4-0.9,0.4-1.6c0-1.2-0.1-2.2-0.5-3.2l0,0h-4.9c-0.9,0-1.2-0.5-1.2-1.3c0-0.7,0.4-1.2,1.2-1.2h3.7
		c-0.1-0.2-0.2-0.4-0.4-0.6c-0.2-0.4-0.4-0.7-0.4-1c0-0.4,0.1-0.6,0.4-0.7l2.5-2.2c0-0.1-0.1-0.1-0.4-0.1h-3.3
		c-0.9,0-1.2-0.5-1.2-1.3c0-0.7,0.4-1.2,1.2-1.2H299.9z"/>
</g>
<path class="st3" d="M143.2,159.3c0,0-7.8-18.9-26.3-11.9c-18.5,6.9-5.1,27.8-5.1,27.8L143.2,159.3z"/>
<path class="st4" d="M263.2,327.3c0,0,18.9-90.8-20.5-136c-39.5-45.2-106.2-49.1-143.2-5.9c-37,43.4-27.1,113.3-26.1,133.9
	c1,20.7,0.4,51.3,21.7,65.7c42.9,28.8,112.6-2.2,112.6-2.2s44.1,8.7,75.6,1.7c31.5-6.9,45.5-56.6,21.6-64.2
	c-20.2-6.4-29.2,16.4-33.7,12C267.7,329.2,263.2,327.3,263.2,327.3z"/>
<ellipse transform="matrix(0.9052 -0.4249 0.4249 0.9052 -66.4057 113.9515)" class="st5" cx="222.3" cy="205.9" rx="1.2" ry="2.1"/>
<ellipse transform="matrix(0.425 -0.9052 0.9052 0.425 -111.9155 244.4137)" class="st5" cx="136.4" cy="210.3" rx="2.1" ry="1.2"/>
<path class="st6" d="M207.7,382.7c0,0,9.1-9.7,10-22.9c1-13.4-1.2-26-15.4-29.9c-14.2-3.9-27.8,8.2-30.6,14.8"/>
<path class="st7" d="M106,214.7c10,7.1,41.3,15.7,68.4,13.4c43.5-3.7,56-12.3,68.6-19.8c11.1-6.7,17.5,1.7,13.8,12.1
	c-2.1,6-21.8,13.5-36,19.1c-17.9,7-55,12.1-80.1,7.5c-25.4-4.7-51-12-54.8-24C82.2,211,98.1,209.1,106,214.7z"/>
<path class="st8" d="M99,223.8c0,0,19.8,12.4,51,14.9s55.3-2,71.9-8.8c16.7-6.9,19.8-8.5,27.3-14.3"/>
<g>
	<path class="st9" d="M20,371.2c-1.6-5.1-5.1-8.5-4.3-11.3c0.9-2.8,4.2-5.5,4-8.6c0-4.4-3.6-7.8-8-7.8s-7.8,3.6-7.8,8
		c0,2.7,2.6,5.9,3.6,8.2c1,2.3-2,6.4-3.8,11.6c-1.8,5.4-1.5,17.6-1.5,17.6s2.8,1.3,9.7,1.2c6.9,0,10-1.2,10-1.2S21.7,376.7,20,371.2
		z"/>
</g>
<g>
	<path class="st10" d="M50.6,371.3c-1.6-5.1-5-8.6-4-11.4c1-2.8,4.2-5.5,4.2-8.6c0-4.4-3.4-8-7.8-8s-8,3.6-8,7.8
		c0,2.7,2.6,5.9,3.4,8.2c1,2.3-2.1,6.4-3.9,11.6c-2,5.4-1.7,17.6-1.7,17.6s2.8,1.3,9.7,1.3s10-1.1,10-1.1S52.3,376.8,50.6,371.3z"/>
</g>
<g>
	<path class="st11" d="M77.2,373.6c-1.3-5.3-4.7-8.7-3.7-11.5c1-2.8,4.4-5.4,4.5-8.3c0.2-4.4-3.2-8.1-7.6-8.2
		c-4.4-0.2-8.1,3.2-8.2,7.6c-0.1,2.7,2.3,6,3.2,8.3c0.9,2.3-2.3,6.2-4.4,11.5c-2.1,5.3-2.3,17.5-2.3,17.5s2.8,1.5,9.6,1.7
		c6.9,0.2,10-0.7,10-0.7S78.7,379.1,77.2,373.6z"/>
</g>
<g>
	<path class="st12" d="M102.1,371.3c-1.6-5.1-5-8.6-4-11.4s4.2-5.5,4.2-8.6c0-4.4-3.4-8-7.8-8c-4.4,0-8,3.6-8,7.8
		c0,2.7,2.6,5.9,3.4,8.2c1,2.3-2.1,6.4-3.9,11.6c-2,5.4-1.7,17.6-1.7,17.6s2.8,1.3,9.7,1.3c6.9,0,10-1.1,10-1.1
		S103.7,376.8,102.1,371.3z"/>
</g>
<path class="st6" d="M127.3,267.4c0,0,16.2,10.2,20.3,25.4c0,0,3.3,14.1-10.8,12.3c-14-1.8-24.7-10.7-24.7-10.7"/>
<path class="st6" d="M249.2,285.7c0,0-12.3,11.4-25.5,11c0,0-12.3-0.9-7.2-12.6c5-11.8,14.8-18.7,14.8-18.7"/>
<g>
	<polygon class="st13" points="172.5,408.2 323.8,396 421.7,408.2 272,422.6 	"/>
	<polygon class="st14" points="175,406.6 326.3,394.5 424.2,406.6 274.5,421 	"/>
</g>
</svg>
