<?xml version="1.0" encoding="utf-8"?>
<!-- Generator: Adobe Illustrator 20.1.0, SVG Export Plug-In . SVG Version: 6.00 Build 0)  -->
<svg version="1.1" id="圖層_1" xmlns="http://www.w3.org/2000/svg" xmlns:xlink="http://www.w3.org/1999/xlink" x="0px" y="0px"
	 viewBox="0 0 529.4 734.3" style="enable-background:new 0 0 529.4 734.3;" xml:space="preserve">
<style type="text/css">
	.st0{fill:#BA7745;}
	.st1{fill:#C68C58;}
	.st2{fill:#C18448;}
	.st3{fill:#D3A363;}
	.st4{fill:#C98659;}
	.st5{fill:#CE8A52;}
	.st6{fill:#CE9251;}
	.st7{fill:#D69F67;}
	.st8{fill:#E5B173;}
	.st9{fill:#E0A070;}
	.st10{fill:#8DC21F;}
	.st11{fill:#FFFFFF;}
	.st12{fill:#FFF3C2;}
	.st13{fill:#DADF00;}
	.st14{fill:#717071;}
	.st15{fill:#FFDC9F;}
	.st16{fill:#6A3906;}
</style>
<g>
	<g>
		<path class="st0" d="M261.5,554.4c0,0-47,6.9-61,14.1c-20,10.3-18.5,28.2-41.9,32.6c-17.8,3.4-15.9,7.7-9.8,7.7
			c6.1,0,37.5,4.6,50.8-15.9c13.3-20.5,28.5-14.7,42-9.5c20,7.8,27.6-5.3,34.9-14.8C283.8,559.2,272,558.7,261.5,554.4z"/>
		<g>
			<path class="st1" d="M257,559.2c0,0-0.1,0.4-0.3,1c-0.3,0.7-0.7,1.6-1.6,2.6c-0.8,1-2,2.1-3.6,3.1c-1.6,0.9-3.6,1.7-5.8,2.1
				c-2.3,0.4-4.7,0.5-7.3,0.4c-2.6-0.1-5.3-0.3-8.1-0.5c-2.8-0.2-5.7-0.4-8.6-0.3c-2.9,0-5.9,0.2-8.8,0.8c-1.5,0.2-2.9,0.6-4.3,1
				c-0.7,0.2-1.4,0.5-2.1,0.7c-0.7,0.3-1.4,0.5-2,0.8c-1.3,0.7-2.6,1.2-3.8,2.1c-0.6,0.4-1.2,0.8-1.8,1.2c-0.6,0.4-1.1,0.9-1.6,1.3
				c-0.5,0.4-1.1,0.9-1.6,1.3c-0.5,0.5-1,0.9-1.5,1.4c-1,0.9-2,1.8-3,2.6c-1.9,1.7-3.8,3.3-5.5,4.8c-1.7,1.4-3.4,2.7-4.8,3.9
				c-0.7,0.6-1.4,1.1-2,1.6c-0.6,0.5-1.2,0.9-1.8,1.3c-1.1,0.8-1.9,1.4-2.5,1.8c-0.6,0.4-0.9,0.6-0.9,0.6s0.3-0.2,0.9-0.6
				c0.6-0.4,1.4-1.1,2.4-1.9c0.5-0.4,1.1-0.8,1.7-1.4c0.6-0.5,1.2-1.1,1.9-1.7c1.4-1.2,2.9-2.5,4.7-4c1.7-1.5,3.5-3.2,5.4-4.9
				c1-0.9,1.9-1.8,2.9-2.7c0.5-0.5,1-0.9,1.5-1.4c0.5-0.4,1.1-0.9,1.6-1.3c0.6-0.4,1.1-0.9,1.7-1.4c0.6-0.4,1.2-0.8,1.8-1.2
				c1.2-0.9,2.6-1.4,3.9-2.1c0.7-0.4,1.4-0.6,2.1-0.9c0.7-0.2,1.4-0.6,2.1-0.8c1.5-0.4,2.9-0.9,4.4-1.1c3-0.6,6-0.7,9-0.8
				c3,0,5.9,0.2,8.7,0.4c2.8,0.2,5.5,0.5,8.1,0.7c2.5,0.1,5,0.1,7.2-0.2c2.2-0.4,4.1-1,5.7-1.9c1.6-0.8,2.8-1.9,3.7-2.9
				c0.8-1,1.4-1.9,1.7-2.5C256.9,559.5,257,559.2,257,559.2z"/>
		</g>
		<path class="st0" d="M284.2,552.7c0,0,7.1-1.1,16.5,12c9.4,13.1,20.7,29.9,37.7,26.2c17-3.7,21.4-10.3,24.4-8.5
			c5.7,3.5-10.3,17.7-29.2,16.5c-18.8-1.1-29.9-6.2-44.8-16.8c-14.9-10.6-21.4-2.1-23.9-0.5C262.3,583.3,270.4,555.6,284.2,552.7z"
			/>
		<g>
			<path class="st1" d="M283.8,558.8c0,0,0.2,0,0.7-0.1c0.5,0,1.1-0.1,2,0c0.9,0,1.9,0.1,3.1,0.4c1.2,0.3,2.5,0.8,3.7,1.7
				c1.3,0.8,2.5,2,3.4,3.4c1,1.4,1.7,3.1,2.4,4.8c0.7,1.7,1.3,3.5,2,5.3c0.6,1.8,1.4,3.6,2.3,5.3c1.8,3.5,3.9,6.7,6.4,9.3
				c2.5,2.6,5.2,4.6,7.8,5.9c1.3,0.7,2.5,1.1,3.6,1.5c1.1,0.4,2.1,0.6,2.9,0.8c1.7,0.3,2.6,0.4,2.6,0.4l0,0.1c0,0-1,0.1-2.7-0.1
				c-0.9-0.1-1.9-0.3-3.1-0.6c-1.2-0.3-2.5-0.7-3.8-1.4c-2.7-1.2-5.7-3.2-8.2-6c-1.3-1.4-2.4-2.9-3.5-4.5c-1-1.7-1.9-3.4-2.7-5.2
				c-0.8-1.8-1.4-3.7-2-5.5c-0.6-1.8-1.3-3.6-2.1-5.2c-0.8-1.6-1.7-3.2-2.7-4.5c-1-1.3-2-2.4-3.2-3.2c-1.1-0.8-2.4-1.3-3.5-1.7
				c-1.1-0.4-2.1-0.5-3-0.7c-0.8-0.1-1.5-0.2-2-0.2C284,558.9,283.8,558.9,283.8,558.8L283.8,558.8z"/>
		</g>
		<g>
			<path class="st1" d="M289.1,559.2c0,0,0.6,0.3,1.5,1c0.4,0.3,1,0.8,1.5,1.4c0.6,0.6,1.1,1.2,1.7,2c0.6,0.8,1.1,1.7,1.7,2.6
				c0.5,1,1,2,1.5,3.2c0.2,0.6,0.5,1.1,0.6,1.7c0.2,0.6,0.4,1.2,0.6,1.8c0.2,0.6,0.3,1.2,0.5,1.9l0.4,1.9c0.3,1.3,0.5,2.5,0.8,3.7
				c0.3,1.2,0.7,2.4,1.1,3.5c0.8,2.2,1.8,4.2,2.9,5.7c1.1,1.5,2.3,2.6,3.2,3.2c0.5,0.3,0.8,0.5,1.1,0.7c0.3,0.1,0.4,0.2,0.4,0.2
				s-0.2-0.1-0.4-0.1c-0.3-0.1-0.7-0.3-1.2-0.5c-1-0.5-2.4-1.5-3.6-3c-1.3-1.5-2.4-3.5-3.3-5.8c-0.4-1.1-0.8-2.3-1.1-3.6
				c-0.3-1.2-0.5-2.5-0.7-3.8l-0.3-1.9c-0.1-0.6-0.3-1.2-0.4-1.8c-0.1-0.6-0.3-1.2-0.5-1.8c-0.2-0.6-0.3-1.2-0.6-1.7
				c-0.4-1.1-0.8-2.2-1.3-3.1c-0.5-1-1-1.9-1.5-2.7c-1-1.6-2.1-2.8-2.9-3.5C289.6,559.5,289.1,559.2,289.1,559.2z"/>
		</g>
		<path class="st2" d="M270.1,344.6c0,0,26.7-37.1,56-43.6c36.6-8.2,70.5-40.4,80.2-50.5c30.1-31.2,48.2-51.7,47.5-63
			c-1.6-27.5,3.7-46.8,24.2-44c18.8,2.5,18.1,26.3,8,36.3c-10.2,10.1-18.6,7.1-27,19.2c-18,25.8-50.7,68.7-83.1,91.5
			c-32.4,22.8-56.8,35.3-74.2,60.2c-17.3,24.9-13.3,43.6-13.3,43.6L270.1,344.6z"/>
		<path class="st2" d="M311.2,311.6l18-6.8c0,0,10.2-13.8,16.5-38.9c6.3-25.1,8.3-27.1,16.8-34.9c8.6-7.9,18.4-26.3,4.2-38.8
			c-12.9-11.4-28.4,3-28.1,17.1c0.2,14.1,7.4,18.5,7.7,31.6c0.3,11.5-5.4,32-16.3,48.3C319,305.6,311.2,311.6,311.2,311.6z"/>
		<path class="st2" d="M401.9,263.3c0,0,18,6.1,41.6-0.4c23.6-6.5,35-6.9,44.3-25.4c7.8-15.5,17-22.2,30-18.2
			c13,4,14.8,17.4,6.3,25.7c-12.3,12.1-23.7,3.8-40.3,10.4c-16.6,6.6-25.7,10.1-43.6,13.8c-18,3.7-49.7,5.6-49.7,5.6L401.9,263.3z"
			/>
		<path class="st2" d="M415.3,270.4c0,0,8.2,10.6,22.3,14.7c14.1,4.1,21.1,5,24.6,0.2c5.7-7.9,17.7-10.6,26-2
			c9.5,9.9-0.1,24.5-13.4,23.2c-9.4-0.9-10.5-8.3-18.2-11.5c-7.7-3.1-24.8-5.3-35.8-10.4c-11.3-5.1-21.8-12.5-21.8-12.5L415.3,270.4
			z"/>
		<g>
			<path class="st3" d="M390.6,278.9c0,0-1.7,1.5-4.9,3.8c-1.6,1.2-3.5,2.6-5.8,4.1c-2.3,1.5-4.9,3.2-7.8,5c-1.4,0.9-3,1.8-4.6,2.7
				c-1.6,0.9-3.3,1.8-5,2.7c-0.9,0.4-1.7,0.9-2.6,1.4c-0.9,0.4-1.8,0.9-2.7,1.3c-1.8,0.9-3.7,1.7-5.7,2.6c-3.9,1.7-7.9,3.3-12.1,4.8
				c-2.1,0.8-4.2,1.5-6.3,2.2c-2.1,0.7-4.3,1.5-6.4,2.2c-2.1,0.7-4.2,1.6-6.3,2.4c-2.1,0.8-4.1,1.8-6.1,2.7c-2,1-4,1.9-5.9,3
				c-0.9,0.5-1.9,1.1-2.8,1.6c-0.9,0.5-1.9,1-2.7,1.6c-1.8,1.1-3.6,2.2-5.2,3.3c-0.8,0.6-1.7,1.1-2.5,1.7c-0.8,0.6-1.6,1.2-2.3,1.8
				c-3.1,2.3-5.8,4.7-8.2,7.1c-1.2,1.2-2.3,2.4-3.3,3.5c-1,1.2-2,2.3-2.8,3.3c-0.8,1.1-1.6,2.1-2.2,3.1c-0.6,1-1.2,1.9-1.7,2.8
				c-0.5,0.9-0.9,1.6-1.2,2.3c-0.4,0.7-0.5,1.3-0.8,1.8c-0.4,1-0.6,1.5-0.6,1.5l-0.1,0c0,0,0.2-0.5,0.5-1.5c0.2-0.5,0.3-1.1,0.7-1.8
				c0.3-0.7,0.7-1.5,1.1-2.4c0.5-0.9,1-1.8,1.6-2.9c0.6-1,1.4-2.1,2.2-3.2c0.8-1.1,1.8-2.2,2.7-3.5c1-1.1,2.1-2.4,3.3-3.6
				c2.4-2.4,5.1-4.9,8.2-7.2c0.8-0.6,1.6-1.2,2.3-1.8c0.8-0.6,1.7-1.1,2.5-1.7c1.7-1.2,3.5-2.3,5.3-3.4c0.9-0.6,1.8-1.1,2.8-1.6
				c0.9-0.5,1.9-1,2.9-1.6c1.9-1,3.9-1.9,5.9-2.9c2.1-0.9,4.1-1.8,6.2-2.6c1.1-0.4,2.1-0.8,3.2-1.2c1.1-0.4,2.1-0.8,3.2-1.1
				c4.3-1.4,8.6-2.7,12.8-4.2c4.2-1.5,8.2-3.2,12-5c1.9-0.9,3.8-1.8,5.6-2.7c1.8-0.9,3.6-1.8,5.3-2.7c0.9-0.5,1.7-0.9,2.5-1.3
				c0.8-0.5,1.6-0.9,2.4-1.4c1.6-0.9,3.1-1.7,4.6-2.6c2.9-1.7,5.5-3.3,7.9-4.8c2.3-1.5,4.3-2.8,5.9-3.9
				C388.8,280.2,390.6,278.8,390.6,278.9L390.6,278.9z"/>
		</g>
		<g>
			<path class="st3" d="M348.6,305.7c0,0-1.5,0.5-4.1,1.5c-1.3,0.5-2.8,1.1-4.6,1.9c-1.8,0.8-3.7,1.7-5.9,2.7
				c-2.1,1-4.4,2.2-6.8,3.5c-2.4,1.3-4.8,2.8-7.3,4.4c-2.5,1.6-5,3.4-7.4,5.3c-2.4,2-4.7,4.2-6.7,6.6c-2.1,2.4-3.9,5-5.3,7.8
				c-0.7,1.4-1.4,2.8-2.1,4.1c-0.7,1.4-1.3,2.7-1.9,4.1c-0.6,1.4-1.2,2.7-1.7,4c-0.5,1.3-1,2.6-1.5,3.9c-1,2.5-1.8,5-2.5,7.2
				c-0.4,1.1-0.7,2.2-1,3.3c-0.3,1-0.5,2-0.8,3c-0.5,1.9-0.8,3.5-1,4.9c-0.5,2.7-0.6,4.3-0.6,4.3h-0.1c0,0,0-1.6,0.2-4.4
				c0.2-1.4,0.4-3.1,0.8-5c0.2-1,0.4-2,0.7-3c0.2-1.1,0.5-2.2,0.9-3.3c0.6-2.3,1.5-4.7,2.4-7.3c0.5-1.3,1.1-2.6,1.6-3.9
				c0.6-1.3,1.2-2.6,1.8-4c0.7-1.3,1.4-2.7,2.1-4c0.7-1.3,1.5-2.7,2.3-4c1.6-2.7,3.5-5.3,5.6-7.7c2.1-2.4,4.4-4.6,6.7-6.7
				c2.3-2.1,4.8-3.9,7.2-5.7c4.9-3.4,9.9-6,14.2-7.9c2.2-1,4.2-1.8,6-2.5c1.8-0.7,3.4-1.3,4.7-1.7C347,306,348.6,305.6,348.6,305.7
				L348.6,305.7z"/>
		</g>
		<path class="st4" d="M151.2,355c0,0-16.2-11.9-19.6-41.9c-1.9-17-4-30.2-0.4-38.5c3.8-8.9,11.7-6.6,13.8-20.7
			c1.7-11.6-6.6-20.8-17.1-21.3c-8.7-0.4-19.5,7.1-17.4,22.8c3,13.6,13.3,12.2,12.9,22c-1.3,33.4,4.3,41.2,3.1,62.3
			C136.4,343,151.2,355,151.2,355z"/>
		<path class="st5" d="M283.6,538c0,0,12.3,5.7,6.7,30.7c-5.1,22.6-26.5,35.3-45.1,36c-17.9,0.7-27.9,1.4-35.8,6.8
			c-9.3,6.4-9.3,15.3,6.8,16c2.5,16.1-55,16.6-44.7,0c21-0.1,17.4-6.2,22.2-14.8c8.8-15.7,22.1-17,39.3-20.6
			c17.7-3.8,20-33.5,35.1-39.4C280.4,547.9,273,532.2,283.6,538z"/>
		<path class="st6" d="M237,62.4c2.5,7.1,21.2,71.4,9.6,128.7C232.6,260.2,259,321.4,288.6,378c29.6,56.5,11.7,93.8-4.8,124.1
			c-16.5,30.3-60.7,56.5-60.7,56.5s-4.8-13.8,17.9-42.1c29.6-39.3,20.7-77.2,13.5-113.1c-7.2-35.9-53.5-126.9-30.7-193.7
			c22.8-66.9,16.4-127.6,4.8-147.5c-11.6-20-20.5-17.4-26.3-29.5c-4.7-9.7-1.3-30.4,16.3-32.5c23.2-2.8,31.2,21.1,23.8,34.6
			C235.7,47.4,234.5,55.3,237,62.4z"/>
		<path class="st7" d="M238.8,176.4c0,0-1.9-18.5-18.4-44.1c-10.7-16.6-17.8-17.5-18.7-31c-0.9-13.5-11-27.1-22.2-27
			C164.1,74.6,159,85,160.8,95.5c1.6,9.2,9.3,21,24.1,20.1c14.7-0.9,25.6,14.3,32.2,25.9c14.9,26,7.8,54.1,5.7,71.6
			C243.1,207,238.8,176.4,238.8,176.4z"/>
		<path class="st6" d="M236.7,238.9L248,284c0,0-4.5-42.5,11.3-65.6c19.9-29,28.8-34.1,42.3-51.8c14.8-19.4,18.6-41.6,21.4-55.3
			c3-14.8,23-10.9,27.4-29.3c3.8-16.1-7.4-25.6-18.8-26.3c-10.3-0.7-21.4,6.2-22.8,17.1c-2.5,18.5,6.1,19.9,7,35.5
			c0.8,14.4-6.6,39.2-24.4,58.5c-17.8,19.3-36.3,32.2-48.7,50.6C230.3,235.8,236.7,238.9,236.7,238.9z"/>
		<path class="st6" d="M191.8,382.2l-28.8-15.1c0,0-1.3,6.8-19.7,9.6c-22.6,3.4-28.8,2.6-44.9,1.3c-19.8-1.6-39.5-3-46.5-22.5
			C44,333.8,31.6,327.4,19.5,333c-11.1,5.2-11.7,20.5-0.3,30.6c11,9.8,21.1,4.3,27.9,6.3c10.5,3.1,17.4,10.7,38.4,14.9
			c22.3,4.5,37.4,6.2,55.4,5.6C172.1,389.3,191.8,382.2,191.8,382.2z"/>
		<path class="st7" d="M52.5,209.4C57,227,69.9,281.5,91.7,313.5c21.8,32,52.8,61.1,98.5,71.5c45.7,10.4,58,12.9,70.4,49.9
			c13.5-21.8-1.5-58.1-13.9-59.6c-12.4-1.4-56-5.7-79.8-14.1c-23.7-8.3-62.5-38.1-81.3-76.3c-18.9-38.2-29.5-69-24.3-79.2
			c5.2-10.2,16.9-18,14.6-31.5c-2.4-13.5-12.4-20.9-23-19.9c-10.2,0.9-20.9,9.5-17.9,26.2C38.6,201.3,49.5,197.3,52.5,209.4z"/>
		<path class="st6" d="M77.4,278.1c0,0-36.3-10.8-44.7-27.1c-4-7.8,2.4-17.4-5.1-27.9c-11.5-16-43,5.4-18.7,24.5
			c5.5,3.3,14.6,3.2,19.9,8.4c30.1,29.2,42.8,23.9,51.7,38.1S77.4,278.1,77.4,278.1z"/>
		<path class="st7" d="M294.2,481.4c0,0-15.2,35.8-45.8,56.3c-22.2,14.9-38.6,9.2-49.3,20.9c-9.2,10-8.7,17.2-8.7,17.2
			s15.9-14.9,49.4-12.5c34.2,2.4,50-24.7,54.7-48.5C298.9,491.2,294.2,481.4,294.2,481.4z"/>
		<g>
			<path class="st3" d="M294.6,390.9c0,0,0.3,0.7,0.7,1.9c0.4,1.3,1,3.1,1.6,5.5c0.6,2.4,1.3,5.3,1.9,8.7c0.6,3.4,1.1,7.2,1.4,11.5
				c0.3,4.2,0.4,8.8,0.1,13.7c-0.4,4.9-1.1,10-2.3,15.1c-1.2,5.2-2.7,10.4-4.9,15.5c-2.1,5.1-4.9,10.1-8.3,14.7
				c-3.3,4.6-6.8,9-10.6,13.1c-3.7,4.1-7.6,8.1-11.4,11.7c-3.8,3.6-7.7,7-11.3,10.2c-3.6,3.2-7,6.2-10,9.1c-3,2.9-5.6,5.7-7.7,8.4
				c-2.1,2.7-3.7,5.2-4.9,7.3c-1.2,2.1-1.9,3.9-2.4,5.1c-0.5,1.2-0.7,1.9-0.7,1.9l-0.2-0.1c0,0,0.2-0.7,0.6-1.9
				c0.4-1.3,1-3.1,2.1-5.3c1-2.3,2.6-4.9,4.6-7.7c2-2.8,4.5-5.8,7.5-8.8c2.9-3.1,6.3-6.2,9.8-9.5c3.6-3.3,7.3-6.7,11.2-10.3
				c3.8-3.6,7.7-7.4,11.5-11.4c3.7-4,7.4-8.3,10.8-12.7c1.7-2.2,3.4-4.4,4.9-6.8c1.5-2.4,2.8-4.8,3.9-7.3c2.3-5,3.9-10.2,4.8-15.4
				c0.9-5.2,1.3-10.2,1.4-15c0.1-4.8,0-9.3-0.2-13.5c-0.3-4.2-0.7-8-1.1-11.4c-0.4-3.4-0.9-6.3-1.4-8.7c-0.4-2.4-0.8-4.3-1.1-5.6
				c-0.3-1.3-0.5-2-0.5-2L294.6,390.9z"/>
		</g>
		<g>
			<path class="st3" d="M218.4,259.8c0,0,0.7,4.2,2.2,11.5c0.8,3.6,1.8,8,3,13c1.2,5,2.8,10.6,4.6,16.7c1.8,6.1,4,12.6,6.8,19.3
				c2.7,6.7,5.8,13.7,9.8,20.6c3.9,6.9,8.5,13.7,14.5,19.5c1.5,1.4,3,2.8,4.7,4.1c0.8,0.6,1.7,1.3,2.5,1.8l2.7,1.7
				c3.5,2.4,6.6,5.5,9.2,8.9c2.6,3.4,4.9,7,6.7,10.9c1.9,3.8,3.4,7.8,4.7,11.8c2.5,8,3.9,16.3,4.3,24.3c0.4,8-0.1,15.8-1.5,23.1
				c-1.4,7.3-3.8,14-7.1,19.6c-0.4,0.7-0.9,1.4-1.3,2c-0.5,0.6-0.9,1.3-1.3,1.9c-0.4,0.6-0.9,1.2-1.3,1.8c-0.5,0.6-0.9,1.2-1.4,1.8
				c-0.5,0.6-0.9,1.1-1.4,1.7c-0.5,0.5-0.9,1.1-1.4,1.6c-0.9,1.1-1.8,2-2.7,3c-3.6,3.8-7.2,6.7-10.2,8.8c-3,2.2-5.7,3.6-7.5,4.4
				c-1.8,0.9-2.8,1.2-2.8,1.2l-0.1-0.2c0,0,1-0.4,2.7-1.4c1.7-1,4.1-2.6,7-4.9c2.9-2.3,6.2-5.3,9.6-9.1c0.9-0.9,1.7-1.9,2.6-3
				c0.4-0.5,0.9-1.1,1.3-1.6c0.4-0.5,0.8-1.1,1.3-1.7c0.4-0.6,0.9-1.1,1.3-1.7c0.4-0.6,0.9-1.2,1.3-1.8c0.4-0.6,0.9-1.3,1.3-1.9
				c0.4-0.6,0.8-1.3,1.2-1.9c3.2-5.3,5.4-11.9,6.9-18.9c1.4-7.1,2-14.7,1.7-22.6c-0.1-3.9-0.5-8-1.1-12c-0.6-4-1.4-8.1-2.5-12.1
				c-1.1-4-2.5-8-4.3-11.8c-1.8-3.8-4-7.5-6.5-10.8c-2.6-3.3-5.7-6.3-9.2-8.6c-1.8-1.1-3.6-2.2-5.3-3.5c-1.7-1.2-3.3-2.6-4.9-4
				c-3.1-2.9-5.9-6-8.4-9.3c-2.5-3.3-4.8-6.7-6.8-10.1c-4-6.9-7.3-14-10-20.8c-2.7-6.8-4.8-13.4-6.6-19.5
				c-1.8-6.1-3.1-11.8-4.3-16.9c-1.1-5.1-2-9.5-2.6-13.2c-1.3-7.3-1.7-11.6-1.7-11.6L218.4,259.8z"/>
		</g>
		<g>
			<path class="st3" d="M243.7,366c0,0,1.8,0.4,4.7,1.5c1.5,0.6,3.2,1.3,5.2,2.3c2,1,4.1,2.2,6.4,3.8c2.2,1.5,4.6,3.4,6.7,5.6
				c2.2,2.2,4.2,4.9,5.9,7.8c1.7,2.9,3.1,6.2,4,9.6c0.2,0.9,0.5,1.7,0.7,2.6c0.1,0.4,0.2,0.9,0.3,1.3l0.3,1.3l0.5,2.6
				c0.2,0.9,0.3,1.8,0.4,2.7c0.6,3.6,0.7,7.2,0.7,10.8c-0.1,1.8-0.2,3.5-0.3,5.3c-0.1,0.9-0.2,1.7-0.3,2.6l-0.2,1.3
				c-0.1,0.4-0.2,0.8-0.2,1.3c-0.3,1.7-0.6,3.3-1.1,4.9c-0.2,0.8-0.4,1.6-0.6,2.3c-0.3,0.8-0.5,1.5-0.8,2.2
				c-0.3,0.7-0.5,1.5-0.8,2.2c-0.3,0.7-0.6,1.4-0.9,2.1c-0.5,1.4-1.2,2.6-1.8,3.8c-0.3,0.6-0.6,1.2-0.9,1.8c-0.3,0.6-0.7,1.1-1,1.6
				c-0.3,0.5-0.6,1-0.9,1.5c-0.3,0.5-0.7,0.9-1,1.4c-0.7,0.9-1.2,1.8-1.8,2.5c-0.6,0.7-1.2,1.4-1.7,2c-0.5,0.6-1,1.1-1.5,1.5
				c-0.4,0.4-0.8,0.8-1.1,1.1c-0.6,0.6-0.9,0.9-0.9,0.9l-0.1-0.1c0,0,0.3-0.3,0.9-1c0.3-0.3,0.6-0.7,1-1.1c0.4-0.4,0.9-1,1.4-1.6
				c0.5-0.6,1-1.3,1.6-2c0.6-0.7,1.1-1.6,1.7-2.5c0.3-0.5,0.6-0.9,0.9-1.4c0.3-0.5,0.6-1,0.9-1.6c0.3-0.5,0.6-1.1,0.9-1.6
				c0.3-0.6,0.6-1.2,0.9-1.8c0.6-1.2,1.2-2.5,1.7-3.8c0.3-0.7,0.5-1.3,0.8-2c0.3-0.7,0.5-1.4,0.7-2.1c0.2-0.7,0.5-1.5,0.7-2.2
				c0.2-0.8,0.4-1.5,0.6-2.3c0.4-1.5,0.7-3.2,1.1-4.8c0.1-0.4,0.2-0.8,0.2-1.2l0.2-1.3c0.1-0.8,0.2-1.7,0.4-2.5
				c0.2-1.7,0.3-3.5,0.4-5.2c0-0.9,0-1.8,0-2.6c0-0.9,0-1.8,0-2.7l-0.1-2.7c0-0.9-0.2-1.8-0.2-2.7c-0.3-3.6-1-7.1-2-10.5
				c-0.9-3.4-2.4-6.6-4.2-9.4c-0.9-1.4-1.9-2.7-2.9-4c-1-1.2-2.1-2.4-3.2-3.5c-2.2-2.2-4.4-4-6.6-5.6c-2.2-1.6-4.3-2.8-6.2-3.9
				c-1.9-1.1-3.6-1.9-5.1-2.5C245.4,366.6,243.6,366.1,243.7,366L243.7,366z"/>
		</g>
		<g>
			<path class="st8" d="M292,486.3c0,0,0.8,2.3,1.5,6.5c0.4,2.1,0.7,4.7,0.9,7.6c0.2,3,0.2,6.3-0.2,10c-0.4,3.6-1.1,7.6-2.5,11.6
				c-1.4,4-3.5,7.9-6.2,11.6c-2.7,3.6-6.1,7-9.9,9.8c-1.9,1.4-4,2.6-6.2,3.7c-2.2,1.1-4.4,2-6.7,2.8c-4.6,1.6-9.4,2.4-14.2,3
				c-4.8,0.5-9.5,0.6-14,0.6c-4.5,0-9-0.3-12.9-0.2c-4,0.2-7.8,0.9-11.1,2.1c-3.3,1.2-6.2,2.7-8.6,4.3c-2.4,1.6-4.3,3.3-5.8,4.8
				c-1.5,1.5-2.5,2.8-3.2,3.6c-0.7,0.9-1,1.4-1,1.4l-0.2-0.1c0,0,0.3-0.6,0.9-1.5c0.6-1,1.5-2.3,2.9-4c1.4-1.6,3.2-3.5,5.6-5.3
				c2.4-1.8,5.3-3.6,8.8-4.9c1.7-0.7,3.6-1.2,5.5-1.7c2-0.4,4-0.7,6.1-0.8c1.1,0,2.2-0.1,3.2-0.1l0.8,0l0.8,0c0.5,0,1.1,0,1.6,0.1
				c2.2,0.1,4.4,0.1,6.6,0.2c4.5,0.1,9.1,0,13.8-0.3c4.7-0.4,9.4-1,14-2.3c2.3-0.6,4.6-1.4,6.7-2.4c2.2-1,4.2-2.2,6.1-3.5
				c3.9-2.7,7-6.2,9.5-9.9c1.2-1.9,2.3-3.8,3.2-5.7c0.9-2,1.6-3.9,2.2-5.8c1.2-3.9,2-7.7,2.4-11.2c0.5-3.5,0.5-6.8,0.6-9.7
				c0-2.9-0.2-5.4-0.4-7.5c-0.2-2.1-0.4-3.7-0.6-4.8c-0.2-1.1-0.3-1.7-0.3-1.7L292,486.3z"/>
		</g>
		<g>
			<path class="st8" d="M285.2,498.1c0,0,0.3,1.4,0.4,3.9c0.1,2.5,0.2,6.1-0.4,10.4c-0.6,4.3-1.7,9.3-4,14.2
				c-1.1,2.5-2.6,4.9-4.3,7.2c-1.7,2.3-3.7,4.5-5.9,6.3c-4.5,3.8-9.7,6.4-14.9,8.2c-2.6,0.9-5.1,1.5-7.5,2c-2.4,0.5-4.8,0.8-6.9,1.1
				c-4.3,0.5-7.9,0.6-10.4,0.6c-2.5,0-4,0-4,0s1.4-0.1,3.9-0.2c2.5-0.1,6.1-0.4,10.3-1c4.3-0.6,9.2-1.6,14.2-3.4
				c2.5-0.9,5.1-2,7.5-3.3c2.5-1.3,4.8-2.9,7-4.8c4.3-3.7,7.8-8.3,10-13.2c2.3-4.8,3.6-9.7,4.2-13.9c0.7-4.2,0.8-7.8,0.8-10.3
				C285.3,499.6,285.2,498.1,285.2,498.1z"/>
		</g>
		<g>
			<path class="st8" d="M90.7,311.9c0,0,2.2,2.5,6.1,6.8c2,2.2,4.4,4.8,7.2,7.7c2.8,2.9,6,6.2,9.6,9.7c3.6,3.5,7.5,7.2,11.9,10.9
				c4.3,3.8,9,7.6,14.2,11.1c2.6,1.7,5.3,3.4,8.2,4.8c2.9,1.4,6,2.5,9.1,3.4c6.3,1.8,12.9,3.1,19.4,4.2c6.6,1.1,13.2,2.1,19.6,3.3
				c6.5,1.2,12.8,2.5,18.9,4.3c6,1.7,11.8,3.9,16.8,6.9c2.5,1.4,4.8,3.1,6.9,4.8c2.1,1.7,4,3.5,5.7,5.4c3.4,3.7,6,7.6,7.8,11.2
				c1.9,3.6,3,7.1,3.7,9.9c0.7,2.8,1,5.1,1.1,6.7c0.1,1.6,0.1,2.4,0.1,2.4l-0.1,0c0,0,0-0.8-0.1-2.4c-0.2-1.6-0.5-3.8-1.2-6.6
				c-0.7-2.8-1.9-6.2-3.8-9.7c-1.9-3.6-4.4-7.4-7.9-11c-3.4-3.6-7.6-7.1-12.6-9.8c-5-2.7-10.6-4.9-16.6-6.6
				c-6-1.7-12.3-3.1-18.8-4.3c-6.5-1.2-13-2.3-19.6-3.6c-6.6-1.2-13.1-2.7-19.4-4.6c-6.4-1.7-12.2-4.8-17.4-8.2
				c-5.3-3.4-10.1-7.1-14.5-10.8c-4.4-3.7-8.4-7.4-11.9-10.9c-3.6-3.5-6.8-6.8-9.5-9.8c-2.8-3-5.1-5.6-7-7.9
				C92.6,314.6,90.6,312,90.7,311.9L90.7,311.9z"/>
		</g>
		<g>
			<path class="st8" d="M252.5,413.1c0,0-0.5-1.5-1.8-3.9c-1.3-2.4-3.5-5.7-6.7-9.1c-3.2-3.4-7.5-6.9-12.6-9.8
				c-2.5-1.5-5.3-2.8-8.1-4c-2.9-1.2-5.8-2.1-8.9-2.9c-6.1-1.6-12.3-2.6-18.1-3.5c-5.8-0.8-11.3-1.6-16-2.5
				c-2.3-0.4-4.5-0.9-6.3-1.4c-1.9-0.5-3.5-1-4.8-1.5c-1.3-0.5-2.3-0.9-3-1.2c-0.7-0.3-1-0.5-1-0.5s0.4,0.2,1,0.5
				c0.7,0.3,1.7,0.7,3,1.1c1.3,0.4,2.9,0.9,4.8,1.3c1.9,0.4,4,0.8,6.3,1.2c4.7,0.8,10.1,1.3,16,2.2c5.8,0.8,12.1,1.8,18.2,3.4
				c3,0.8,6.1,1.8,9,3c2.9,1.2,5.6,2.6,8.2,4.1c5.1,3,9.4,6.7,12.6,10.2c1.6,1.8,2.9,3.5,4,5.1c1.1,1.6,1.9,3.1,2.5,4.3
				C252.1,411.6,252.5,413.1,252.5,413.1z"/>
		</g>
		<g>
			<path class="st3" d="M244.1,206.9c0,0-0.4,0.2-0.9,0.7c-0.6,0.5-1.4,1.2-2.3,2.3c-0.9,1.1-1.9,2.5-2.9,4.2
				c-0.5,0.8-0.9,1.8-1.4,2.8c-0.4,1-0.9,2.1-1.3,3.2c-0.4,1.2-0.8,2.3-1.1,3.6c-0.2,0.6-0.3,1.3-0.5,1.9c-0.1,0.7-0.3,1.3-0.4,2
				c-0.6,2.7-0.9,5.6-1.2,8.7c-0.3,3-0.2,6.1,0.2,9.3c0.4,3.2,1,6.3,1.9,9.5c1.6,6.3,3.9,12.4,6.3,18c2.4,5.6,4.8,10.7,7.1,15.1
				c2.2,4.3,4.2,7.9,5.6,10.4c1.4,2.5,2.3,3.9,2.3,3.9s-0.9-1.3-2.4-3.8c-1.5-2.4-3.6-5.9-5.9-10.2c-2.3-4.3-5-9.4-7.4-15
				c-2.4-5.6-4.8-11.7-6.4-18.1c-0.8-3.2-1.5-6.4-1.8-9.6c-0.4-3.2-0.4-6.4-0.1-9.5c0.3-3.1,0.7-6,1.3-8.7c0.2-0.7,0.3-1.4,0.5-2
				c0.2-0.7,0.4-1.3,0.6-1.9c0.3-1.3,0.8-2.5,1.2-3.6c0.4-1.2,0.9-2.2,1.4-3.2c0.5-1,1-2,1.5-2.8c1-1.7,2.1-3.1,3-4.2
				c1-1.1,1.8-1.8,2.4-2.3C243.7,207.1,244.1,206.9,244.1,206.9z"/>
		</g>
		<g>
			<path class="st3" d="M240.3,213.1c0,0-0.3,0.8-0.8,2.2c-0.2,0.7-0.6,1.6-0.9,2.6c-0.3,1-0.7,2.1-1,3.4c-0.4,1.2-0.7,2.6-1,4
				c-0.3,1.4-0.7,3-1,4.5c-0.3,1.6-0.5,3.2-0.6,4.9c-0.1,1.7-0.1,3.4,0.1,5.1c0.2,1.7,0.5,3.4,0.9,5.1c0.4,1.6,0.8,3.2,1.4,4.7
				c0.1,0.4,0.3,0.7,0.4,1.1c0.2,0.4,0.3,0.7,0.5,1.1c0.3,0.7,0.6,1.4,1,2.1c0.6,1.3,1.3,2.5,1.9,3.7c0.7,1.1,1.3,2.1,2,2.9
				c0.6,0.8,1.3,1.4,1.9,1.8c0.6,0.4,1.1,0.6,1.5,0.7c0.4,0.1,0.6,0,0.6,0l0,0.1c0,0-0.2,0.1-0.6,0.1c-0.4,0-1-0.1-1.7-0.5
				c-0.7-0.4-1.5-1-2.2-1.7c-0.8-0.8-1.5-1.7-2.2-2.8c-0.7-1.1-1.4-2.4-2.1-3.7c-0.6-1.3-1.3-2.8-1.8-4.4c-0.5-1.6-1-3.2-1.2-4.9
				c-0.3-1.7-0.4-3.4-0.5-5.2c-0.1-1.7-0.1-3.5,0-5.2c0.1-1.7,0.2-3.4,0.3-5c0.2-1.6,0.4-3.2,0.7-4.7c0.3-1.5,0.7-2.8,1.1-4.1
				c0.4-1.2,0.8-2.4,1.2-3.4c0.4-1,0.8-1.8,1.1-2.5C239.8,213.8,240.2,213.1,240.3,213.1L240.3,213.1z"/>
		</g>
		<g>
			<path class="st9" d="M283.8,541.5c0,0,0.5,1.4,1.1,3.9c0.6,2.5,1.3,6.2,1.4,10.7c0.1,2.2,0,4.7-0.2,7.2c-0.3,2.5-0.8,5.2-1.5,7.9
				c-0.8,2.7-1.8,5.4-3.1,8.1c-1.3,2.6-3,5.2-4.8,7.5c-3.8,4.7-8.5,8.4-13.4,11.1c-4.9,2.7-9.9,4.4-14.2,5.5
				c-4.3,1.1-8,1.5-10.6,1.7c-2.6,0.2-4.1,0.2-4.1,0.2s1.5,0,4-0.3c2.6-0.3,6.2-0.9,10.5-2.1c4.3-1.2,9.1-2.9,13.9-5.7
				c4.8-2.7,9.5-6.4,13.1-11c1.8-2.3,3.4-4.8,4.7-7.3c1.3-2.6,2.3-5.2,3.1-7.9c0.8-2.6,1.3-5.3,1.6-7.8c0.3-2.5,0.5-4.9,0.4-7.1
				c0-4.4-0.5-8.1-1-10.6C284.2,542.9,283.8,541.5,283.8,541.5z"/>
		</g>
		<g>
			<path class="st9" d="M282.3,565.3c0,0-0.3,1.7-1.4,4.6c-0.6,1.4-1.4,3.1-2.5,4.9c-1.1,1.8-2.6,3.8-4.3,5.7
				c-1.8,2-3.9,3.9-6.4,5.6c-2.5,1.7-5.3,3.3-8.3,4.6c-3,1.4-6.2,2.4-9.5,3.4c-3.3,1-6.7,1.8-10.2,2.2c-3.5,0.5-7,0.7-10.4,0.9
				c-3.4,0.2-6.8,0.5-10,0.9c-1.6,0.3-3.2,0.5-4.7,0.9c-0.8,0.1-1.5,0.3-2.2,0.6c-0.4,0.1-0.7,0.2-1.1,0.3c-0.3,0.1-0.7,0.3-1,0.4
				c-2.7,1.1-5.1,2.6-7.2,4.1c-2.1,1.6-3.8,3.2-5.2,4.7c-1.4,1.5-2.6,3-3.5,4.2c-1.8,2.4-2.7,3.9-2.7,3.9l-0.1,0
				c0,0,0.8-1.6,2.5-4.1c0.9-1.3,2-2.7,3.4-4.3c1.4-1.6,3.1-3.3,5.2-5c2.1-1.6,4.5-3.2,7.3-4.4c0.7-0.3,1.4-0.6,2.2-0.8
				c0.7-0.2,1.5-0.4,2.3-0.6c1.5-0.4,3.1-0.7,4.8-0.9c6.5-1.1,13.5-0.8,20.4-1.5c3.4-0.3,6.9-1,10.2-1.9c0.8-0.2,1.6-0.5,2.4-0.7
				c0.8-0.3,1.6-0.5,2.4-0.8c0.8-0.3,1.6-0.6,2.3-0.9c0.8-0.3,1.5-0.6,2.2-1c2.9-1.4,5.6-3.1,8-4.9c2.4-1.8,4.4-3.7,6.2-5.5
				c3.5-3.8,5.7-7.5,7-10.3c0.7-1.4,1.1-2.5,1.3-3.2C282.1,565.7,282.2,565.3,282.3,565.3L282.3,565.3z"/>
		</g>
	</g>
	<path class="st10" d="M67.5,212.1c0,0,3.7,5.7,0,9.5c-3.7,3.7-7.3,2.4-7.3,2.4s-2.7-3.7-0.6-8.1C61.8,211.5,67.5,212.1,67.5,212.1z
		"/>
	<path class="st10" d="M467.7,259.8c0,0,5.6-3.9,9.4-0.3c3.9,3.6,2.7,7.2,2.7,7.2s-3.6,2.8-8,0.8
		C467.3,265.5,467.7,259.8,467.7,259.8z"/>
	<path class="st10" d="M423.7,215.1c0,0,6.7,1.4,6.7,6.7c0,5.3-3.5,6.9-3.5,6.9s-4.5-0.7-6.1-5.3
		C419.2,218.8,423.7,215.1,423.7,215.1z"/>
	<path class="st10" d="M248.2,65.2c0,0,3.7,5.7,0,9.5c-3.7,3.7-7.3,2.4-7.3,2.4s-2.7-3.7-0.6-8.1C242.4,64.7,248.2,65.2,248.2,65.2z
		"/>
	<path class="st5" d="M401.6,696.4c0,20.9-16.9,37.8-37.8,37.8H155.1c-20.9,0-37.8-16.9-37.8-37.8v-31.1c0-20.9,16.9-37.8,37.8-37.8
		h208.6c20.9,0,37.8,16.9,37.8,37.8V696.4z"/>
	<g>
		<path class="st11" d="M171.2,649.3v-3.1c0-0.6,0.3-0.9,0.9-0.9c0.6,0,1,0.3,1,0.9v3.1h6.5c1.5,0,2.3,0.8,2.3,2.3v6.6
			c0,1.5-0.8,2.3-2.3,2.3h-6.5v5.7c0,0.6-0.3,0.9-1,0.9c-0.6,0-0.9-0.3-0.9-0.9v-5.7h-6.5c-1.5,0-2.2-0.7-2.2-2.3v-6.6
			c0-1.5,0.7-2.3,2.2-2.3H171.2z M171.2,651.2h-6c-0.6,0-0.8,0.3-0.8,0.9v5.7c0,0.6,0.3,0.9,0.8,0.9h6V651.2z M180,657.7v-5.7
			c0-0.6-0.3-0.9-0.9-0.9h-6v7.5h6C179.7,658.6,180,658.3,180,657.7z"/>
		<path class="st11" d="M200.6,646.3v2h8.8c0.6,0,0.9,0.3,0.9,0.9c0,0.7-0.3,1-0.9,1h-2.5c0,0.1,0,0.3-0.1,0.3
			c-0.8,2.5-1.7,4.5-2.7,6c-0.9,1.4-1.9,2.6-2.9,3.6c1,0.7,2.2,1.4,3.6,2.1c1.2,0.7,2.8,1.4,4.8,2c0.5,0.2,0.7,0.5,0.7,0.9
			c0,0.7-0.3,1.1-1,1.1c-0.1,0-0.3,0-0.7-0.1c-2.4-1-4.4-1.9-5.8-2.7c-1.2-0.6-2.3-1.3-3.2-2c-0.9,0.7-1.9,1.4-2.9,2.1
			c-1.6,1-3.7,1.9-6.2,2.8c-0.3,0-0.5,0.1-0.7,0.1c-0.3,0-0.5-0.1-0.6-0.3c-0.2-0.2-0.3-0.4-0.3-0.6c0-0.4,0.2-0.7,0.5-0.8
			c2.4-0.8,4.4-1.7,6-2.6c1-0.6,1.9-1.2,2.7-1.9c-1.2-1-2.3-2.4-3.3-4.1c-1.1-1.8-2-3.8-2.6-5.9H190c-0.6,0-0.9-0.3-0.9-1
			c0-0.6,0.3-0.9,0.9-0.9h8.6v-2c0-0.6,0.3-1,1-1C200.3,645.3,200.6,645.7,200.6,646.3z M197,655.6c0.8,1.2,1.7,2.3,2.8,3.2
			c1-1,2-2.2,2.9-3.4c0.9-1.4,1.7-3.1,2.5-5.2h-10.7C195.2,652.4,196,654.2,197,655.6z"/>
		<path class="st11" d="M234.8,651.7c1.2,0,1.8,0.6,1.8,1.7v4.6c0,1.2-0.6,1.8-1.8,1.8h-6.6v1.4h9.1c0.6,0,0.9,0.3,0.9,0.9
			c0,0.6-0.3,0.9-0.9,0.9h-9.1v2.8c0,0.6-0.3,0.9-0.9,0.9c-0.6,0-0.9-0.3-0.9-0.9V663h-8.8c-0.6,0-0.9-0.3-0.9-0.9
			c0-0.6,0.3-0.9,0.9-0.9h8.8v-1.4h-6.5c-1.2,0-1.8-0.6-1.8-1.8v-4.6c0-1.1,0.6-1.7,1.8-1.7H234.8z M225,645.8
			c0.9,0,1.4,0.5,1.4,1.4v2.1c0,0.9-0.5,1.4-1.4,1.4h-5.9c-0.9,0-1.3-0.4-1.3-1.4v-2.1c0-0.9,0.4-1.4,1.3-1.4H225z M224.7,648.4
			v-0.3c0-0.4-0.2-0.6-0.6-0.6H220c-0.4,0-0.5,0.2-0.5,0.6v0.3c0,0.4,0.2,0.6,0.5,0.6h4.1C224.5,649.1,224.7,648.9,224.7,648.4z
			 M226.3,654.8v-1.4h-5.9c-0.4,0-0.6,0.2-0.6,0.6v0.9H226.3z M226.3,656.4h-6.5v1c0,0.4,0.2,0.6,0.6,0.6h5.9V656.4z M228.1,654.8
			h6.6v-0.9c0-0.4-0.2-0.6-0.6-0.6h-6.1V654.8z M234.8,657.4v-1h-6.6v1.6h6.1C234.6,658.1,234.8,657.8,234.8,657.4z M235.5,645.8
			c0.9,0,1.4,0.5,1.4,1.4v2.1c0,0.9-0.5,1.3-1.4,1.3h-5.8c-0.9,0-1.4-0.4-1.4-1.3v-2.1c0-0.9,0.4-1.4,1.4-1.4H235.5z M235.2,648.4
			v-0.3c0-0.4-0.2-0.6-0.6-0.6h-4c-0.4,0-0.5,0.2-0.5,0.6v0.3c0,0.4,0.2,0.6,0.5,0.6h4C235,649,235.2,648.8,235.2,648.4z"/>
		<path class="st11" d="M260.3,650.8c1.2,0,1.9,0.4,1.9,1.2c0,0.3-0.3,0.7-0.9,1l-5.3,2.5c-0.2,0.1-0.3,0.2-0.3,0.3
			c0,0.1,0.1,0.2,0.3,0.4c0.6,0.6,1,1.1,1.4,1.6h7.4c0.6,0,0.9,0.3,0.9,0.9c0,0.6-0.3,0.9-0.9,0.9h-6.5c0.2,0.6,0.3,1.2,0.3,1.8
			c0,1.9-0.5,3.2-1.5,4c-0.8,0.7-2,1-3.6,1c-1.4,0-2.8-0.4-4.2-1.1c-0.5-0.2-0.8-0.5-0.8-0.9c0-0.7,0.4-1,1.2-1.1
			c1.9,0.7,3.2,1.1,3.9,1.1c1.1,0,1.8-0.2,2.3-0.7c0.6-0.5,0.9-1.3,0.9-2.4c0-0.6-0.1-1.2-0.3-1.8h-11.1c-0.6,0-0.9-0.3-0.9-0.9
			c0-0.6,0.3-0.9,0.9-0.9h9.8c-0.4-0.5-1-0.9-1.6-1.4c-0.4-0.3-0.6-0.6-0.6-0.8c0-0.3,0.3-0.6,0.8-0.8l5.2-2.2c0,0-0.2-0.1-0.5-0.1
			h-9.7c-0.6,0-0.8-0.3-0.8-0.8c0-0.5,0.3-0.8,0.8-0.8H260.3z M255.9,646.4v1h7.6c0.7,0,1.2,0.3,1.6,0.7c0.3,0.4,0.4,1,0.4,1.8
			c0,0.5-0.1,1.1-0.3,1.7c-0.2,0.6-0.5,0.8-1.1,0.8c-0.7,0-1-0.3-1-1c0.2-0.8,0.4-1.2,0.4-1.4c0-0.6-0.3-0.9-0.7-0.9h-15.2
			c-0.7,0-1.1,0.4-1.1,1.1v1.7c0,0.6-0.3,0.9-1,0.9c-0.6,0-0.9-0.3-0.9-0.9v-2.2c0-1.5,0.8-2.3,2.3-2.3h6.9v-1c0-0.6,0.3-1,1-1
			C255.6,645.4,255.9,645.8,255.9,646.4z"/>
		<path class="st11" d="M278.8,650.9c0,0.6-0.3,0.9-0.9,0.9h-1.1v0.8l2.5,3.7c0.1,0.2,0.2,0.4,0.2,0.6c0,0.6-0.3,0.9-0.9,0.9
			c-0.3,0-0.4-0.1-0.6-0.4l-1.2-2.2v10.4c0,0.6-0.3,0.9-0.9,0.9c-0.6,0-0.9-0.3-0.9-0.9v-9.7c-0.4,1.2-0.7,2.1-1,2.8
			c-0.4,1-0.7,1.7-1,2.2c-0.2,0.3-0.5,0.4-0.8,0.4c-0.6,0-0.9-0.3-0.9-0.8c0-0.2,0.1-0.5,0.3-0.7c1.1-1.9,1.8-3.5,2.3-4.7
			c0.4-0.9,0.7-2,1-3.3h-2c-0.6,0-0.9-0.3-0.9-0.9c0-0.6,0.3-0.9,0.9-0.9h2.3v-3.8c0-0.6,0.3-0.9,0.9-0.9c0.6,0,0.9,0.3,0.9,0.9v3.8
			h1.1C278.5,650,278.8,650.3,278.8,650.9z M283.4,660.3c-0.1,0.6-0.2,1.1-0.3,1.5c0,0,0,0,0.1,0c0.3,0.3,0.6,0.5,0.9,0.8
			c0.3,0.3,0.7,0.7,1.2,1.2c0,0.2,0.1,0.3,0.1,0.5c0,0.5-0.3,0.7-0.8,0.7c-0.2,0-0.4-0.1-0.6-0.2c-0.4-0.5-0.8-0.8-1.1-1.1
			c-0.1-0.1-0.3-0.2-0.4-0.3c-0.1,0.3-0.3,0.5-0.4,0.7c-0.4,0.6-1.2,1.4-2.4,2.2c-0.2,0-0.5,0.1-0.7,0.1c-0.6,0-0.9-0.3-0.9-1
			c0-0.1,0-0.3,0.2-0.5c1.1-0.7,1.9-1.3,2.3-1.8c0.6-0.6,0.9-1.6,1.1-2.9c0-0.4,0.3-0.6,0.7-0.6
			C283.1,659.6,283.4,659.8,283.4,660.3z M287.5,646.3c0.7,0.7,1.5,1.4,2.4,2c0.9,0.6,2,1.1,3.4,1.5c0.3,0.2,0.5,0.4,0.5,0.6
			c0,0.7-0.4,1.1-1,1.1c-0.1,0-0.3,0-0.5-0.1c-0.7-0.3-1.4-0.6-1.9-0.9v0.2c0,0.6-0.3,0.8-0.8,0.8H283c-0.6,0-0.8-0.3-0.8-0.8
			c0-0.1,0-0.1,0-0.2c-0.6,0.3-1.2,0.6-1.9,0.9c-0.1,0.1-0.2,0.1-0.4,0.1c-0.5,0-0.8-0.3-0.8-1c0-0.3,0.2-0.5,0.6-0.7
			c1.2-0.5,2.3-1,3.1-1.6c0.9-0.6,1.7-1.3,2.5-2.3c0.3-0.3,0.6-0.5,0.9-0.5C286.5,645.5,286.9,645.8,287.5,646.3z M284.1,652.7
			c1,0,1.5,0.5,1.5,1.4v3.6c0,1-0.5,1.5-1.5,1.5h-2.8c-1,0-1.5-0.5-1.5-1.5v-3.6c0-0.9,0.5-1.4,1.5-1.4H284.1z M284,657v-2.1
			c0-0.4-0.2-0.6-0.6-0.6H282c-0.4,0-0.6,0.2-0.6,0.6v2.1c0,0.5,0.2,0.7,0.6,0.7h1.4C283.8,657.7,284,657.5,284,657z M289.2,649.9
			c-0.9-0.6-1.8-1.3-2.7-2.2c-0.2-0.2-0.3-0.3-0.4-0.3c-0.1,0-0.2,0-0.3,0.1c-0.8,0.9-1.7,1.7-2.7,2.3H289.2z M290.6,660.3
			c-0.1,0.9-0.2,1.6-0.4,2.2c0.5,0.3,0.9,0.7,1.2,1c0.4,0.4,1,0.9,1.6,1.6c0,0.2,0.1,0.3,0.1,0.5c0,0.5-0.3,0.7-0.9,0.7
			c-0.2,0-0.4-0.1-0.6-0.2c-0.6-0.6-1.1-1.1-1.5-1.5c-0.2-0.2-0.4-0.4-0.6-0.6c0,0,0,0,0,0c-0.4,0.6-1.2,1.4-2.3,2.3
			c-0.2,0-0.5,0.1-0.7,0.1c-0.6,0-0.9-0.3-0.9-1c0-0.1,0-0.3,0.2-0.5c1.1-0.7,1.9-1.3,2.2-1.9c0.6-0.6,0.9-1.6,1.1-3
			c0-0.4,0.3-0.6,0.7-0.6C290.3,659.6,290.6,659.8,290.6,660.3z M291.2,652.7c1,0,1.5,0.5,1.5,1.4v3.6c0,1-0.5,1.5-1.5,1.5h-2.9
			c-1,0-1.5-0.5-1.5-1.5v-3.6c0-0.9,0.5-1.4,1.5-1.4H291.2z M291.1,657v-2.1c0-0.4-0.2-0.6-0.6-0.6H289c-0.4,0-0.6,0.2-0.6,0.6v2.1
			c0,0.5,0.2,0.7,0.6,0.7h1.4C290.8,657.7,291.1,657.5,291.1,657z"/>
		<path class="st11" d="M320.4,648.1c0,0.6-0.3,0.9-0.9,0.9h-8.4v1.8h7.6c0.7,0,1.2,0.3,1.5,0.7c0.3,0.4,0.4,1,0.4,1.7
			c0,0.6-0.2,1.4-0.5,2.2c-0.2,0.5-0.5,0.7-1.1,0.7c-0.6,0-0.9-0.3-0.9-0.9c0.4-1,0.6-1.6,0.6-1.9c0-0.5-0.3-0.8-0.7-0.8h-8.1
			c0,0.2-0.2,0.4-0.3,0.6c-0.6,0.7-1.3,1.3-2.2,1.9c0.4,0.2,0.9,0.4,1.2,0.6c0.3,0.3,0.5,0.5,0.5,0.8c0,0.6-0.3,0.8-0.8,0.8
			c-0.3,0-0.5,0-0.7-0.1c-1.1-0.6-2.3-1.2-3.7-1.8c-0.3-0.1-0.4-0.4-0.4-0.7c0-0.5,0.3-0.8,0.9-0.8h0.5c0.3,0.1,0.6,0.3,0.8,0.4
			c0,0,0.1-0.1,0.2-0.2c0.7-0.4,1.3-0.9,1.9-1.4h-5.5c-0.5,0-0.7,0.3-0.7,0.7v2c0,0.6-0.3,0.9-0.9,0.9c-0.6,0-0.9-0.3-0.9-0.9v-2.8
			c0-1.1,0.5-1.6,1.6-1.6h8V649h-8.4c-0.6,0-0.9-0.3-0.9-0.9c0-0.6,0.3-0.9,0.9-0.9h8.4v-0.9c0-0.6,0.3-0.9,0.9-0.9
			c0.6,0,1,0.3,1,0.9v0.9h8.4C320.1,647.2,320.4,647.5,320.4,648.1z M313.8,653.6c0.2,0.2,0.3,0.4,0.3,0.6c0,0.2-0.1,0.5-0.2,0.6
			c-0.7,0.8-1.5,1.6-2.3,2.4c-0.3,0.3-0.7,0.6-1.1,0.9c2.1-0.1,4-0.2,5.9-0.4c-0.4-0.4-0.8-0.7-1.2-1.1c-0.2-0.2-0.3-0.4-0.3-0.6
			c0-0.6,0.3-0.9,0.9-0.9c0.1,0,0.3,0.1,0.6,0.2c0.6,0.6,1.2,1.1,1.7,1.6c0.6,0.6,1.4,1.4,2.2,2.6c0,0.2,0.1,0.3,0.1,0.5
			c0,0.6-0.3,0.8-0.9,0.8c-0.3,0-0.6,0-0.7-0.2c-0.4-0.5-0.8-1-1.1-1.4c-0.1,0-0.2,0-0.3,0c-2.2,0.2-4.3,0.3-6.4,0.5v6.3
			c0,0.6-0.3,0.9-1,0.9c-0.6,0-0.9-0.3-0.9-0.9v-6.2c-3,0.2-5.8,0.3-8.6,0.4c-0.6,0-0.8-0.3-0.8-1.1c0-0.5,0.3-0.8,0.8-0.8
			c2.6,0,5.1-0.1,7.4-0.2c0.6-0.5,1.2-0.9,1.7-1.4c1-1,1.9-2,2.7-3.1c0.2-0.2,0.4-0.4,0.8-0.4C313.4,653.4,313.6,653.5,313.8,653.6z
			 M306.6,662.1c0,0.2-0.1,0.5-0.3,0.7c-1.2,1.3-2.8,2.4-4.9,3.4c-0.2,0.1-0.4,0.2-0.5,0.2c-0.7,0-1-0.3-1-1c0-0.2,0.1-0.5,0.5-0.7
			c1.9-0.9,3.5-2,4.9-3.3c0.2-0.1,0.4-0.2,0.5-0.2C306.3,661.2,306.6,661.5,306.6,662.1z M315.9,661c0.7,0.6,1.4,1.1,2,1.6
			c0.7,0.6,1.6,1.4,2.6,2.5c0,0.2,0.1,0.3,0.1,0.5c0,0.6-0.3,0.8-0.9,0.8c-0.3,0-0.5-0.1-0.7-0.2c-1-1-1.8-1.8-2.5-2.4
			c-0.6-0.5-1.2-1-1.9-1.5c-0.2-0.2-0.3-0.4-0.3-0.6c0-0.6,0.3-0.9,0.9-0.9C315.4,660.8,315.6,660.9,315.9,661z"/>
	</g>
	<g>
		<path class="st12" d="M216.3,7.9c-1,1.8,0.2,4.8,1.2,5.5c0.9,0.6,2.2,0.1,3-0.3c0.3-0.2,0.6,0.1,0.7,0.3c0.2,0.3,0.3,1.8-0.4,2.8
			c-2.9,4.3-6.4,4.7-8.8,5.7c-0.8,0.3-0.6,0.8,0.5,0.7c2.7-0.2,6.5-1.5,9.7-4c0.8-0.7,1.8-0.2,2.1,0.1c3.8,3.9,3.5,4.1,3.7,5.3
			c0.4,2.6-2.4,6.7-0.4,12.9c0.9,2.7,1.7,3.7,1.3,4.4c-0.5,1-2.2,0.3-2.1,1.3c0.1,0.8,2.8,0.4,3.2-0.3c1.1-1.8-1.4-6-1-9.2
			c0.4-3.2,3.7-7.7,3.2-9.9c-0.5-2.6-2.4-2-7.2-8c-0.4-0.5-0.9-0.9-1.4-1.3c-0.2-0.2-0.4-0.2-0.6-0.3c-0.4-0.2-0.9-0.3-1.1-0.9
			c-0.2-0.6,0.3-1.1,0.6-1.5c0.3-0.5,0.7-1.3,0.7-2.4c0-0.9-0.6-3.5-3.8-3.3C217.8,5.8,216.4,7.3,216.3,7.9L216.3,7.9z M218.2,8.5
			L218.2,8.5c1-0.1,1.2,0.6,1.3,1.2c0.1,0.5-0.5,1.1-1,1.2c-0.5,0.1-1.2-0.4-1.3-1C217.1,9.3,217.5,8.6,218.2,8.5z"/>
	</g>
	<g>
		<g>
			<path class="st12" d="M326.3,72.6c-0.1-0.3-0.5-0.6-1-0.4c-0.4,0.2-0.7,0.9-0.1,1.3C325.8,73.9,326.6,73.3,326.3,72.6z"/>
			<path class="st12" d="M331.6,73.1c0.1-0.2,0.6-0.6,1-0.3c0.4,0.3,0.6,1,0,1.3C332,74.5,331.3,73.8,331.6,73.1z"/>
			<path class="st12" d="M340.3,85.2c-0.5-0.6-3.6-3-8.7-3.9c-2.1-0.3-2.2-2.4-1.1-2.6c6.1-0.5,7.5-6.3,6.5-9.9
				c-0.7-2.6-2.9-4.8-6.4-5.3c-2.7-0.4-8.2,0.7-8.8,7.5c0,0.2-0.3,5.6,4.3,6.7c0.1-0.1,0.2,0,0.3-0.3c0.1-0.2-5.4-1.3-2.9-8
				c0.7-1.9,3.2-3.9,6.2-3.6c3.8,0.4,6.9,3.3,5.2,8.7c-1.1,3.2-4.7,2.5-6.1,3.5c-1.3,0.9-0.7,2.5-3,2.7c-4,0.3-9.6-3.1-9.8-3.2
				c-0.1,0-0.2,0.1-0.2,0.1c-0.2,0.5,3.1,3.4,7.8,4.6c2.9,0.8,2.2,2.2,2,3.2c-0.5,3.3-2.9,2.6-2.4,5c0.3,1.5,1.9,1.9,3.3,1.3
				c1.5-0.7,2.5-2.1,3.1-4.4c0.4-1.7,0.7-2.5,2-3.1c2.3-1.2,6.2,0.4,7.3,1c0.8,0.5,1.3,1.3,1.8,1.1
				C340.9,86.1,340.8,85.7,340.3,85.2z"/>
		</g>
		<path class="st12" d="M329.6,74.1c-0.1-1.2-0.3-1.6-0.6-1.6c-0.4,0-0.6,0.8-0.7,1c-0.2,0.7-0.5,0.9-0.2,1.4
			c0.1,0.2,0.4,0.2,0.7,0.2C329.6,75.2,329.6,74.9,329.6,74.1z"/>
	</g>
	<path class="st12" d="M171.8,96.6c1.6-1.4,3.2-2.4,4.7-4c0.7-0.7,1-0.9,1.6,0.2c0.5,1,0.7,1.1,0.9,2.4c0.5,2.8-0.3,3.1,0.8,8.9
		c0.3,1.6,0.3,1.9,0.4,2.5c0,0.8-1.3,1-0.9,1.6c0.3,0.4,1.8-0.6,1.9-1.1c0.2-1.5,0.7-2.6,0.3-5.2c-0.2-1.3,0.5-2.5,0.5-4.3
		c0-0.7,0.5-1.1,1-0.7c1.4,1.2,2.9,1.4,3.8,2.5c1.8,1.9,3,2.2,4.2,3c0.5,0.3,2.2-0.3,2.1-0.8c-0.2-0.6-1.2,0.3-1.8-0.2
		c-0.5-0.4-0.9-0.9-1.7-1.9c-3.5-4.7-5-3.7-6.9-6.3c-1.6-2.2-1.5-3.4-0.3-3.4c2.2-0.1,3.9-0.8,6-1.2c0.7-0.1,0.8-0.7,0.2-0.8
		c-1.3-0.2-4.6,0.9-7.4,0.4c-0.7-0.1-1.1-0.1-1.5,0.1c-0.9,0.3-1.6-0.6-1.2-0.9c0.5-0.4,0.9-1.8,0.7-2.5c-0.5-1.9-1.9-2.6-3.3-2
		c-1.2,0.5-2.4,1.9-1,4c0.4,0.7,1.4,1.1,2.4,1.1c0.3,0,0.6,0.8-0.1,1.4c-0.3,0.2-0.7,0.6-1,1.3c-1.1,2.4-4.3,4.4-4.9,5.5
		C170.8,96.7,171.2,97.1,171.8,96.6L171.8,96.6z M177.1,85.3L177.1,85.3c-0.1-0.3-0.3-0.7,0.2-1c0.4-0.2,0.8,0,0.9,0.2
		c0.1,0.3,0,0.7-0.3,0.9C177.7,85.7,177.3,85.6,177.1,85.3L177.1,85.3z M175.8,86.4L175.8,86.4c-0.3,0.1-0.7-0.2-0.8-0.5
		c-0.1-0.3,0.1-0.7,0.5-0.8c0.5-0.1,0.7,0.3,0.8,0.6C176.4,86,176.1,86.3,175.8,86.4z"/>
	<path class="st12" d="M32.7,339.8c-7.9-0.4-13.5-1.6-13.1,10.2c0.2,7.9,2.9,9.3,13.8,8.4c2-0.2,0.8-1.2-2.6-1.3
		c-7.1-0.1-9.3-0.1-9.7-7.3c-0.5-10.1,5.2-8.4,11.2-8.4c4.2,0,4.1,4.7,3.6,8.2c-0.5,3.4-5.2,2.7-6.8,2.7c-3.3,0-4.1-3.1-3.2-4.9
		c0.8-1.5,2.9-2.4,4.3-1c0.7,0.7,0,1.7,0.7,1.8c0.7,0.1,0.9-1.3,0.2-2.3c-1.2-2-4.9-1.8-6.2,0.7c-0.6,1.1-1,3.4,0,5
		c1.6,2.4,4.3,2.4,8.9,2c2-0.2,4-1.7,3.8-6.8C37.6,341.8,36.5,340,32.7,339.8z"/>
	<g>
		<path class="st12" d="M133.6,259.1c-0.5-3.3-2.2-5.4-6.1-6.7c-0.7-0.2-1-0.7-0.2-1c4.6-1.3,7.8-3.3,11.5-2.2
			c1.4,0.4,1.6,0,0.7-0.4c-2-1-4.9-0.4-7,0.1c-5.5,1.4-8.7,2.3-8.9,1.3c-0.1-0.5,0.2-0.6,0.6-0.7c1.3-0.2,3-0.8,4-1.4
			c2.8-1.8,4.4-5.5,7.8-5.3c0.4,0,0.4-0.3-0.1-0.4c-1.4-0.3-3,0.4-4.2,1.5c-0.8,0.7-3.6,4.5-7.5,4.9c-0.5,0.1-1-0.3-0.9-1
			c0.1-0.6,0.3-1.2,1.8-1.5c1.6-0.3,2.8-1.7,2.3-3.4c-0.4-1.4-1.6-2-2.8-2.1c-2.8-0.1-3.6,2.1-5.7,0.4c-0.1-0.1-0.2,0.1-0.1,0.2
			c1.1,1.7,3.3,2.3,3.4,4.9c0,2.1-0.9,3-0.7,5.5c0.1,1.3,0.5,2.3,1.3,3.4c0.3,0.4,0.3,0.8,0,1.1c-0.6,0.7-1.5,1.7-1.8,2.4
			c-0.5,1.3,0,2.5,1.6,3c0.6,0.2,0.7-0.1,0.2-0.3c-0.8-0.2-1.2-0.8-1.3-1.3c-0.2-0.6,0-1.1,0.3-1.6c0.1-0.2,0.3-0.1,0.4,0.1
			c0.4,1,0.8,1.8,2.4,2.2c0.3,0.1,0.5-0.1,0.2-0.2c-1.4-0.6-1.9-1.6-2.1-2.9c-0.1-0.5,0.4-0.8,0.8-1.1c0.4-0.3,0.7-0.2,0.9,0
			c0.4,0.3,1.5,1,3.7,1.1c0.7,0,1.1,0.3,0.7,0.7c-0.4,0.5-0.8,0.9-1.1,1.3c-1,1.5-0.1,2.8,1.2,3.2c0.3,0.1,0.4,0,0.1-0.2
			c-0.8-0.5-1.4-1.1-1.2-2c0.1-0.3,0.2-0.6,0.3-0.8c0.2-0.3,0.4-0.2,0.5,0.1c0.2,1,0.9,1.9,1.9,2.4c0.3,0.1,0.4,0,0.2-0.2
			c-1.9-1.7-1.9-3-1.5-3.5c0.2-0.3,0.6-0.9,1.1-0.6c0.8,0.3,1.1,0.6,1.6,1.5C133.2,261.8,133.8,260,133.6,259.1L133.6,259.1z
			 M122,243.2L122,243.2c-0.5-0.3-0.6-0.8,0-1.1c1.1-0.5,2.2-1,3.7-0.4c2.4,1,1.2,4.6-1.4,3.8C123.2,245.2,123.7,244.3,122,243.2z"
			/>
		<path class="st12" d="M125.6,243.1c-0.2-0.3-0.7-0.5-1.2-0.2c-0.3,0.3-0.5,1.1,0.2,1.4C125.3,244.6,125.9,243.7,125.6,243.1z"/>
	</g>
	<g>
		<path class="st12" d="M472.2,154.9c0-1.2,0-2.4-0.1-3.6c-2.3,0.1-4.4,0.8-6.2,2.1c0.6,0.9,1.3,1.8,2,2.7
			C469.3,155.4,470.7,155,472.2,154.9z"/>
		<path class="st12" d="M473.5,154.9c1.3,0.1,2.6,0.4,3.8,0.9c0.4-1.1,0.9-2.1,1.3-3.2c-1.8-0.8-3.5-1.2-5.2-1.3
			C473.5,152.5,473.5,153.7,473.5,154.9z"/>
		<path class="st12" d="M478.5,156.4c0.1,0.1,0.2,0.1,0.3,0.2c0.5,0.3,0.9,0.6,1.3,0.9c0.7-0.9,1.4-1.8,2.1-2.7
			c-0.7-0.6-1.5-1.1-2.3-1.6C479.3,154.2,478.9,155.3,478.5,156.4z"/>
		<path class="st12" d="M486.4,162.1c-0.5-2.4-1.6-4.6-3.4-6.5c-0.7,0.9-1.4,1.8-2.1,2.7c1.1,1.2,1.8,2.7,2.1,4.3
			C484.1,162.5,485.3,162.3,486.4,162.1z"/>
		<path class="st12" d="M483.2,164c0,0.5,0,1.1,0,1.6c1.1,0.2,2.2,0.3,3.4,0.5c0.1-0.9,0.1-1.8,0.1-2.7
			C485.5,163.6,484.3,163.8,483.2,164z"/>
		<path class="st12" d="M470.2,176c0.1-0.5,0.1-1,0.2-1.5c-1.1-0.2-2.2-0.5-3.2-1.1c-0.3,0.7-0.7,1.4-1,2.2c1.2,0.7,2.6,1.1,3.9,1.4
			C470.1,176.7,470.1,176.4,470.2,176z"/>
		<path class="st12" d="M474.1,174.6c-0.8,0.1-1.6,0.1-2.4,0.1c-0.1,0.8-0.2,1.5-0.3,2.3c0,0.1,0,0.2,0,0.3c1.1,0.1,2.3,0.1,3.4,0
			C474.5,176.3,474.3,175.5,474.1,174.6z"/>
		<path class="st12" d="M464,159.6c0.8-1.2,1.7-2.2,2.8-2.9c-0.7-0.8-1.3-1.7-1.9-2.6c-1.4,1.2-2.6,2.7-3.5,4.5
			C462.3,159,463.1,159.3,464,159.6z"/>
		<path class="st12" d="M460.9,159.8c-0.1,0.2-0.2,0.4-0.2,0.6c-0.4,1.1-0.6,2.6-0.6,4.1c0.9-0.1,1.8-0.3,2.6-0.4
			c0.1-1.3,0.3-2.4,0.8-3.4C462.5,160.5,461.7,160.1,460.9,159.8z"/>
		<path class="st12" d="M463,167.9c-0.2-0.8-0.3-1.6-0.4-2.5c-0.9,0.1-1.7,0.2-2.6,0.4c0.1,1.2,0.3,2.4,0.7,3.5
			C461.5,168.9,462.2,168.4,463,167.9z"/>
		<path class="st12" d="M463.4,169.2c-0.7,0.5-1.4,0.9-2.1,1.4c0.6,1.3,1.5,2.6,2.7,3.5c0.3,0.3,0.7,0.5,1,0.8
			c0.3-0.7,0.7-1.5,1-2.2c-0.3-0.2-0.5-0.4-0.8-0.6C464.5,171.3,463.8,170.3,463.4,169.2z"/>
		<path class="st12" d="M482.8,173.4c0.2-0.2,0.4-0.4,0.7-0.7c1.5-1.6,2.4-3.5,2.9-5.3c-1.1-0.2-2.2-0.3-3.3-0.5
			c-0.4,1.7-1.2,3.3-2.4,4.7C481.3,172.1,482,172.8,482.8,173.4z"/>
		<path class="st12" d="M479.6,172.4c-0.4,0.3-0.9,0.6-1.3,0.9c-0.6,0.3-1.6,0.8-2.9,1c0.2,0.9,0.4,1.8,0.6,2.6
			c2.1-0.5,4.1-1.4,5.8-2.8C481.1,173.6,480.4,173,479.6,172.4z"/>
		<path class="st12" d="M469.8,162c-1.9,2.7-1.1,5.1,1,6.5c2.2,1.5,4.9,0.3,5.7-0.9c1.3-2,1.1-4.3-0.5-5.9
			C474.2,160.1,471.1,160.2,469.8,162z"/>
	</g>
	<path class="st12" d="M358.4,200.4c-3.4-1.6-6.6-1.9-10.5-1.3c-0.8,0.1-1.3,1.1,0,1.5c2.6,0.9,4.1,2.5,5.1,3.7
		c1.3,1.8,1.9,3.8,2.1,6c0.4,3.7-0.5,9.3-3.8,11.6c-0.7,0.5-0.2,1.3,0.4,1c3-1.6,4.5-4.5,5-8.2c0.1-0.9,0.5-0.7,1.2-0.5
		c0.8,0.3,1.5,0.3,2.3,0.3c0.7,0,0.8-0.9,0.1-1c-1.4-0.2-2.8-0.7-3.2-1.3c-0.2-0.5-0.3-0.8-0.4-1.3c-0.3-1.3,0.5-1.4,1.1-1.7
		c1.1-0.6,1.4-0.8,1.9-1.2c0.5-0.4,0.1-1-0.6-0.8c-1.1,0.4-1.9,0.9-2.9,0.4c-1-0.5-1.3-3.7-5.3-6.5c-1-0.7,0.5-0.8,1-0.7
		c4.6,0.2,8.5,2.2,10.4,6.4c2.2,4.8,0.8,10.3-5.1,13.5c-1.4,0.7-0.7,1.2,0.4,0.8c7.5-3.2,7.5-10.4,6.7-13.4
		C363.5,204.2,361.5,201.8,358.4,200.4z"/>
	<path class="st12" d="M519.8,227.9c0,0-6.4,3-7.3,3.4c-0.8,0.4-1,0.1-1-0.8c0-1.2-0.1-2.1-0.2-3.1c0-0.8-0.1-2.6-0.1-3.5
		c-0.1-0.8-0.7-0.7-0.7,0c0,1-0.2,5.7-0.2,6.5c0,1.1-0.4,1-1,0.8c-0.3-0.1-6.3-2.8-6.8-3c-0.3-0.2-0.8,0-0.6,0.3
		c0.2,0.5,0.7,0.6,1.1,0.8c0.3,0.1,4.9,2.7,5.5,3c1.3,0.8,1.7,1.7,1.6,2.4c-0.1,1.2,0,1.5-0.2,4.1c-0.1,1.8,0,2-0.8,2.9
		c-0.9,1.1-1.8,2-2.2,2.4c-0.5,0.4,0,0.7,0.3,0.5c0.8-0.7,2.3-2.3,2.6-2.6c0.7-0.7,0.7-0.1,0.7,0.2c0,0.9,0.1,1.7,0.1,2.7
		c0,0.9,0.8,0.9,0.9,0.1c0.1-0.8,0.2-2,0.2-2.8c0-0.7,0.3-0.6,0.6-0.4c0.5,0.4,2.6,2.1,3,2.3c0.3,0.1,0.5-0.3,0.2-0.5
		c-0.3-0.2-1.8-1.6-2.8-2.5c-0.7-0.7-0.6-1.2-0.6-1.5c-0.1-2.7,0-3-0.1-4.7c-0.1-1.7,0.4-2,1.2-2.4c0.5-0.3,6.8-4,7.1-4.2
		C520.5,228.4,520.2,227.7,519.8,227.9z"/>
	<g>
		<path class="st12" d="M470.4,286.2c0.4,0,0.6-0.1,0.8-0.4c0.1-0.1,0.3-0.4,0-0.5c-0.1-0.1-0.3-0.1-0.6,0c-0.1,0-0.4,0.2-0.5,0.5
			C470.1,286,470.2,286.2,470.4,286.2z"/>
		<path class="st12" d="M470.7,285.1c0.1,0.1,0.6,0.1,1-0.1c0.4-0.1,0.3-0.5,0-0.6c-0.3-0.1-0.9,0.3-1,0.5
			C470.5,285,470.6,285.1,470.7,285.1z"/>
		<path class="st12" d="M472.3,285.4c-0.2-0.3-0.5-0.2-0.8,0.1c-0.1,0.1-0.2,0.3-0.2,0.4c-0.1,0.3,0,0.3,0.2,0.3
			c0.2,0,0.5-0.2,0.7-0.3C472.3,285.8,472.4,285.6,472.3,285.4z"/>
		<path class="st12" d="M472.8,284.7c-0.2,0-0.4,0.4-0.4,0.9c0,0.3,0.4,0.1,0.5-0.1C473.2,285.3,473.1,284.7,472.8,284.7z"/>
		<path class="st12" d="M473.7,283.9c0.2-0.1,0.4-0.4,0.2-0.5c-0.2-0.2-0.8,0-1,0.3C472.8,283.9,473.4,284,473.7,283.9z"/>
		<path class="st12" d="M474.5,284c-0.1-0.1-0.2-0.1-0.3,0c-0.2,0.1-0.3,0.5-0.1,0.8C474.1,284.8,474.8,284.3,474.5,284z"/>
		<path class="st12" d="M473.4,284.2c-0.2,0.1-0.2,0.5-0.2,0.8c0.1,0.3,0.4,0,0.5-0.1C473.9,284.7,473.8,284.1,473.4,284.2z"/>
		<path class="st12" d="M473,284.3c0.2-0.3-0.3-0.5-0.5-0.5c-0.2,0-0.6,0.2-0.6,0.4C471.9,284.6,472.8,284.7,473,284.3z"/>
		<path class="st12" d="M470.5,292.3c-0.1,0-0.3,0.1-0.5,0.4c-0.1,0.1-0.2,0.4-0.1,0.7c0.1,0.1,0.2,0.2,0.4,0.1
			c0.3-0.2,0.5-0.5,0.5-0.7C470.7,292.6,470.7,292.3,470.5,292.3z"/>
		<path class="st12" d="M470.4,291.2c-0.3,0.1-0.6,0.7-0.6,0.9c0,0.2,0.1,0.2,0.1,0.2c0.1,0,0.6-0.2,0.9-0.6
			C471,291.5,470.7,291.1,470.4,291.2z"/>
		<path class="st12" d="M471.4,291.8c-0.4-0.2-0.6,0.1-0.6,0.5c0,0.2,0,0.3,0,0.5c0,0.3,0.2,0.2,0.3,0.1c0.2-0.2,0.4-0.4,0.4-0.7
			C471.6,292,471.6,291.8,471.4,291.8z"/>
		<path class="st12" d="M471.5,290.9c-0.2,0.1-0.1,0.5,0.1,0.9c0.2,0.3,0.3-0.1,0.4-0.3C472.1,291.2,471.8,290.8,471.5,290.9z"/>
		<path class="st12" d="M471.8,289.7c0.2-0.2,0.1-0.5,0-0.5c-0.3,0-0.6,0.4-0.7,0.7C471,290.2,471.6,289.9,471.8,289.7z"/>
		<path class="st12" d="M472.5,289.4c-0.2,0-0.3,0-0.3,0.1c-0.1,0.2,0,0.6,0.3,0.7C472.7,290.3,473,289.5,472.5,289.4z"/>
		<path class="st12" d="M471.8,290.2c-0.1,0.2,0,0.5,0.3,0.8c0.2,0.2,0.4-0.2,0.4-0.4C472.4,290.4,472,289.9,471.8,290.2z"/>
		<path class="st12" d="M470.8,290.3c-0.2,0.2-0.4,0.5-0.3,0.6c0.2,0.3,1-0.1,1-0.5C471.5,290.1,471,290.2,470.8,290.3z"/>
		<path class="st12" d="M484.1,291c-0.3,0-0.2,0.3-0.2,0.4c0,0.3,0.2,0.6,0.5,0.7c0.1,0.1,0.3,0,0.4-0.1c0.1-0.3,0-0.6-0.1-0.7
			C484.3,291.1,484.2,291,484.1,291z"/>
		<path class="st12" d="M484.8,290.9c-0.1-0.2-0.3-0.8-0.6-0.9c-0.3-0.1-0.6,0.2-0.3,0.5c0.3,0.4,0.8,0.6,0.9,0.6
			C484.7,291.1,484.8,291,484.8,290.9z"/>
		<path class="st12" d="M483.1,290.5c-0.1,0.1-0.2,0.3-0.2,0.5c0.1,0.2,0.3,0.5,0.4,0.7c0.1,0.1,0.3,0.1,0.3-0.1c0-0.2,0-0.3,0-0.5
			C483.7,290.6,483.5,290.3,483.1,290.5z"/>
		<path class="st12" d="M483,289.6c-0.2-0.1-0.6,0.3-0.5,0.6c0.1,0.2,0.2,0.6,0.4,0.3C483.2,290.1,483.2,289.7,483,289.6z"/>
		<path class="st12" d="M483.5,288.7c0-0.3-0.4-0.7-0.7-0.7c-0.2,0-0.2,0.3,0,0.5C482.9,288.6,483.5,288.9,483.5,288.7z"/>
		<path class="st12" d="M482.3,288.2c0-0.1-0.1-0.2-0.3-0.1c-0.4,0.1-0.2,0.9,0,0.8C482.3,288.8,482.4,288.4,482.3,288.2z"/>
		<path class="st12" d="M481.8,287.9c0.1,0.1,0.4-0.1,0.5,0c0.1,0.1,0.2,0,0.1-0.1c-1.6-1.8-3-1-3.8,0c-0.3,0.4-0.6,0.4-0.6-0.3
			c0-0.8-0.1-1.5-0.3-2.3c-0.3-1.3-1.6-2.5-3.5-1.6c-0.1,0-0.1,0.1,0,0.1c0.2,0,0.3,0.3,0.5,0.2c3-1.2,2.9,3.3,2.6,6.9
			c-0.1,0.8-0.3,0.8-0.5,0.1c-0.6-1.8-2.2-4.4-4.7-1.8c-0.1,0.1,0,0.2,0.1,0.1c0.2-0.1,0.4,0.1,0.5,0c2.5-2.2,4.1,2.2,4.1,5.3
			c0,0,0,1,0,1.6c-0.1,1.3-1.8,2.6-2.9,3.3c-0.7,0.5-0.6,0.4-1.4,0.8c-0.3,0.2-0.2,0.4,0.1,0.3c0.8-0.3,1.1-0.4,1.6-0.7
			c0.7-0.4,1.7-0.9,2.3-1.5c0.1-0.1,0.3-0.2,0.3,0c0,0.8,0.2,1.9,0.2,2.6c0,0.7,0.4,0.7,0.4,0c0-0.9,0-2,0.1-2.9
			c0-0.3,0.2-0.1,0.2-0.1c0.2,0.3,2.4,1.9,2.9,2.4c0.3,0.3,0.6,0.1,0.4-0.2c-0.6-0.9-3.3-2.5-3.5-4.2c-0.1-0.7,0.1-4.1,0.6-5.8
			C478.8,287.7,480.1,286.4,481.8,287.9z"/>
		<path class="st12" d="M482.8,288.8c-0.2-0.3-0.6,0.2-0.7,0.4c0,0.2,0.1,0.6,0.4,0.4C482.7,289.4,482.9,289,482.8,288.8z"/>
		<path class="st12" d="M483.1,289.2c0,0.4,0.8,0.8,1,0.5c0.1-0.2-0.1-0.5-0.3-0.6C483.6,288.9,483.1,288.8,483.1,289.2z"/>
	</g>
	<path class="st12" d="M19.1,224.1c-0.1,0-0.1,0.1,0,0.1c2,1.9,1.1,4-0.4,4.8c-0.7,0.4-2,0.8-2.1,0.8c-0.6,0.2-1.1-0.9-2.2-0.5
		c-0.6,0.2-0.9,0.9-1.3,1.2c-0.3,0.2-2.3,0.6-2.9,0.6c-1.8-0.1-3.5-1.4-2.6-4.1c0-0.1,0-0.1-0.1-0.1c-1.9,1.6-0.9,4.6,1.2,5.4
		c1.1,0.4,2.6,0.3,4.1,0c0,0,0.1,0.9,0.1,1.5c0,0.2-0.5,0.5-0.7,0.5c-0.3,0-0.5,0.1-0.7,0.2c-0.9,0.3-1.4,1-1.9,1.7
		c-0.2,0.3,0.4,0.5,1.4,0.2c1.7-0.6,1.9-1.2,1.9-1.2c0.3-0.4,0.5-0.3,0.9,0.7c0.4,1,1.3,1.8,2,4.2c0.5,1.8,3.6,1.2,3.2-0.6
		c-0.3-1.3-0.4-2.2-0.4-4.4c0-0.5,0-1.2,0.5-1.1c1.2,0.1,2.2-0.1,3.1-0.9c0.1-0.1-0.7-0.6-1.7-0.6c-0.3,0-0.9,0.2-1.3,0.3
		c-0.3,0.1-0.7,0.3-1-0.2c-0.3-0.5-0.4-0.7-0.6-1.2c1.2-0.4,2.4-1.1,3-1.8C22,227.7,21.6,224.6,19.1,224.1z"/>
	<path class="st12" d="M66,181.2c-0.1-1.7-2.6-5.1-5.6-5.8c-2.6-0.7-3.6,0.7-6.9-0.4c-1.5-0.5-1.8-3.4-1.9-5
		c1.4,0.5,2.6,2.2,3.5,2.8c0.2,0.2,0.5,0.1,0.2-0.3c-0.3-0.4-1.1-1.8-3.2-3.3c-0.2-0.2-0.6-0.6-0.7-0.9c-0.1-0.2-0.2-0.7,0.2-0.6
		c1.9,0.8,3.2,0.9,3.9,1.6c0.4,0.4,0.5,0,0.1-0.4c-0.7-0.8-2-1-3.9-2c-0.3-0.2-0.6-0.4-0.8-0.8c-0.1-0.2-0.1-0.3,0-0.4
		c0.2-0.2,1.1,0.1,2.4,0.6c1.8,0.7,2.7,0.4,2.7,0.2c0-0.3-1.1,0-2.7-0.7c-0.9-0.4-1.6-0.6-2.7-0.9c-0.3-0.1-0.7-0.2-0.9-0.5
		c-0.2-0.4-0.7-0.8-1.1-1.1c-0.1-0.1-0.2,0-0.2,0.1c0.1,0.3,0,0.5,0.2,1c0,0-0.2,0-0.3,0c-0.5-0.5-1.2-0.8-1.2-0.8
		c-0.1,0-0.1,0.1-0.1,0.2c0.1,0.2,0.2,0.3,0.2,0.5c0,0.1,0.1,0.2,0.1,0.3c-1.4,0.5-2.1,1.4-2.5,1.9c-0.6,0.7-1,1.2-1.4,1.6
		c-0.4,0.4-0.2,0.9,0.1,1.2c0.9,0.4,0.7,0,1.2-0.1c0.6-0.1,2.3-0.6,3.1-0.5c1.3,0.6,0.8,3.5,0.8,5.2c0,3.8,0.7,4.4,1.3,9.9
		c0.2,1.6,2.4,5.6,2.8,5.5c0.4-0.1-1.2-3.1-1.4-4.4c0-0.3-0.3-3.7-0.4-4.9c0-0.2,0.2-0.2,0.4-0.2c0.4,0.2,0.8,0.4,1.1,0.5
		c0.3,0.1,0.3,0.4,0.3,0.5c-0.1,3.3,0.3,4.2,0.7,5.6c0.1,0.3,0.7,3.1,1,3c0.6-0.2-0.4-3.5-0.4-4.9c0-0.8,0.2-2.7,0.2-3.5
		c0-0.2,0.2-0.4,0.4-0.3c1.2,0.3,2.6,0.2,3.3,0.1c0.4,0,0.5,0.2,0.6,0.4c1.3,3.2,0.4,7.1,0.6,8c0.1,0.4,0.7,0.3,1.3-4.6
		c0.1-1.2-0.3-1.9-0.3-3.5c0-0.2,0.1-0.5,0.4-0.6c0.3-0.1,0.5-0.2,0.7-0.3c0.3-0.1,0.4,0.1,0.5,0.2c1.6,3.5,0.1,8.1,0.6,8.7
		c0.3,0.4,0.4,0,1.2-4.9c0.2-1.2,0.1-1.4-0.2-2.5c-0.2-1-0.1-2.5-0.5-3.6c1.5,0.4,1.1,2,2.3,3.3C66,182.2,66.1,182.6,66,181.2
		L66,181.2z M46.3,166.1L46.3,166.1c-0.3-0.7,1.9-1.3,3.1-0.1c0.8,0.8,1.1,1.9,1.4,2.9C48.7,168,47.1,167.9,46.3,166.1z"/>
	<path class="st13" d="M140.9,289.9c0,0,1.3,6.7-3.5,8.8c-4.9,2.1-7.7-0.5-7.7-0.5s-1.1-4.4,2.5-7.7
		C135.8,287.2,140.9,289.9,140.9,289.9z"/>
	<path class="st13" d="M395.7,292.8c0,0-6.4,2.3-9.2-2.2c-2.8-4.5-0.7-7.7-0.7-7.7s4.2-1.8,8,1.3
		C397.5,287.3,395.7,292.8,395.7,292.8z"/>
	<path class="st13" d="M314,167.6c0,0-3.3,6-8.3,4.5c-5.1-1.5-5.6-5.3-5.6-5.3s2-4.1,6.8-4.4C311.7,162.3,314,167.6,314,167.6z"/>
	<path class="st13" d="M239.4,121.7c0,0-6.2,2.9-9.4-1.3c-3.2-4.2-1.4-7.6-1.4-7.6s4-2.2,8.1,0.5
		C240.7,116.1,239.4,121.7,239.4,121.7z"/>
	<path class="st13" d="M50,272.6c0,0,5,4.6,2.4,9.1c-2.7,4.6-6.4,4.2-6.4,4.2s-3.5-2.9-2.6-7.7C44.3,273.6,50,272.6,50,272.6z"/>
	<path class="st13" d="M79.3,363.7c0,0,5.9,3.4,4.3,8.4c-1.6,5-5.4,5.5-5.4,5.5s-4.1-2.1-4.2-6.9C73.9,365.8,79.3,363.7,79.3,363.7z
		"/>
	<g>
		<path class="st11" d="M381.9,698.5c0,9.6-7.8,17.4-17.4,17.4H152.4c-9.6,0-17.4-7.8-17.4-17.4l0,0c0-9.6,7.8-17.4,17.4-17.4h212.1
			C374.1,681.1,381.9,688.9,381.9,698.5L381.9,698.5z"/>
	</g>
	<path class="st14" d="M367,695.2c0-5.2-4.2-9.4-9.4-9.4c-5.2,0-9.4,4.2-9.4,9.4c0,5.2,4.2,9.4,9.4,9.4c0.9,0,1.7-0.2,2.5-0.4
		c0,0,2.1,4.2,3.4,6.9c1.3,2.7,4.9,1.4,3.4-1.6c-1.1-2.3-3.4-7-3.4-7C365.6,700.8,367,698.2,367,695.2z M351.8,695.2
		c0-3.1,2.6-5.7,5.7-5.7c3.1,0,5.7,2.6,5.7,5.7c0,3.1-2.6,5.7-5.7,5.7C354.4,700.9,351.8,698.4,351.8,695.2z"/>
	<circle class="st15" cx="357.6" cy="654.5" r="18.7"/>
	<g>
		<path class="st16" d="M349.3,648.5c0-1.1,0.3-2.1,1-3.2c0.7-1.1,1.6-2,2.9-2.7c1.3-0.7,2.8-1.1,4.5-1.1c1.6,0,3,0.2,4.3,0.8
			c1.2,0.6,2.2,1.4,2.9,2.4c0.7,1,1,2.1,1.1,3.3c0,0.9-0.2,1.8-0.5,2.5c-0.4,0.7-0.8,1.3-1.3,1.9c-0.5,0.5-1.4,1.4-2.8,2.7
			c-0.4,0.3-0.7,0.7-0.9,0.9c-0.2,0.3-0.4,0.5-0.5,0.7c-0.1,0.2-0.2,0.4-0.3,0.7c-0.1,0.2-0.1,0.6-0.2,1.1c-0.2,1.2-0.8,1.8-2,1.8
			c-0.6,0-1.1-0.2-1.5-0.6c-0.4-0.4-0.6-0.9-0.6-1.7c0-0.9,0.1-1.7,0.4-2.4c0.3-0.7,0.6-1.3,1.1-1.8c0.5-0.5,1.1-1.2,1.9-1.9
			c0.7-0.6,1.2-1.1,1.5-1.4c0.3-0.3,0.6-0.7,0.8-1.1c0.2-0.4,0.3-0.8,0.3-1.3c0-0.9-0.4-1.6-1-2.2c-0.7-0.6-1.5-0.9-2.6-0.9
			c-1.2,0-2.1,0.3-2.7,1c-0.6,0.6-1,1.6-1.4,2.8c-0.4,1.3-1.1,1.9-2.1,1.9c-0.6,0-1.1-0.2-1.6-0.6
			C349.6,649.5,349.3,649,349.3,648.5z M357.7,666.6c-0.7,0-1.3-0.2-1.8-0.6c-0.5-0.4-0.8-1-0.8-1.8c0-0.7,0.2-1.3,0.7-1.8
			c0.5-0.5,1.1-0.7,1.8-0.7c0.7,0,1.3,0.2,1.8,0.7c0.5,0.5,0.7,1,0.7,1.8c0,0.8-0.2,1.4-0.7,1.8C359,666.4,358.4,666.6,357.7,666.6z
			"/>
	</g>
</g>
</svg>
