<?xml version="1.0" encoding="utf-8"?>
<!-- Generator: Adobe Illustrator 20.1.0, SVG Export Plug-In . SVG Version: 6.00 Build 0)  -->
<svg version="1.1" id="圖層_1" xmlns="http://www.w3.org/2000/svg" xmlns:xlink="http://www.w3.org/1999/xlink" x="0px" y="0px"
	 viewBox="0 0 96 114" style="enable-background:new 0 0 96 114;" xml:space="preserve">
<style type="text/css">
	.st0{clip-path:url(#SVGID_2_);fill:#AD7E45;}
	.st1{clip-path:url(#SVGID_4_);fill:#AD7E45;}
	.st2{clip-path:url(#SVGID_6_);}
	.st3{clip-path:url(#SVGID_19_);}
	.st4{clip-path:url(#SVGID_20_);}
	.st5{clip-path:url(#SVGID_21_);}
	.st6{clip-path:url(#SVGID_22_);}
	.st7{clip-path:url(#SVGID_23_);}
	.st8{clip-path:url(#SVGID_24_);}
	.st9{clip-path:url(#SVGID_25_);}
	.st10{clip-path:url(#SVGID_26_);}
	.st11{clip-path:url(#SVGID_27_);}
	.st12{clip-path:url(#SVGID_28_);}
	.st13{clip-path:url(#SVGID_29_);}
	.st14{clip-path:url(#SVGID_30_);fill:#C29B61;}
	.st15{clip-path:url(#SVGID_30_);fill:#DBC69A;}
</style>
<g>
	<g>
		<g>
			<g>
				<defs>
					<rect id="SVGID_1_" x="0.4" y="0.4" width="96" height="113.5"/>
				</defs>
				<clipPath id="SVGID_2_">
					<use xlink:href="#SVGID_1_"  style="overflow:visible;"/>
				</clipPath>
				<rect x="34.7" y="4.5" class="st0" width="7.2" height="103.7"/>
			</g>
		</g>
		<g>
			<g>
				<defs>
					<rect id="SVGID_3_" x="0.4" y="0.4" width="96" height="113.5"/>
				</defs>
				<clipPath id="SVGID_4_">
					<use xlink:href="#SVGID_3_"  style="overflow:visible;"/>
				</clipPath>
				<polygon class="st1" points="66.4,17.3 69.1,21.4 71.4,28.5 86.8,67.6 86.5,74.1 82.3,74.9 76.2,71.2 79.7,75.1 36.1,73.7 
					31,72.9 28.4,69.4 39.6,53.6 14,32.9 14,29.7 22.3,19.1 25.2,21.6 23.9,16.4 27.2,18.5 25.4,14.1 26.9,11.4 42.9,24.9 60.4,38 
									"/>
			</g>
		</g>
		<g>
			<g>
				<defs>
					<rect id="SVGID_5_" x="0.4" y="0.4" width="96" height="113.5"/>
				</defs>
				<clipPath id="SVGID_6_">
					<use xlink:href="#SVGID_5_"  style="overflow:visible;"/>
				</clipPath>
				<g class="st2">
					<g>
						<g>
							<defs>
								<rect id="SVGID_7_" x="0.4" y="0.4" width="96" height="113.5"/>
							</defs>
							<defs>
								<rect id="SVGID_8_" x="0.4" y="0.4" width="96" height="113.5"/>
							</defs>
							<defs>
								<rect id="SVGID_9_" x="0.4" y="0.4" width="96" height="113.5"/>
							</defs>
							<defs>
								<rect id="SVGID_10_" x="0.4" y="0.4" width="96" height="113.5"/>
							</defs>
							<defs>
								<rect id="SVGID_11_" x="0.4" y="0.4" width="96" height="113.5"/>
							</defs>
							<defs>
								<rect id="SVGID_12_" x="0.4" y="0.4" width="96" height="113.5"/>
							</defs>
							<defs>
								<rect id="SVGID_13_" x="0.4" y="0.4" width="96" height="113.5"/>
							</defs>
							<defs>
								<rect id="SVGID_14_" x="0.4" y="0.4" width="96" height="113.5"/>
							</defs>
							<defs>
								<rect id="SVGID_15_" x="0.4" y="0.4" width="96" height="113.5"/>
							</defs>
							<defs>
								<rect id="SVGID_16_" x="0.4" y="0.4" width="96" height="113.5"/>
							</defs>
							<defs>
								<rect id="SVGID_17_" x="0.4" y="0.4" width="96" height="113.5"/>
							</defs>
							<defs>
								<rect id="SVGID_18_" x="0.4" y="0.4" width="96" height="113.5"/>
							</defs>
							<clipPath id="SVGID_19_">
								<use xlink:href="#SVGID_7_"  style="overflow:visible;"/>
							</clipPath>
							<clipPath id="SVGID_20_" class="st3">
								<use xlink:href="#SVGID_8_"  style="overflow:visible;"/>
							</clipPath>
							<clipPath id="SVGID_21_" class="st4">
								<use xlink:href="#SVGID_9_"  style="overflow:visible;"/>
							</clipPath>
							<clipPath id="SVGID_22_" class="st5">
								<use xlink:href="#SVGID_10_"  style="overflow:visible;"/>
							</clipPath>
							<clipPath id="SVGID_23_" class="st6">
								<use xlink:href="#SVGID_11_"  style="overflow:visible;"/>
							</clipPath>
							<clipPath id="SVGID_24_" class="st7">
								<use xlink:href="#SVGID_12_"  style="overflow:visible;"/>
							</clipPath>
							<clipPath id="SVGID_25_" class="st8">
								<use xlink:href="#SVGID_13_"  style="overflow:visible;"/>
							</clipPath>
							<clipPath id="SVGID_26_" class="st9">
								<use xlink:href="#SVGID_14_"  style="overflow:visible;"/>
							</clipPath>
							<clipPath id="SVGID_27_" class="st10">
								<use xlink:href="#SVGID_15_"  style="overflow:visible;"/>
							</clipPath>
							<clipPath id="SVGID_28_" class="st11">
								<use xlink:href="#SVGID_16_"  style="overflow:visible;"/>
							</clipPath>
							<clipPath id="SVGID_29_" class="st12">
								<use xlink:href="#SVGID_17_"  style="overflow:visible;"/>
							</clipPath>
							<clipPath id="SVGID_30_" class="st13">
								<use xlink:href="#SVGID_18_"  style="overflow:visible;"/>
							</clipPath>
							<path class="st14" d="M69.4,19.1c0,0,16.5,42,17.2,45.4s0,7.4,0,7.4l-6.1-0.6l-9-5.3l4.7,5.1l-42-2.3l-2.5-3.2L42.3,51
								L14,29.7l8.3-10.6l3.9,2l1.3-1.6L24,16.4l5.7,2.3l-3.5-6.1l1.6-2.7l28.6,24.3l10-16.9L69.4,19.1z"/>
							<path class="st15" d="M41.3,22.1c-2.8,8.9-5.6,17.8-8.4,26.6c-0.5,1.5,1.9,2.2,2.4,0.7c2.8-8.9,5.6-17.8,8.4-26.6
								C44.2,21.2,41.8,20.6,41.3,22.1"/>
							<path class="st15" d="M29,45.1c6.6-5.7,13.3-11.4,19.9-17.1c1.2-1.1-0.6-2.8-1.8-1.8c-6.6,5.7-13.3,11.4-19.9,17.1
								C26,44.4,27.7,46.2,29,45.1"/>
						</g>
					</g>
				</g>
			</g>
		</g>
	</g>
</g>
</svg>
