<?xml version="1.0" encoding="utf-8"?>
<!-- Generator: Adobe Illustrator 20.1.0, SVG Export Plug-In . SVG Version: 6.00 Build 0)  -->
<svg version="1.1" id="圖層_1" xmlns="http://www.w3.org/2000/svg" xmlns:xlink="http://www.w3.org/1999/xlink" x="0px" y="0px"
	 viewBox="0 0 209.5 201.3" style="enable-background:new 0 0 209.5 201.3;" xml:space="preserve">
<style type="text/css">
	.st0{fill:#EAE5E5;}
	.st1{fill:#FFF6E6;}
	.st2{fill:#C6B69E;}
	.st3{fill:#D85050;}
	.st4{fill:#DBD9D9;}
	.st5{fill:#6D5855;}
	.st6{fill:#EFECDC;}
	.st7{fill:#555B6B;}
	.st8{fill:#FFFDEE;}
	.st9{fill:#FFFCEE;}
	.st10{fill:#946134;}
	.st11{fill:#6B482D;}
	.st12{clip-path:url(#SVGID_2_);fill:#3E3A39;}
	.st13{fill:#B3DBE5;}
	.st14{fill:#F4E5D7;}
	.st15{fill:#FFFCF8;}
	.st16{fill:#F9CA78;}
	.st17{fill:#F8B62D;}
	.st18{fill:#F39800;}
	.st19{fill:#F4C571;}
	.st20{fill:#B77656;}
	.st21{fill:none;stroke:#CE9C89;stroke-miterlimit:10;}
	.st22{fill:#FFF8A1;}
	.st23{fill:#FFFFFF;}
	.st24{fill:#CE5F13;}
</style>
<polygon class="st0" points="68.7,123.7 156.6,123.7 167.4,137.6 59,137.6 "/>
<polygon class="st1" points="157.4,130 67.8,130 71.7,82 152.8,82 "/>
<rect x="102.7" y="97.3" class="st2" width="19.8" height="32.7"/>
<rect x="98.4" y="99.6" class="st3" width="3.6" height="18.1"/>
<rect x="123" y="99.6" class="st3" width="3.6" height="18.1"/>
<rect x="59" y="137.6" class="st4" width="108.3" height="4.6"/>
<g>
	<rect x="51.1" y="96.5" transform="matrix(0.9935 -0.1142 0.1142 0.9935 -10.9879 6.613)" class="st5" width="2.2" height="5.5"/>
	<rect x="52" y="100.6" transform="matrix(0.9934 -0.1145 0.1145 0.9934 -13.6176 7.0852)" class="st6" width="5.7" height="42.9"/>
	
		<rect x="56.8" y="93.6" transform="matrix(0.9994 -3.504048e-02 3.504048e-02 0.9994 -3.3385 2.0873)" class="st7" width="2.2" height="5.5"/>
	
		<rect x="55.8" y="97.8" transform="matrix(0.9994 -3.529047e-02 3.529047e-02 0.9994 -4.1733 2.1444)" class="st8" width="5.7" height="42.9"/>
	<g>
		<path class="st9" d="M64.7,98.2l1.4,0.3c0,0-0.2,0.1,0.3-0.6c0.5-0.7,1.6-1.9,1.7-3.1c0.2-1.2,0.2-2.1,1.1-3.7
			c-1.3,0.6-3.2,1.6-3.8,2.6c-0.4,0.8-0.4,1.3-0.4,2.4C65.1,97.9,64.7,98.2,64.7,98.2z"/>
		
			<rect x="43.7" y="121.3" transform="matrix(0.2353 -0.9719 0.9719 0.2353 -72.927 151.4298)" class="st10" width="32.1" height="1.6"/>
		<path class="st11" d="M62.8,106.3l1.6,0.4c0,0,1.1-2.7,1.8-5c0.6-2,0.4-3.8,0.4-3.8l-1.6-0.4c0,0-1.1,1.5-1.4,3.3
			C63.1,102.6,62.8,106.3,62.8,106.3z"/>
		<g>
			<g>
				<defs>
					<path id="SVGID_1_" d="M64.7,98.2l1.4,0.3c0,0-0.2,0.1,0.3-0.6c0.5-0.7,1.6-1.9,1.7-3.1c0.2-1.2,0.2-2.1,1.1-3.7
						c-1.3,0.6-3.2,1.6-3.8,2.6c-0.4,0.8-0.4,1.3-0.4,2.4C65.1,97.9,64.7,98.2,64.7,98.2z"/>
				</defs>
				<clipPath id="SVGID_2_">
					<use xlink:href="#SVGID_1_"  style="overflow:visible;"/>
				</clipPath>
				<path class="st12" d="M71.9,92l-2.6-1.3l-3.2,0.4c0,0-0.8,0.9-0.6,1.2c0.2,0.4,0.4,0.2,0.9,0.1c0.5-0.1-0.6,0.9,0,1
					c0.6,0.2,0.9-0.6,1.4-0.6c0.4-0.1-0.3,0.2-0.1,0.7c0.2,0.3,0.9-0.5,1.4-0.5s0.3,0.1,0.6,0.3C70.1,93.6,71.9,92,71.9,92z"/>
			</g>
		</g>
	</g>
	<path class="st13" d="M67,117.8c-1.1-0.7-1.1-1.8-0.9-2.8h0.8c0.8,0,1.5-0.9,1.5-1.9s-0.7-1.9-1.5-1.9H48.8c-0.8,0-1.5,0.9-1.5,1.9
		c0,0.7,0.3,1.3,0.7,1.6c0.2,0.2,0.5,0.3,0.8,0.3h0.8c0.2,0.9,0.2,2.1-0.9,2.8c-2.2,1.5-6.2,6.4-4.1,11.6c2,4.9,4.8,14.9,5.1,15.9
		l0,0c0,1.7,3.6,3,8.1,3c4.4,0,8-1.3,8.1-2.9H66c0,0,3-10.8,5.2-16C73.3,124.2,69.2,119.3,67,117.8z"/>
</g>
<path class="st14" d="M72.3,76.7l-1.1,11.4c0,0,23.1,2.1,42,2.2s40.5-1.6,40.5-1.6l-1.8-11L72.3,76.7z"/>
<path class="st15" d="M80.7,83.7l-2.5,47.9c0,0.1,0,0.2,0,0.4c0,2.1,1.7,3.7,3.7,3.7c2.1,0,3.7-1.7,3.7-3.7h0.1l2.5-48.3
	C88.1,83.7,80.7,83.7,80.7,83.7z"/>
<path class="st15" d="M143.7,83.7h-7.5l2.5,48.3h0.1c0,2.1,1.7,3.7,3.7,3.7c2,0,3.7-1.7,3.7-3.7h0.1L143.7,83.7z"/>
<path class="st16" d="M64.4,83.1c0,0,31.1,2.8,49.5,2.8s46.7-2.8,46.7-2.8l-24.9-27l-45.4-0.9L64.4,83.1z"/>
<path class="st17" d="M69.7,80.6c0,0,25.8,2.4,44.3,2.4s41.9-2.4,41.9-2.4l-20.3-22.6l-44.2-0.6L69.7,80.6z"/>
<path class="st18" d="M162.5,77.3c-12.2-2.4-21.1-22.7-21.1-22.7s0.7-1.3,2.1-10.8c-2.8,5.5-12.9,6.6-12.9,6.6H95.8
	c0,0-10.1-1-12.9-6.6c1.4,9.4,2.1,10.8,2.1,10.8s-8.9,20.3-21.1,22.7c-5.5,1.1-11.7-0.9-11.7-0.9s3.5,11.7,15.7,7.1
	c8.6-3.2,25.1-24.7,25.1-24.7h40.5c0,0,16.5,21.4,25.1,24.7c12.2,4.6,15.7-7.1,15.7-7.1S168,78.5,162.5,77.3z"/>
<g>
	<path class="st19" d="M96.4,63c0,0-0.1,0.2-0.2,0.7c-0.1,0.4-0.3,1.1-0.6,1.9c-0.3,0.7-0.6,1.7-1,2.6c-0.2,0.5-0.4,0.9-0.7,1.4
		c-0.2,0.5-0.5,0.9-0.8,1.4c-0.3,0.4-0.6,0.9-0.9,1.3c-0.3,0.4-0.6,0.9-0.9,1.3c-0.6,0.8-1.2,1.6-1.7,2.2c-0.5,0.7-0.9,1.2-1.2,1.6
		c-0.3,0.4-0.5,0.6-0.5,0.6s0.1-0.2,0.4-0.6c0.2-0.4,0.6-1,1-1.7c0.4-0.7,0.9-1.5,1.5-2.4c0.3-0.4,0.6-0.9,0.9-1.3
		c0.3-0.4,0.6-0.9,0.9-1.3s0.6-0.9,0.7-1.4c0.2-0.5,0.5-0.9,0.7-1.4c0.4-0.9,0.9-1.7,1.2-2.5C95.9,64,96.4,63,96.4,63z"/>
</g>
<g>
	<path class="st19" d="M104,62.6c0,0,0,0.2,0,0.7s0,1.2-0.1,2c-0.1,0.8-0.1,1.7-0.2,2.8c-0.1,0.5-0.1,1.1-0.2,1.6
		c-0.1,0.6-0.2,1.1-0.3,1.6c-0.2,0.5-0.3,1.1-0.5,1.6c-0.2,0.5-0.3,1-0.5,1.5c-0.3,0.9-0.7,1.9-0.9,2.6s-0.6,1.4-0.7,1.8
		c-0.2,0.4-0.3,0.7-0.3,0.7s0.1-0.2,0.2-0.7c0.1-0.4,0.2-1.1,0.5-1.9c0.2-0.8,0.4-1.7,0.7-2.7c0.1-0.5,0.3-1,0.4-1.5
		c0.2-0.5,0.3-1,0.5-1.6c0.1-0.5,0.2-1,0.4-1.6c0.1-0.5,0.2-1.1,0.2-1.6c0.2-1,0.3-1.9,0.4-2.7C103.8,63.7,104,62.6,104,62.6z"/>
</g>
<g>
	<path class="st19" d="M127.5,63c0,0,0.4,1,1.1,2.4c0.3,0.7,0.7,1.6,1.2,2.5c0.2,0.4,0.4,0.9,0.7,1.4c0.2,0.5,0.5,0.9,0.7,1.4
		c0.3,0.4,0.6,0.9,0.9,1.3c0.3,0.4,0.6,0.9,0.9,1.3c0.6,0.9,1.1,1.7,1.5,2.4c0.4,0.7,0.7,1.3,1,1.7c0.2,0.4,0.4,0.6,0.4,0.6
		s-0.2-0.2-0.5-0.6c-0.3-0.4-0.7-0.9-1.2-1.6c-0.5-0.7-1.1-1.4-1.7-2.2c-0.3-0.4-0.6-0.9-0.9-1.3s-0.6-0.9-0.9-1.3
		c-0.2-0.5-0.6-0.9-0.8-1.4s-0.4-0.9-0.7-1.4c-0.4-0.9-0.7-1.8-1-2.6c-0.3-0.7-0.5-1.4-0.6-1.9C127.6,63.3,127.5,63,127.5,63z"/>
</g>
<g>
	<path class="st19" d="M121,62.1c0,0,0.2,1.1,0.4,2.7c0.1,0.8,0.2,1.7,0.4,2.7c0.1,0.5,0.2,1,0.2,1.6c0.1,0.5,0.2,1.1,0.4,1.6
		c0.2,0.5,0.3,1.1,0.5,1.6c0.1,0.5,0.3,1,0.4,1.5c0.3,1,0.6,1.9,0.7,2.7c0.2,0.8,0.4,1.4,0.5,1.9c0.1,0.4,0.2,0.7,0.2,0.7
		s-0.1-0.2-0.3-0.7c-0.2-0.4-0.4-1.1-0.7-1.8c-0.2-0.7-0.6-1.7-0.9-2.6c-0.2-0.5-0.3-1-0.5-1.5c-0.2-0.5-0.3-1.1-0.5-1.6
		c-0.1-0.6-0.2-1.1-0.3-1.6c-0.1-0.6-0.2-1.1-0.2-1.6c-0.1-1-0.2-2-0.2-2.8c-0.1-0.8-0.1-1.5-0.1-2C121,62.4,121,62.1,121,62.1z"/>
</g>
<g>
	<path class="st19" d="M112.2,63c0,0,0,0.2,0.1,0.7c0,0.4,0.1,1.1,0.1,1.8c0,0.7,0.1,1.6,0.1,2.5c0,0.9,0,1.9,0.1,2.9
		c0,1,0,2-0.1,2.9c0,0.9-0.1,1.8-0.1,2.5c0,0.7-0.1,1.4-0.1,1.8c-0.1,0.4-0.1,0.7-0.1,0.7s0-0.2-0.1-0.7c0-0.4-0.1-1.1-0.1-1.8
		c0-0.7-0.1-1.6-0.1-2.5c0-0.9,0-1.9-0.1-2.9c0-1,0-2,0.1-2.9c0-0.9,0.1-1.8,0.1-2.5c0-0.7,0.1-1.4,0.1-1.8
		C112.1,63.3,112.2,63,112.2,63z"/>
</g>
<rect x="104" y="98.5" class="st20" width="17" height="31.4"/>
<line class="st21" x1="112.5" y1="98.5" x2="112.5" y2="130"/>
<path class="st22" d="M159.5,194.3h-11.1H65.2c-8.3,0-15-6.7-15-15s6.7-15,15-15h14.5c-0.3-0.9-0.8-3.3,1.1-4.7
	c-3.4,0.7-5.3,3.6-6,4.7h73.5h11.1c8.3,0,15,6.7,15,15S167.7,194.3,159.5,194.3z"/>
<path class="st23" d="M157,192.2H64.3c-8.3,0-15-6.7-15-15s6.7-15,15-15h11.8c0.4-0.9,3.4-4.9,6.6-5.2c-1.8,2.1-1.4,4.1-1.1,5.3H157
	c8.3,0,15,6.7,15,15C171.9,185.5,165.2,192.2,157,192.2z"/>
<g>
	<path class="st24" d="M80.1,171.1c0.8,0,1.2,0.4,1.2,1.1V183c0,0.8-0.4,1.2-1.2,1.2H69.7c-0.8,0-1.2-0.4-1.2-1.2v-10.8
		c0-0.7,0.4-1.1,1.2-1.1L80.1,171.1L80.1,171.1z M80.1,182.5v-9.9c0-0.3-0.2-0.5-0.5-0.5h-9.4c-0.3,0-0.5,0.2-0.5,0.5v9.9
		c0,0.4,0.2,0.5,0.5,0.5h9.4C79.9,183,80.1,182.9,80.1,182.5z M79.7,174.2c0,0.4-0.2,0.5-0.5,0.5h-2.9c0,1,0.1,1.9,0.3,2.6
		c0.1,0.6,0.2,1.2,0.4,1.6c0.1-0.3,0.3-0.6,0.4-0.9c0.2-0.6,0.4-1.4,0.6-2.3c0.1-0.2,0.2-0.3,0.5-0.3c0.1,0,0.3,0,0.4,0.1
		s0.2,0.2,0.2,0.3s0,0.3-0.1,0.4c-0.2,1-0.4,1.8-0.6,2.5c-0.2,0.6-0.5,1.2-0.8,1.7c0.1,0.3,0.3,0.5,0.4,0.8s0.3,0.4,0.4,0.4
		s0.1-0.1,0.2-0.3l0.2-1.5c0-0.3,0.1-0.4,0.4-0.4c0.4,0,0.6,0.2,0.6,0.7c0,0.7-0.1,1.5-0.4,2.2c-0.2,0.5-0.5,0.8-0.9,0.8
		c-0.3,0-0.7-0.2-1-0.6c-0.2-0.3-0.4-0.6-0.6-0.9c-0.1,0.1-0.1,0.1-0.2,0.2c-0.4,0.4-0.8,0.8-1.4,1.1c-0.1,0-0.3,0.1-0.4,0.1
		c-0.2,0-0.3,0-0.4-0.2c-0.1-0.1-0.2-0.2-0.2-0.4s0.1-0.4,0.3-0.5c0.5-0.3,0.9-0.7,1.2-1.1c0.1-0.2,0.3-0.3,0.4-0.5
		c-0.4-0.9-0.6-2-0.8-3.3c-0.1-0.7-0.2-1.4-0.2-2.1h-4.7c-0.4,0-0.5-0.2-0.5-0.5s0.2-0.5,0.5-0.5h4.6c0-0.3,0-0.5,0-0.8
		s0.2-0.5,0.5-0.5c0.4,0,0.6,0.2,0.6,0.5v0.8H78c-0.3-0.1-0.5-0.3-0.7-0.4c-0.2-0.1-0.3-0.2-0.3-0.5s0.2-0.5,0.5-0.5h0.1
		c0.3,0.1,0.5,0.2,0.9,0.3c0.2,0.2,0.3,0.3,0.3,0.5c0,0.3-0.1,0.5-0.2,0.5h0.5C79.5,173.7,79.7,173.8,79.7,174.2z M75.3,180.5
		c0,0.3-0.1,0.5-0.4,0.6c-0.5,0.2-1.2,0.5-2,0.7c-0.6,0.2-1.4,0.3-2.3,0.5c-0.3,0-0.5-0.2-0.5-0.6c0-0.4,0.2-0.6,0.5-0.6
		c0.8-0.1,1.4-0.2,1.9-0.3c0.8-0.2,1.4-0.4,2-0.6c0.1,0,0.2,0,0.2,0C75.1,180.1,75.2,180.2,75.3,180.5z M74,175.5
		c0.6,0,0.9,0.3,0.9,0.9v2.3c0,0.6-0.3,0.9-0.9,0.9h-2.5c-0.6,0-0.9-0.3-0.9-0.9v-2.3c0-0.6,0.3-0.9,0.9-0.9H74z M73.9,178.2V177
		c0-0.3-0.1-0.4-0.4-0.4H72c-0.3,0-0.4,0.1-0.4,0.4v1.2c0,0.3,0.1,0.4,0.4,0.4h1.5C73.8,178.6,73.9,178.5,73.9,178.2z"/>
	<path class="st24" d="M89.5,174.2c0,0.1,0,0.2-0.1,0.3c-0.3,1.5-0.6,2.8-1,3.9c-0.4,1.1-0.8,2.1-1.2,2.9c-0.2,0.1-0.4,0.2-0.5,0.2
		c-0.4,0-0.6-0.2-0.6-0.6c0-0.1,0-0.2,0.1-0.4c0.5-0.8,0.9-1.8,1.3-2.8c0.4-1.1,0.7-2.3,1-3.7c0-0.2,0.2-0.3,0.5-0.3
		C89.3,173.7,89.5,173.9,89.5,174.2z M93.5,171.6v11.1c0,1-0.6,1.6-1.9,1.6c-0.6,0-1.5-0.2-2.5-0.5c-0.3-0.1-0.5-0.3-0.5-0.6
		c0-0.4,0.2-0.6,0.5-0.6c0.1,0,0.2,0,0.4,0.1c1,0.3,1.6,0.5,2,0.5c0.5,0,0.8-0.3,0.8-0.8v-10.7c0-0.4,0.2-0.6,0.6-0.6
		C93.3,171,93.5,171.2,93.5,171.6z M97.3,174c0.9,1.9,1.6,4.1,2.2,6.4c0.1,0.2,0.1,0.4,0.1,0.5c0,0.4-0.3,0.5-0.8,0.5
		c-0.2,0-0.4-0.1-0.5-0.5c-0.6-2.7-1.3-4.9-2.1-6.5c0-0.1-0.1-0.3-0.1-0.3c0-0.3,0.2-0.4,0.6-0.4C96.9,173.8,97.1,173.9,97.3,174z"
		/>
	<path class="st24" d="M107.5,171.6c-0.1,0.6-0.1,1.2-0.2,1.6h3.3v-2.1c0-0.4,0.2-0.6,0.6-0.6s0.6,0.2,0.6,0.6v2.1h4.7
		c0.4,0,0.6,0.2,0.6,0.6c0,0.4-0.2,0.6-0.6,0.6h-4.7v3.5h4.2c0.4,0,0.6,0.2,0.6,0.6c0,0.4-0.2,0.6-0.6,0.6h-4.2v3.8h5.4
		c0.4,0,0.6,0.2,0.6,0.6c0,0.4-0.2,0.6-0.6,0.6h-12.5c-0.4,0-0.6-0.2-0.6-0.6c0-0.4,0.2-0.6,0.6-0.6h5.9V179H106
		c-0.4,0-0.6-0.2-0.6-0.6c0-0.4,0.2-0.6,0.6-0.6h4.6v-3.5H107l0,0c-0.3,0.9-0.8,1.7-1.5,2.4c-0.2,0.2-0.4,0.3-0.6,0.3
		c-0.4,0-0.6-0.2-0.6-0.6c0-0.1,0-0.2,0.1-0.3c0.7-0.7,1.2-1.4,1.5-2.1c0.3-0.7,0.5-1.5,0.6-2.5c0-0.4,0.2-0.6,0.6-0.6
		C107.3,171,107.5,171.2,107.5,171.6z"/>
	<path class="st24" d="M132.4,174.2c0.8,0,1.2,0.3,1.2,0.8c0,0.2-0.2,0.5-0.6,0.7l-3.5,1.6c-0.1,0.1-0.2,0.1-0.2,0.2
		c0,0.1,0.1,0.1,0.2,0.2c0.4,0.4,0.7,0.7,0.9,1h4.8c0.4,0,0.6,0.2,0.6,0.6c0,0.4-0.2,0.6-0.6,0.6H131c0.1,0.4,0.2,0.8,0.2,1.2
		c0,1.2-0.3,2.1-1,2.6c-0.5,0.5-1.3,0.7-2.4,0.7c-0.9,0-1.8-0.2-2.7-0.7c-0.3-0.1-0.5-0.3-0.5-0.6c0-0.5,0.3-0.7,0.8-0.7
		c1.2,0.5,2.1,0.7,2.5,0.7c0.7,0,1.2-0.2,1.5-0.5c0.4-0.3,0.6-0.9,0.6-1.5c0-0.4-0.1-0.8-0.2-1.2h-7.2c-0.4,0-0.6-0.2-0.6-0.6
		c0-0.4,0.2-0.6,0.6-0.6h6.4c-0.3-0.3-0.6-0.6-1-0.9c-0.3-0.2-0.4-0.4-0.4-0.5c0-0.2,0.2-0.4,0.5-0.5l3.4-1.4c0,0-0.1-0.1-0.3-0.1
		h-6.3c-0.4,0-0.5-0.2-0.5-0.5s0.2-0.5,0.5-0.5h7.5V174.2z M129.5,171.3v0.6h4.9c0.5,0,0.8,0.2,1,0.5s0.3,0.6,0.3,1.2
		c0,0.3-0.1,0.7-0.2,1.1c-0.1,0.4-0.3,0.5-0.7,0.5s-0.6-0.2-0.6-0.6c0.1-0.5,0.2-0.8,0.2-0.9c0-0.4-0.2-0.6-0.5-0.6H124
		c-0.5,0-0.7,0.2-0.7,0.7v1.1c0,0.4-0.2,0.6-0.6,0.6s-0.6-0.2-0.6-0.6v-1.4c0-1,0.5-1.5,1.5-1.5h4.5v-0.6c0-0.4,0.2-0.6,0.6-0.6
		C129.3,170.7,129.5,170.9,129.5,171.3z"/>
	<path class="st24" d="M147.5,171.3v2h1.7c0.2-0.2,0.3-0.3,0.4-0.5c0.3-0.5,0.7-0.9,1-1.4c0.1-0.1,0.3-0.2,0.5-0.2
		c0.1,0,0.3,0.1,0.4,0.2c0.1,0.1,0.2,0.3,0.2,0.4c0,0.2,0,0.3-0.1,0.4c-0.2,0.3-0.5,0.6-0.8,0.9c-0.1,0.1-0.1,0.1-0.2,0.2h1.9
		c0.4,0,0.8,0.2,1,0.5c0.2,0.2,0.3,0.6,0.3,1.1c0,0.4-0.1,0.8-0.2,1.4c-0.1,0.3-0.3,0.5-0.7,0.5s-0.6-0.2-0.6-0.6
		c0.1-0.6,0.2-1,0.2-1.2c0-0.3-0.2-0.5-0.5-0.5h-10.5c-0.4,0-0.6,0.2-0.6,0.6v1.2c0,0.4-0.2,0.6-0.6,0.6c-0.4,0-0.6-0.2-0.6-0.6
		v-1.7c0-0.8,0.4-1.2,1.2-1.2h2.4c-0.3-0.4-0.7-0.8-1.1-1.2c-0.1-0.2-0.1-0.3-0.1-0.3c0-0.4,0.2-0.6,0.6-0.6c0.1,0,0.2,0,0.3,0.1
		c0.4,0.4,0.7,0.9,1.1,1.4c0,0.1,0,0.2,0,0.3c0,0.2,0,0.3-0.1,0.3h2v-2c0-0.4,0.2-0.6,0.6-0.6C147.3,170.7,147.5,170.9,147.5,171.3z
		 M150.4,175.2c0.8,0,1.2,0.4,1.2,1.1v1.8c0,0.8-0.4,1.2-1.2,1.2h-2.9v1.2h4.7c0.4,0,0.6,0.2,0.6,0.6c0,0.4-0.2,0.6-0.6,0.6h-4.7
		v1.4h5.6c0.4,0,0.6,0.2,0.6,0.6c0,0.4-0.2,0.6-0.6,0.6h-12.4c-0.4,0-0.6-0.2-0.6-0.6c0-0.4,0.2-0.6,0.6-0.6h5.6v-1.4h-4.6
		c-0.4,0-0.6-0.2-0.6-0.6c0-0.4,0.2-0.6,0.6-0.6h4.6v-1.2h-2.9c-0.8,0-1.2-0.4-1.2-1.2v-1.8c0-0.8,0.4-1.1,1.2-1.1H150.4z
		 M150.4,177.6v-0.9c0-0.3-0.2-0.5-0.5-0.5h-6c-0.3,0-0.5,0.2-0.5,0.5v0.9c0,0.4,0.1,0.5,0.5,0.5h6
		C150.2,178.2,150.4,178,150.4,177.6z"/>
</g>
</svg>
