<?xml version="1.0" encoding="utf-8"?>
<!-- Generator: Adobe Illustrator 20.1.0, SVG Export Plug-In . SVG Version: 6.00 Build 0)  -->
<svg version="1.1" id="圖層_1" xmlns="http://www.w3.org/2000/svg" xmlns:xlink="http://www.w3.org/1999/xlink" x="0px" y="0px"
	 viewBox="0 0 393.2 400.2" style="enable-background:new 0 0 393.2 400.2;" xml:space="preserve">
<style type="text/css">
	.st0{fill:#EF8B8B;}
	.st1{clip-path:url(#SVGID_2_);}
	.st2{fill:#009FE8;}
	.st3{fill:#F7E682;}
	.st4{fill:#E3845C;}
	.st5{fill:#804F21;}
	.st6{fill:none;stroke:#C36850;stroke-width:0.75;stroke-miterlimit:10;}
	.st7{fill:#F7E682;stroke:#F8B62D;stroke-miterlimit:10;}
	.st8{fill:#FFFFFF;}
</style>
<circle class="st0" cx="196.6" cy="196.6" r="196.6"/>
<g>
	<defs>
		<circle id="SVGID_1_" cx="196.6" cy="196.6" r="196.6"/>
	</defs>
	<clipPath id="SVGID_2_">
		<use xlink:href="#SVGID_1_"  style="overflow:visible;"/>
	</clipPath>
	<g class="st1">
		<path class="st2" d="M169.8,271.5c0,0-7-10.1-16.9-9.7c-9.9,0.4-17.8,7.4-19.1,16.2c-1.2,8.9,3.5,17.4,3.5,17.4L169.8,271.5z"/>
		<path class="st3" d="M289.6,438.6c0,0,0.5-62.1-6.1-110.1c-6.7-48-44.7-68.3-78.1-66.8c-33.5,1.5-79.3,18-85.2,83.7
			c-5.8,65.8,7.6,112.5,17.2,127.6c9.5,15.1,97.8,56.1,123.1,22.5C285.7,462,289.6,454.3,289.6,438.6z"/>
		<path class="st4" d="M151.9,321.2c8.4,5.8,34.4,12.7,56.8,10.6c36-3.4,46.3-10.6,56.6-16.9c9.1-5.6,14.5,1.3,11.6,9.9
			c-1.7,5-18,11.3-29.7,16.1c-14.8,6-45.5,10.4-66.3,6.8c-21-3.6-42.4-9.6-45.5-19.4C132.2,318.4,145.3,316.7,151.9,321.2z"/>
		
			<ellipse transform="matrix(0.3213 -0.947 0.947 0.3213 -184.4259 375.3076)" class="st5" cx="169.6" cy="316.3" rx="2.1" ry="1.5"/>
		
			<ellipse transform="matrix(0.9558 -0.2939 0.2939 0.9558 -81.4645 85.4687)" class="st5" cx="243.6" cy="313.8" rx="1.5" ry="2.1"/>
		<path class="st6" d="M146.1,328.9c0,0,16.5,10.1,42.3,11.9c25.8,1.9,45.7-2,59.5-7.8c13.8-5.8,16.4-7.2,22.6-12.1"/>
	</g>
</g>
<path class="st7" d="M156.8,353.4c0,0,9.4,14.8,15.4,24.6c6,9.8,9.2,17,0.6,21.2c-8.8,4.3-22.8-5.4-28.1-9.9
	c-5.4-4.4-11.2-9.6-11.2-9.6"/>
<path class="st7" d="M249.5,351.5c0,0-7.7,15.7-12.6,26.1c-4.9,10.4-7.3,17.9,1.7,21.2c9.2,3.3,22.1-7.9,26.9-12.9
	c4.8-5,10-10.8,10-10.8"/>
<g>
	<path class="st8" d="M136.3,118.2v-12.6c0-2.1,1-3.2,3.2-3.2c2.4,0,3.6,1.1,3.6,3.2v12.6h28.1c5.4,0,8.2,2.7,8.2,7.9v26.2
		c0,5.3-2.8,7.9-8.2,7.9h-28.1v22.3c0,2.2-1.2,3.3-3.6,3.3c-2.2,0-3.2-1.1-3.2-3.3v-22.3h-26c-5.3,0-7.9-2.6-7.9-7.9v-26.2
		c0-5.2,2.6-7.9,7.9-7.9H136.3z M136.3,124.6h-24.1c-1.9,0-2.9,1.1-2.9,3.3v22.7c0,2.2,0.9,3.2,2.9,3.2h24.1V124.6z M172.6,150.6
		v-22.7c0-2.2-1.1-3.3-3.2-3.3h-26.2v29.2h26.2C171.5,153.8,172.6,152.8,172.6,150.6z"/>
	<path class="st8" d="M283.8,104.2c4.1,0,6.1,1.9,6.1,5.7v67.7c0,4.1-2,6.1-6.1,6.1h-65.1c-4.1,0-6.1-2-6.1-6.1v-67.7
		c0-3.8,2-5.7,6.1-5.7H283.8z M283.5,174.6v-61.8c0-1.7-0.8-2.6-2.5-2.6h-59.4c-1.7,0-2.5,0.9-2.5,2.6v61.8c0,2,0.8,2.9,2.5,2.9H281
		C282.6,177.6,283.5,176.7,283.5,174.6z M280.6,122.9c0,1.9-1,2.9-2.9,2.9H260c0.2,6.4,0.7,11.9,1.6,16.6c0.6,4.1,1.4,7.6,2.4,10.7
		c0.4-0.7,0.7-1.5,1-2.1c2-5.4,3-11.3,3-17.6c0-1.8,0.9-2.9,2.9-2.9c2.2,0,3.3,1,3.3,2.9c0,7-1.1,13.4-3.2,19.5
		c-1.1,2.7-2.5,5.2-4.1,7.6c0.9,2.1,2,4.1,3.2,5.8c0.9,1.6,1.7,2.3,2.3,2.3c0.3,0,0.6-0.7,0.8-2.3c0.4-3.1,0.6-6.3,0.6-9.6
		c0.2-1.8,1.1-2.9,2.9-2.9c1.8,0.5,2.9,1.7,2.9,3.6c0,4.8-0.6,9.4-1.8,13.8c-1.1,3.3-2.6,4.9-4.6,4.9c-2,0-4.1-1.2-6.4-3.8
		c-1.5-1.8-2.9-4.1-4-6.5c-2.6,2.8-5.4,5.4-8.7,7.8c-0.7,0.9-1.7,1.4-2.6,1.4c-2.4,0-3.6-1.2-3.6-3.6c0-0.2,0.2-0.7,0.7-1.7
		c4.6-3.2,8.4-6.7,11.3-10.5c-2.1-5.5-3.8-12.2-4.9-19.9c-0.6-4.2-0.9-8.7-1.1-13.5h-29.1c-1.9,0-2.9-0.9-2.9-2.9
		c0-1.8,0.9-2.9,2.9-2.9h28.9c-0.1-1.7-0.1-3.3-0.1-5.1c0-1.8,0.9-2.9,2.9-2.9c2.1,0,3.2,1,3.2,2.9c0,1.8,0,3.5,0.1,5.1h9.3
		c-1.1-1.5-2.1-2.9-3.2-4.3c-0.6-0.6-0.7-1.1-0.7-1.5c0-1.8,1-2.9,3.2-2.9c0.4,0,0.9,0.4,1.5,1.1c1.6,1.8,3.1,4.1,4.6,6.4
		c0.2,0.5,0.3,0.8,0.3,1.1h3C279.6,120,280.6,121,280.6,122.9z M253.6,161.7c0,1.4-0.7,2.5-2.2,3.2c-3.1,1.6-7.2,3-12.2,4.4
		c-3.9,1.1-8.6,2.2-14.1,3.1c-1.8-0.1-2.9-1.3-2.9-3.6c0-1.8,0.8-2.9,2.5-3.2c5-0.6,8.9-1.4,11.8-2.2c5-1.1,9.2-2.5,12.7-4
		c0.6-0.2,1-0.4,1.5-0.4C252.5,159.3,253.5,160.1,253.6,161.7z M246.8,131.5c3,0,4.6,1.6,4.6,4.6v15.5c0,3.1-1.6,4.7-4.6,4.7h-16.9
		c-3.1,0-4.7-1.6-4.7-4.7v-15.5c0-3,1.6-4.6,4.7-4.6H246.8z M245.7,148.4v-8.9c0-1.5-0.7-2.2-2.2-2.2h-10.4c-1.5,0-2.1,0.7-2.1,2.2
		v8.9c0,1.5,0.6,2.2,2.1,2.2h10.4C245,150.6,245.7,149.9,245.7,148.4z"/>
</g>
</svg>
