<?xml version="1.0" encoding="utf-8"?>
<!-- Generator: Adobe Illustrator 20.1.0, SVG Export Plug-In . SVG Version: 6.00 Build 0)  -->
<svg version="1.1" id="圖層_1" xmlns="http://www.w3.org/2000/svg" xmlns:xlink="http://www.w3.org/1999/xlink" x="0px" y="0px"
	 viewBox="0 0 1483.9 909.3" style="enable-background:new 0 0 1483.9 909.3;" xml:space="preserve">
<style type="text/css">
	.st0{fill:#F7F0E2;}
	.st1{fill:#FFFFFF;}
	.st2{fill-rule:evenodd;clip-rule:evenodd;fill:#D6D7D7;}
	.st3{fill-rule:evenodd;clip-rule:evenodd;fill:#999A9A;}
	.st4{fill-rule:evenodd;clip-rule:evenodd;fill:#C39A63;}
</style>
<path class="st0" d="M1322.8,6.4c0,0,19.2,265.5,0,410.6c-16.6,125.9,0,492.4,0,492.4s-426-17.9-672-19.6
	C434.2,888.2,3.6,909.3,3.6,909.3S-8.6,788.5,12,608.5C33.9,416.8,19.2,6.4,19.2,6.4S466.4-8,692.6,6.4
	C888.8,18.8,1322.8,6.4,1322.8,6.4z"/>
<g>
	<path class="st1" d="M1463.6,344.3l-18.9,8.2l22.8-19.6c2.8-8.7,4-14,4-14s0.9-28.1,12.5-70.9c-37,25.9-32.1,15.7-91.2,29.7
		c-78,18.5-141.9,159.1-136.3,224.3c-4.6-10.7-4.1-24.3-4.1-24.3l-2.8,12.1c0,0-6.3,17.2,2.7,44.3c0.3,0.9,1.4,8.9,1.7,9.8
		c-8.4-19.7-8.1-39.4-8.1-39.4l-1.7,12.1c0,0-3.6,24.5,5.5,51.6c6.8,20.5,3.5,39.5,2.8,63.1c-1.1,15.6,3.1,65.7,3.1,65.7
		s6.6-35.3,23.8-59.5c17.1-24.2,55.1-55.9,62.3-86.2c7.2-30.2,7.9-64.8,60.5-111.2C1435.1,411,1454.1,370.4,1463.6,344.3z"/>
	<path class="st2" d="M1253.7,770.8l6.1-45.5l-7.8-1l-7-0.9l-6.1,45.5c0,0-4.6,13.8-11.5,19.3c3.1,15.8,7,68.1,7,68.1
		s26-51.4,33.2-65.8C1259,785.6,1253.7,770.8,1253.7,770.8z"/>
	<path class="st3" d="M1244.9,798.8c0.3-2.4-1.1-4.5-3.1-4.8c-2-0.3-4,1.4-4.3,3.8c-0.3,2.2,0.9,4.2,2.6,4.7L1235,849l6.2-46.3
		C1243,802.6,1244.6,801,1244.9,798.8z"/>
	<path class="st2" d="M1436,296.1c0,0-73,39.6-98.1,102.8c-25.1,63.2-44.6,158.4-56.6,186.6c28.1-59.2,43.9-163.2,67-195.5
		C1398.5,319.9,1436,296.1,1436,296.1z"/>
	<polygon class="st4" points="1242,745.3 1256.8,747.2 1270.5,661.7 1262.5,645.1 1250.4,659.6 	"/>
</g>
</svg>
