<?xml version="1.0" encoding="utf-8"?>
<!-- Generator: Adobe Illustrator 20.1.0, SVG Export Plug-In . SVG Version: 6.00 Build 0)  -->
<svg version="1.1" id="圖層_1" xmlns="http://www.w3.org/2000/svg" xmlns:xlink="http://www.w3.org/1999/xlink" x="0px" y="0px"
	 viewBox="0 0 393.2 400.2" style="enable-background:new 0 0 393.2 400.2;" xml:space="preserve">
<style type="text/css">
	.st0{fill:#80CBE8;}
	.st1{clip-path:url(#SVGID_2_);}
	.st2{fill:#009FE8;}
	.st3{fill:#F7E682;}
	.st4{fill:#E3845C;}
	.st5{fill:#804F21;}
	.st6{fill:none;stroke:#C36850;stroke-width:0.75;stroke-miterlimit:10;}
	.st7{fill:#F7E682;stroke:#F8B62D;stroke-miterlimit:10;}
	.st8{fill:#FFFFFF;}
</style>
<circle class="st0" cx="196.6" cy="196.6" r="196.6"/>
<g>
	<defs>
		<circle id="SVGID_1_" cx="196.6" cy="196.6" r="196.6"/>
	</defs>
	<clipPath id="SVGID_2_">
		<use xlink:href="#SVGID_1_"  style="overflow:visible;"/>
	</clipPath>
	<g class="st1">
		<path class="st2" d="M169.8,271.5c0,0-7-10.1-16.9-9.7c-9.9,0.4-17.8,7.4-19.1,16.2c-1.2,8.9,3.5,17.4,3.5,17.4L169.8,271.5z"/>
		<path class="st3" d="M289.6,438.6c0,0,0.5-62.1-6.1-110.1c-6.7-48-44.7-68.3-78.1-66.8c-33.5,1.5-79.3,18-85.2,83.7
			c-5.8,65.8,7.6,112.5,17.2,127.6c9.5,15.1,97.8,56.1,123.1,22.5C285.7,462,289.6,454.3,289.6,438.6z"/>
		<path class="st4" d="M151.9,321.2c8.4,5.8,34.4,12.7,56.8,10.6c36-3.4,46.3-10.6,56.6-16.9c9.1-5.6,14.5,1.3,11.6,9.9
			c-1.7,5-18,11.3-29.7,16.1c-14.8,6-45.5,10.4-66.3,6.8c-21-3.6-42.4-9.6-45.5-19.4C132.2,318.4,145.3,316.7,151.9,321.2z"/>
		
			<ellipse transform="matrix(0.3213 -0.947 0.947 0.3213 -184.426 375.3074)" class="st5" cx="169.6" cy="316.3" rx="2.1" ry="1.5"/>
		
			<ellipse transform="matrix(0.9558 -0.2939 0.2939 0.9558 -81.453 85.4523)" class="st5" cx="243.6" cy="313.8" rx="1.5" ry="2.1"/>
		<path class="st6" d="M146.1,328.9c0,0,16.5,10.1,42.3,11.9c25.8,1.9,45.7-2,59.5-7.8c13.8-5.8,16.4-7.2,22.6-12.1"/>
	</g>
</g>
<path class="st7" d="M156.8,353.4c0,0,9.4,14.8,15.4,24.6c6,9.8,9.2,17,0.6,21.2c-8.8,4.3-22.8-5.4-28.1-9.9
	c-5.4-4.4-11.2-9.6-11.2-9.6"/>
<path class="st7" d="M249.5,351.5c0,0-7.7,15.7-12.6,26.1c-4.9,10.4-7.3,17.9,1.7,21.2c9.2,3.3,22.1-7.9,26.9-12.9
	c4.8-5,10-10.8,10-10.8"/>
<g>
	<path class="st8" d="M176.9,139.8c2.4,0,4.3,0.8,5.6,2.5c1,1.3,1.6,3.2,1.6,5.8c0,1.7-0.3,3.6-0.7,5.8c-0.6,1.7-1.9,2.5-4,2.5
		c-2.2,0-3.2-1-3.2-3.2c0.7-2.5,1.1-4.1,1.1-4.7c0-2.4-1-3.6-2.9-3.6h-64c-1.5,0-2.1,0.7-2.1,2.1v6.2c0,2.2-1.1,3.2-3.3,3.2
		c-2.2,0-3.2-1-3.2-3.2v-6.8c0-4.3,2.1-6.5,6.5-6.5H176.9z M171.5,151.3c0,1.5-0.7,2.2-2.1,2.2h-4.1c3,1.8,6.4,3.9,9.9,6.4
		c1.5,0.6,2.2,1.4,2.2,2.5c0,2.4-1.1,3.6-3.3,3.6c-0.2,0-0.6-0.2-1.4-0.6c-1.8-1.3-3.7-2.6-5.5-3.8c-0.1,0.1-0.2,0.1-0.3,0.1
		c-7,0.6-13.8,0.9-20.4,1.2v4.9H170c1.5,0,2.2,0.7,2.2,2.1c0,1.8-0.7,2.6-2.2,2.6h-23.7v4h35.2c1.9,0,2.9,0.9,2.9,2.9
		c0,1.8-1,2.9-2.9,2.9h-76.9c-2,0-2.9-1-2.9-2.9c0-1.9,0.9-2.9,2.9-2.9h35.2v-4H114c-1.5,0-2.1-0.8-2.1-2.6c0-1.4,0.6-2.1,2.1-2.1
		h25.9v-4.5c-9.9,0.6-19.4,1-28.7,1.3c-1.7,0-2.5-0.9-2.5-2.9c0-1.7,0.8-2.5,2.5-2.6c4.3,0,8.5-0.1,12.5-0.2l4.3-5.5h-13.3
		c-1.5,0-2.2-0.7-2.2-2.2c0-1.4,0.7-2.1,2.2-2.1h54.7C170.8,149.2,171.5,150,171.5,151.3z M182.3,106.8c0,1.9-0.8,2.9-2.5,2.9h-33.4
		v4.3h28.7c1.7,0,2.6,0.8,2.6,2.5c0,1.8-0.9,2.6-2.6,2.6h-63.6c-1.8,0-2.6-0.8-2.6-2.6c0-1.7,0.8-2.5,2.6-2.5h28.4v-4.3H106
		c-1.7,0-2.5-0.9-2.5-2.9c0-1.7,0.8-2.5,2.5-2.5h33.8v-1.5c0-2.1,1.1-3.2,3.3-3.2c2.1,0,3.2,1.1,3.2,3.2v1.5h33.4
		C181.5,104.3,182.3,105.1,182.3,106.8z M171.9,123.4c2.9,0,4.3,1.1,4.3,3.2v6.4c0,2.4-1.5,3.6-4.3,3.6h-57.2
		c-2.9,0-4.3-1.2-4.3-3.6v-6.4c0-2.1,1.4-3.2,4.3-3.2H171.9z M169.8,130.5v-1.5c0-0.7-0.2-1.1-0.4-1.1h-52.2c-0.3,0-0.4,0.4-0.4,1.1
		v1.5c0,0.9,0.1,1.4,0.4,1.4h52.2C169.6,131.9,169.8,131.5,169.8,130.5z M158.9,157.1c-1.5-0.5-2.1-1.4-2.1-2.9c0-0.3,0-0.6,0.1-0.7
		h-22.1l-4.1,5.3c10.5-0.2,20.3-0.6,29.3-1.3C159.5,157.4,159.1,157.3,158.9,157.1z"/>
	<path class="st8" d="M217.3,128c3,2.8,5.9,5.9,8.7,9.4c0.5,0.9,0.7,1.6,0.7,2.1c0,2-1.1,2.9-3.3,2.9c-0.6,0-1.2-0.2-1.8-0.7
		c-2.9-3.3-5.9-6.6-9-9.8c-0.6-0.8-0.7-1.4-0.7-1.8c0-2.1,1.2-3.2,3.6-3.2C216,126.9,216.5,127.3,217.3,128z M227.3,152.1
		c-0.6,5.2-1.5,10-2.7,14.8c-1.4,5-3.1,9.7-5.2,14.3c-0.7,1.2-1.7,1.8-2.9,1.8c-2.2,0-3.2-1-3.2-2.9c0-0.4,0.2-0.8,0.7-1.5
		c2.5-5.7,4.1-10,4.8-12.9c1.2-4.3,2.2-9.4,3.1-15.2c0.2-1.1,1-1.7,2.5-1.7C226.3,148.9,227.3,150,227.3,152.1z M220.1,104.3
		c2.2,2.2,4.4,4.7,6.5,7.6c0.4,0.8,0.6,1.6,0.6,2.1c0,1.9-1.1,2.9-3.2,2.9c-0.6,0-1.2-0.2-1.7-0.7c-2.2-2.7-4.5-5.2-6.9-7.8
		c-0.5-0.9-0.6-1.5-0.6-1.8c0-2.1,1.2-3.2,3.6-3.2C218.8,103.2,219.4,103.6,220.1,104.3z M240,102c0.6,0.5,1,1,1,1.6
		c0,0.4-0.2,0.8-0.4,1.4c-1.7,2.9-3.6,5.5-5.6,7.6c1.3,1,2.4,1.9,3.5,2.9c1.3-2.1,2.6-4.4,3.9-6.9c0.3-0.6,0.9-1,1.8-1
		c0.7,0,1.4,0.3,2,0.6c0.6,0.4,0.8,0.9,0.8,1.5c0,0.4-0.2,0.7-0.4,1.1c-2.7,5-5.6,9.3-8.7,13.1c2.3-0.2,4.4-0.5,6.4-0.9
		c-0.1-0.1-0.2-0.2-0.2-0.3c-0.3-0.6-0.4-1.1-0.4-1.5c0-1.4,0.8-2.1,2.5-2.1c0.4,0,0.9,0.3,1.5,0.7c1.1,1.8,2.2,4.1,3.2,6.4
		c0.2,0.6,0.4,1,0.4,1.4c0,1.5-0.8,2.2-2.5,2.2c-0.4,0-0.7-0.1-1.1-0.4c-0.5-0.7-0.8-1.6-1.2-2.3c-0.3,0.2-0.5,0.2-0.6,0.2
		c-1.5,0.4-2.9,0.6-4.2,0.8v15.7c0,1.5-0.9,2.2-2.6,2.2c-1.5,0-2.1-0.7-2.1-2.2v-14.9c-2.8,0.4-5.4,0.7-7.9,0.9
		c-1.7,0-2.5-0.9-2.5-2.9c0-1.7,0.8-2.5,2.5-2.6c1.1,0,2.2,0,3.3-0.1c1.2-1.5,2.4-3.1,3.5-4.9c-2.3-1.8-4.7-3.7-7.2-5.4
		c-0.6-0.6-0.7-1.1-0.7-1.5c0-1.7,0.9-2.5,2.9-2.5c0.2,0,0.5,0.1,0.8,0.3c1.4-2.1,2.8-4.6,4.2-7.5c0.2-0.9,0.8-1.5,1.8-1.5
		C238.6,101.3,239.3,101.6,240,102z M233.8,132.1c0.5,0.4,0.7,0.8,0.7,1.3c0,0.4-0.1,0.7-0.3,1.1c-0.8,3.7-1.7,6.9-2.6,9.7
		c-0.6,0.7-1.2,1.1-1.7,1.1c-1.8,0-2.6-0.6-2.6-1.8c0-0.6,0.1-1.1,0.4-1.4c0.7-2.4,1.7-5.5,2.6-9.4c0.2-0.7,0.8-1.1,1.7-1.1
		C232.7,131.5,233.2,131.7,233.8,132.1z M282.8,156.4c0.9,0,1.5-0.6,1.5-1.8v-0.6c0-0.9-0.6-1.5-1.5-1.5H232c-1.7,0-2.5-0.9-2.5-2.9
		c0-1.7,0.8-2.6,2.5-2.6h52.5c3.9,0,5.8,1.7,5.8,5.1v4.3c0,3.7-1.9,5.4-5.8,5.4H241c-1.5,0-2.2,0.8-2.2,2.5c0,0.7,0.4,1.1,1.1,1.1
		h50c2.6,0,4,1.8,4,5.3c0,1.4-0.4,3.1-1.1,5.2c-1.1,2.9-2.4,4.9-3.8,6c-1.6,1.4-5,2.1-10.2,2.1c-8.6,0-21.9-0.6-40-1.5
		c-1.7-0.4-2.5-1.3-2.5-2.9c0-1.9,1-2.9,3.2-2.9c15.4,0.9,28.5,1.4,39.2,1.4c3.6,0,5.8-0.6,6.7-1.6c1.3-1.5,1.9-2.8,1.9-3.8
		c0-1.5-0.6-2.2-1.5-2.2h-48.9c-2.9,0-4.3-1.7-4.3-5c0-2,0.3-4.1,0.8-6.2c0.6-2.1,1.8-3.2,3.9-3.2H259H282.8z M248.6,132.7
		c0.4,1.5,0.7,3.9,1.2,7.2c0.1,0.7,0.2,1.2,0.2,1.5c0,1.5-0.7,2.1-2.1,2.1c-1.4,0-2.1-0.6-2.1-1.7c-0.4-2.9-0.6-5.5-1-7.6l-0.1-0.6
		c0-1.2,0.6-1.8,1.7-1.8C247.3,131.5,248,131.9,248.6,132.7z M269.8,111.1c0,1.5-0.6,2.1-1.8,2.1h-16.9c-1.2,0-1.7-0.6-1.7-2.1
		c0-1.2,0.6-1.8,1.7-1.8H268C269.1,109.3,269.8,109.9,269.8,111.1z M268.4,103.9c0,1.2-0.6,1.7-1.8,1.7h-13.3
		c-1.3,0-1.8-0.6-1.8-1.7c0-1.2,0.6-1.8,1.8-1.8h13.3C267.7,102.1,268.4,102.7,268.4,103.9z M268,117.9c0,1.3-0.6,1.8-1.8,1.8h-12.5
		c-1.3,0-1.8-0.6-1.8-1.8c0-1.2,0.6-1.8,1.8-1.8h12.5C267.4,116.1,268,116.7,268,117.9z M268,124.7c0,1.3-0.6,1.8-1.8,1.8h-12.2
		c-1.2,0-1.8-0.6-1.8-1.8c0-1.1,0.6-1.8,1.8-1.8h12.2C267.4,123,268,123.6,268,124.7z M265.2,130.2c2.4,0,3.6,1,3.6,2.9v8.3
		c0,1.9-1.2,2.9-3.6,2.9h-9.4c-2.2,0-3.2-0.9-3.2-2.9V133c0-1.8,1-2.9,3.2-2.9H265.2z M264.1,138.8v-3.3c0-1.1-0.6-1.8-1.5-1.8h-4.3
		c-0.7,0-1,0.6-1,1.8v3.3c0,1.2,0.3,1.8,1,1.8h4.3C263.5,140.6,264.1,140,264.1,138.8z M283.3,102.4c0.6,0.5,0.9,1,0.9,1.6
		c0,0.4-0.2,0.6-0.4,1c-1.8,2.9-3.7,5.4-5.7,7.5c1.1,0.9,2.1,1.9,3.1,2.9c1.5-2.2,2.9-4.6,4.3-7.1c0.3-0.7,0.9-1.1,1.8-1.1
		c0.7,0,1.4,0.3,2,0.6c0.6,0.4,0.8,0.9,0.8,1.5c0,0.4-0.2,0.7-0.4,1.1c-2.9,5-6.2,9.5-9.7,13.4c2.8-0.2,5.2-0.6,7.6-1.1
		c-0.2-0.2-0.3-0.5-0.5-0.7c-0.3-0.6-0.4-1.1-0.4-1.5c0-1.4,0.8-2.1,2.5-2.1c0.4,0,0.9,0.3,1.5,0.7c1.7,2.1,3.4,4.5,5,7.2
		c0.2,0.7,0.4,1.3,0.4,1.7c0,1.5-0.8,2.2-2.5,2.2c-0.6,0-1-0.1-1.5-0.4c-0.7-1.1-1.3-2.1-1.8-3.1c-0.4,0.2-0.6,0.3-1,0.3
		c-1.7,0.4-3.2,0.7-4.7,0.9v15.9c0,1.5-0.8,2.2-2.5,2.2c-1.5,0-2.1-0.7-2.1-2.2v-15.2c-2.9,0.6-5.9,0.9-8.7,1.2
		c-1.8,0-2.6-0.9-2.6-2.9c0-1.7,0.8-2.5,2.6-2.6c1,0,2,0,2.9-0.2c1.4-1.5,2.8-3.1,4.1-5c-2.5-2.2-5-4.3-7.4-6.4
		c-0.6-0.6-0.7-1.1-0.7-1.4c0-1.7,0.9-2.6,2.9-2.6c0.4,0,0.9,0.3,1.5,0.7c0.2,0.2,0.3,0.3,0.3,0.3c1.5-2,2.9-4.3,4.4-7.1
		c0.2-0.7,0.8-1.1,1.7-1.1C282,101.7,282.7,102,283.3,102.4z M277,132.1c0.5,0.4,0.7,0.8,0.7,1.3c0,0.4-0.2,0.7-0.4,1.1
		c-0.6,3.9-1.1,7.2-1.7,10c-0.6,0.7-1.2,1.1-1.8,1.1c-1.9,0-2.9-0.7-2.9-2.2c0-0.5,0.1-0.8,0.4-1c0.6-2.6,1.4-5.8,2.1-9.8
		c0.3-0.7,0.9-1.1,1.8-1.1C275.8,131.5,276.4,131.7,277,132.1z M292.1,133.4c0.6,1.5,1.1,3.8,1.7,6.9c0.1,0.6,0.2,1.1,0.2,1.4
		c0,1.5-0.8,2.1-2.5,2.1c-1.4,0-2.1-0.6-2.2-2.1c-0.4-2.9-0.8-5.2-1.3-7.3l-0.1-0.6c0-1.2,0.6-1.8,2.1-1.8
		C290.9,131.9,291.6,132.5,292.1,133.4z"/>
</g>
</svg>
