<svg xmlns="http://www.w3.org/2000/svg" viewBox="0 0 42.94 35.84"><defs><style>.cls-1{fill:none;stroke:#e0e0e0;stroke-width:5px;}.cls-2{fill:#e0e0e0;}.cls-3{fill:#ff665c;}</style></defs><title>資產 2</title><g id="圖層_2" data-name="圖層 2"><g id="圖層_1-2" data-name="圖層 1"><path class="cls-1" d="M12.3,33.34a9.8,9.8,0,0,1-5.2-18.1L25.5,3.94a9.81,9.81,0,1,1,10.3,16.7L17.4,31.94A10,10,0,0,1,12.3,33.34Z"/><path class="cls-1" d="M12.3,33.34a9.8,9.8,0,0,1-5.2-18.1l6.2-3.8a9.81,9.81,0,1,1,10.3,16.7l-6.2,3.8A10,10,0,0,1,12.3,33.34Z"/><path class="cls-2" d="M12.3,33.34a9.8,9.8,0,0,1-5.2-18.1L25.5,3.94a9.81,9.81,0,1,1,10.3,16.7L17.4,31.94A10,10,0,0,1,12.3,33.34Z"/><path class="cls-3" d="M12.3,33.34a9.8,9.8,0,0,1-5.2-18.1l6.2-3.8a9.81,9.81,0,1,1,10.3,16.7l-6.2,3.8A10,10,0,0,1,12.3,33.34Z"/></g></g></svg>