<svg xmlns="http://www.w3.org/2000/svg" viewBox="0 0 105.69 73.1"><defs><style>.cls-1,.cls-2,.cls-3,.cls-6{fill:none;stroke-linecap:round;}.cls-1{stroke:#e0e0e0;stroke-linejoin:round;stroke-width:5px;}.cls-2,.cls-3{stroke:#bebebe;stroke-width:2.54px;}.cls-2,.cls-3,.cls-6{stroke-miterlimit:10;}.cls-3{stroke-dasharray:0 3.35;}.cls-4{fill:#ff9947;}.cls-5{fill:#ffcd32;}.cls-6{stroke:#ff9947;stroke-width:3.29px;}</style></defs><title>objectOne</title><g id="圖層_2" data-name="圖層 2"><g id="圖層_1-2" data-name="圖層 1"><path class="cls-1" d="M62.26,21.53s7.8-1.8,11.9,1.3,18.4,7.5,27.3-.9S83.06,6.23,62.26,21.53Z"/><line class="cls-1" x1="62.26" y1="21.53" x2="62.26" y2="21.53"/><path class="cls-1" d="M65.66,21c2.6-.2,6.2,0,8.5,1.8,4,3.1,18.4,7.5,27.3-.9,8.7-8.3-17.2-15.4-37.8-1.4"/><ellipse class="cls-1" cx="50.49" cy="12.41" rx="7.7" ry="9.2" transform="translate(2.82 33.18) rotate(-37.35)"/><ellipse class="cls-1" cx="66.67" cy="33.62" rx="7.7" ry="9.2" transform="translate(-6.72 47.34) rotate(-37.35)"/><ellipse class="cls-1" cx="52.06" cy="11.18" rx="7.7" ry="9.2" transform="translate(3.89 33.88) rotate(-37.35)"/><ellipse class="cls-1" cx="68.3" cy="32.47" rx="7.7" ry="9.2" transform="translate(-5.69 48.1) rotate(-37.35)"/><path class="cls-1" d="M58.76,18.23c4.1-.6,6.2,2.1,4.5,6L55,43.73c-1.6,3.8-5,4.3-7.5,1l-12.6-16.6c-2.5-3.3-1.2-6.5,2.9-7Z"/><path class="cls-1" d="M58.76,18.23c4.1-.6,6.2,2.1,4.5,6L55,43.73c-1.6,3.8-5,4.3-7.5,1l-12.6-16.6c-2.5-3.3-1.2-6.5,2.9-7Z"/><line class="cls-1" x1="53.06" y1="22.13" x2="51.26" y2="23.53"/><ellipse class="cls-1" cx="43.58" cy="34.47" rx="8.8" ry="15.1" transform="translate(-11.98 33.51) rotate(-37.35)"/><line class="cls-1" x1="58.06" y1="28.73" x2="56.26" y2="30.13"/><path class="cls-1" d="M25.06,69.13l18.2-13.9a16.05,16.05,0,0,0,3-22.4h0a16.05,16.05,0,0,0-22.4-3L5.66,43.73C-1.34,49,18.06,74.53,25.06,69.13Z"/><ellipse class="cls-1" cx="15.2" cy="56.42" rx="10.3" ry="16" transform="translate(-31.11 20.79) rotate(-37.35)"/><line class="cls-2" x1="62.26" y1="21.53" x2="62.26" y2="21.53"/><path class="cls-3" d="M65.66,21c2.6-.2,6.2,0,8.5,1.8,4,3.1,18.4,7.5,27.3-.9,8.7-8.3-17.2-15.4-37.8-1.4"/><ellipse class="cls-4" cx="50.49" cy="12.41" rx="7.7" ry="9.2" transform="translate(2.82 33.18) rotate(-37.35)"/><ellipse class="cls-4" cx="66.67" cy="33.62" rx="7.7" ry="9.2" transform="translate(-6.72 47.34) rotate(-37.35)"/><ellipse class="cls-5" cx="52.06" cy="11.18" rx="7.7" ry="9.2" transform="translate(3.89 33.88) rotate(-37.35)"/><ellipse class="cls-5" cx="68.3" cy="32.47" rx="7.7" ry="9.2" transform="translate(-5.69 48.1) rotate(-37.35)"/><path class="cls-5" d="M58.76,18.23c4.1-.6,6.2,2.1,4.5,6L55,43.73c-1.6,3.8-5,4.3-7.5,1l-12.6-16.6c-2.5-3.3-1.2-6.5,2.9-7Z"/><line class="cls-6" x1="53.06" y1="22.13" x2="51.26" y2="23.53"/><ellipse class="cls-4" cx="43.58" cy="34.47" rx="8.8" ry="15.1" transform="translate(-11.98 33.51) rotate(-37.35)"/><line class="cls-6" x1="58.06" y1="28.73" x2="56.26" y2="30.13"/><path class="cls-5" d="M25.06,69.13l18.2-13.9a16.05,16.05,0,0,0,3-22.4h0a16.05,16.05,0,0,0-22.4-3L5.66,43.73C-1.34,49,18.06,74.53,25.06,69.13Z"/><ellipse class="cls-4" cx="15.2" cy="56.42" rx="10.3" ry="16" transform="translate(-31.11 20.79) rotate(-37.35)"/></g></g></svg>