<svg xmlns="http://www.w3.org/2000/svg" viewBox="0 0 80.19 51.58"><defs><style>.cls-1,.cls-10,.cls-11,.cls-12,.cls-9{fill:none;}.cls-1{stroke:#e0e0e0;stroke-linejoin:round;stroke-width:5px;}.cls-1,.cls-11,.cls-9{stroke-linecap:round;}.cls-2{fill:#ff9947;}.cls-3{fill:#3c9195;}.cls-4{fill:#006464;}.cls-5{fill:#ffcd32;}.cls-6{fill:#bebebe;}.cls-7{fill:#00364b;}.cls-8{fill:#e0e0e0;}.cls-10,.cls-9{stroke:#ff9947;}.cls-10,.cls-11,.cls-12,.cls-9{stroke-miterlimit:10;}.cls-11,.cls-12{stroke:#006464;}</style></defs><title>資產 3</title><g id="圖層_2" data-name="圖層 2"><g id="圖層_1-2" data-name="圖層 1"><ellipse class="cls-1" cx="68.74" cy="12.28" rx="8.7" ry="10" transform="translate(1.25 30.19) rotate(-24.99)"/><ellipse class="cls-1" cx="60.82" cy="15.91" rx="7.5" ry="10.1" transform="translate(-1.03 27.18) rotate(-24.99)"/><rect class="cls-1" x="60.51" y="4.28" width="8.6" height="20" transform="translate(0.03 28.72) rotate(-24.99)"/><ellipse class="cls-1" cx="62.62" cy="15.09" rx="8.8" ry="10.1" transform="translate(-0.51 27.87) rotate(-24.99)"/><ellipse class="cls-1" cx="18.94" cy="35.49" rx="7.5" ry="10.1" transform="translate(-13.22 11.32) rotate(-24.99)"/><rect class="cls-1" x="16.61" y="15.4" width="48.2" height="20.2" transform="translate(-6.96 19.59) rotate(-24.99)"/><ellipse class="cls-1" cx="22.61" cy="33.7" rx="7.8" ry="10.1" transform="translate(-12.12 12.71) rotate(-24.99)"/><polygon class="cls-1" points="26.5 43.08 18 24.78 5.9 30.28 14.5 48.68 26.5 43.08"/><ellipse class="cls-1" cx="10.53" cy="39.39" rx="7.5" ry="10.1" transform="translate(-15.66 8.14) rotate(-24.99)"/><ellipse class="cls-1" cx="9.74" cy="39.79" rx="5.8" ry="8.2" transform="translate(-15.9 7.84) rotate(-24.99)"/><ellipse class="cls-1" cx="10.33" cy="39.42" rx="5.5" ry="8.2" transform="translate(-15.69 8.05) rotate(-24.99)"/><ellipse class="cls-1" cx="9.02" cy="40.01" rx="3" ry="3.4" transform="translate(-16.06 7.56) rotate(-24.99)"/><rect class="cls-1" x="7.53" y="37.21" width="1.5" height="6.8" transform="translate(-16.38 7.3) rotate(-24.99)"/><ellipse class="cls-1" cx="7.71" cy="40.6" rx="2.5" ry="3.4" transform="translate(-16.43 7.06) rotate(-24.99)"/><line class="cls-1" x1="23.6" y1="36.98" x2="23.6" y2="40.18"/><line class="cls-1" x1="22.4" y1="39.38" x2="24.7" y2="38.08"/><ellipse class="cls-1" cx="23.7" cy="38.31" rx="3.9" ry="2.4" transform="translate(-19.97 49.36) rotate(-72.45)"/><line class="cls-1" x1="71.6" y1="14.98" x2="71.6" y2="18.18"/><ellipse class="cls-1" cx="71.7" cy="16.31" rx="3.9" ry="2.4" transform="translate(34.54 79.75) rotate(-72.45)"/><ellipse class="cls-2" cx="68.74" cy="12.28" rx="8.7" ry="10" transform="translate(1.25 30.19) rotate(-24.99)"/><ellipse class="cls-2" cx="60.82" cy="15.91" rx="7.5" ry="10.1" transform="translate(-1.03 27.18) rotate(-24.99)"/><rect class="cls-2" x="60.51" y="4.28" width="8.6" height="20" transform="translate(0.03 28.72) rotate(-24.99)"/><ellipse class="cls-2" cx="62.62" cy="15.09" rx="8.8" ry="10.1" transform="translate(-0.51 27.87) rotate(-24.99)"/><ellipse class="cls-3" cx="18.94" cy="35.49" rx="7.5" ry="10.1" transform="translate(-13.22 11.32) rotate(-24.99)"/><rect class="cls-2" x="16.61" y="15.4" width="48.2" height="20.2" transform="translate(-6.96 19.59) rotate(-24.99)"/><ellipse class="cls-4" cx="22.61" cy="33.7" rx="7.8" ry="10.1" transform="translate(-12.12 12.71) rotate(-24.99)"/><polygon class="cls-4" points="26.5 43.08 18 24.78 5.9 30.28 14.5 48.68 26.5 43.08"/><ellipse class="cls-5" cx="10.53" cy="39.39" rx="7.5" ry="10.1" transform="translate(-15.66 8.14) rotate(-24.99)"/><ellipse class="cls-2" cx="9.74" cy="39.79" rx="5.8" ry="8.2" transform="translate(-15.9 7.84) rotate(-24.99)"/><ellipse class="cls-6" cx="10.33" cy="39.42" rx="5.5" ry="8.2" transform="translate(-15.69 8.05) rotate(-24.99)"/><ellipse class="cls-7" cx="9.02" cy="40.01" rx="3" ry="3.4" transform="translate(-16.06 7.56) rotate(-24.99)"/><rect class="cls-7" x="7.53" y="37.21" width="1.5" height="6.8" transform="translate(-16.38 7.3) rotate(-24.99)"/><ellipse class="cls-8" cx="7.71" cy="40.6" rx="2.5" ry="3.4" transform="translate(-16.43 7.06) rotate(-24.99)"/><line class="cls-9" x1="23.6" y1="36.98" x2="23.6" y2="40.18"/><line class="cls-9" x1="22.4" y1="39.38" x2="24.7" y2="38.08"/><ellipse class="cls-10" cx="23.7" cy="38.31" rx="3.9" ry="2.4" transform="translate(-19.97 49.36) rotate(-72.45)"/><line class="cls-11" x1="71.6" y1="14.98" x2="71.6" y2="18.18"/><ellipse class="cls-12" cx="71.7" cy="16.31" rx="3.9" ry="2.4" transform="translate(34.54 79.75) rotate(-72.45)"/></g></g></svg>