<svg xmlns="http://www.w3.org/2000/svg" xmlns:xlink="http://www.w3.org/1999/xlink" viewBox="0 0 842.72 221.2"><defs><style>.cls-1{fill:#0e364b;}.cls-2{fill:url(#未命名漸層);}.cls-3{fill:url(#未命名漸層-2);}.cls-4{fill:url(#未命名漸層-3);}.cls-5{fill:url(#未命名漸層-4);}</style><linearGradient id="未命名漸層" x1="-30.19" y1="-3445.4" x2="398.81" y2="-3464.4" gradientTransform="translate(0 3602)" gradientUnits="userSpaceOnUse"><stop offset="0" stop-color="#ff9947"/><stop offset="1" stop-color="#00364b"/></linearGradient><linearGradient id="未命名漸層-2" x1="338.54" y1="-3670.43" x2="532.57" y2="-3491" xlink:href="#未命名漸層"/><linearGradient id="未命名漸層-3" x1="210.31" y1="-3264.42" x2="311.42" y2="-3505.53" xlink:href="#未命名漸層"/><linearGradient id="未命名漸層-4" x1="498.54" y1="-3641.98" x2="514.89" y2="-3485.17" xlink:href="#未命名漸層"/></defs><title>資產 4</title><g id="圖層_2" data-name="圖層 2"><g id="圖層_1-2" data-name="圖層 1"><path class="cls-1" d="M147.22,177.1h0c-25.1-2.2-44.9-7.8-66.6-17.1-9.2-4-18.6-7.9-27.4-12.8-4.9-2.7-8.6-6.9-13-10.2-5-3.7-10.4-7-15.5-10.7-3.3-2.4-4.9-7.1.3-8.1a55.57,55.57,0,0,1,10-1c2.7,0,5.1.7,7.7.8l20.8.6,41.6,1.1,83.2,2.3,80.8,2.2c5.5.1,11.2.4,16.7-.8.9-.2,11.3-2.6,11.5-2.9,1.6-2.3-4.2-11.8-6.3-13.2-3.7-2.5-9.3-3.4-13.7-4.1-12.5-2.1-25.5,1.1-38.1.4-17.1-.9-35,.8-52.2,1.4-37.2,1.2-74.5,1.9-111.7.1-6.2-.3-12.3-.7-18.5-1-4.7-.2-8.5.8-13.1,1.2-8,.7-16.1,1-24,1.4-1.9.1-3.5.9-5.2,1.4-1.4.4-2.9.3-4.4.7A11.78,11.78,0,0,0,3,115a14.86,14.86,0,0,0,.7,13c2.4,4.6,6.7,6.4,10,10.1a97.68,97.68,0,0,0,13.1,11.8c8.6,6.6,16.7,13.1,26.2,18.5,5.2,2.9,9.5,7.1,14.8,9.9a102.66,102.66,0,0,0,17.9,7.1c15.7,4.6,32.2,5.9,48.6,6.6,13.5.5,27.1.7,40.7.4,12.6-.3,24.8-1.9,37.4-1.9l82.9-.6c24.9,0,50.8-2.8,75.4,1.6,13.1,2.3,27.7,1.1,41.1,1.1l-.4-19c-34.8.1-69.7.1-104.3,1.3l-84.3,2.9C197.62,178.4,172.32,179.3,147.22,177.1Z"/><path class="cls-1" d="M541.12,9.2c-43.3.9-85.8,12.6-128.8,19-32.2,4.8-65.7,6.5-97.5-1.4-24.9-6.2-55-27.8-75.3.2A140.7,140.7,0,0,0,225,51.9c-3,6.5-5.5,13.7-3.8,20.7,1.5,6.3,6.2,11.4,10.9,16.2,8.8,9.1,17.8,18.1,27.1,26.8,9.4,8.9,19.9,17,28.9,26.2,2.8,2.9,4.1,6.4,6.5,9.6,3.8,4.9,8,9.6,12.1,14.2,21.1,24.2,40.7,44.6,73,51.5,19.3,4.1,39.1,4.1,58.8,4.1l366.9-.2c14,0,31.2-2.2,36.1-15.5,2.6-7.1.5-15.1-1.9-22.3-15.2-45-43-83.5-78.4-114.3-8.9-7.8-18.3-15.1-27.9-22-8-5.7-16.8-14.1-25.9-17.2-13.7-4.6-30.7-4.6-45-6.8l-43.5-6.5C595,12.8,571,9.2,546.82,9.2A54.26,54.26,0,0,0,541.12,9.2Z"/><path class="cls-2" d="M143.92,169.9l-20.6.4c-17,.4-31-7.8-46.5-14.4A351,351,0,0,1,44.92,140a76.69,76.69,0,0,1-15-10.9c-3.1-2.9-13.8-11.1-5.9-14.9a13,13,0,0,1,5.8-.8c10.2.2,20.4.5,30.7.6,13.9.1,27.7.3,41.6.5,27.7.4,55.5.8,83.2,1.3s55.5,1.1,83.2,1.8l21.6.5,10.8.3,5.4.1c.8,0,4.5-.4,5,.1-6.5-7.8-17.4-14.6-27.2-17.9-14.2-4.7-32.5-.6-47.4-1.3-17.2-.9-35.3.8-52.7,1.4-19.1.6-38.2,1.1-57.3,1.2-27.2.1-54.2-.5-81.4-1-10-.2-19.9,1-30,1.6-6.4.4-12.2,3.4-14.2,8-3,7,.4,10.1,5.5,14.6,3,2.6,7.6,6.7,10.2,9.3,3,3.1,5.8,6.3,9.1,9.2,12.7,11.3,28.7,20.3,45.3,28.5,4.9,2.4,10,4.8,15.7,6.1a181.54,181.54,0,0,0,40.9,4.9c44,0,88,.7,132.1,1l66.7.5c14,.1,29-.1,42.5,2.3,4,.7,8.2.4,12.2,1,4.4.7,8.1,2.7,12.8,2.3s9.5-3.6,10.2-8.3c1-6.6-6-11.6-12.4-13.6-12.4-3.9-25.6-3.7-38.5-3.4l-162.8,3.5Z"/><path class="cls-3" d="M534.82,0c-43.1.9-85.3,12.3-128,18.5-32,4.7-65.3,6.4-96.9-1.4-24.7-6-54.7-27.1-74.8.2a141.35,141.35,0,0,0-14.4,24.3c-3,6.4-5.5,13.4-3.8,20.1,1.5,6.1,6.2,11.1,10.8,15.8,8.8,8.9,17.7,17.6,26.9,26.1,9.3,8.7,19.7,16.6,28.7,25.5,2.8,2.8,4.1,6.3,6.5,9.4,3.7,4.8,7.9,9.3,12,13.9,21,23.6,40.4,43.4,72.5,50.2,19.1,4,38.9,4,58.4,4l364.5-.2c13.9,0,31-2.1,35.9-15.1,2.6-7,.5-14.7-1.9-21.8-15.1-43.9-42.8-81.4-77.9-111.4-8.9-7.6-18.2-14.7-27.7-21.4-7.9-5.6-16.6-13.8-25.8-16.8-13.6-4.5-30.5-4.5-44.7-6.6L611.92,7c-23.8-3.5-47.6-7-71.6-7Z"/><path class="cls-4" d="M308.12,149.5c11.5,11.3,24.2,28.7,38.7,36,10.2,5.1,26.3,7.1,35.4-.7,6.3-5.4,9.2-13.8,9.6-22s-1.4-16.4-3.2-24.4c-2.3-10.6-4.7-21.3-9.5-31.1-9-18.4-26-21.5-40.3-34.1-16-14.2-30.7-29.8-46.4-44.4-8.9-8.3-19-17.1-31.8-17.7-11.5-.5-22.8,10-29.8,18.4-6.6,8-10.7,18.7-8.6,28.8,3.4,17,21.1,26.9,32.7,38,9.3,8.9,18,18.9,27.3,27.9Z"/><path class="cls-1" d="M341.62,33.9a683.4,683.4,0,0,0,90.5-1.9c29.6-2.5,58.3-8,87.6-12.5,9.6-1.5,19.3-2.8,28.9-3.9,46.4-5.3,94.7-4.8,137.9,12.8,9.1,3.7,18.1,8.3,24.9,15.4s11.2,17.1,9.5,26.8c-1.6,9.3-8.5,17-16.7,21.7s-17.6,6.7-26.9,8.2a359.73,359.73,0,0,1-36,3.7c-22.7,1.2-45.3.7-68,.7-12,0-23.8-1.9-35.7-1.9-45.5,1.8-91.1,3.1-136.6,6-7.1.5-14.1,1-21.1,1.8l1.3-1.5a61.1,61.1,0,0,1-12.7-9.9c-1-1.1-2.1-2.3-2.1-3.8a3.85,3.85,0,0,1,2.1-3.2c3.1-1.9,7.9-2.1,11.5-2.2,4-.1,8,.2,12,.2,11.4,0,22.9-.2,34.3-.7,5.8-.2,11.6-.9,17.3-1,5.2,0,10.4-.8,15.6-1.1,5.9-.4,12.3-1,18.1,0,6.2,1.1,13.2,1,19.5,1l79.4,1.2c29.6.4,59.2.9,88.6-1.8,8.6-.8,17.8-2.1,24.1-8,6.6-6.2,8.3-16.5,5.5-25.1a33.58,33.58,0,0,0-8.9-13.6c-3.4-3.2-7.2-5.3-11.2-7.6-3.1-1.7-5.4-4.3-8.7-5.7-9-4.1-19.4-6.3-29.1-7.9-19.9-3.3-40.7-2.8-60,3.1-10.1,3.1-21.6,3.3-32.2,5-11.2,1.8-22.4,3.8-33.6,5.8-22.1,4-44.2,8.3-66.4,11.5-21.4,3.1-43,5.2-64.6,5-5.4,0-10.8-.5-16.2-.6-3.6,0-6.8,1.3-10.3,1.5-11.2.8-22.4,1.2-33.6,2.9-2.8-3.5-5-6.6-8.5-9.4l-13.3-10.4c-3.8-2.9,2-2.6,3.8-2.5Z"/><path class="cls-5" d="M341.62,28a683.4,683.4,0,0,0,90.5-1.9c29.6-2.5,58.3-8,87.6-12.5,9.6-1.5,19.3-2.8,28.9-3.9,46.4-5.3,94.7-4.8,137.9,12.8,9.1,3.7,18.1,8.3,24.9,15.4s11.2,17.1,9.5,26.8c-1.6,9.3-8.5,17-16.7,21.7s-17.6,6.7-26.9,8.2a359.73,359.73,0,0,1-36,3.7c-22.7,1.2-45.3.7-68,.7a218.56,218.56,0,0,1-25.6-1.6c-10.6-1.2-21.9.3-32.6.7q-34.65,1.35-69.3,3.6c-11.5.7-23.1,1.6-34.6,2.5-5.2.4-10.8.4-15.9,1.4-1.6.3-14.4,5.6-14.9,4.9-2.6-3.3-5.4-6.6-7.9-9.9-2.3-3-5.4-5.3-8.2-7.7a4,4,0,0,1-1.3-1.6c-1.9-5.6,14.3-7,17-7.1,4-.1,8,.2,12,.2,11.4,0,22.9-.2,34.3-.7,5.8-.2,11.6-.9,17.3-1,5.2,0,10.4-.8,15.6-1.1,5.9-.4,12.3-1,18.1,0,6.2,1.1,13.2,1,19.5,1l79.4,1.2c29.6.4,59.2.9,88.6-1.8,8.6-.8,17.8-2.1,24.1-8,6.6-6.2,8.3-16.5,5.5-25.1s-9.7-15.5-17.6-19.8c-13.3-7.4-30.2-8.9-45.1-9.8a223.45,223.45,0,0,0-50.4,2.4c-28.9,4.8-58.6,5.6-87.6,10.1q-45.45,7-91.1,11.7c-15.2,1.6-30.5,3-45.8,4.1-7.6.6-15.4.7-22.9,1.6-5.2.6-9.9,5.4-15.3,4.8-4.3-.6-8.9-5.6-12.1-8.4-3.6-3.2-7-6.3-10.4-9.7-1.9-1.9-3.4-4.8-2.2-7.2s4.8-2.7,7.6-2.5Z"/></g></g></svg>