<svg xmlns="http://www.w3.org/2000/svg" viewBox="0 0 199.5 97.21"><defs><style>.cls-1,.cls-3,.cls-7,.cls-8{fill:none;}.cls-1,.cls-7{stroke:#e0e0e0;}.cls-1{stroke-width:5px;}.cls-2{fill:#ff665c;}.cls-3{stroke:#ff9947;stroke-width:0.82px;}.cls-3,.cls-7,.cls-8{stroke-linecap:round;stroke-miterlimit:10;}.cls-4{fill:#00364b;}.cls-5{fill:#bebebe;}.cls-6{fill:#e0e0e0;}.cls-7{stroke-width:2.12px;}.cls-8{stroke:#00364b;}</style></defs><title>產 4</title><g id="圖層_2" data-name="圖層 2"><g id="圖層_1-2" data-name="圖層 1"><g id="小物提示"><path class="cls-1" d="M192.67,60.92l-15.4-7.1c.9.9-37.1-32.8-64.6-47.3l-4.8-3.8L5.57,28.22,90,94.42Z"/><polyline class="cls-1" points="107.07 6.92 19.67 28.42 90.77 84.42 181.17 56.42"/><path class="cls-1" d="M35.87,29.62l68.7-18.3s12.4,6.8,16.7,12.2l-67.2,18Z"/><path class="cls-1" d="M146.17,47.92c1.2,5.5-11.2,13.4-27.8,17.7s-31.1,3.2-32.3-2.3,11.2-13.4,27.8-17.7S144.87,42.42,146.17,47.92Z"/><path class="cls-1" d="M129.17,36.32c4.1,5.1,5,17.2-6.9,22.4-17.2,7.5-31.9-2.6-36.1-7.7"/><path class="cls-1" d="M129.57,37.22c.9,4.2-8.3,10.3-20.6,13.5s-23,2.4-24-1.9,8.3-10.3,20.6-13.5S128.57,32.92,129.57,37.22Z"/><path class="cls-1" d="M124.77,36.62c.8,2.5-6.7,6.9-16.9,9.8s-19.1,3.1-19.9.6,6.7-6.9,16.9-9.8S123.87,34,124.77,36.62Z"/><path class="cls-1" d="M127.17,35.22a3.46,3.46,0,0,1,3-2.3c6.4-.8,8.4,8.4,1.7,11.8"/><line class="cls-1" x1="23.37" y1="42.62" x2="31.87" y2="40.42"/><path class="cls-2" d="M192.67,60.92l-15.4-7.1c.9.9-37.1-32.8-64.6-47.3l-4.8-3.8L5.57,28.22,90,94.42Z"/><polyline class="cls-3" points="107.07 6.92 19.67 28.42 90.77 84.42 181.17 56.42"/><path class="cls-4" d="M35.87,29.62l68.7-18.3s12.4,6.8,16.7,12.2l-67.2,18Z"/><path class="cls-5" d="M146.17,47.92c1.2,5.5-11.2,13.4-27.8,17.7s-31.1,3.2-32.3-2.3,11.2-13.4,27.8-17.7S144.87,42.42,146.17,47.92Z"/><path class="cls-6" d="M129.17,36.32c4.1,5.1,5,17.2-6.9,22.4-17.2,7.5-31.9-2.6-36.1-7.7"/><path class="cls-6" d="M129.57,37.22c.9,4.2-8.3,10.3-20.6,13.5s-23,2.4-24-1.9,8.3-10.3,20.6-13.5S128.57,32.92,129.57,37.22Z"/><path class="cls-4" d="M124.77,36.62c.8,2.5-6.7,6.9-16.9,9.8s-19.1,3.1-19.9.6,6.7-6.9,16.9-9.8S123.87,34,124.77,36.62Z"/><path class="cls-7" d="M127.17,35.22a3.46,3.46,0,0,1,3-2.3c6.4-.8,8.4,8.4,1.7,11.8"/><line class="cls-8" x1="23.37" y1="42.62" x2="31.87" y2="40.42"/></g></g></g></svg>