<svg xmlns="http://www.w3.org/2000/svg" viewBox="0 0 96.24 88.6"><defs><style>.cls-1{fill:none;stroke:#e0e0e0;stroke-linecap:round;stroke-linejoin:round;stroke-width:5px;}.cls-2{fill:#00364b;}.cls-3,.cls-5{fill:#e0e0e0;}.cls-4{fill:#bebebe;}.cls-5{stroke:#bebebe;stroke-miterlimit:10;stroke-width:0.97px;}.cls-6{fill:#50adc0;}.cls-7{fill:#6bffba;}</style></defs><title>資產 1</title><g id="圖層_2" data-name="圖層 2"><g id="圖層_1-2" data-name="圖層 1"><polygon class="cls-1" points="16.24 45.2 15.74 65.5 44.54 71.9 89.74 26.1 92.84 10 64.04 4.5 16.24 45.2"/><polygon class="cls-1" points="16.24 45.2 15.74 65.5 44.54 71.9 89.74 26.1 92.84 10 64.04 4.5 16.24 45.2"/><polygon class="cls-1" points="16.24 45.2 15.74 65.5 44.54 71.9 89.74 26.1 92.84 10 64.04 4.5 16.24 45.2"/><path class="cls-1" d="M26.34,59,3.24,78.7A1.4,1.4,0,0,0,3,80.6a2.18,2.18,0,0,0,.8.5l23.4,4.5a1.15,1.15,0,0,0,1.2-.4l20.9-20.1a1.39,1.39,0,0,0,0-1.9,1.61,1.61,0,0,0-.7-.4l-21.3-4.1A1.07,1.07,0,0,0,26.34,59Z"/><path class="cls-1" d="M27.64,86.1h-.3L3.94,81.6a1.84,1.84,0,0,1-1.4-2.2,1.7,1.7,0,0,1,.6-1l23.1-19.7a1.67,1.67,0,0,1,1.5-.4L49,62.4a1.79,1.79,0,0,1,1.4,2.1,3.13,3.13,0,0,1-.5,1L29,85.6A2.66,2.66,0,0,1,27.64,86.1Zm-.4-27a.76.76,0,0,0-.5.2L3.64,79a.82.82,0,0,0-.1,1.2,2.19,2.19,0,0,0,.5.3L27.44,85a.83.83,0,0,0,.8-.2l20.9-20.1a.82.82,0,0,0,0-1.2,2.19,2.19,0,0,0-.5-.3l-21.3-4.1Z"/><path class="cls-1" d="M26.34,59,3.24,78.7A1.4,1.4,0,0,0,3,80.6a2.18,2.18,0,0,0,.8.5l23.4,4.5a1.15,1.15,0,0,0,1.2-.4l20.9-20.1a1.39,1.39,0,0,0,0-1.9,1.61,1.61,0,0,0-.7-.4l-21.3-4.1A1.07,1.07,0,0,0,26.34,59Z"/><path class="cls-1" d="M27.64,86.1h-.3L3.94,81.6a1.84,1.84,0,0,1-1.4-2.2,1.7,1.7,0,0,1,.6-1l23.1-19.7a1.67,1.67,0,0,1,1.5-.4L49,62.4a1.79,1.79,0,0,1,1.4,2.1,3.13,3.13,0,0,1-.5,1L29,85.6A2.66,2.66,0,0,1,27.64,86.1Zm-.4-27a.76.76,0,0,0-.5.2L3.64,79a.82.82,0,0,0-.1,1.2,2.19,2.19,0,0,0,.5.3L27.44,85a.83.83,0,0,0,.8-.2l20.9-20.1a.82.82,0,0,0,0-1.2,2.19,2.19,0,0,0-.5-.3l-21.3-4.1Z"/><path class="cls-1" d="M26.34,59,3.24,78.7A1.4,1.4,0,0,0,3,80.6a2.18,2.18,0,0,0,.8.5l23.4,4.5a1.15,1.15,0,0,0,1.2-.4l20.9-20.1a1.39,1.39,0,0,0,0-1.9,1.61,1.61,0,0,0-.7-.4l-21.3-4.1A1.07,1.07,0,0,0,26.34,59Z"/><path class="cls-1" d="M27.64,86.1h-.3L3.94,81.6a1.84,1.84,0,0,1-1.4-2.2,1.7,1.7,0,0,1,.6-1l23.1-19.7a1.67,1.67,0,0,1,1.5-.4L49,62.4a1.79,1.79,0,0,1,1.4,2.1,3.13,3.13,0,0,1-.5,1L29,85.6A2.66,2.66,0,0,1,27.64,86.1Zm-.4-27a.76.76,0,0,0-.5.2L3.64,79a.82.82,0,0,0-.1,1.2,2.19,2.19,0,0,0,.5.3L27.44,85a.83.83,0,0,0,.8-.2l20.9-20.1a.82.82,0,0,0,0-1.2,2.19,2.19,0,0,0-.5-.3l-21.3-4.1Z"/><path class="cls-1" d="M18.64,79.6a.47.47,0,0,1-.5-.5c0-.1.1-.2.1-.3L35.54,62a.5.5,0,1,1,.8.6l-.1.1L18.94,79.5C18.94,79.6,18.74,79.6,18.64,79.6Z"/><path class="cls-1" d="M31.84,82h0L5.54,77.2a.51.51,0,1,1,.2-1L31.94,81a.54.54,0,0,1,.5.5C32.44,81.7,32,82.1,31.84,82Z"/><path class="cls-1" d="M18.64,79.6a.47.47,0,0,1-.5-.5c0-.1.1-.2.1-.3L35.54,62a.5.5,0,1,1,.8.6l-.1.1L18.94,79.5C18.94,79.6,18.74,79.6,18.64,79.6Z"/><path class="cls-1" d="M31.84,82h0L5.54,77.2a.51.51,0,1,1,.2-1L31.94,81a.54.54,0,0,1,.5.5C32.44,81.7,32,82.1,31.84,82Z"/><path class="cls-1" d="M18.64,79.6a.47.47,0,0,1-.5-.5c0-.1.1-.2.1-.3L35.54,62a.5.5,0,1,1,.8.6l-.1.1L18.94,79.5C18.94,79.6,18.74,79.6,18.64,79.6Z"/><path class="cls-1" d="M31.84,82h0L5.54,77.2a.51.51,0,1,1,.2-1L31.94,81a.54.54,0,0,1,.5.5C32.44,81.7,32,82.1,31.84,82Z"/><path class="cls-1" d="M36.94,45.5,13.84,65.2a1.4,1.4,0,0,0-.2,1.9,2.18,2.18,0,0,0,.8.5l23.4,4.5a1.15,1.15,0,0,0,1.2-.4l20.9-20.1a1.39,1.39,0,0,0,0-1.9,1.61,1.61,0,0,0-.7-.4l-21.3-4.1A2.23,2.23,0,0,0,36.94,45.5Z"/><path class="cls-1" d="M36.64,41,13.44,60.8a1.27,1.27,0,0,0-.1,1.8,1,1,0,0,0,.7.4l23.5,4.5a1.38,1.38,0,0,0,1.2-.3l21-20.2a1.27,1.27,0,0,0,0-1.8,1.61,1.61,0,0,0-.7-.4l-21.4-4.1A1.31,1.31,0,0,0,36.64,41Z"/><path class="cls-1" d="M36.34,36.5,13.14,56.4a1.27,1.27,0,0,0-.1,1.8,1,1,0,0,0,.7.4l23.6,4.5a1.13,1.13,0,0,0,1.1-.3l21.1-20.3a1.27,1.27,0,0,0,0-1.8,1.61,1.61,0,0,0-.7-.4l-21.5-4.1A1,1,0,0,0,36.34,36.5Z"/><path class="cls-1" d="M36,32,12.74,51.9a1.15,1.15,0,0,0-.1,1.7,1.61,1.61,0,0,0,.7.4l23.8,4.6a1.13,1.13,0,0,0,1.1-.3l21.2-20.4a1.15,1.15,0,0,0,0-1.7.86.86,0,0,0-.6-.3l-21.6-4.1A1,1,0,0,0,36,32Z"/><path class="cls-1" d="M36.94,45.5,13.84,65.2a1.4,1.4,0,0,0-.2,1.9,2.18,2.18,0,0,0,.8.5l23.4,4.5a1.15,1.15,0,0,0,1.2-.4l20.9-20.1a1.39,1.39,0,0,0,0-1.9,1.61,1.61,0,0,0-.7-.4l-21.3-4.1A2.23,2.23,0,0,0,36.94,45.5Z"/><path class="cls-1" d="M36.64,41,13.44,60.8a1.27,1.27,0,0,0-.1,1.8,1,1,0,0,0,.7.4l23.5,4.5a1.38,1.38,0,0,0,1.2-.3l21-20.2a1.27,1.27,0,0,0,0-1.8,1.61,1.61,0,0,0-.7-.4l-21.4-4.1A1.31,1.31,0,0,0,36.64,41Z"/><path class="cls-1" d="M36.34,36.5,13.14,56.4a1.27,1.27,0,0,0-.1,1.8,1,1,0,0,0,.7.4l23.6,4.5a1.13,1.13,0,0,0,1.1-.3l21.1-20.3a1.27,1.27,0,0,0,0-1.8,1.61,1.61,0,0,0-.7-.4l-21.5-4.1A1,1,0,0,0,36.34,36.5Z"/><path class="cls-1" d="M36,32,12.74,51.9a1.15,1.15,0,0,0-.1,1.7,1.61,1.61,0,0,0,.7.4l23.8,4.6a1.13,1.13,0,0,0,1.1-.3l21.2-20.4a1.15,1.15,0,0,0,0-1.7.86.86,0,0,0-.6-.3l-21.6-4.1A1,1,0,0,0,36,32Z"/><path class="cls-1" d="M36.94,45.5,13.84,65.2a1.4,1.4,0,0,0-.2,1.9,2.18,2.18,0,0,0,.8.5l23.4,4.5a1.15,1.15,0,0,0,1.2-.4l20.9-20.1a1.39,1.39,0,0,0,0-1.9,1.61,1.61,0,0,0-.7-.4l-21.3-4.1A2.23,2.23,0,0,0,36.94,45.5Z"/><path class="cls-1" d="M36.64,41,13.44,60.8a1.27,1.27,0,0,0-.1,1.8,1,1,0,0,0,.7.4l23.5,4.5a1.38,1.38,0,0,0,1.2-.3l21-20.2a1.27,1.27,0,0,0,0-1.8,1.61,1.61,0,0,0-.7-.4l-21.4-4.1A1.31,1.31,0,0,0,36.64,41Z"/><path class="cls-1" d="M36.34,36.5,13.14,56.4a1.27,1.27,0,0,0-.1,1.8,1,1,0,0,0,.7.4l23.6,4.5a1.13,1.13,0,0,0,1.1-.3l21.1-20.3a1.27,1.27,0,0,0,0-1.8,1.61,1.61,0,0,0-.7-.4l-21.5-4.1A1,1,0,0,0,36.34,36.5Z"/><path class="cls-1" d="M36,32,12.74,51.9a1.15,1.15,0,0,0-.1,1.7,1.61,1.61,0,0,0,.7.4l23.8,4.6a1.13,1.13,0,0,0,1.1-.3l21.2-20.4a1.15,1.15,0,0,0,0-1.7.86.86,0,0,0-.6-.3l-21.6-4.1A1,1,0,0,0,36,32Z"/><path class="cls-1" d="M28.14,52.2a.47.47,0,0,1-.5-.5c0-.1.1-.2.1-.3L45,34.6a.5.5,0,1,1,.8.6l-.1.1L28.44,52.1A.37.37,0,0,1,28.14,52.2Z"/><path class="cls-1" d="M41.24,54.6h0l-25.7-4.7a.51.51,0,1,1,.2-1h0l25.7,4.7a.56.56,0,0,1,.5.6C41.74,54.4,41.54,54.7,41.24,54.6Z"/><path class="cls-1" d="M28.14,52.2a.47.47,0,0,1-.5-.5c0-.1.1-.2.1-.3L45,34.6a.5.5,0,1,1,.8.6l-.1.1L28.44,52.1A.37.37,0,0,1,28.14,52.2Z"/><path class="cls-1" d="M41.24,54.6h0l-25.7-4.7a.51.51,0,1,1,.2-1h0l25.7,4.7a.56.56,0,0,1,.5.6C41.74,54.4,41.54,54.7,41.24,54.6Z"/><path class="cls-1" d="M28.14,52.2a.47.47,0,0,1-.5-.5c0-.1.1-.2.1-.3L45,34.6a.5.5,0,1,1,.8.6l-.1.1L28.44,52.1A.37.37,0,0,1,28.14,52.2Z"/><path class="cls-1" d="M41.24,54.6h0l-25.7-4.7a.51.51,0,1,1,.2-1h0l25.7,4.7a.56.56,0,0,1,.5.6C41.74,54.4,41.54,54.7,41.24,54.6Z"/><polygon class="cls-1" points="16.24 45.2 45.74 50.8 44.64 71.7 91.04 24.8 93.74 7.2 66.34 2.5 16.24 45.2"/><polygon class="cls-1" points="16.24 45.2 45.74 50.8 44.64 71.7 91.04 24.8 93.74 7.2 66.34 2.5 16.24 45.2"/><polygon class="cls-1" points="16.24 45.2 45.74 50.8 44.64 71.7 91.04 24.8 93.74 7.2 66.34 2.5 16.24 45.2"/><polygon class="cls-1" points="16.24 45.2 45.74 50.8 93.74 7.2 66.34 2.5 16.24 45.2"/><polygon class="cls-1" points="16.24 45.2 45.74 50.8 93.74 7.2 66.34 2.5 16.24 45.2"/><polygon class="cls-1" points="16.24 45.2 45.74 50.8 93.74 7.2 66.34 2.5 16.24 45.2"/><path class="cls-1" d="M69.64,6.5S46.34,26.6,42.14,30s-7.8,8.9,4.2,13c0,0,25-23.5,27.8-26S78.94,9.6,69.64,6.5Z"/><path class="cls-1" d="M69.64,6.5S46.34,26.6,42.14,30s-7.8,8.9,4.2,13c0,0,25-23.5,27.8-26S78.94,9.6,69.64,6.5Z"/><path class="cls-1" d="M69.64,6.5S46.34,26.6,42.14,30s-7.8,8.9,4.2,13c0,0,25-23.5,27.8-26S78.94,9.6,69.64,6.5Z"/><polygon class="cls-2" points="16.24 45.2 15.74 65.5 44.54 71.9 89.74 26.1 92.84 10 64.04 4.5 16.24 45.2"/><path class="cls-3" d="M26.34,59,3.24,78.7A1.4,1.4,0,0,0,3,80.6a2.18,2.18,0,0,0,.8.5l23.4,4.5a1.15,1.15,0,0,0,1.2-.4l20.9-20.1a1.39,1.39,0,0,0,0-1.9,1.61,1.61,0,0,0-.7-.4l-21.3-4.1A1.07,1.07,0,0,0,26.34,59Z"/><path class="cls-4" d="M27.64,86.1h-.3L3.94,81.6a1.84,1.84,0,0,1-1.4-2.2,1.7,1.7,0,0,1,.6-1l23.1-19.7a1.67,1.67,0,0,1,1.5-.4L49,62.4a1.79,1.79,0,0,1,1.4,2.1,3.13,3.13,0,0,1-.5,1L29,85.6A2.66,2.66,0,0,1,27.64,86.1Zm-.4-27a.76.76,0,0,0-.5.2L3.64,79a.82.82,0,0,0-.1,1.2,2.19,2.19,0,0,0,.5.3L27.44,85a.83.83,0,0,0,.8-.2l20.9-20.1a.82.82,0,0,0,0-1.2,2.19,2.19,0,0,0-.5-.3l-21.3-4.1Z"/><path class="cls-4" d="M18.64,79.6a.47.47,0,0,1-.5-.5c0-.1.1-.2.1-.3L35.54,62a.5.5,0,1,1,.8.6l-.1.1L18.94,79.5C18.94,79.6,18.74,79.6,18.64,79.6Z"/><path class="cls-4" d="M31.84,82h0L5.54,77.2a.51.51,0,1,1,.2-1L31.94,81a.54.54,0,0,1,.5.5C32.44,81.7,32,82.1,31.84,82Z"/><path class="cls-5" d="M36.94,45.5,13.84,65.2a1.4,1.4,0,0,0-.2,1.9,2.18,2.18,0,0,0,.8.5l23.4,4.5a1.15,1.15,0,0,0,1.2-.4l20.9-20.1a1.39,1.39,0,0,0,0-1.9,1.61,1.61,0,0,0-.7-.4l-21.3-4.1A2.23,2.23,0,0,0,36.94,45.5Z"/><path class="cls-5" d="M36.64,41,13.44,60.8a1.27,1.27,0,0,0-.1,1.8,1,1,0,0,0,.7.4l23.5,4.5a1.38,1.38,0,0,0,1.2-.3l21-20.2a1.27,1.27,0,0,0,0-1.8,1.61,1.61,0,0,0-.7-.4l-21.4-4.1A1.31,1.31,0,0,0,36.64,41Z"/><path class="cls-5" d="M36.34,36.5,13.14,56.4a1.27,1.27,0,0,0-.1,1.8,1,1,0,0,0,.7.4l23.6,4.5a1.13,1.13,0,0,0,1.1-.3l21.1-20.3a1.27,1.27,0,0,0,0-1.8,1.61,1.61,0,0,0-.7-.4l-21.5-4.1A1,1,0,0,0,36.34,36.5Z"/><path class="cls-5" d="M36,32,12.74,51.9a1.15,1.15,0,0,0-.1,1.7,1.61,1.61,0,0,0,.7.4l23.8,4.6a1.13,1.13,0,0,0,1.1-.3l21.2-20.4a1.15,1.15,0,0,0,0-1.7.86.86,0,0,0-.6-.3l-21.6-4.1A1,1,0,0,0,36,32Z"/><path class="cls-4" d="M28.14,52.2a.47.47,0,0,1-.5-.5c0-.1.1-.2.1-.3L45,34.6a.5.5,0,1,1,.8.6l-.1.1L28.44,52.1A.37.37,0,0,1,28.14,52.2Z"/><path class="cls-4" d="M41.24,54.6h0l-25.7-4.7a.51.51,0,1,1,.2-1h0l25.7,4.7a.56.56,0,0,1,.5.6C41.74,54.4,41.54,54.7,41.24,54.6Z"/><polygon class="cls-6" points="16.24 45.2 45.74 50.8 44.64 71.7 91.04 24.8 93.74 7.2 66.34 2.5 16.24 45.2"/><polygon class="cls-7" points="16.24 45.2 45.74 50.8 93.74 7.2 66.34 2.5 16.24 45.2"/><path class="cls-6" d="M69.64,6.5S46.34,26.6,42.14,30s-7.8,8.9,4.2,13c0,0,25-23.5,27.8-26S78.94,9.6,69.64,6.5Z"/></g></g></svg>