<svg xmlns="http://www.w3.org/2000/svg" viewBox="0 0 71.12 116.12"><defs><style>.cls-1{fill:none;stroke:#e0e0e0;stroke-width:5px;}.cls-2{fill:#4eb5ff;}</style></defs><title>資產 1</title><g id="圖層_2" data-name="圖層 2"><g id="圖層_1-2" data-name="圖層 1"><g id="重要時點提示"><path class="cls-1" d="M54,40.51a2.64,2.64,0,0,0,2.7-2.4,2.45,2.45,0,0,0-2.6-2.3h-7.2a2.29,2.29,0,0,1-2.3-2.1v-.5l1.4-8.7H24.82a3.32,3.32,0,0,0-3.1,3l-1.9,11.1c-.3,1.9.8,3,2.1,3a2.54,2.54,0,0,0,2.6-2.4l1.2-7.1a3.08,3.08,0,0,1,2.8-2.6c1.3,0,2,1.2,1.7,2.6L24.42,66a3.2,3.2,0,0,1-3.1,2.6h-3.2a3.2,3.2,0,0,0-3.1,2.6l-.7,4.4a2.28,2.28,0,0,0,2,2.6h.3a2.68,2.68,0,0,0,2.5-2.4,3.21,3.21,0,0,1,3.1-2.4h2.4a4.69,4.69,0,0,0,4.4-3.7l2.5-13.5a3.2,3.2,0,0,1,3.1-2.6h7.7a2.29,2.29,0,0,1,2.3,2.1v.5L41.72,75a2.69,2.69,0,0,0,2.1,3.1c.2,0,.4.1.6,0h4.8c1.5,0,2.9-.7,2.9-2.5a2.32,2.32,0,0,0-2.6-2.1h0a2.29,2.29,0,0,1-2.3-2.1v-.5l2.9-18.6a3.18,3.18,0,0,0-2.5-3.7c-.2,0-.5-.1-.7-.1h-2a2.29,2.29,0,0,1-2.3-2.1v-.5l.9-5.6,10.5.2Z"/><path class="cls-1" d="M39.92,10.91a1.49,1.49,0,0,1,2-.6,1.27,1.27,0,0,1,.7.9l3.5,7.7a1.54,1.54,0,0,1-.5,2.2,1.39,1.39,0,0,1-1.1.2h-9.9c-1.5,0-1.9-1-1.1-2.1Z"/><path class="cls-1" d="M46.42,9.81A1.37,1.37,0,0,1,45,8.41a1.61,1.61,0,0,1,.3-.9l3.5-4.4a1.53,1.53,0,0,1,2-.4,1.53,1.53,0,0,1,.4,2l-.1.1-3.5,4.4A1.43,1.43,0,0,1,46.42,9.81Z"/><path class="cls-1" d="M49.12,14.71a1.37,1.37,0,0,1-1.4-1.4,1.56,1.56,0,0,1,.8-1.3l5.9-2.8a1.4,1.4,0,0,1,1.8.8,1.43,1.43,0,0,1-.6,1.7l-5.9,2.8A.73.73,0,0,1,49.12,14.71Z"/><path class="cls-1" d="M56.82,20h-5.9a1.4,1.4,0,0,1-.2-2.8h6.1A1.4,1.4,0,0,1,57,20Z"/><path class="cls-1" d="M15.62,102.41A1.43,1.43,0,0,1,17,101h2.2a1.27,1.27,0,0,0,.5-2.5h-5.1a1.43,1.43,0,0,0-1.4,1.4v12a1.43,1.43,0,0,0,1.4,1.4h5.5a1.27,1.27,0,0,0,.5-2.5h-3.5a1.43,1.43,0,0,1-1.4-1.4v-7Z"/><path class="cls-1" d="M38.12,112a1.43,1.43,0,0,0,1.4,1.4H44a1.43,1.43,0,0,0,1.4-1.4V99.81a1.43,1.43,0,0,0-1.4-1.4h-4.5a1.43,1.43,0,0,0-1.4,1.4Zm3.7-11.3a1.43,1.43,0,0,1,1.4,1.4v7.5a1.4,1.4,0,1,1-2.8,0v-7.5a1.5,1.5,0,0,1,1.4-1.4Z"/><path class="cls-1" d="M33.42,112a1.27,1.27,0,1,0,2.5.5v-12.4a1.27,1.27,0,0,0-2.5-.5V112Z"/><path class="cls-1" d="M65.62,111.61a1.48,1.48,0,0,0,1.3,1.7,1.43,1.43,0,0,0,1.7-1.3V96.81a1.79,1.79,0,0,0-1.8-1.8h-1.4a1.79,1.79,0,0,0-1.8,1.8c0,1,.4,1.8,1,1.8s1,.8,1,1.8v11.2Z"/><path class="cls-1" d="M23.62,98.51a1.27,1.27,0,0,0-.5,2.5h1.3a1.43,1.43,0,0,1,1.4,1.4V112a1.27,1.27,0,1,0,2.5.5v-10a1.43,1.43,0,0,1,1.4-1.4h.9a1.27,1.27,0,1,0,.5-2.5h-7.5Z"/><path class="cls-1" d="M6.52,96a1.27,1.27,0,1,0-.5,2.5h1.2a1.43,1.43,0,0,1,1.4,1.4v3.4a1.43,1.43,0,0,1-1.4,1.4h-.8a1.43,1.43,0,0,1-1.4-1.4V100a1.33,1.33,0,0,0-1-1.5,1.33,1.33,0,0,0-1.5,1V112a1.33,1.33,0,0,0,1,1.5,1.33,1.33,0,0,0,1.5-1v-3.8a1.43,1.43,0,0,1,1.4-1.4h.8a1.43,1.43,0,0,1,1.4,1.4v3.4a1.27,1.27,0,0,0,2.5.5v-15a1.43,1.43,0,0,0-1.4-1.4L6.52,96Z"/><path class="cls-1" d="M57.32,100.11a1.33,1.33,0,1,0-2.5,0v5.3c0,1-.4,1.1-.9.2l-3.1-5.1a2.11,2.11,0,0,0-2-1.1,2.26,2.26,0,0,0-1.1,2.1v9.6a1.33,1.33,0,1,0,2.5,0v-4.9c0-1,.4-1.1.9-.2l3.3,5.8a1.88,1.88,0,0,0,2,1.2,2.17,2.17,0,0,0,1.1-2.1l-.2-10.8Z"/><path class="cls-2" d="M54,40.51a2.64,2.64,0,0,0,2.7-2.4,2.45,2.45,0,0,0-2.6-2.3h-7.2a2.29,2.29,0,0,1-2.3-2.1v-.5l1.4-8.7H24.82a3.32,3.32,0,0,0-3.1,3l-1.9,11.1c-.3,1.9.8,3,2.1,3a2.54,2.54,0,0,0,2.6-2.4l1.2-7.1a3.08,3.08,0,0,1,2.8-2.6c1.3,0,2,1.2,1.7,2.6L24.42,66a3.2,3.2,0,0,1-3.1,2.6h-3.2a3.2,3.2,0,0,0-3.1,2.6l-.7,4.4a2.28,2.28,0,0,0,2,2.6h.3a2.68,2.68,0,0,0,2.5-2.4,3.21,3.21,0,0,1,3.1-2.4h2.4a4.69,4.69,0,0,0,4.4-3.7l2.5-13.5a3.2,3.2,0,0,1,3.1-2.6h7.7a2.29,2.29,0,0,1,2.3,2.1v.5L41.72,75a2.69,2.69,0,0,0,2.1,3.1c.2,0,.4.1.6,0h4.8c1.5,0,2.9-.7,2.9-2.5a2.32,2.32,0,0,0-2.6-2.1h0a2.29,2.29,0,0,1-2.3-2.1v-.5l2.9-18.6a3.18,3.18,0,0,0-2.5-3.7c-.2,0-.5-.1-.7-.1h-2a2.29,2.29,0,0,1-2.3-2.1v-.5l.9-5.6,10.5.2Z"/><path class="cls-2" d="M39.92,10.91a1.49,1.49,0,0,1,2-.6,1.27,1.27,0,0,1,.7.9l3.5,7.7a1.54,1.54,0,0,1-.5,2.2,1.39,1.39,0,0,1-1.1.2h-9.9c-1.5,0-1.9-1-1.1-2.1Z"/><path class="cls-2" d="M46.42,9.81A1.37,1.37,0,0,1,45,8.41a1.61,1.61,0,0,1,.3-.9l3.5-4.4a1.53,1.53,0,0,1,2-.4,1.53,1.53,0,0,1,.4,2l-.1.1-3.5,4.4A1.43,1.43,0,0,1,46.42,9.81Z"/><path class="cls-2" d="M49.12,14.71a1.37,1.37,0,0,1-1.4-1.4,1.56,1.56,0,0,1,.8-1.3l5.9-2.8a1.4,1.4,0,0,1,1.8.8,1.43,1.43,0,0,1-.6,1.7l-5.9,2.8A.73.73,0,0,1,49.12,14.71Z"/><text></text><path class="cls-2" d="M15.62,102.41A1.43,1.43,0,0,1,17,101h2.2a1.27,1.27,0,0,0,.5-2.5h-5.1a1.43,1.43,0,0,0-1.4,1.4v12a1.43,1.43,0,0,0,1.4,1.4h5.5a1.27,1.27,0,0,0,.5-2.5h-3.5a1.43,1.43,0,0,1-1.4-1.4v-7Z"/><path class="cls-2" d="M38.12,112a1.43,1.43,0,0,0,1.4,1.4H44a1.43,1.43,0,0,0,1.4-1.4V99.81a1.43,1.43,0,0,0-1.4-1.4h-4.5a1.43,1.43,0,0,0-1.4,1.4Zm3.7-11.3a1.43,1.43,0,0,1,1.4,1.4v7.5a1.4,1.4,0,1,1-2.8,0v-7.5a1.5,1.5,0,0,1,1.4-1.4Z"/><path class="cls-2" d="M33.42,112a1.27,1.27,0,1,0,2.5.5v-12.4a1.27,1.27,0,0,0-2.5-.5V112Z"/><path class="cls-2" d="M65.62,111.61a1.48,1.48,0,0,0,1.3,1.7,1.43,1.43,0,0,0,1.7-1.3V96.81a1.79,1.79,0,0,0-1.8-1.8h-1.4a1.79,1.79,0,0,0-1.8,1.8c0,1,.4,1.8,1,1.8s1,.8,1,1.8v11.2Z"/><path class="cls-2" d="M23.62,98.51a1.27,1.27,0,0,0-.5,2.5h1.3a1.43,1.43,0,0,1,1.4,1.4V112a1.27,1.27,0,1,0,2.5.5v-10a1.43,1.43,0,0,1,1.4-1.4h.9a1.27,1.27,0,1,0,.5-2.5h-7.5Z"/><path class="cls-2" d="M6.52,96a1.27,1.27,0,1,0-.5,2.5h1.2a1.43,1.43,0,0,1,1.4,1.4v3.4a1.43,1.43,0,0,1-1.4,1.4h-.8a1.43,1.43,0,0,1-1.4-1.4V100a1.33,1.33,0,0,0-1-1.5,1.33,1.33,0,0,0-1.5,1V112a1.33,1.33,0,0,0,1,1.5,1.33,1.33,0,0,0,1.5-1v-3.8a1.43,1.43,0,0,1,1.4-1.4h.8a1.43,1.43,0,0,1,1.4,1.4v3.4a1.27,1.27,0,0,0,2.5.5v-15a1.43,1.43,0,0,0-1.4-1.4L6.52,96Z"/><path class="cls-2" d="M57.32,100.11a1.33,1.33,0,1,0-2.5,0v5.3c0,1-.4,1.1-.9.2l-3.1-5.1a2.11,2.11,0,0,0-2-1.1,2.26,2.26,0,0,0-1.1,2.1v9.6a1.33,1.33,0,1,0,2.5,0v-4.9c0-1,.4-1.1.9-.2l3.3,5.8a1.88,1.88,0,0,0,2,1.2,2.17,2.17,0,0,0,1.1-2.1l-.2-10.8Z"/></g></g></g></svg>