<svg xmlns="http://www.w3.org/2000/svg" viewBox="0 0 114.73 119.72"><defs><style>.cls-1{fill:#ff7167;}.cls-2{fill:none;}.cls-3{fill:#ff665c;}</style></defs><title>資產 2 1</title><g id="圖層_2" data-name="圖層 2"><g id="圖層_1-2" data-name="圖層 1"><path class="cls-1" d="M110.83,48.4a2.4,2.4,0,0,0,2.4-2.2,2.32,2.32,0,0,0-2.4-2.1h-6.4a2,2,0,0,1-2-2v-.4l1.2-7.8H84.53a2.92,2.92,0,0,0-2.8,2.7L80,46.5c-.3,1.7.7,2.7,1.9,2.7a2.3,2.3,0,0,0,2.3-2.2l1.1-6.4a2.76,2.76,0,0,1,2.5-2.4c1.2,0,1.8,1.1,1.5,2.3l-5.2,30.4a2.89,2.89,0,0,1-2.8,2.3h-2.9a2.88,2.88,0,0,0-2.8,2.4L75,79.5a2,2,0,0,0,1.8,2.3H77a2.55,2.55,0,0,0,2.3-2.2,2.88,2.88,0,0,1,2.8-2.2h2.2a4.16,4.16,0,0,0,4-3.3L90.63,62a3,3,0,0,1,2.8-2.3h6.9a2,2,0,0,1,2,2v.4l-2.6,16.8a2.46,2.46,0,0,0,1.9,2.8h4.8c1.3,0,2.6-.6,2.6-2.2,0-.8-.6-1.9-2.4-1.9h0a2,2,0,0,1-2-2v-.4l2.6-16.7a2.83,2.83,0,0,0-2.2-3.3c-.2,0-.4-.1-.6-.1h-1.8a2,2,0,0,1-2-2v-.4l.8-5,9.4.7Z"/><path class="cls-1" d="M98.13,21.9a1.41,1.41,0,0,1,1.8-.6,1.78,1.78,0,0,1,.7.8l3.2,6.9a1.55,1.55,0,0,1-.4,2,1.16,1.16,0,0,1-1,.2h-8.9c-1.3,0-1.7-.9-.9-1.9Z"/><path class="cls-1" d="M104,20.9a1.18,1.18,0,0,1-1.2-1.3,1.45,1.45,0,0,1,.2-.7l3.1-4a1.28,1.28,0,0,1,2,1.6l-3.1,4A1.53,1.53,0,0,1,104,20.9Z"/><path class="cls-1" d="M106.43,25.3a1.24,1.24,0,0,1-1.3-1.2,1.39,1.39,0,0,1,.7-1.2l5.3-2.5a1.27,1.27,0,1,1,1.1,2.3l-5.3,2.5A.75.75,0,0,1,106.43,25.3Z"/><path class="cls-1" d="M113.43,30h-5.3a1.3,1.3,0,0,1,0-2.6h5.3a1.3,1.3,0,0,1,0,2.6Z"/><path class="cls-1" d="M30.83,20.9a1.18,1.18,0,0,1-1.2-1.3,1.45,1.45,0,0,1,.2-.7l3.1-4a1.28,1.28,0,0,1,2,1.6l-3.1,4A1.78,1.78,0,0,1,30.83,20.9Z"/><path class="cls-1" d="M33.13,25.3a1.24,1.24,0,0,1-1.3-1.2,1.39,1.39,0,0,1,.7-1.2l5.3-2.5a1.27,1.27,0,1,1,1.1,2.3l-5.3,2.5A.75.75,0,0,1,33.13,25.3Z"/><path class="cls-1" d="M40.13,30h-5.3a1.3,1.3,0,0,1,0-2.6h5.3a1.3,1.3,0,1,1,0,2.6Z"/><path class="cls-1" d="M23.83,21.9a1.41,1.41,0,0,1,1.8-.6,1.78,1.78,0,0,1,.7.8l3.2,6.9a1.55,1.55,0,0,1-.4,2,1.16,1.16,0,0,1-1,.2h-8.9c-1.3,0-1.7-.9-.9-1.9Z"/><path class="cls-1" d="M25.53,59.6s.2-1.1.4-2.4l.3-1.8a3,3,0,0,1,2.7-2.4h3.8a2.69,2.69,0,0,0,2.7-2.2,1.94,1.94,0,0,0-1.7-2.2h-4.1a2,2,0,0,1-2-2v-.4L29.43,34H12.73a2.87,2.87,0,0,0-2.6,2.4l-1.5,9.9a2,2,0,0,0,1.6,2.3h.3a2,2,0,0,1,1.9,2.1V51l-.2,1.6-.7,4.7-.7,4.7-.3,2.1a2.87,2.87,0,0,1-2.6,2.4H3.33a2.68,2.68,0,0,0-2.6,2.2L0,73.1a1.91,1.91,0,0,0,1.5,2.2h.4a2.67,2.67,0,0,0,2.6-2.2,2.77,2.77,0,0,1,2.7-2.2h4.2a2.69,2.69,0,0,0,2.7-2.2l.7-4.6.3-2.1a3,3,0,0,1,2.7-2.4h.6a2,2,0,0,1,2,2V62l-2,13.5-.7,4.6a1.94,1.94,0,0,0,1.7,2.2h4.1a2.69,2.69,0,0,0,2.7-2.2,1.78,1.78,0,0,0-1.3-2.2.76.76,0,0,1-.4-.1,1.88,1.88,0,0,1-1.7-2,.76.76,0,0,1,.1-.4l2-13.5A8.74,8.74,0,0,0,25.53,59.6Z"/><path class="cls-1" d="M66.33,20.9a1.18,1.18,0,0,1-1.2-1.3,1.45,1.45,0,0,1,.2-.7l3.1-4a1.28,1.28,0,1,1,2,1.6l-3.1,4A1.53,1.53,0,0,1,66.33,20.9Z"/><path class="cls-1" d="M68.63,25.3a1.24,1.24,0,0,1-1.3-1.2,1.39,1.39,0,0,1,.7-1.2l3.6-1.7a1.27,1.27,0,0,1,1.1,2.3l-3.6,1.7A.75.75,0,0,1,68.63,25.3Z"/><path class="cls-1" d="M75.63,30h-5.3a1.3,1.3,0,0,1,0-2.6h5.3a1.18,1.18,0,0,1,1.2,1.3,1.13,1.13,0,0,1-1.2,1.3Z"/><path class="cls-1" d="M59.23,21.9a1.41,1.41,0,0,1,1.8-.6,1.78,1.78,0,0,1,.7.8l3.2,6.9a1.55,1.55,0,0,1-.4,2,1.16,1.16,0,0,1-1,.2h-8.9c-1.3,0-1.7-.9-.9-1.9Z"/><path class="cls-1" d="M76.13,36.3l.7-4.6.8-5.4A2,2,0,0,0,76,24h-.3a2.87,2.87,0,0,0-2.6,2.4l-.8,5.4a3,3,0,0,1-2.7,2.4H43.73A2.69,2.69,0,0,0,41,36.4l-.7,4.6-.8,5.4a2,2,0,0,0,1.6,2.3h.3A2.87,2.87,0,0,0,44,46.3l.8-5.4a2.87,2.87,0,0,1,2.6-2.4,2,2,0,0,1,1.9,2.1v.3l-2.4,16.3a2,2,0,0,0,1.6,2.3h.7a2,2,0,0,1,2,2v.4l-1.4,9a2.87,2.87,0,0,1-2.6,2.4h-4.5a2.68,2.68,0,0,0-2.6,2.2l-.7,4.4a1.91,1.91,0,0,0,1.5,2.2h.4a2.67,2.67,0,0,0,2.6-2.2,2.77,2.77,0,0,1,2.7-2.2h4.2a2.69,2.69,0,0,0,2.7-2.2l.7-4.6,1.4-9a10.26,10.26,0,0,1,.5-2.4H63a1.92,1.92,0,0,1,1.9,2v.4l-.3,2.1-.4,2.4-.3,2.2a1.93,1.93,0,0,0,1.6,2.2h4.2a2.69,2.69,0,0,0,2.7-2.2,1.78,1.78,0,0,0-1.3-2.2.76.76,0,0,1-.4-.1,1.88,1.88,0,0,1-1.7-2,.76.76,0,0,1,.1-.4l.3-2.1.7-4.6a1.91,1.91,0,0,0-1.5-2.2h-4.9a1.92,1.92,0,0,1-1.9-2v-.4l1.8-11.8a3,3,0,0,1,2.7-2.4h9.4l.4-2.1Z"/><line class="cls-2" x1="76.93" y1="18" x2="79.23" y2="2.4"/><path class="cls-1" d="M76.93,19.8h-.3a1.73,1.73,0,0,1-1.5-2l2.4-15.6A1.76,1.76,0,0,1,79.63.7a1.81,1.81,0,0,1,1.5,2.1h0l-2.4,15.6A1.92,1.92,0,0,1,76.93,19.8Z"/><polygon class="cls-1" points="80.13 8.3 46.13 8.3 47.43 0 81.43 0 80.13 8.3"/><path class="cls-3" d="M30.83,108.6a1.43,1.43,0,0,1,1.4-1.4h2.2a1.27,1.27,0,1,0,.5-2.5h-5.1a1.43,1.43,0,0,0-1.4,1.4v12a1.43,1.43,0,0,0,1.4,1.4h5.5a1.27,1.27,0,1,0,.5-2.5h-3.5a1.43,1.43,0,0,1-1.4-1.4l-.1-7Z"/><path class="cls-3" d="M53.33,118.3a1.43,1.43,0,0,0,1.4,1.4h4.5a1.43,1.43,0,0,0,1.4-1.4V106.1a1.43,1.43,0,0,0-1.4-1.4h-4.5a1.43,1.43,0,0,0-1.4,1.4ZM57,107a1.43,1.43,0,0,1,1.4,1.4v7.5a1.4,1.4,0,0,1-2.8,0h0v-7.5A1.43,1.43,0,0,1,57,107Z"/><path class="cls-3" d="M48.63,118.2a1.27,1.27,0,1,0,2.5.5V106.3a1.27,1.27,0,0,0-2.5-.5v12.4Z"/><path class="cls-3" d="M38.83,104.7a1.27,1.27,0,0,0-.5,2.5h1.2a1.43,1.43,0,0,1,1.4,1.4v9.6a1.27,1.27,0,1,0,2.5.5v-10a1.43,1.43,0,0,1,1.4-1.4h.9a1.27,1.27,0,1,0,.5-2.5h-7.4Z"/><path class="cls-3" d="M21.73,102.2a1.27,1.27,0,1,0-.5,2.5h1.2a1.43,1.43,0,0,1,1.4,1.4v3.3a1.43,1.43,0,0,1-1.4,1.4h-.8a1.43,1.43,0,0,1-1.4-1.4v-3.3a1.27,1.27,0,1,0-2.5-.5v12.5a1.27,1.27,0,1,0,2.5.5v-3.8a1.43,1.43,0,0,1,1.4-1.4h.8a1.43,1.43,0,0,1,1.4,1.4v3.4a1.27,1.27,0,1,0,2.5.5v-15a1.43,1.43,0,0,0-1.4-1.4h-3.2Z"/><path class="cls-3" d="M72.53,106.4a1.33,1.33,0,1,0-2.5,0v5.3c0,1-.4,1.1-.9.2L66,106.8a2.11,2.11,0,0,0-2-1.1,2.26,2.26,0,0,0-1.1,2.1v9.6a1.33,1.33,0,1,0,2.5,0v-4.8c0-1,.4-1.1.8-.2l3.3,5.8a1.88,1.88,0,0,0,2,1.2,2.17,2.17,0,0,0,1.1-2.1l-.1-10.9Z"/><path class="cls-3" d="M85.73,114.2a1.75,1.75,0,0,0-1.7-1.7h-1.6a1.54,1.54,0,0,1-1.7-1.2,1.46,1.46,0,0,1,1.2-1.7H84a1.75,1.75,0,0,0,1.7-1.7v-1.2A1.75,1.75,0,0,0,84,105h-3.3a1.54,1.54,0,0,1-1.7-1.2,1.46,1.46,0,0,1,1.2-1.7h6.7a1.75,1.75,0,0,1,1.7,1.7v14a1.75,1.75,0,0,1-1.7,1.7h-6.1a1.54,1.54,0,0,1-1.7-1.2,1.46,1.46,0,0,1,1.2-1.7H84a1.75,1.75,0,0,0,1.7-1.7v-.7Z"/></g></g></svg>