<svg xmlns="http://www.w3.org/2000/svg" viewBox="0 0 115.9 109.82"><defs><style>.cls-1{fill:#ffcd32;}</style></defs><title>資產 2</title><g id="圖層_2" data-name="圖層 2"><g id="圖層_1-2" data-name="圖層 1"><path class="cls-1" d="M57.3,37.51a2.69,2.69,0,0,1-2.7-2.7,1.27,1.27,0,0,1,.1-.6l.2-1.1a2.72,2.72,0,0,1,3.4-1.9,2.76,2.76,0,0,1,2,3.1l-.2,1.1A3,3,0,0,1,57.3,37.51Z"/><path class="cls-1" d="M58.7,34.31a5.48,5.48,0,0,1-5.5-5.5,5.42,5.42,0,0,1,5.5-5.5,5.5,5.5,0,1,1,0,11Z"/><path class="cls-1" d="M20.3,18.11c1.1-1.4,2.5-1.2,3.2.4l2.8,6.6a1.93,1.93,0,0,1-.7,2.6,2.66,2.66,0,0,1-1.2.3H15.8c-1.7,0-2.3-1.1-1.2-2.5Z"/><path class="cls-1" d="M39.2,27.21a2.42,2.42,0,0,0-2.5,2.2,2.6,2.6,0,0,1-2.7,2.2H14.9a2.91,2.91,0,0,0-2.8,2.6l-1.8,31.7a2.83,2.83,0,0,1-2.8,2.6H2.7A2.64,2.64,0,0,0,0,70.91a2.35,2.35,0,0,0,2.3,2.4h9.8a2.91,2.91,0,0,0,2.8-2.6l.5-9.6a2.81,2.81,0,0,1,2.7-2.6h9.6a2.59,2.59,0,0,1,2.5,2.4v.2l-.3,4.8-.3,5a2.35,2.35,0,0,0,2.3,2.4h4a2.64,2.64,0,0,0,2.7-2.4,2.21,2.21,0,0,0-1.9-2.4h-.1a2.27,2.27,0,0,1-2-2.5v-.1l.5-9.6a13,13,0,0,0,.1-2.6H28.3a2.11,2.11,0,0,1-2-2.2v-.1a2.61,2.61,0,0,1,2.7-2.3h3.9a2.91,2.91,0,0,0,2.8-2.6l.2-3.9A2.43,2.43,0,0,0,33.8,40h-.2a2.42,2.42,0,0,0-2.5,2.2,2.38,2.38,0,0,1-2.3,2.2,2.27,2.27,0,0,1-2-2.5v-.1L27,39a2.83,2.83,0,0,1,2.8-2.6h8.6a2.91,2.91,0,0,0,2.8-2.6l.2-3.9a2.43,2.43,0,0,0-2.1-2.6C39.3,27.21,39.3,27.21,39.2,27.21Z"/><path class="cls-1" d="M95.6,18.11c-1.1-1.4-2.5-1.2-3.2.4l-2.8,6.6a1.93,1.93,0,0,0,.7,2.6,2.66,2.66,0,0,0,1.2.3h8.6c1.7,0,2.3-1.1,1.2-2.5Z"/><path class="cls-1" d="M76.7,27.21a2.42,2.42,0,0,1,2.5,2.2,2.6,2.6,0,0,0,2.7,2.2H101a2.91,2.91,0,0,1,2.8,2.6l1.8,31.7a2.83,2.83,0,0,0,2.8,2.6h4.8a2.64,2.64,0,0,1,2.7,2.4,2.35,2.35,0,0,1-2.3,2.4h-9.7a2.91,2.91,0,0,1-2.8-2.6l-.5-9.6a2.83,2.83,0,0,0-2.8-2.6H88.2a2.59,2.59,0,0,0-2.5,2.4v.2l.3,4.8.3,5a2.35,2.35,0,0,1-2.3,2.4H80.1a2.64,2.64,0,0,1-2.7-2.4,2.21,2.21,0,0,1,1.9-2.4h.1a2.27,2.27,0,0,0,2-2.5v-.1l-.5-9.6a13,13,0,0,1-.1-2.6h6.9a2.11,2.11,0,0,0,2-2.2v-.1a2.61,2.61,0,0,0-2.7-2.3H83.1a2.91,2.91,0,0,1-2.8-2.6l-.2-3.9A2.43,2.43,0,0,1,82.2,40h.2a2.42,2.42,0,0,1,2.5,2.2,2.38,2.38,0,0,0,2.3,2.2,2.27,2.27,0,0,0,2-2.5v-.1L89,39a2.83,2.83,0,0,0-2.8-2.6H77.6a2.91,2.91,0,0,1-2.8-2.6l-.2-3.9a2.43,2.43,0,0,1,2.1-2.6C76.6,27.21,76.7,27.21,76.7,27.21Z"/><path class="cls-1" d="M50.7,16.11a1.78,1.78,0,0,1-1.6-1l-1.8-3.7a1.82,1.82,0,0,1,3.1-1.9.37.37,0,0,1,.1.3l1.8,3.7a1.89,1.89,0,0,1-.9,2.5C51.3,16.11,51,16.11,50.7,16.11Z"/><path class="cls-1" d="M60.6,47a1.83,1.83,0,0,1-1.8-1.6l-.3-2.3a1.88,1.88,0,0,1,1.7-2,1.75,1.75,0,0,1,1.9,1.4l.3,2.3a1.81,1.81,0,0,1-1.5,2.1h0Z"/><path class="cls-1" d="M68,19.91A1.82,1.82,0,0,1,66.2,18a1.93,1.93,0,0,1,.3-1l1.7-2.7a1.89,1.89,0,1,1,3.2,2L69.7,19A2.23,2.23,0,0,1,68,19.91Z"/><path class="cls-1" d="M47.5,30.31a1.79,1.79,0,0,1-1.8-1.8,1.9,1.9,0,0,1,.5-1.3,1.84,1.84,0,0,1,2.6,2.6A2.35,2.35,0,0,1,47.5,30.31Z"/><path class="cls-1" d="M60.7,12.91h-.2a2.11,2.11,0,0,1-1.8-2.3h0l1-8.8a2.07,2.07,0,1,1,4.1.5h0l-1,8.8A2.15,2.15,0,0,1,60.7,12.91Z"/><path class="cls-1" d="M71.1,54.91a2,2,0,0,1-1.9-1.3L67,47.91a2.09,2.09,0,0,1,3.9-1.5l2.2,5.7a2.07,2.07,0,0,1-1.2,2.7A2.2,2.2,0,0,1,71.1,54.91Z"/><path class="cls-1" d="M46.4,62.61a2.11,2.11,0,0,1-2.1-2.1,1.7,1.7,0,0,1,.1-.7l3.9-10.3A2.09,2.09,0,0,1,52.2,51l-3.9,10.3A2,2,0,0,1,46.4,62.61Z"/><path class="cls-1" d="M62.6,27.21a1.79,1.79,0,0,1-1.8-1.8,1.5,1.5,0,0,1,.4-1.1l.7-.9a1.86,1.86,0,0,1,3,2.2l-.7.9A2.93,2.93,0,0,1,62.6,27.21Z"/><path class="cls-1" d="M67.2,36.21a1.9,1.9,0,0,1-1.3-.5,1.84,1.84,0,1,1,2.6,0A2.11,2.11,0,0,1,67.2,36.21Z"/><path class="cls-1" d="M34.9,98.61a1.45,1.45,0,0,1,1.5-1.4h2.2a1.27,1.27,0,0,0,.5-2.5H34a1.6,1.6,0,0,0-1.5,1.4v12a1.45,1.45,0,0,0,1.5,1.4h5.5A1.27,1.27,0,1,0,40,107H36.5a1.6,1.6,0,0,1-1.5-1.4l-.1-7Z"/><path class="cls-1" d="M57.4,108.31a1.45,1.45,0,0,0,1.5,1.4h4.5a1.6,1.6,0,0,0,1.5-1.4V96.11a1.45,1.45,0,0,0-1.5-1.4H58.9a1.6,1.6,0,0,0-1.5,1.4ZM61.1,97a1.43,1.43,0,0,1,1.4,1.4v7.5a1.4,1.4,0,0,1-2.8,0h0v-7.5A1.43,1.43,0,0,1,61.1,97Z"/><path class="cls-1" d="M52.8,108.21a1.27,1.27,0,1,0,2.5.5V96.31a1.27,1.27,0,0,0-2.5-.5v12.4Z"/><path class="cls-1" d="M42.9,94.71a1.27,1.27,0,1,0-.5,2.5h1.2a1.6,1.6,0,0,1,1.5,1.4v9.6a1.27,1.27,0,1,0,2.5.5v-10a1.45,1.45,0,0,1,1.5-1.4H50a1.27,1.27,0,1,0,.5-2.5H42.9Z"/><path class="cls-1" d="M25.8,92.31a1.27,1.27,0,1,0-.5,2.5h1.2a1.6,1.6,0,0,1,1.5,1.4v3.3a1.45,1.45,0,0,1-1.5,1.4h-.8a1.6,1.6,0,0,1-1.5-1.4v-3.3a1.27,1.27,0,1,0-2.5-.5v12.5a1.27,1.27,0,0,0,2.5.5v-3.8a1.45,1.45,0,0,1,1.5-1.4h.8a1.6,1.6,0,0,1,1.5,1.4v3.4a1.27,1.27,0,0,0,2.5.5v-15a1.45,1.45,0,0,0-1.5-1.4H25.8Z"/><path class="cls-1" d="M76.6,96.41a1.33,1.33,0,1,0-2.5,0v5.3c0,1-.4,1.1-.9.2l-3.1-5.1a2.11,2.11,0,0,0-2-1.1,2.26,2.26,0,0,0-1.1,2.1v9.6a1.33,1.33,0,1,0,2.5,0v-4.8c0-1,.4-1.1.8-.2l3.3,5.8a1.88,1.88,0,0,0,2,1.2,2.17,2.17,0,0,0,1.1-2.1l-.1-10.9Z"/><path class="cls-1" d="M85.4,91.71a1.41,1.41,0,1,0-.4,2.8h2.4a1.58,1.58,0,0,1,1.6,1.6v1a1.58,1.58,0,0,1-1.6,1.6H85.5a1.58,1.58,0,0,0-1.6,1.6v7.4a1.58,1.58,0,0,0,1.6,1.6h4.6a1.41,1.41,0,1,0,.4-2.8H88.2a1.58,1.58,0,0,1-1.6-1.6V103a1.58,1.58,0,0,1,1.6-1.6h1.9a1.58,1.58,0,0,0,1.6-1.6v-6.4a1.58,1.58,0,0,0-1.6-1.6l-4.7-.1Z"/></g></g></svg>